<svg xmlns="http://www.w3.org/2000/svg" viewBox="0 0 2844 1600">
  <defs>
    <linearGradient id="lightning" x1="0" y1="0" x2="0" y2="1">
      <stop offset="0%" stop-color="#f59e0b"/>
      <stop offset="100%" stop-color="#be2edd"/>
    </linearGradient>
    <linearGradient id="streamA" x1="0" y1="0" x2="1" y2="0">
      <stop offset="0%" stop-color="#3b82f6" stop-opacity="0"/>
      <stop offset="50%" stop-color="#3b82f6"/>
      <stop offset="100%" stop-color="#3b82f6" stop-opacity="0"/>
    </linearGradient>
    <linearGradient id="streamB" x1="0" y1="0" x2="1" y2="0">
      <stop offset="0%" stop-color="#f59e0b" stop-opacity="0"/>
      <stop offset="50%" stop-color="#f59e0b"/>
      <stop offset="100%" stop-color="#f59e0b" stop-opacity="0"/>
    </linearGradient>
    <radialGradient id="hubGlow" cx="50%" cy="50%" r="50%">
      <stop offset="0%" stop-color="#f59e0b" stop-opacity="0.4"/>
      <stop offset="100%" stop-color="#1a1a1a" stop-opacity="0"/>
    </radialGradient>
  </defs>
  <rect fill="#1a1a1a" width="2844" height="1600"/>
  <g opacity="0.12">
    <path d="M0 0 C400 200, 800 0, 1200 200 S2000 0, 2844 200" fill="none" stroke="#3b82f6" stroke-width="120"/>
    <path d="M0 400 C400 600, 800 400, 1200 600 S2000 400, 2844 600" fill="none" stroke="#3b82f6" stroke-width="80"/>
    <path d="M0 800 C400 1000, 800 800, 1200 1000 S2000 800, 2844 1000" fill="none" stroke="#9b1fb8" stroke-width="60"/>
    <path d="M0 1200 C400 1400, 800 1200, 1200 1400 S2000 1200, 2844 1400" fill="none" stroke="#9b1fb8" stroke-width="40"/>
  </g>
  <rect x="0" y="0" width="2844" height="1600" fill="url(#hubGlow)" opacity="0.5"/>
  <g opacity="0.6">
    <path d="M-50 350 C300 280, 700 360, 1100 300 C1500 240, 1900 320, 2300 260 C2600 210, 2800 240, 2950 220" fill="none" stroke="url(#streamA)" stroke-width="8"/>
    <path d="M-50 700 C350 620, 750 700, 1150 640 C1550 580, 1950 660, 2350 600 C2650 550, 2850 580, 2950 560" fill="none" stroke="url(#streamA)" stroke-width="6"/>
    <path d="M-50 500 C300 440, 700 520, 1100 460 C1500 400, 1900 480, 2300 420 C2600 370, 2800 400, 2950 380" fill="none" stroke="url(#streamB)" stroke-width="8"/>
    <path d="M-50 900 C350 830, 750 910, 1150 850 C1550 790, 1950 870, 2350 810 C2650 760, 2850 790, 2950 770" fill="none" stroke="url(#streamB)" stroke-width="6"/>
  </g>
  <g transform="translate(1422, 800)">
    <polygon points="0,-220 190,110 -190,110" fill="none" stroke="#f59e0b" stroke-width="8" opacity="0.8"/>
    <polygon points="0,-150 130,75 -130,75" fill="#f59e0b" opacity="0.25"/>
    <circle cx="0" cy="0" r="50" fill="#f59e0b" opacity="0.9"/>
    <line x1="0" y1="-60" x2="0" y2="-220" stroke="#f59e0b" stroke-width="10" stroke-linecap="round" opacity="0.6"/>
    <line x1="0" y1="60" x2="0" y2="110" stroke="#f59e0b" stroke-width="6" stroke-linecap="round" opacity="0.6"/>
  </g>
  <g opacity="0.4">
    <rect x="300" y="550" width="180" height="220" rx="12" fill="none" stroke="#3b82f6" stroke-width="5"/>
    <path d="M320 590 L360 590 M320 615 L440 615 M320 640 L420 640 M320 665 L460 665 M320 690 L380 690" stroke="#3b82f6" stroke-width="4" stroke-linecap="round" fill="none"/>
    <rect x="2350" y="400" width="180" height="220" rx="12" fill="none" stroke="#be2edd" stroke-width="5"/>
    <path d="M2370 440 L2410 440 M2370 465 L2510 465 M2370 490 L2490 490 M2370 515 L2520 515 M2370 540 L2430 540" stroke="#be2edd" stroke-width="4" stroke-linecap="round" fill="none"/>
  </g>
  <g opacity="0.5">
    <path d="M480 660 C700 580, 1000 640, 1270 680" fill="none" stroke="#3b82f6" stroke-width="4" stroke-dasharray="12 8"/>
    <path d="M2350 510 C2100 460, 1800 500, 1580 680" fill="none" stroke="#be2edd" stroke-width="4" stroke-dasharray="12 8"/>
  </g>
  <g opacity="0.35">
    <path d="M400 1100 C600 1050, 900 1150, 1200 1080 C1500 1010, 1800 1100, 2100 1040 C2400 980, 2700 1060, 2950 1000" fill="none" stroke="#9b1fb8" stroke-width="30" stroke-linecap="round"/>
    <path d="M200 1280 C500 1230, 800 1330, 1100 1260 C1400 1190, 1700 1290, 2000 1220 C2300 1150, 2600 1250, 2950 1180" fill="none" stroke="#9b1fb8" stroke-width="20" stroke-linecap="round"/>
  </g>
</svg>
