<svg xmlns="http://www.w3.org/2000/svg" viewBox="0 0 2844 1600">
  <defs>
    <linearGradient id="glow" x1="0" y1="0" x2="1" y2="1">
      <stop offset="0" stop-color="#9b1fb8"/>
      <stop offset="1" stop-color="#be2edd"/>
    </linearGradient>
    <linearGradient id="cool" x1="0" y1="0" x2="1" y2="1">
      <stop offset="0" stop-color="#3b82f6"/>
      <stop offset="1" stop-color="#9b1fb8"/>
    </linearGradient>
    <linearGradient id="warmth" x1="0" y1="1" x2="1" y2="0">
      <stop offset="0" stop-color="#be2edd"/>
      <stop offset="1" stop-color="#f59e0b"/>
    </linearGradient>
    <radialGradient id="epicentre" cx="0.5" cy="0.5" r="0.5">
      <stop offset="0" stop-color="#f59e0b" stop-opacity="0.22"/>
      <stop offset="1" stop-color="#1a1a1a" stop-opacity="0"/>
    </radialGradient>
  </defs>
  <rect fill="#1a1a1a" width="2844" height="1600"/>
  <rect fill="url(#epicentre)" width="2844" height="1600"/>
  <g fill="none" stroke="#be2edd" stroke-linecap="round">
    <circle cx="1422" cy="800" r="120" stroke-width="8" opacity="0.55"/>
    <circle cx="1422" cy="800" r="240" stroke-width="5" opacity="0.4"/>
    <circle cx="1422" cy="800" r="380" stroke-width="4" opacity="0.3"/>
    <circle cx="1422" cy="800" r="540" stroke-width="3" opacity="0.22"/>
    <circle cx="1422" cy="800" r="720" stroke-width="2" opacity="0.16"/>
    <circle cx="1422" cy="800" r="920" stroke-width="1.5" opacity="0.1"/>
    <circle cx="1422" cy="800" r="1140" stroke-width="1" opacity="0.07"/>
  </g>
  <g opacity="0.45">
    <circle cx="1422" cy="800" r="70" fill="url(#warmth)"/>
    <circle cx="1422" cy="800" r="45" fill="#f59e0b" opacity="0.6"/>
  </g>
  <g stroke="#3b82f6" fill="none" stroke-linecap="round" opacity="0.3">
    <path d="M 1422 800 L 1422 200" stroke-width="6"/>
    <path d="M 1422 800 L 1422 1400" stroke-width="6"/>
    <path d="M 1422 800 L 820 800" stroke-width="6"/>
    <path d="M 1422 800 L 2024 800" stroke-width="6"/>
    <path d="M 1422 800 L 1000 378" stroke-width="4"/>
    <path d="M 1422 800 L 1844 378" stroke-width="4"/>
    <path d="M 1422 800 L 1000 1222" stroke-width="4"/>
    <path d="M 1422 800 L 1844 1222" stroke-width="4"/>
  </g>
  <g opacity="0.25">
    <circle cx="1422" cy="200" r="22" fill="#3b82f6"/>
    <circle cx="1422" cy="1400" r="22" fill="#3b82f6"/>
    <circle cx="820" cy="800" r="22" fill="#3b82f6"/>
    <circle cx="2024" cy="800" r="22" fill="#3b82f6"/>
    <circle cx="1000" cy="378" r="18" fill="#9b1fb8"/>
    <circle cx="1844" cy="378" r="18" fill="#9b1fb8"/>
    <circle cx="1000" cy="1222" r="18" fill="#9b1fb8"/>
    <circle cx="1844" cy="1222" r="18" fill="#9b1fb8"/>
  </g>
  <g transform="rotate(-4 400 400)" opacity="0.15">
    <path d="M -200 600 C 200 400, 600 500, 900 350 C 1100 260, 1200 300, 1200 500" fill="url(#cool)"/>
  </g>
  <g transform="rotate(3 2400 1200)" opacity="0.15">
    <path d="M 2100 1000 C 2300 900, 2500 950, 2700 850 C 2850 780, 2900 800, 2900 1000 L 2900 1700 L 2100 1700 Z" fill="url(#glow)"/>
  </g>
  <path d="M -100 1450 C 500 1350, 1000 1400, 1422 1340 S 2000 1280, 2900 1340" fill="none" stroke="#e0e0e0" stroke-width="2" opacity="0.08" stroke-linecap="round"/>
</svg>
