<svg xmlns="http://www.w3.org/2000/svg" viewBox="0 0 2844 1600">
  <defs>
    <linearGradient id="ext-wave" x1="0" y1="0" x2="1" y2="0">
      <stop offset="0" stop-color="#9b1fb8"/>
      <stop offset="0.4" stop-color="#be2edd"/>
      <stop offset="0.7" stop-color="#3b82f6"/>
      <stop offset="1" stop-color="#f59e0b"/>
    </linearGradient>
    <linearGradient id="ext-bg" x1="0" y1="0" x2="0" y2="1">
      <stop offset="0" stop-color="#be2edd" stop-opacity="0.12"/>
      <stop offset="1" stop-color="#9b1fb8" stop-opacity="0.08"/>
    </linearGradient>
    <radialGradient id="ext-pulse" cx="0.5" cy="0.5" r="0.5">
      <stop offset="0" stop-color="#f59e0b" stop-opacity="0.2"/>
      <stop offset="1" stop-color="#1a1a1a" stop-opacity="0"/>
    </radialGradient>
  </defs>
  <rect fill="#1a1a1a" width="2844" height="1600"/>
  <rect fill="url(#ext-bg)" width="2844" height="1600"/>
  <rect fill="url(#ext-pulse)" width="2844" height="1600"/>
  <g transform="rotate(-3 1422 800)" opacity="0.6">
    <path d="M -100 350 C 150 280, 300 420, 450 350 S 700 220, 900 350 S 1150 480, 1350 350 S 1600 220, 1800 350 S 2050 480, 2250 350 S 2500 220, 2700 350 S 2900 440, 2944 380" fill="none" stroke="url(#ext-wave)" stroke-width="4" stroke-linecap="round"/>
  </g>
  <g transform="rotate(-1 1422 800)" opacity="0.45">
    <path d="M -100 500 C 200 380, 400 620, 600 500 S 900 340, 1100 500 S 1400 660, 1600 500 S 1900 340, 2100 500 S 2400 660, 2600 500 S 2800 420, 2944 460" fill="none" stroke="url(#ext-wave)" stroke-width="7" stroke-linecap="round"/>
  </g>
  <g opacity="0.35">
    <path d="M -100 650 C 180 540, 350 760, 520 650 S 780 490, 950 650 S 1200 810, 1380 650 S 1640 490, 1820 650 S 2080 810, 2260 650 S 2500 520, 2650 650 S 2820 750, 2944 700" fill="none" stroke="#be2edd" stroke-width="10" stroke-linecap="round"/>
  </g>
  <g opacity="0.25">
    <path d="M -100 800 C 200 640, 420 960, 640 800 S 1000 580, 1220 800 S 1560 1020, 1780 800 S 2100 580, 2320 800 S 2640 1000, 2844 900" fill="none" stroke="#9b1fb8" stroke-width="14" stroke-linecap="round"/>
  </g>
  <g opacity="0.18">
    <path d="M -100 950 C 250 740, 500 1160, 750 950 S 1150 680, 1400 950 S 1800 1220, 2050 950 S 2400 700, 2650 950 S 2844 1120, 2944 1050" fill="none" stroke="#3b82f6" stroke-width="18" stroke-linecap="round"/>
  </g>
  <g opacity="0.12">
    <path d="M -100 1100 C 300 840, 600 1360, 900 1100 S 1300 780, 1600 1100 S 2000 1420, 2300 1100 S 2650 820, 2844 1050" fill="none" stroke="#3b82f6" stroke-width="24" stroke-linecap="round"/>
  </g>
  <g opacity="0.08">
    <path d="M -100 1250 C 350 940, 700 1560, 1050 1250 S 1450 880, 1800 1250 S 2150 1620, 2500 1250 C 2700 1100, 2844 1200, 2944 1180" fill="none" stroke="#be2edd" stroke-width="30" stroke-linecap="round"/>
  </g>
  <g fill="#f59e0b" opacity="0.6">
    <circle cx="450" cy="350" r="8"/>
    <circle cx="900" cy="350" r="10"/>
    <circle cx="1350" cy="350" r="8"/>
    <circle cx="1800" cy="350" r="10"/>
    <circle cx="2250" cy="350" r="8"/>
    <circle cx="600" cy="500" r="7"/>
    <circle cx="1100" cy="500" r="9"/>
    <circle cx="1600" cy="500" r="7"/>
    <circle cx="2100" cy="500" r="9"/>
  </g>
  <g stroke="#f59e0b" fill="none" stroke-linecap="round" opacity="0.25">
    <path d="M 100 200 C 150 180, 200 190, 250 200" stroke-width="3"/>
    <path d="M 100 230 C 180 210, 260 220, 340 230" stroke-width="2.5"/>
    <path d="M 100 260 C 160 240, 230 250, 310 260" stroke-width="2"/>
    <path d="M 100 290 C 180 270, 280 280, 380 290" stroke-width="2"/>
  </g>
  <g stroke="#f59e0b" fill="none" stroke-linecap="round" opacity="0.25">
    <path d="M 2500 1380 C 2580 1360, 2660 1370, 2744 1380" stroke-width="3"/>
    <path d="M 2500 1410 C 2600 1390, 2700 1400, 2800 1410" stroke-width="2.5"/>
    <path d="M 2500 1440 C 2580 1420, 2660 1430, 2760 1440" stroke-width="2"/>
  </g>
</svg>
