<svg xmlns="http://www.w3.org/2000/svg" viewBox="0 0 2844 1600">
  <defs>
    <linearGradient id="glow" x1="0" y1="0" x2="1" y2="1">
      <stop offset="0" stop-color="#9b1fb8"/>
      <stop offset="1" stop-color="#be2edd"/>
    </linearGradient>
    <linearGradient id="cool" x1="0" y1="0" x2="1" y2="1">
      <stop offset="0" stop-color="#3b82f6"/>
      <stop offset="1" stop-color="#9b1fb8"/>
    </linearGradient>
    <linearGradient id="warmth" x1="0" y1="1" x2="1" y2="0">
      <stop offset="0" stop-color="#be2edd"/>
      <stop offset="1" stop-color="#f59e0b"/>
    </linearGradient>
    <radialGradient id="haze-c" cx="0.5" cy="0.5" r="0.6">
      <stop offset="0" stop-color="#3b82f6" stop-opacity="0.1"/>
      <stop offset="1" stop-color="#1a1a1a" stop-opacity="0"/>
    </radialGradient>
  </defs>
  <rect fill="#1a1a1a" width="2844" height="1600"/>
  <rect fill="url(#haze-c)" width="2844" height="1600"/>
  <g transform="rotate(-2 1422 800)" opacity="0.2">
    <rect x="200" y="220" width="2444" height="1160" rx="30" fill="none" stroke="#3b82f6" stroke-width="4"/>
    <rect x="220" y="240" width="1160" height="540" rx="20" fill="url(#cool)"/>
    <rect x="1430" y="240" width="1194" height="540" rx="20" fill="url(#glow)"/>
    <rect x="220" y="830" width="560" height="520" rx="20" fill="#3b82f6" opacity="0.5"/>
    <rect x="830" y="830" width="560" height="520" rx="20" fill="#9b1fb8" opacity="0.5"/>
    <rect x="1440" y="830" width="560" height="520" rx="20" fill="#be2edd" opacity="0.5"/>
    <rect x="2050" y="830" width="574" height="520" rx="20" fill="#3b82f6" opacity="0.4"/>
  </g>
  <g opacity="0.35">
    <circle cx="700" cy="510" r="60" fill="#3b82f6" opacity="0.3"/>
    <circle cx="700" cy="510" r="90" fill="none" stroke="#3b82f6" stroke-width="3" opacity="0.3"/>
    <circle cx="1422" cy="510" r="75" fill="#be2edd" opacity="0.3"/>
    <circle cx="1422" cy="510" r="110" fill="none" stroke="#be2edd" stroke-width="3" opacity="0.3"/>
    <circle cx="2150" cy="510" r="60" fill="#9b1fb8" opacity="0.3"/>
    <circle cx="2150" cy="510" r="90" fill="none" stroke="#9b1fb8" stroke-width="3" opacity="0.3"/>
  </g>
  <g stroke="#be2edd" fill="none" stroke-linecap="round" opacity="0.25">
    <path d="M 700 510 C 1000 480, 1200 490, 1422 510" stroke-width="5"/>
    <path d="M 1422 510 C 1650 530, 1900 520, 2150 510" stroke-width="5"/>
    <path d="M 700 510 C 900 700, 1000 900, 500 1090" stroke-width="3"/>
    <path d="M 2150 510 C 1950 700, 1850 900, 2350 1090" stroke-width="3"/>
    <path d="M 1422 510 C 1300 700, 1100 900, 900 1090" stroke-width="3"/>
    <path d="M 1422 510 C 1540 700, 1700 900, 1900 1090" stroke-width="3"/>
  </g>
  <g opacity="0.25">
    <circle cx="500" cy="1090" r="30" fill="#f59e0b"/>
    <circle cx="900" cy="1090" r="30" fill="#f59e0b"/>
    <circle cx="1200" cy="1090" r="25" fill="#3b82f6"/>
    <circle cx="1650" cy="1090" r="25" fill="#3b82f6"/>
    <circle cx="1900" cy="1090" r="30" fill="#f59e0b"/>
    <circle cx="2350" cy="1090" r="30" fill="#be2edd"/>
  </g>
  <g opacity="0.18">
    <path d="M 300 1350 C 600 1300, 900 1330, 1200 1290 S 1600 1260, 1900 1290 S 2250 1260, 2600 1290" fill="none" stroke="#f59e0b" stroke-width="4" stroke-linecap="round"/>
    <path d="M 200 1470 C 550 1420, 900 1450, 1250 1420 S 1650 1390, 2000 1420 S 2400 1390, 2700 1410" fill="none" stroke="#f59e0b" stroke-width="2.5" stroke-linecap="round"/>
  </g>
  <path d="M -100 1520 C 400 1460, 900 1490, 1422 1440 S 2100 1390, 2900 1430 L 2900 1700 L -100 1700 Z" fill="url(#cool)" opacity="0.1"/>
</svg>
