<svg xmlns="http://www.w3.org/2000/svg" viewBox="0 0 2844 1600">
  <defs>
    <radialGradient id="panic-btn" cx="0.5" cy="0.5" r="0.5">
      <stop offset="0" stop-color="#f59e0b" stop-opacity="0.9"/>
      <stop offset="0.6" stop-color="#be2edd" stop-opacity="0.4"/>
      <stop offset="1" stop-color="#1a1a1a" stop-opacity="0"/>
    </radialGradient>
    <linearGradient id="code-flow" x1="0" y1="0" x2="1" y2="1">
      <stop offset="0" stop-color="#3b82f6"/>
      <stop offset="1" stop-color="#9b1fb8"/>
    </linearGradient>
    <radialGradient id="burst" cx="0.5" cy="0.5" r="0.5">
      <stop offset="0" stop-color="#be2edd" stop-opacity="0.5"/>
      <stop offset="1" stop-color="#be2edd" stop-opacity="0"/>
    </radialGradient>
  </defs>
  <rect fill="#1a1a1a" width="2844" height="1600"/>
  <g opacity="0.6">
    <path d="M -100 300 C 400 280 600 350 900 300 C 1200 250 1500 380 1800 320 C 2100 260 2500 340 2950 300" fill="none" stroke="#3b82f6" stroke-width="1.5"/>
    <path d="M -100 420 C 300 400 700 470 1000 410 C 1300 350 1600 440 1900 400 C 2200 360 2600 430 2950 410" fill="none" stroke="#9b1fb8" stroke-width="1.5"/>
    <path d="M -100 540 C 400 520 600 590 1100 530 C 1500 480 1700 560 2100 510 C 2400 470 2700 540 2950 520" fill="none" stroke="#3b82f6" stroke-width="1.5"/>
    <path d="M -100 660 C 350 640 750 710 1050 650 C 1350 590 1700 680 2000 620 C 2300 560 2600 640 2950 620" fill="none" stroke="#be2edd" stroke-width="2"/>
    <path d="M -100 780 C 450 760 750 830 1100 770 C 1450 710 1750 790 2050 730 C 2350 670 2650 760 2950 740" fill="none" stroke="#9b1fb8" stroke-width="1.5"/>
    <path d="M -100 900 C 400 880 700 950 1050 890 C 1400 830 1700 910 2000 850 C 2300 790 2700 880 2950 860" fill="none" stroke="#3b82f6" stroke-width="1.5"/>
    <path d="M -100 1020 C 350 1000 750 1070 1100 1010 C 1450 950 1700 1030 2000 980 C 2300 930 2650 1010 2950 990" fill="none" stroke="#be2edd" stroke-width="1.5"/>
    <path d="M -100 1140 C 450 1120 750 1190 1100 1130 C 1450 1070 1800 1150 2100 1100 C 2400 1050 2700 1130 2950 1110" fill="none" stroke="#9b1fb8" stroke-width="1.5"/>
    <path d="M -100 1260 C 400 1240 750 1310 1100 1250 C 1450 1190 1750 1270 2100 1210 C 2400 1150 2700 1260 2950 1240" fill="none" stroke="#3b82f6" stroke-width="1.5"/>
  </g>
  <ellipse cx="1422" cy="750" rx="700" ry="600" fill="url(#panic-btn)"/>
  <ellipse cx="1422" cy="750" rx="500" ry="430" fill="url(#burst)"/>
  <circle cx="1422" cy="750" r="220" fill="#1a1a1a" stroke="#be2edd" stroke-width="6" opacity="0.9"/>
  <circle cx="1422" cy="750" r="185" fill="#9b1fb8" opacity="0.7"/>
  <circle cx="1422" cy="750" r="155" fill="#be2edd" opacity="0.5"/>
  <circle cx="1380" cy="720" r="100" fill="#f59e0b" opacity="0.25"/>
  <g fill="#f59e0b" font-family="monospace" font-size="90" font-weight="bold" opacity="0.9">
    <text x="1290" y="790" text-anchor="middle">!</text>
  </g>
  <g opacity="0.6" stroke="#f59e0b" stroke-width="2" fill="none">
    <circle cx="1422" cy="750" r="280"/>
    <circle cx="1422" cy="750" r="380"/>
    <circle cx="1422" cy="750" r="490"/>
    <circle cx="1422" cy="750" r="620"/>
  </g>
  <g fill="#3b82f6" opacity="0.8">
    <rect x="80" y="400" width="280" height="22" rx="4" opacity="0.7"/>
    <rect x="80" y="440" width="200" height="22" rx="4" opacity="0.5"/>
    <rect x="80" y="480" width="240" height="22" rx="4" opacity="0.6"/>
    <rect x="80" y="520" width="180" height="22" rx="4" opacity="0.4"/>
    <rect x="80" y="560" width="260" height="22" rx="4" opacity="0.7"/>
    <rect x="80" y="600" width="160" height="22" rx="4" opacity="0.5"/>
    <rect x="2484" y="400" width="280" height="22" rx="4" opacity="0.7"/>
    <rect x="2524" y="440" width="240" height="22" rx="4" opacity="0.5"/>
    <rect x="2504" y="480" width="200" height="22" rx="4" opacity="0.6"/>
    <rect x="2544" y="520" width="160" height="22" rx="4" opacity="0.4"/>
    <rect x="2484" y="560" width="280" height="22" rx="4" opacity="0.7"/>
    <rect x="2524" y="600" width="200" height="22" rx="4" opacity="0.5"/>
  </g>
</svg>
