<svg xmlns="http://www.w3.org/2000/svg" viewBox="0 0 2844 1600">
  <defs>
    <linearGradient id="sky" x1="0" y1="0" x2="0" y2="1">
      <stop offset="0" stop-color="#3b82f6" stop-opacity="0.2"/>
      <stop offset="1" stop-color="#1a1a1a" stop-opacity="0"/>
    </linearGradient>
    <linearGradient id="utopia" x1="0" y1="0" x2="1" y2="1">
      <stop offset="0" stop-color="#3b82f6"/>
      <stop offset="1" stop-color="#f59e0b"/>
    </linearGradient>
    <linearGradient id="dystopia" x1="1" y1="0" x2="0" y2="1">
      <stop offset="0" stop-color="#9b1fb8"/>
      <stop offset="1" stop-color="#be2edd"/>
    </linearGradient>
    <radialGradient id="centre" cx="0.5" cy="0.5" r="0.5">
      <stop offset="0" stop-color="#e0e0e0" stop-opacity="0.18"/>
      <stop offset="1" stop-color="#e0e0e0" stop-opacity="0"/>
    </radialGradient>
  </defs>
  <rect fill="#1a1a1a" width="2844" height="1600"/>
  <rect fill="url(#sky)" width="2844" height="1600"/>
  <ellipse cx="1422" cy="800" rx="900" ry="700" fill="url(#centre)"/>
  <g opacity="0.55">
    <path d="M 1422 800 C 900 400 200 300 -100 600" fill="none" stroke="url(#dystopia)" stroke-width="4"/>
    <path d="M 1422 800 C 800 350 100 200 -200 350" fill="none" stroke="#9b1fb8" stroke-width="2.5" opacity="0.5"/>
    <path d="M 1422 800 C 900 550 300 500 -50 700" fill="none" stroke="#be2edd" stroke-width="2" opacity="0.4"/>
  </g>
  <g opacity="0.55">
    <path d="M 1422 800 C 1900 400 2600 280 2950 550" fill="none" stroke="url(#utopia)" stroke-width="4"/>
    <path d="M 1422 800 C 2000 320 2700 180 3050 400" fill="none" stroke="#3b82f6" stroke-width="2.5" opacity="0.5"/>
    <path d="M 1422 800 C 1900 550 2500 480 2900 680" fill="none" stroke="#f59e0b" stroke-width="2" opacity="0.4"/>
  </g>
  <g opacity="0.3">
    <path d="M 1422 800 C 1200 1200 800 1350 400 1600" fill="none" stroke="#3b82f6" stroke-width="3"/>
    <path d="M 1422 800 C 1600 1200 2000 1380 2400 1620" fill="none" stroke="#be2edd" stroke-width="3"/>
    <path d="M 1422 800 C 1350 1100 1200 1450 1000 1700" fill="none" stroke="#9b1fb8" stroke-width="2"/>
    <path d="M 1422 800 C 1500 1100 1650 1430 1800 1700" fill="none" stroke="#f59e0b" stroke-width="2"/>
  </g>
  <g fill="none" stroke="#e0e0e0" stroke-opacity="0.1">
    <circle cx="1422" cy="800" r="200"/>
    <circle cx="1422" cy="800" r="400"/>
    <circle cx="1422" cy="800" r="600"/>
    <circle cx="1422" cy="800" r="820"/>
  </g>
  <circle cx="1422" cy="800" r="48" fill="#e0e0e0" opacity="0.9"/>
  <circle cx="1422" cy="800" r="32" fill="#1a1a1a"/>
  <circle cx="1422" cy="800" r="14" fill="#e0e0e0" opacity="0.7"/>
  <g opacity="0.8">
    <circle cx="350" cy="560" r="28" fill="#9b1fb8"/>
    <circle cx="200" cy="420" r="18" fill="#be2edd" opacity="0.6"/>
    <circle cx="480" cy="690" r="20" fill="#9b1fb8" opacity="0.7"/>
    <circle cx="2500" cy="540" r="28" fill="#3b82f6"/>
    <circle cx="2680" cy="400" r="18" fill="#f59e0b" opacity="0.6"/>
    <circle cx="2360" cy="680" r="20" fill="#3b82f6" opacity="0.7"/>
  </g>
  <g stroke="#e0e0e0" stroke-opacity="0.08" stroke-width="1" fill="none">
    <line x1="0" y1="800" x2="2844" y2="800"/>
    <line x1="1422" y1="0" x2="1422" y2="1600"/>
  </g>
  <path d="M 600 800 Q 900 780 1180 800 Q 1300 808 1422 800 Q 1550 792 1680 800 Q 2000 820 2200 800" fill="none" stroke="#f59e0b" stroke-width="2.5" opacity="0.4"/>
</svg>
