<svg xmlns="http://www.w3.org/2000/svg" viewBox="0 0 2844 1600">
  <defs>
    <linearGradient id="purple" x1="0%" y1="0%" x2="100%" y2="100%">
      <stop offset="0%" stop-color="#be2edd"/>
      <stop offset="100%" stop-color="#9b1fb8"/>
    </linearGradient>
    <linearGradient id="blue" x1="0%" y1="0%" x2="100%" y2="100%">
      <stop offset="0%" stop-color="#3b82f6"/>
      <stop offset="100%" stop-color="#3b82f6"/>
    </linearGradient>
    <linearGradient id="amber" x1="0%" y1="0%" x2="100%" y2="100%">
      <stop offset="0%" stop-color="#f59e0b"/>
      <stop offset="100%" stop-color="#f59e0b"/>
    </linearGradient>
    <linearGradient id="billboard-bg" x1="0%" y1="0%" x2="100%" y2="100%">
      <stop offset="0%" stop-color="#be2edd" stop-opacity="0.15"/>
      <stop offset="100%" stop-color="#3b82f6" stop-opacity="0.08"/>
    </linearGradient>
    <linearGradient id="ground" x1="0%" y1="0%" x2="0%" y2="100%">
      <stop offset="0%" stop-color="#3b82f6" stop-opacity="0.1"/>
      <stop offset="100%" stop-color="#1a1a1a" stop-opacity="0"/>
    </linearGradient>
  </defs>
  <rect fill="#1a1a1a" width="2844" height="1600"/>
  <rect x="0" y="1100" width="2844" height="500" fill="url(#ground)"/>
  <g opacity="0.1">
    <line x1="0" y1="0" x2="2844" y2="1600" stroke="#e0e0e0" stroke-width="1"/>
    <line x1="2844" y1="0" x2="0" y2="1600" stroke="#e0e0e0" stroke-width="1"/>
    <line x1="1422" y1="0" x2="1422" y2="1600" stroke="#e0e0e0" stroke-width="1"/>
    <line x1="0" y1="800" x2="2844" y2="800" stroke="#e0e0e0" stroke-width="1"/>
  </g>
  <g transform="rotate(-2, 1422, 700)">
    <rect x="500" y="200" width="1844" height="900" rx="8" fill="url(#billboard-bg)" stroke="#e0e0e0" stroke-width="3" opacity="0.5"/>
    <rect x="520" y="220" width="1804" height="860" rx="4" fill="none" stroke="#e0e0e0" stroke-width="1" opacity="0.2"/>
    <rect x="1200" y="1100" width="20" height="300" fill="#e0e0e0" opacity="0.3"/>
    <text x="700" y="580" font-family="sans-serif" font-size="180" font-weight="bold" fill="#f59e0b" opacity="0.75">VERB</text>
    <text x="700" y="780" font-family="sans-serif" font-size="120" font-style="italic" fill="#e0e0e0" opacity="0.5">your</text>
    <text x="1500" y="780" font-family="sans-serif" font-size="180" font-weight="bold" fill="#be2edd" opacity="0.75">VERB</text>
  </g>
  <g opacity="0.4">
    <path d="M 0 1350 C 500 1300 1000 1400 1500 1320 S 2200 1250 2844 1350" stroke="#3b82f6" stroke-width="2" fill="none"/>
    <path d="M 0 1450 C 600 1380 1200 1500 1800 1400 S 2400 1320 2844 1450" stroke="#9b1fb8" stroke-width="2" fill="none"/>
  </g>
  <g opacity="0.6">
    <rect x="80" y="350" width="280" height="180" rx="4" fill="url(#billboard-bg)" stroke="#3b82f6" stroke-width="2" opacity="0.6"/>
    <text x="220" y="465" font-family="sans-serif" font-size="54" font-weight="bold" fill="#3b82f6" text-anchor="middle" opacity="0.7">think</text>
  </g>
  <g opacity="0.5">
    <rect x="2480" y="280" width="300" height="180" rx="4" fill="url(#billboard-bg)" stroke="#be2edd" stroke-width="2" opacity="0.6"/>
    <text x="2630" y="395" font-family="sans-serif" font-size="54" font-weight="bold" fill="#be2edd" text-anchor="middle" opacity="0.7">dream</text>
  </g>
  <g opacity="0.45">
    <circle cx="300" cy="1100" r="8" fill="#f59e0b"/>
    <circle cx="2500" cy="1050" r="8" fill="#f59e0b"/>
    <circle cx="1422" cy="30" r="6" fill="#e0e0e0"/>
  </g>
</svg>
