<svg xmlns="http://www.w3.org/2000/svg" viewBox="0 0 2844 1600">
  <defs>
    <linearGradient id="stage-grad" x1="0%" y1="0%" x2="0%" y2="100%">
      <stop offset="0%" stop-color="#9b1fb8" stop-opacity="0.6"/>
      <stop offset="100%" stop-color="#1a1a1a" stop-opacity="0"/>
    </linearGradient>
    <radialGradient id="spotlight1" cx="30%" cy="20%" r="45%">
      <stop offset="0%" stop-color="#f59e0b" stop-opacity="0.35"/>
      <stop offset="100%" stop-color="#1a1a1a" stop-opacity="0"/>
    </radialGradient>
    <radialGradient id="spotlight2" cx="70%" cy="15%" r="40%">
      <stop offset="0%" stop-color="#3b82f6" stop-opacity="0.25"/>
      <stop offset="100%" stop-color="#1a1a1a" stop-opacity="0"/>
    </radialGradient>
    <radialGradient id="spotlight3" cx="50%" cy="10%" r="35%">
      <stop offset="0%" stop-color="#be2edd" stop-opacity="0.2"/>
      <stop offset="100%" stop-color="#1a1a1a" stop-opacity="0"/>
    </radialGradient>
  </defs>
  <rect fill="#1a1a1a" width="2844" height="1600"/>
  <rect fill="url(#spotlight1)" width="2844" height="1600"/>
  <rect fill="url(#spotlight2)" width="2844" height="1600"/>
  <rect fill="url(#spotlight3)" width="2844" height="1600"/>
  <g opacity="0.7">
    <line x1="850" y1="-50" x2="600" y2="1100" stroke="#f59e0b" stroke-width="3" opacity="0.3"/>
    <line x1="1100" y1="-50" x2="800" y2="1100" stroke="#f59e0b" stroke-width="2" opacity="0.2"/>
    <line x1="1400" y1="-50" x2="1200" y2="1100" stroke="#be2edd" stroke-width="3" opacity="0.25"/>
    <line x1="1700" y1="-50" x2="1550" y2="1100" stroke="#be2edd" stroke-width="2" opacity="0.15"/>
    <line x1="2000" y1="-50" x2="1900" y2="1100" stroke="#3b82f6" stroke-width="3" opacity="0.3"/>
    <line x1="2200" y1="-50" x2="2150" y2="1100" stroke="#3b82f6" stroke-width="2" opacity="0.2"/>
  </g>
  <g opacity="0.18">
    <path d="M0,900 C400,800 800,1000 1200,880 C1600,760 2000,950 2844,850 L2844,1700 L0,1700 Z" fill="#3b82f6"/>
  </g>
  <g opacity="0.12">
    <path d="M0,1000 C500,920 1000,1080 1500,980 C2000,880 2400,1050 2844,950 L2844,1700 L0,1700 Z" fill="#be2edd"/>
  </g>
  <g>
    <rect x="500" y="900" width="80" height="160" rx="6" fill="#e0e0e0" opacity="0.15"/>
    <rect x="520" y="860" width="40" height="50" rx="4" fill="#3b82f6" opacity="0.5"/>
    <circle cx="540" cy="840" r="25" fill="#e0e0e0" opacity="0.2"/>
    <rect x="800" y="880" width="80" height="180" rx="6" fill="#e0e0e0" opacity="0.12"/>
    <rect x="820" y="840" width="40" height="50" rx="4" fill="#be2edd" opacity="0.5"/>
    <circle cx="840" cy="820" r="25" fill="#e0e0e0" opacity="0.18"/>
    <rect x="1100" y="870" width="80" height="190" rx="6" fill="#e0e0e0" opacity="0.15"/>
    <rect x="1120" y="830" width="40" height="50" rx="4" fill="#f59e0b" opacity="0.5"/>
    <circle cx="1140" cy="810" r="25" fill="#e0e0e0" opacity="0.2"/>
    <rect x="1600" y="890" width="80" height="170" rx="6" fill="#e0e0e0" opacity="0.12"/>
    <rect x="1620" y="850" width="40" height="50" rx="4" fill="#3b82f6" opacity="0.5"/>
    <circle cx="1640" cy="830" r="25" fill="#e0e0e0" opacity="0.18"/>
    <rect x="1900" y="875" width="80" height="185" rx="6" fill="#e0e0e0" opacity="0.15"/>
    <rect x="1920" y="835" width="40" height="50" rx="4" fill="#9b1fb8" opacity="0.5"/>
    <circle cx="1940" cy="815" r="25" fill="#e0e0e0" opacity="0.2"/>
    <rect x="2200" y="895" width="80" height="165" rx="6" fill="#e0e0e0" opacity="0.12"/>
    <rect x="2220" y="855" width="40" height="50" rx="4" fill="#be2edd" opacity="0.5"/>
    <circle cx="2240" cy="835" r="25" fill="#e0e0e0" opacity="0.15"/>
  </g>
  <g opacity="0.5">
    <path d="M400,750 C500,720 520,740 600,710 C680,680 700,700 780,670" stroke="#f59e0b" stroke-width="3" fill="none"/>
    <path d="M900,730 C1000,700 1020,720 1100,690 C1180,660 1200,680 1280,650" stroke="#be2edd" stroke-width="3" fill="none"/>
    <path d="M1400,740 C1500,710 1520,730 1600,700 C1680,670 1700,690 1800,660" stroke="#3b82f6" stroke-width="3" fill="none"/>
    <path d="M1950,725 C2050,695 2070,715 2150,685 C2230,655 2250,675 2350,645" stroke="#9b1fb8" stroke-width="3" fill="none"/>
  </g>
  <path d="M0,1100 L2844,1100" stroke="#e0e0e0" stroke-width="1" opacity="0.08"/>
  <g opacity="0.6">
    <circle cx="540" cy="300" r="8" fill="#f59e0b"/>
    <circle cx="1140" cy="250" r="6" fill="#be2edd"/>
    <circle cx="1640" cy="280" r="8" fill="#3b82f6"/>
    <circle cx="2240" cy="260" r="6" fill="#f59e0b"/>
    <path d="M540,308 L540,900" stroke="#f59e0b" stroke-width="1" opacity="0.15" stroke-dasharray="8,12"/>
    <path d="M1140,256 L1140,870" stroke="#be2edd" stroke-width="1" opacity="0.15" stroke-dasharray="8,12"/>
    <path d="M1640,288 L1640,890" stroke="#3b82f6" stroke-width="1" opacity="0.15" stroke-dasharray="8,12"/>
  </g>
</svg>
