<svg xmlns="http://www.w3.org/2000/svg" viewBox="0 0 2844 1600">
  <defs>
    <linearGradient id="waveA" x1="0" y1="0" x2="1" y2="0">
      <stop offset="0" stop-color="#be2edd"/>
      <stop offset="0.5" stop-color="#f59e0b"/>
      <stop offset="1" stop-color="#3b82f6"/>
    </linearGradient>
    <linearGradient id="waveB" x1="0" y1="0" x2="1" y2="0">
      <stop offset="0" stop-color="#3b82f6"/>
      <stop offset="0.5" stop-color="#9b1fb8"/>
      <stop offset="1" stop-color="#be2edd"/>
    </linearGradient>
    <linearGradient id="waveC" x1="0" y1="0" x2="1" y2="0">
      <stop offset="0" stop-color="#9b1fb8"/>
      <stop offset="0.5" stop-color="#3b82f6"/>
      <stop offset="1" stop-color="#f59e0b"/>
    </linearGradient>
    <linearGradient id="base" x1="0" y1="0" x2="0" y2="1">
      <stop offset="0" stop-color="#9b1fb8"/>
      <stop offset="1" stop-color="#1a1a1a"/>
    </linearGradient>
  </defs>
  <rect fill="#1a1a1a" width="2844" height="1600"/>
  <path d="M -100 1450 C 300 1320, 700 1400, 1100 1360 S 1700 1280, 2100 1340 S 2600 1420, 2944 1340 L 2944 1700 L -100 1700 Z" fill="url(#base)" opacity="0.7"/>
  <g transform="rotate(-2 1422 800)">
    <path d="M -100 600 C 80 540, 160 580, 240 520 S 320 460, 400 520 S 480 580, 560 520 S 640 460, 720 520 S 800 580, 880 520 S 960 460, 1040 520 S 1120 580, 1200 520 S 1280 460, 1360 520 S 1440 580, 1520 520 S 1600 460, 1680 520 S 1760 580, 1840 520 S 1920 460, 2000 520 S 2080 580, 2160 520 S 2240 460, 2320 520 S 2400 580, 2480 520 S 2560 460, 2640 520 S 2720 580, 2944 500" stroke="url(#waveA)" stroke-width="4" fill="none" opacity="0.8"/>
  </g>
  <g transform="rotate(3 1422 800)">
    <path d="M -100 700 C 80 630, 200 680, 360 600 S 520 540, 600 620 S 680 700, 840 620 S 1000 540, 1080 620 S 1160 700, 1320 620 S 1480 540, 1560 620 S 1640 700, 1800 620 S 1960 540, 2040 620 S 2120 700, 2280 620 S 2440 540, 2520 620 S 2600 700, 2944 620" stroke="url(#waveB)" stroke-width="4" fill="none" opacity="0.75"/>
  </g>
  <g transform="rotate(-4 1422 800)">
    <path d="M -100 800 C 120 720, 240 780, 480 700 S 720 640, 840 720 S 960 800, 1200 720 S 1440 640, 1560 720 S 1680 800, 1920 720 S 2160 640, 2280 720 S 2400 800, 2644 720 S 2744 680, 2944 720" stroke="url(#waveC)" stroke-width="3.5" fill="none" opacity="0.7"/>
  </g>
  <g transform="rotate(5 1422 800)">
    <path d="M -100 900 C 100 840, 200 880, 300 820 S 400 760, 500 820 S 600 880, 700 820 S 800 760, 900 820 S 1000 880, 1100 820 S 1200 760, 1300 820 S 1400 880, 1500 820 S 1600 760, 1700 820 S 1800 880, 1900 820 S 2000 760, 2100 820 S 2200 880, 2300 820 S 2400 760, 2500 820 S 2700 880, 2944 820" stroke="url(#waveA)" stroke-width="3" fill="none" opacity="0.6"/>
  </g>
  <g transform="rotate(-3 1422 800)">
    <path d="M -100 1000 C 150 940, 300 980, 500 920 S 700 860, 900 940 S 1100 1020, 1300 940 S 1500 860, 1700 940 S 1900 1020, 2100 940 S 2300 860, 2500 940 S 2700 1000, 2944 940" stroke="url(#waveB)" stroke-width="2.5" fill="none" opacity="0.5"/>
  </g>
  <g transform="rotate(2 1422 800)">
    <path d="M -100 1100 C 200 1060, 400 1080, 600 1040 S 800 1000, 1000 1060 S 1200 1120, 1400 1060 S 1600 1000, 1800 1060 S 2000 1120, 2200 1060 S 2400 1000, 2600 1060 S 2800 1100, 2944 1060" stroke="url(#waveC)" stroke-width="2" fill="none" opacity="0.4"/>
  </g>
  <g opacity="0.7">
    <path d="M -100 460 C 160 360, 360 440, 600 380 S 840 300, 1040 380 S 1240 460, 1480 380 S 1720 300, 1920 380 S 2120 460, 2360 380 S 2600 300, 2944 360" stroke="url(#waveA)" stroke-width="5" fill="none" opacity="0.9"/>
  </g>
</svg>
