<svg xmlns="http://www.w3.org/2000/svg" viewBox="0 0 2844 1600">
  <defs>
    <linearGradient id="terrain1" x1="0%" y1="0%" x2="100%" y2="0%">
      <stop offset="0%" stop-color="#9b1fb8"/>
      <stop offset="50%" stop-color="#be2edd"/>
      <stop offset="100%" stop-color="#3b82f6"/>
    </linearGradient>
    <linearGradient id="terrain2" x1="0%" y1="0%" x2="100%" y2="0%">
      <stop offset="0%" stop-color="#3b82f6"/>
      <stop offset="50%" stop-color="#9b1fb8"/>
      <stop offset="100%" stop-color="#f59e0b"/>
    </linearGradient>
    <radialGradient id="sun-glow" cx="70%" cy="25%" r="35%">
      <stop offset="0%" stop-color="#f59e0b" stop-opacity="0.5"/>
      <stop offset="100%" stop-color="#1a1a1a" stop-opacity="0"/>
    </radialGradient>
  </defs>
  <rect fill="#1a1a1a" width="2844" height="1600"/>
  <rect fill="url(#sun-glow)" width="2844" height="1600"/>
  <g opacity="0.1">
    <path d="M-100,200 C300,100 700,300 1100,180 C1500,60 1900,250 2300,140 C2600,60 2750,100 2944,80 L2944,-100 L-100,-100 Z" fill="#3b82f6"/>
  </g>
  <g transform="rotate(-2, 1422, 800)">
    <path d="M-200,650 C200,550 500,700 800,580 C1100,460 1400,620 1700,520 C2000,420 2300,580 2500,500 C2700,420 2800,480 3044,450 L3044,1700 L-200,1700 Z" fill="#9b1fb8" opacity="0.18"/>
  </g>
  <g transform="rotate(3, 1422, 800)">
    <path d="M-200,800 C100,700 400,850 700,750 C1000,650 1300,800 1600,720 C1900,640 2200,780 2500,700 C2700,640 2850,690 3044,660 L3044,1700 L-200,1700 Z" fill="#be2edd" opacity="0.15"/>
  </g>
  <g transform="rotate(-4, 1422, 800)">
    <path d="M-200,950 C200,870 500,1000 800,920 C1100,840 1400,960 1700,880 C2000,800 2300,930 2600,860 C2800,810 2950,850 3044,830 L3044,1700 L-200,1700 Z" fill="#3b82f6" opacity="0.14"/>
  </g>
  <g transform="rotate(2, 1422, 800)">
    <path d="M-200,1100 C300,1030 700,1120 1100,1060 C1500,1000 1900,1090 2300,1030 C2600,980 2800,1020 3044,1000 L3044,1700 L-200,1700 Z" fill="#9b1fb8" opacity="0.2"/>
  </g>
  <g transform="rotate(-3, 1422, 800)">
    <path d="M-200,1280 C400,1220 800,1310 1200,1260 C1600,1210 2000,1290 2400,1240 C2700,1200 2900,1230 3044,1210 L3044,1700 L-200,1700 Z" fill="#be2edd" opacity="0.18"/>
  </g>
  <g opacity="0.4">
    <circle cx="2000" cy="300" r="90" fill="none" stroke="#f59e0b" stroke-width="3"/>
    <circle cx="2000" cy="300" r="130" fill="none" stroke="#f59e0b" stroke-width="1.5" opacity="0.5"/>
    <circle cx="2000" cy="300" r="180" fill="none" stroke="#f59e0b" stroke-width="1" opacity="0.3"/>
  </g>
  <g opacity="0.25" transform="rotate(-3, 700, 450)">
    <path d="M600,350 L650,250 L700,350 Z" fill="#e0e0e0"/>
    <path d="M680,380 L730,280 L780,380 Z" fill="#e0e0e0"/>
    <path d="M550,380 L600,300 L650,380 Z" fill="#e0e0e0"/>
  </g>
  <g opacity="0.2">
    <path d="M0,300 C400,200 800,350 1200,260 C1600,170 2000,300 2400,220 C2700,160 2844,200 2844,200" stroke="#e0e0e0" stroke-width="1" fill="none"/>
  </g>
</svg>
