<svg xmlns="http://www.w3.org/2000/svg" viewBox="0 0 2844 1600">
  <defs>
    <linearGradient id="purpleBlue" x1="0" y1="0" x2="1" y2="1">
      <stop offset="0%" stop-color="#be2edd"/>
      <stop offset="100%" stop-color="#3b82f6"/>
    </linearGradient>
    <linearGradient id="amberDeep" x1="0" y1="0" x2="1" y2="1">
      <stop offset="0%" stop-color="#f59e0b"/>
      <stop offset="100%" stop-color="#9b1fb8"/>
    </linearGradient>
    <radialGradient id="chipGlow" cx="50%" cy="50%" r="50%">
      <stop offset="0%" stop-color="#3b82f6" stop-opacity="0.2"/>
      <stop offset="100%" stop-color="#1a1a1a" stop-opacity="0"/>
    </radialGradient>
  </defs>
  <rect fill="#1a1a1a" width="2844" height="1600"/>
  <rect fill="url(#chipGlow)" width="2844" height="1600"/>
  <path d="M 0,600 C 200,500 350,650 500,550 C 650,450 750,580 900,500 C 1050,420 1100,540 1250,460 C 1400,380 1500,520 1650,450" fill="none" stroke="#3b82f6" stroke-width="2" stroke-opacity="0.2"/>
  <path d="M 0,700 C 200,600 350,750 500,650 C 650,550 750,680 900,600 C 1050,520 1100,640 1250,560 C 1400,480 1500,620 1650,550" fill="none" stroke="#3b82f6" stroke-width="1.5" stroke-opacity="0.15"/>
  <rect x="800" y="500" width="1244" height="560" rx="28" fill="none" stroke="#3b82f6" stroke-width="5" transform="rotate(-1.5 1422 780)"/>
  <rect x="820" y="520" width="1204" height="520" rx="20" fill="#3b82f6" fill-opacity="0.06" transform="rotate(-1.5 1422 780)"/>
  <g transform="rotate(-1.5 1422 780)">
    <rect x="840" y="560" width="600" height="16" rx="8" fill="#3b82f6" fill-opacity="0.4"/>
    <rect x="840" y="592" width="480" height="12" rx="6" fill="#e0e0e0" fill-opacity="0.2"/>
    <rect x="840" y="620" width="520" height="12" rx="6" fill="#e0e0e0" fill-opacity="0.15"/>
    <rect x="840" y="660" width="600" height="16" rx="8" fill="#be2edd" fill-opacity="0.35"/>
    <rect x="840" y="692" width="440" height="12" rx="6" fill="#e0e0e0" fill-opacity="0.18"/>
    <rect x="840" y="720" width="500" height="12" rx="6" fill="#e0e0e0" fill-opacity="0.15"/>
    <rect x="840" y="760" width="560" height="16" rx="8" fill="#f59e0b" fill-opacity="0.3"/>
    <rect x="840" y="792" width="460" height="12" rx="6" fill="#e0e0e0" fill-opacity="0.15"/>
    <rect x="840" y="820" width="520" height="12" rx="6" fill="#e0e0e0" fill-opacity="0.12"/>
    <rect x="840" y="860" width="580" height="16" rx="8" fill="#3b82f6" fill-opacity="0.25"/>
    <rect x="840" y="892" width="420" height="12" rx="6" fill="#e0e0e0" fill-opacity="0.12"/>
    <rect x="840" y="920" width="480" height="12" rx="6" fill="#e0e0e0" fill-opacity="0.1"/>
    <rect x="840" y="960" width="540" height="16" rx="8" fill="#be2edd" fill-opacity="0.2"/>
  </g>
  <circle cx="2100" cy="680" r="220" fill="none" stroke="#be2edd" stroke-width="4" stroke-opacity="0.25" transform="rotate(3 2100 680)"/>
  <circle cx="2100" cy="680" r="160" fill="none" stroke="#3b82f6" stroke-width="3" stroke-opacity="0.2" transform="rotate(3 2100 680)"/>
  <circle cx="2100" cy="680" r="100" fill="#be2edd" fill-opacity="0.08"/>
  <circle cx="2100" cy="680" r="100" fill="none" stroke="#be2edd" stroke-width="4"/>
  <circle cx="2100" cy="680" r="50" fill="#be2edd" fill-opacity="0.2"/>
  <circle cx="2100" cy="680" r="20" fill="#be2edd" fill-opacity="0.5"/>
  <g fill="#3b82f6" fill-opacity="0.5">
    <circle cx="2100" cy="460" r="14"/>
    <circle cx="2255" cy="525" r="12"/>
    <circle cx="2320" cy="680" r="14"/>
    <circle cx="2255" cy="835" r="12"/>
    <circle cx="2100" cy="900" r="14"/>
    <circle cx="1945" cy="835" r="12"/>
    <circle cx="1880" cy="680" r="14"/>
    <circle cx="1945" cy="525" r="12"/>
  </g>
  <line x1="2044" y1="680" x2="820" y2="780" stroke="#3b82f6" stroke-width="3" stroke-opacity="0.25" stroke-dasharray="20 10"/>
  <path d="M 1194,1060 C 1300,1200 1500,1300 1700,1250 C 1900,1200 2000,1350 2200,1300" fill="none" stroke="#f59e0b" stroke-width="3" stroke-opacity="0.2"/>
  <circle cx="350" cy="780" r="180" fill="none" stroke="#9b1fb8" stroke-width="3" stroke-opacity="0.2"/>
  <circle cx="350" cy="780" r="120" fill="#9b1fb8" fill-opacity="0.07"/>
  <path d="M 350,620 C 360,640 380,660 370,680 C 360,700 340,720 350,740 C 360,760 380,780 370,800 C 360,820 340,840 350,860 C 360,880 380,900 370,920" fill="none" stroke="#9b1fb8" stroke-width="2" stroke-opacity="0.3"/>
  <path d="M 0,1350 C 400,1230 800,1420 1200,1310 C 1600,1200 2000,1400 2400,1290 C 2700,1210 2844,1340 2844,1340 L 2844,1600 L 0,1600 Z" fill="#3b82f6" fill-opacity="0.06"/>
</svg>
