<svg xmlns="http://www.w3.org/2000/svg" viewBox="0 0 2844 1600">
  <defs>
    <linearGradient id="persistGrad" x1="0" y1="0" x2="1" y2="1">
      <stop offset="0%" stop-color="#be2edd"/>
      <stop offset="100%" stop-color="#3b82f6"/>
    </linearGradient>
    <radialGradient id="persistGlow" cx="50%" cy="50%" r="50%">
      <stop offset="0%" stop-color="#be2edd" stop-opacity="0.35"/>
      <stop offset="100%" stop-color="#1a1a1a" stop-opacity="0"/>
    </radialGradient>
    <radialGradient id="nodeLight" cx="50%" cy="50%" r="50%">
      <stop offset="0%" stop-color="#3b82f6" stop-opacity="0.8"/>
      <stop offset="100%" stop-color="#1a1a1a" stop-opacity="0"/>
    </radialGradient>
  </defs>
  <rect fill="#1a1a1a" width="2844" height="1600"/>
  <ellipse cx="1422" cy="800" rx="1400" ry="850" fill="url(#persistGlow)"/>
  <g fill="none" stroke="#be2edd" stroke-width="1.5" opacity="0.2">
    <ellipse cx="1422" cy="800" rx="350" ry="350"/>
    <ellipse cx="1422" cy="800" rx="600" ry="600"/>
    <ellipse cx="1422" cy="800" rx="850" ry="850"/>
    <ellipse cx="1422" cy="800" rx="1100" ry="1100"/>
  </g>
  <g stroke="#3b82f6" stroke-width="2" fill="none" opacity="0.4">
    <path d="M 1422 450 C 1600 460, 1750 520, 1850 620"/>
    <path d="M 1850 620 C 1950 720, 1950 900, 1850 980"/>
    <path d="M 1850 980 C 1750 1080, 1600 1140, 1422 1150"/>
    <path d="M 1422 1150 C 1244 1140, 1094 1080, 994 980"/>
    <path d="M 994 980 C 894 900, 894 720, 994 620"/>
    <path d="M 994 620 C 1094 520, 1244 460, 1422 450"/>
  </g>
  <g stroke="#be2edd" stroke-width="1.5" fill="none" opacity="0.3">
    <path d="M 1422 200 C 1800 210, 2100 400, 2200 700"/>
    <path d="M 2200 700 C 2300 1000, 2100 1300, 1800 1400"/>
    <path d="M 1800 1400 C 1500 1500, 1100 1500, 800 1400"/>
    <path d="M 800 1400 C 500 1300, 300 1000, 400 700"/>
    <path d="M 400 700 C 500 400, 800 210, 1100 200"/>
    <path d="M 1100 200 C 1200 196, 1322 196, 1422 200"/>
  </g>
  <g opacity="0.6">
    <circle cx="1422" cy="450" r="28" fill="#3b82f6"/>
    <circle cx="1850" cy="620" r="24" fill="#be2edd"/>
    <circle cx="1850" cy="980" r="24" fill="#be2edd"/>
    <circle cx="1422" cy="1150" r="28" fill="#3b82f6"/>
    <circle cx="994" cy="980" r="24" fill="#9b1fb8"/>
    <circle cx="994" cy="620" r="24" fill="#9b1fb8"/>
    <circle cx="2200" cy="700" r="22" fill="#f59e0b" opacity="0.7"/>
    <circle cx="1800" cy="1400" r="22" fill="#f59e0b" opacity="0.7"/>
    <circle cx="400" cy="700" r="22" fill="#f59e0b" opacity="0.7"/>
    <circle cx="1100" cy="200" r="20" fill="#3b82f6" opacity="0.6"/>
    <circle cx="1750" cy="200" r="20" fill="#3b82f6" opacity="0.6"/>
  </g>
  <circle cx="1422" cy="800" r="80" fill="#be2edd" opacity="0.85"/>
  <circle cx="1422" cy="800" r="120" fill="none" stroke="#9b1fb8" stroke-width="3" opacity="0.5"/>
  <g opacity="0.15" fill="none" stroke="#e0e0e0" stroke-width="1.5">
    <path d="M 600 800 C 800 780, 1100 790, 1422 800 C 1750 810, 2050 820, 2250 800"/>
    <path d="M 1422 300 C 1430 500, 1424 650, 1422 800 C 1420 950, 1418 1100, 1422 1300"/>
  </g>
  <g stroke="#e0e0e0" stroke-width="1" fill="none" opacity="0.08">
    <path d="M 1422 800 L 1850 620"/>
    <path d="M 1422 800 L 994 620"/>
    <path d="M 1422 800 L 1850 980"/>
    <path d="M 1422 800 L 994 980"/>
    <path d="M 1422 800 L 1422 450"/>
    <path d="M 1422 800 L 1422 1150"/>
  </g>
</svg>
