<svg xmlns="http://www.w3.org/2000/svg" viewBox="0 0 2844 1600">
  <defs>
    <linearGradient id="purple-grad" x1="0%" y1="0%" x2="100%" y2="100%">
      <stop offset="0%" stop-color="#9b1fb8"/>
      <stop offset="100%" stop-color="#be2edd"/>
    </linearGradient>
    <linearGradient id="blue-fade" x1="0%" y1="0%" x2="100%" y2="0%">
      <stop offset="0%" stop-color="#3b82f6" stop-opacity="0.8"/>
      <stop offset="100%" stop-color="#3b82f6" stop-opacity="0"/>
    </linearGradient>
    <linearGradient id="amber-glow" x1="0%" y1="0%" x2="0%" y2="100%">
      <stop offset="0%" stop-color="#f59e0b"/>
      <stop offset="100%" stop-color="#f59e0b" stop-opacity="0"/>
    </linearGradient>
    <radialGradient id="center-glow" cx="60%" cy="45%" r="50%">
      <stop offset="0%" stop-color="#be2edd" stop-opacity="0.3"/>
      <stop offset="100%" stop-color="#1a1a1a" stop-opacity="0"/>
    </radialGradient>
  </defs>
  <rect fill="#1a1a1a" width="2844" height="1600"/>
  <rect fill="url(#center-glow)" width="2844" height="1600"/>
  <g transform="rotate(-3, 1422, 800)">
    <path d="M-100,400 C400,200 800,600 1300,350 C1800,100 2200,500 2944,300 L2944,700 C2400,500 2000,900 1500,650 C1000,400 600,800 -100,600 Z" fill="#3b82f6" opacity="0.12"/>
    <path d="M-100,600 C500,450 900,750 1400,550 C1900,350 2300,650 2944,480 L2944,900 C2300,750 1900,980 1400,800 C900,620 500,900 -100,750 Z" fill="#9b1fb8" opacity="0.15"/>
  </g>
  <g transform="rotate(2, 1422, 800)">
    <path d="M200,900 C600,750 1000,1050 1500,850 C2000,650 2400,950 2844,780 L2844,1200 C2400,1050 2000,1280 1500,1100 C1000,920 600,1150 200,1050 Z" fill="#be2edd" opacity="0.1"/>
  </g>
  <g opacity="0.6">
    <path d="M800,750 C820,730 840,730 860,750 C880,770 880,790 860,810 C840,830 820,830 800,810 C780,790 780,770 800,750 Z" fill="#3b82f6"/>
    <line x1="860" y1="780" x2="1040" y2="780" stroke="#3b82f6" stroke-width="3" opacity="0.5"/>
    <path d="M1060,750 C1080,730 1100,730 1120,750 C1140,770 1140,790 1120,810 C1100,830 1080,830 1060,810 C1040,790 1040,770 1060,750 Z" fill="#e0e0e0" opacity="0.7"/>
    <line x1="1120" y1="780" x2="1300" y2="780" stroke="#e0e0e0" stroke-width="3" opacity="0.3"/>
    <path d="M1320,750 C1340,730 1360,730 1380,750 C1400,770 1400,790 1380,810 C1360,830 1340,830 1320,810 C1300,790 1300,770 1320,750 Z" fill="#9b1fb8"/>
    <line x1="1380" y1="780" x2="1560" y2="780" stroke="#9b1fb8" stroke-width="3" opacity="0.4"/>
    <path d="M1580,750 C1600,730 1620,730 1640,750 C1660,770 1660,790 1640,810 C1620,830 1600,830 1580,810 C1560,790 1560,770 1580,750 Z" fill="#f59e0b" opacity="0.8"/>
    <line x1="1640" y1="780" x2="1820" y2="780" stroke="#f59e0b" stroke-width="3" opacity="0.4"/>
    <path d="M1840,750 C1860,730 1880,730 1900,750 C1920,770 1920,790 1900,810 C1880,830 1860,830 1840,810 C1820,790 1820,770 1840,750 Z" fill="#be2edd" opacity="0.9"/>
  </g>
  <g opacity="0.4">
    <path d="M400,450 C420,430 440,430 460,450 C480,470 480,490 460,510 C440,530 420,530 400,510 C380,490 380,470 400,450 Z" fill="#e0e0e0"/>
    <line x1="460" y1="480" x2="560" y2="600" stroke="#e0e0e0" stroke-width="2" opacity="0.3"/>
    <path d="M580,620 C600,600 620,600 640,620 C660,640 660,660 640,680 C620,700 600,700 580,680 C560,660 560,640 580,620 Z" fill="#3b82f6" opacity="0.6"/>
  </g>
  <g opacity="0.5" transform="rotate(5, 2100, 400)">
    <path d="M1900,200 C1920,180 1940,180 1960,200 C1980,220 1980,240 1960,260 C1940,280 1920,280 1900,260 C1880,240 1880,220 1900,200 Z" fill="#f59e0b"/>
    <line x1="1960" y1="230" x2="2100" y2="300" stroke="#f59e0b" stroke-width="2" opacity="0.4"/>
    <path d="M2120,310 C2140,290 2160,290 2180,310 C2200,330 2200,350 2180,370 C2160,390 2140,390 2120,370 C2100,350 2100,330 2120,310 Z" fill="#be2edd" opacity="0.7"/>
    <line x1="2180" y1="340" x2="2350" y2="250" stroke="#be2edd" stroke-width="2" opacity="0.3"/>
  </g>
  <path d="M0,200 C300,100 700,300 1100,150 C1500,0 1900,200 2300,100 C2600,30 2750,80 2844,50" stroke="#3b82f6" stroke-width="2" fill="none" opacity="0.25"/>
  <path d="M0,1400 C400,1300 800,1500 1200,1380 C1600,1260 2000,1450 2400,1350 C2650,1280 2750,1320 2844,1300" stroke="#9b1fb8" stroke-width="2" fill="none" opacity="0.2"/>
  <g transform="translate(1300, 680) rotate(-2)">
    <rect x="-200" y="-120" width="400" height="240" rx="12" fill="#1a1a1a" stroke="#be2edd" stroke-width="2" opacity="0.8"/>
    <path d="M-160,-80 L-100,-80 L-100,80 M-100,-40 L-40,-40" stroke="#e0e0e0" stroke-width="8" fill="none" stroke-linecap="round"/>
    <circle cx="60" cy="-20" r="50" stroke="#3b82f6" stroke-width="8" fill="none"/>
    <line x1="97" y1="17" x2="140" y2="60" stroke="#3b82f6" stroke-width="8" stroke-linecap="round"/>
  </g>
</svg>
