<svg xmlns="http://www.w3.org/2000/svg" viewBox="0 0 2844 1600">
  <defs>
    <linearGradient id="terrain1" x1="0" y1="0" x2="1" y2="1">
      <stop offset="0" stop-color="#9b1fb8"/>
      <stop offset="1" stop-color="#3b82f6"/>
    </linearGradient>
    <linearGradient id="terrain2" x1="0" y1="0" x2="1" y2="0">
      <stop offset="0" stop-color="#be2edd"/>
      <stop offset="1" stop-color="#9b1fb8"/>
    </linearGradient>
    <linearGradient id="terrain3" x1="0" y1="0" x2="0" y2="1">
      <stop offset="0" stop-color="#3b82f6"/>
      <stop offset="1" stop-color="#be2edd"/>
    </linearGradient>
    <linearGradient id="highlight" x1="0" y1="0" x2="1" y2="0">
      <stop offset="0" stop-color="#f59e0b"/>
      <stop offset="1" stop-color="#be2edd"/>
    </linearGradient>
  </defs>
  <rect fill="#1a1a1a" width="2844" height="1600"/>
  <g transform="rotate(2 1422 800)">
    <path d="M -200 1400 C 200 1200, 600 1350, 1000 1250 S 1600 1100, 2000 1220 S 2500 1350, 3044 1200 L 3044 1800 L -200 1800 Z" fill="url(#terrain1)" opacity="0.9"/>
  </g>
  <g transform="rotate(-3 1422 800)">
    <path d="M -200 1100 C 300 950, 700 1080, 1100 980 S 1700 840, 2100 960 S 2600 1100, 3044 960 L 3044 1800 L -200 1800 Z" fill="url(#terrain2)" opacity="0.7"/>
  </g>
  <g transform="rotate(4 1422 800)">
    <path d="M -200 820 C 400 680, 800 790, 1200 710 S 1800 580, 2200 700 S 2700 830, 3044 720 L 3044 1800 L -200 1800 Z" fill="url(#terrain3)" opacity="0.55"/>
  </g>
  <g transform="translate(80 -40) rotate(-2 1422 600)">
    <path d="M -200 560 C 350 440, 750 540, 1150 480 S 1750 360, 2150 470 S 2650 570, 3044 470 L 3044 1800 L -200 1800 Z" fill="#9b1fb8" opacity="0.35"/>
  </g>
  <g transform="translate(0 -80)">
    <path d="M 900 580 C 1000 480, 1200 420, 1422 460 C 1644 420, 1844 480, 1944 580 C 2044 680, 2000 800, 1844 840 C 1700 880, 1600 820, 1422 840 C 1244 820, 1144 880, 1000 840 C 844 800, 800 680, 900 580 Z" fill="url(#highlight)" opacity="0.6"/>
    <path d="M 1050 640 C 1150 580, 1300 560, 1422 580 C 1544 560, 1694 580, 1794 640 C 1844 680, 1820 740, 1744 760 C 1644 780, 1544 760, 1422 760 C 1300 760, 1200 780, 1100 760 C 1024 740, 1000 680, 1050 640 Z" fill="#1a1a1a" opacity="0.5"/>
  </g>
  <g opacity="0.25">
    <path d="M 0 300 C 400 200, 800 320, 1200 260 S 1800 160, 2200 260 S 2600 340, 2844 280" stroke="#e0e0e0" stroke-width="1.5" fill="none"/>
    <path d="M 0 360 C 400 260, 800 380, 1200 320 S 1800 220, 2200 320 S 2600 400, 2844 340" stroke="#e0e0e0" stroke-width="1" fill="none"/>
  </g>
</svg>
