<svg xmlns="http://www.w3.org/2000/svg" viewBox="0 0 2844 1600">
  <defs>
    <linearGradient id="bgfade" x1="0" y1="0" x2="0" y2="1">
      <stop offset="0" stop-color="#1a1a1a"/>
      <stop offset="1" stop-color="#1a1a1a"/>
    </linearGradient>
    <linearGradient id="purpleBlue" x1="0" y1="0" x2="1" y2="1">
      <stop offset="0" stop-color="#be2edd"/>
      <stop offset="1" stop-color="#3b82f6"/>
    </linearGradient>
    <linearGradient id="amberGlow" x1="0" y1="0" x2="0" y2="1">
      <stop offset="0" stop-color="#f59e0b"/>
      <stop offset="1" stop-color="#9b1fb8"/>
    </linearGradient>
    <linearGradient id="deepShift" x1="0" y1="1" x2="1" y2="0">
      <stop offset="0" stop-color="#9b1fb8"/>
      <stop offset="1" stop-color="#3b82f6"/>
    </linearGradient>
  </defs>
  <rect fill="#1a1a1a" width="2844" height="1600"/>
  <g opacity="0.18">
    <path d="M 400 200 L 600 400 L 800 200 L 1000 400 L 1200 200 L 1400 400 L 1600 200 L 1800 400 L 2000 200 L 2200 400 L 2400 200 L 2600 400 L 2800 200" stroke="#3b82f6" stroke-width="2" fill="none"/>
    <path d="M 400 400 L 600 600 L 800 400 L 1000 600 L 1200 400 L 1400 600 L 1600 400 L 1800 600 L 2000 400 L 2200 600 L 2400 400 L 2600 600 L 2844 400" stroke="#3b82f6" stroke-width="2" fill="none"/>
    <path d="M 200 600 L 400 800 L 600 600 L 800 800 L 1000 600 L 1200 800 L 1400 600 L 1600 800 L 1800 600 L 2000 800 L 2200 600 L 2400 800 L 2644 600" stroke="#9b1fb8" stroke-width="2" fill="none"/>
    <path d="M 0 800 L 200 1000 L 400 800 L 600 1000 L 800 800 L 1000 1000 L 1200 800 L 1400 1000 L 1600 800 L 1800 1000 L 2000 800 L 2200 1000 L 2844 800" stroke="#9b1fb8" stroke-width="1.5" fill="none"/>
  </g>
  <g transform="translate(0 80) rotate(-4 1422 800)">
    <path d="M -100 1100 C 300 900, 600 1050, 900 950 S 1300 820, 1600 900 S 2100 1050, 2400 920 S 2700 800, 2944 900 L 2944 1700 L -100 1700 Z" fill="url(#deepShift)" opacity="0.45"/>
  </g>
  <g transform="rotate(3 1422 600)">
    <path d="M -200 700 C 200 550, 500 680, 800 600 S 1200 480, 1500 560 S 1900 680, 2200 580 S 2600 440, 2944 560 L 2944 1400 L -200 1400 Z" fill="url(#purpleBlue)" opacity="0.35"/>
  </g>
  <g transform="translate(60 -30)">
    <path d="M 820 350 L 900 200 L 980 350 L 1130 280 L 1040 430 L 1180 480 L 1020 520 L 1060 680 L 900 580 L 740 680 L 780 520 L 620 480 L 760 430 L 670 280 Z" fill="url(#amberGlow)" opacity="0.7"/>
    <path d="M 900 300 L 950 420 L 1080 390 L 990 490 L 1050 620 L 900 540 L 750 620 L 810 490 L 720 390 L 850 420 Z" fill="#1a1a1a" opacity="0.5"/>
  </g>
  <g transform="translate(1400 200) rotate(-6 300 400)">
    <path d="M 250 200 L 310 100 L 370 200 L 470 160 L 410 260 L 510 290 L 390 320 L 420 440 L 310 370 L 200 440 L 230 320 L 110 290 L 210 260 L 150 160 Z" fill="url(#purpleBlue)" opacity="0.55"/>
  </g>
  <g transform="translate(1900 700) rotate(5 200 200)">
    <path d="M 180 80 L 220 0 L 260 80 L 340 50 L 300 130 L 380 160 L 280 180 L 300 270 L 220 220 L 140 270 L 160 180 L 60 160 L 140 130 L 100 50 Z" fill="url(#amberGlow)" opacity="0.5"/>
  </g>
  <g opacity="0.6">
    <path d="M 820 350 L 900 200 M 900 200 L 980 350 M 980 350 L 1130 280 M 1130 280 L 1040 430 M 1040 430 L 1180 480 M 1180 480 L 1020 520 M 1020 520 L 1060 680 M 1060 680 L 900 580 M 900 580 L 740 680 M 740 680 L 780 520 M 780 520 L 620 480 M 620 480 L 760 430 M 760 430 L 670 280 M 670 280 L 820 350" stroke="#e0e0e0" stroke-width="1.5" fill="none" opacity="0.4"/>
  </g>
  <g opacity="0.3">
    <circle cx="900" cy="200" r="8" fill="#f59e0b"/>
    <circle cx="1130" cy="280" r="6" fill="#be2edd"/>
    <circle cx="1180" cy="480" r="5" fill="#3b82f6"/>
    <circle cx="1060" cy="680" r="7" fill="#f59e0b"/>
    <circle cx="740" cy="680" r="6" fill="#be2edd"/>
    <circle cx="620" cy="480" r="5" fill="#3b82f6"/>
    <circle cx="670" cy="280" r="7" fill="#f59e0b"/>
  </g>
</svg>
