<svg xmlns="http://www.w3.org/2000/svg" viewBox="0 0 2844 1600">
  <defs>
    <linearGradient id="stratum1" x1="0" y1="0" x2="1" y2="0">
      <stop offset="0%" stop-color="#3b82f6" stop-opacity="0.3"/>
      <stop offset="50%" stop-color="#3b82f6" stop-opacity="0.15"/>
      <stop offset="100%" stop-color="#3b82f6" stop-opacity="0.3"/>
    </linearGradient>
    <linearGradient id="stratum2" x1="0" y1="0" x2="1" y2="0">
      <stop offset="0%" stop-color="#9b1fb8" stop-opacity="0.3"/>
      <stop offset="50%" stop-color="#9b1fb8" stop-opacity="0.15"/>
      <stop offset="100%" stop-color="#9b1fb8" stop-opacity="0.3"/>
    </linearGradient>
    <linearGradient id="stratum3" x1="0" y1="0" x2="1" y2="0">
      <stop offset="0%" stop-color="#be2edd" stop-opacity="0.3"/>
      <stop offset="50%" stop-color="#be2edd" stop-opacity="0.15"/>
      <stop offset="100%" stop-color="#be2edd" stop-opacity="0.3"/>
    </linearGradient>
    <linearGradient id="stratum4" x1="0" y1="0" x2="1" y2="0">
      <stop offset="0%" stop-color="#f59e0b" stop-opacity="0.35"/>
      <stop offset="50%" stop-color="#f59e0b" stop-opacity="0.18"/>
      <stop offset="100%" stop-color="#f59e0b" stop-opacity="0.35"/>
    </linearGradient>
    <linearGradient id="stratum5" x1="0" y1="0" x2="1" y2="0">
      <stop offset="0%" stop-color="#e0e0e0" stop-opacity="0.2"/>
      <stop offset="50%" stop-color="#e0e0e0" stop-opacity="0.08"/>
      <stop offset="100%" stop-color="#e0e0e0" stop-opacity="0.2"/>
    </linearGradient>
  </defs>
  <rect fill="#1a1a1a" width="2844" height="1600"/>
  <path d="M-100 1560 C400 1540, 900 1570, 1400 1550 S2200 1565, 2950 1545 L2950 1620 L-100 1620 Z" fill="url(#stratum5)" opacity="0.6"/>
  <path d="M-100 1320 C300 1295, 800 1345, 1300 1310 C1800 1275, 2300 1335, 2950 1305 L2950 1560 C2300 1580, 1800 1545, 1300 1570 C800 1595, 300 1555, -100 1570 Z" fill="url(#stratum5)"/>
  <path d="M-100 1050 C400 1020, 850 1075, 1350 1040 C1850 1005, 2350 1060, 2950 1025 L2950 1310 C2350 1340, 1850 1295, 1350 1320 C850 1345, 400 1300, -100 1320 Z" fill="url(#stratum4)"/>
  <path d="M-100 780 C350 750, 850 805, 1350 765 C1850 725, 2350 785, 2950 748 L2950 1030 C2350 1065, 1850 1015, 1350 1050 C850 1085, 350 1030, -100 1055 Z" fill="url(#stratum3)"/>
  <path d="M-100 520 C400 488, 900 545, 1400 505 C1900 465, 2400 525, 2950 488 L2950 760 C2400 795, 1900 745, 1400 775 C900 805, 400 760, -100 782 Z" fill="url(#stratum2)"/>
  <path d="M-100 270 C350 238, 850 295, 1350 255 C1850 215, 2350 275, 2950 238 L2950 510 C2350 545, 1850 495, 1350 525 C850 555, 350 510, -100 522 Z" fill="url(#stratum1)"/>
  <path d="M-100 50 C400 18, 900 75, 1400 35 C1900 -5, 2400 55, 2950 18 L2950 250 C2400 285, 1900 235, 1400 265 C900 295, 400 250, -100 272 Z" fill="url(#stratum5)" opacity="0.5"/>
  <g opacity="0.7">
    <line x1="-100" y1="780" x2="2950" y2="750" stroke="#be2edd" stroke-width="3" stroke-dasharray="20 14"/>
    <line x1="-100" y1="520" x2="2950" y2="488" stroke="#9b1fb8" stroke-width="3" stroke-dasharray="20 14"/>
    <line x1="-100" y1="1050" x2="2950" y2="1025" stroke="#f59e0b" stroke-width="3" stroke-dasharray="20 14"/>
    <line x1="-100" y1="270" x2="2950" y2="238" stroke="#3b82f6" stroke-width="3" stroke-dasharray="20 14"/>
  </g>
  <g opacity="0.6">
    <circle cx="400" cy="650" r="16" fill="#3b82f6"/>
    <circle cx="850" cy="920" r="14" fill="#9b1fb8"/>
    <circle cx="1350" cy="1165" r="18" fill="#be2edd"/>
    <circle cx="1900" cy="1185" r="14" fill="#f59e0b"/>
    <circle cx="2400" cy="1195" r="20" fill="#f59e0b"/>
    <path d="M400 650 C600 700, 700 800, 850 920" fill="none" stroke="#e0e0e0" stroke-width="3" opacity="0.5"/>
    <path d="M850 920 C1000 1010, 1150 1080, 1350 1165" fill="none" stroke="#e0e0e0" stroke-width="3" opacity="0.5"/>
    <path d="M1350 1165 C1550 1170, 1720 1175, 1900 1185" fill="none" stroke="#e0e0e0" stroke-width="3" opacity="0.5"/>
    <path d="M1900 1185 C2100 1188, 2200 1192, 2400 1195" fill="none" stroke="#e0e0e0" stroke-width="3" opacity="0.5"/>
  </g>
  <g opacity="0.15">
    <path d="M0 0 L2844 1600" stroke="#e0e0e0" stroke-width="2"/>
  </g>
</svg>
