<svg xmlns="http://www.w3.org/2000/svg" viewBox="0 0 2844 1600">
  <defs>
    <radialGradient id="textGlow" cx="0.5" cy="0.5" r="0.55">
      <stop offset="0" stop-color="#be2edd" stop-opacity="0.2"/>
      <stop offset="1" stop-color="#1a1a1a" stop-opacity="0"/>
    </radialGradient>
    <radialGradient id="bluePool" cx="0.25" cy="0.7" r="0.35">
      <stop offset="0" stop-color="#3b82f6" stop-opacity="0.15"/>
      <stop offset="1" stop-color="#1a1a1a" stop-opacity="0"/>
    </radialGradient>
    <linearGradient id="wordA" x1="0" y1="0" x2="1" y2="0">
      <stop offset="0" stop-color="#be2edd"/>
      <stop offset="1" stop-color="#9b1fb8"/>
    </linearGradient>
    <linearGradient id="wordB" x1="0" y1="0" x2="1" y2="0">
      <stop offset="0" stop-color="#3b82f6"/>
      <stop offset="1" stop-color="#be2edd"/>
    </linearGradient>
    <linearGradient id="wordC" x1="0" y1="0" x2="1" y2="0">
      <stop offset="0" stop-color="#f59e0b"/>
      <stop offset="1" stop-color="#be2edd"/>
    </linearGradient>
  </defs>
  <rect fill="#1a1a1a" width="2844" height="1600"/>
  <rect fill="url(#textGlow)" width="2844" height="1600"/>
  <rect fill="url(#bluePool)" width="2844" height="1600"/>
  <g opacity="0.22" fill="none" stroke="url(#wordA)" stroke-linecap="round">
    <path d="M 200 400 C 350 380, 480 360, 600 390 C 720 420, 780 480, 700 510 C 620 540, 480 520, 380 540 C 280 560, 200 590, 240 620 C 280 650, 440 630, 580 620" stroke-width="40" stroke-linejoin="round"/>
  </g>
  <g opacity="0.18" fill="none" stroke="url(#wordB)" stroke-linecap="round">
    <path d="M 800 280 C 950 260, 1100 250, 1200 290 C 1300 330, 1320 400, 1240 430 C 1160 460, 1020 450, 940 480 C 860 510, 820 550, 880 580" stroke-width="35" stroke-linejoin="round"/>
    <path d="M 1400 300 C 1500 280, 1620 280, 1700 310 C 1780 340, 1800 390, 1760 420 C 1720 450, 1620 445, 1540 465" stroke-width="35" stroke-linejoin="round"/>
  </g>
  <g opacity="0.2" fill="none" stroke="url(#wordC)" stroke-linecap="round">
    <path d="M 1900 250 C 2050 230, 2200 240, 2300 280 C 2400 320, 2420 390, 2350 420" stroke-width="32" stroke-linejoin="round"/>
  </g>
  <g opacity="0.2" fill="none" stroke="url(#wordA)" stroke-linecap="round">
    <path d="M 100 700 C 280 680, 450 670, 560 710 C 670 750, 680 810, 600 840 C 520 870, 380 860, 280 890 C 180 920, 130 960, 200 990" stroke-width="36" stroke-linejoin="round"/>
    <path d="M 700 720 C 840 700, 980 710, 1060 750 C 1140 790, 1140 840, 1070 860" stroke-width="32" stroke-linejoin="round"/>
  </g>
  <g opacity="0.18" fill="none" stroke="url(#wordB)" stroke-linecap="round">
    <path d="M 1250 690 C 1420 670, 1600 680, 1700 720 C 1800 760, 1810 820, 1730 850 C 1650 880, 1510 870, 1420 900" stroke-width="34" stroke-linejoin="round"/>
    <path d="M 1900 700 C 2060 680, 2220 690, 2320 730 C 2420 770, 2440 830, 2370 860" stroke-width="30" stroke-linejoin="round"/>
  </g>
  <g opacity="0.2" fill="none" stroke="url(#wordC)" stroke-linecap="round">
    <path d="M 2550 680 C 2680 660, 2800 670, 2870 710 L 2944 740" stroke-width="30" stroke-linejoin="round"/>
  </g>
  <g opacity="0.18" fill="none" stroke="url(#wordA)" stroke-linecap="round">
    <path d="M 200 1050 C 380 1030, 560 1040, 660 1080 C 760 1120, 760 1180, 680 1210" stroke-width="36" stroke-linejoin="round"/>
    <path d="M 850 1060 C 1020 1040, 1200 1050, 1300 1090 C 1400 1130, 1400 1190, 1320 1220 C 1240 1250, 1100 1240, 1010 1270" stroke-width="32" stroke-linejoin="round"/>
  </g>
  <g opacity="0.18" fill="none" stroke="url(#wordC)" stroke-linecap="round">
    <path d="M 1500 1070 C 1660 1050, 1830 1060, 1930 1100 C 2030 1140, 2040 1200, 1960 1230" stroke-width="34" stroke-linejoin="round"/>
    <path d="M 2150 1080 C 2300 1060, 2450 1070, 2550 1110 C 2650 1150, 2660 1210, 2580 1240" stroke-width="30" stroke-linejoin="round"/>
  </g>
  <g opacity="0.15" fill="none" stroke="url(#wordB)" stroke-linecap="round">
    <path d="M 300 1370 C 480 1350, 660 1360, 760 1400 C 860 1440, 850 1490, 770 1510" stroke-width="34" stroke-linejoin="round"/>
    <path d="M 1000 1380 C 1180 1360, 1380 1370, 1500 1410 C 1620 1450, 1620 1500, 1540 1520" stroke-width="30" stroke-linejoin="round"/>
    <path d="M 1750 1390 C 1920 1370, 2100 1380, 2200 1420" stroke-width="28" stroke-linejoin="round"/>
  </g>
  <g opacity="0.4">
    <path d="M 1422 600 C 1480 570, 1550 560, 1610 590 C 1670 620, 1680 670, 1640 700" fill="none" stroke="#f59e0b" stroke-width="5" stroke-linecap="round"/>
    <path d="M 1422 700 C 1480 670, 1560 660, 1630 690" fill="none" stroke="#f59e0b" stroke-width="3.5" stroke-linecap="round"/>
  </g>
  <g opacity="0.25" fill="none" stroke="#e0e0e0">
    <path d="M -100 -100 C 200 200, 150 600, 200 900 C 240 1100, 320 1300, 150 1700" stroke-width="120" stroke-linecap="round"/>
  </g>
</svg>
