<svg xmlns="http://www.w3.org/2000/svg" viewBox="0 0 2844 1600">
  <defs>
    <radialGradient id="cosmos" cx="50%" cy="40%" r="60%">
      <stop offset="0" stop-color="#3b82f6" stop-opacity="0.5"/>
      <stop offset="0.5" stop-color="#9b1fb8" stop-opacity="0.3"/>
      <stop offset="1" stop-color="#1a1a1a" stop-opacity="0"/>
    </radialGradient>
    <linearGradient id="starline" x1="0" y1="0" x2="1" y2="1">
      <stop offset="0" stop-color="#f59e0b"/>
      <stop offset="1" stop-color="#be2edd"/>
    </linearGradient>
    <linearGradient id="nebula" x1="0" y1="0" x2="1" y2="0">
      <stop offset="0" stop-color="#3b82f6"/>
      <stop offset="0.5" stop-color="#be2edd"/>
      <stop offset="1" stop-color="#9b1fb8"/>
    </linearGradient>
    <linearGradient id="horizon" x1="0" y1="0" x2="0" y2="1">
      <stop offset="0" stop-color="#9b1fb8" stop-opacity="0"/>
      <stop offset="1" stop-color="#9b1fb8" stop-opacity="0.7"/>
    </linearGradient>
  </defs>
  <rect fill="#1a1a1a" width="2844" height="1600"/>
  <circle cx="1422" cy="640" r="1200" fill="url(#cosmos)" opacity="0.8"/>
  <g transform="rotate(-3 1422 640)">
    <path d="M -200 1450 C 300 1280, 700 1380, 1100 1320 S 1700 1200, 2100 1280 S 2600 1380, 3044 1260 L 3044 1700 L -200 1700 Z" fill="url(#horizon)" opacity="0.9"/>
  </g>
  <g transform="rotate(6 1422 640)" opacity="0.6">
    <path d="M 300 200 C 500 300, 600 500, 800 600 S 1000 700, 1200 640" stroke="url(#nebula)" stroke-width="60" stroke-linecap="round" fill="none" opacity="0.15"/>
    <path d="M 1600 300 C 1800 400, 1900 600, 2100 700 S 2300 800, 2500 740" stroke="url(#nebula)" stroke-width="50" stroke-linecap="round" fill="none" opacity="0.12"/>
  </g>
  <g opacity="0.8">
    <circle cx="1422" cy="640" r="16" fill="#f59e0b"/>
    <circle cx="800" cy="400" r="8" fill="#e0e0e0"/>
    <circle cx="600" cy="700" r="5" fill="#e0e0e0"/>
    <circle cx="1100" cy="300" r="6" fill="#3b82f6"/>
    <circle cx="1750" cy="350" r="7" fill="#e0e0e0"/>
    <circle cx="2000" cy="600" r="5" fill="#3b82f6"/>
    <circle cx="2200" cy="350" r="9" fill="#e0e0e0"/>
    <circle cx="500" cy="500" r="4" fill="#be2edd"/>
    <circle cx="900" cy="600" r="4" fill="#be2edd"/>
    <circle cx="1700" cy="500" r="4" fill="#f59e0b"/>
    <circle cx="2100" cy="450" r="4" fill="#be2edd"/>
    <circle cx="1200" cy="500" r="5" fill="#f59e0b"/>
    <circle cx="300" cy="350" r="6" fill="#e0e0e0"/>
    <circle cx="2500" cy="500" r="5" fill="#e0e0e0"/>
  </g>
  <g opacity="0.2">
    <path d="M 1422 640 L 800 400" stroke="url(#starline)" stroke-width="1.5"/>
    <path d="M 1422 640 L 600 700" stroke="url(#starline)" stroke-width="1"/>
    <path d="M 1422 640 L 1100 300" stroke="url(#starline)" stroke-width="1.5"/>
    <path d="M 1422 640 L 1750 350" stroke="url(#starline)" stroke-width="1.5"/>
    <path d="M 1422 640 L 2000 600" stroke="url(#starline)" stroke-width="1"/>
    <path d="M 1422 640 L 2200 350" stroke="url(#starline)" stroke-width="1.5"/>
    <path d="M 1422 640 L 500 500" stroke="url(#starline)" stroke-width="1"/>
    <path d="M 800 400 L 1100 300" stroke="#e0e0e0" stroke-width="0.8"/>
    <path d="M 1750 350 L 2200 350" stroke="#e0e0e0" stroke-width="0.8"/>
    <path d="M 1750 350 L 2000 600" stroke="#e0e0e0" stroke-width="0.8"/>
  </g>
  <g opacity="0.3">
    <path d="M 1422 640 C 1322 520, 1280 420, 1380 320" stroke="#f59e0b" stroke-width="2" fill="none"/>
    <path d="M 1422 640 C 1522 520, 1564 420, 1464 320" stroke="#f59e0b" stroke-width="2" fill="none"/>
  </g>
  <circle cx="1422" cy="640" r="35" fill="#f59e0b" opacity="0.95"/>
  <circle cx="1422" cy="640" r="18" fill="#e0e0e0" opacity="0.9"/>
</svg>
