<svg xmlns="http://www.w3.org/2000/svg" viewBox="0 0 2844 1600">
  <defs>
    <linearGradient id="bubbleA" x1="0" y1="0" x2="1" y2="1">
      <stop offset="0" stop-color="#3b82f6"/>
      <stop offset="1" stop-color="#9b1fb8"/>
    </linearGradient>
    <linearGradient id="bubbleB" x1="0" y1="0" x2="1" y2="0">
      <stop offset="0" stop-color="#be2edd"/>
      <stop offset="1" stop-color="#3b82f6"/>
    </linearGradient>
    <linearGradient id="bubbleC" x1="0" y1="0" x2="0" y2="1">
      <stop offset="0" stop-color="#f59e0b"/>
      <stop offset="1" stop-color="#be2edd"/>
    </linearGradient>
    <linearGradient id="floor" x1="0" y1="0" x2="0" y2="1">
      <stop offset="0" stop-color="#9b1fb8" stop-opacity="0.4"/>
      <stop offset="1" stop-color="#1a1a1a"/>
    </linearGradient>
  </defs>
  <rect fill="#1a1a1a" width="2844" height="1600"/>
  <path d="M -100 1300 C 400 1150, 900 1250, 1422 1200 S 2000 1100, 2444 1200 S 2744 1300, 2944 1200 L 2944 1700 L -100 1700 Z" fill="url(#floor)" opacity="0.8"/>
  <g transform="translate(500 600) rotate(-5 0 0)" opacity="0.75">
    <path d="M -320 0 C -320 -220, -160 -360, 0 -360 S 320 -220, 320 0 S 160 160, 0 200 C -40 200, -80 180, -100 160 L -180 220 L -160 160 C -260 120, -320 70, -320 0 Z" fill="url(#bubbleA)" opacity="0.55"/>
  </g>
  <g transform="translate(1422 500) rotate(3 0 0)" opacity="0.8">
    <path d="M -400 0 C -400 -270, -200 -430, 0 -430 S 400 -270, 400 0 S 200 200, 0 250 C 60 250, 120 220, 150 190 L 240 280 L 200 190 C 330 140, 400 80, 400 0 Z" fill="url(#bubbleB)" opacity="0.5"/>
  </g>
  <g transform="translate(2300 650) rotate(-3 0 0)" opacity="0.7">
    <path d="M -280 0 C -280 -190, -140 -310, 0 -310 S 280 -190, 280 0 S 140 140, 0 175 C -40 175, -70 155, -90 140 L -160 190 L -140 140 C -230 105, -280 60, -280 0 Z" fill="url(#bubbleC)" opacity="0.52"/>
  </g>
  <g transform="translate(900 400) rotate(4 0 0)" opacity="0.5">
    <path d="M -200 0 C -200 -140, -100 -220, 0 -220 S 200 -140, 200 0 S 100 100, 0 125 C -25 125, -50 110, -60 100 L -110 140 L -95 100 C -165 75, -200 40, -200 0 Z" fill="url(#bubbleA)" opacity="0.45"/>
  </g>
  <g transform="translate(1900 400) rotate(-4 0 0)" opacity="0.5">
    <path d="M -200 0 C -200 -140, -100 -220, 0 -220 S 200 -140, 200 0 S 100 100, 0 125 C 30 125, 55 110, 65 100 L 120 140 L 100 100 C 170 75, 200 40, 200 0 Z" fill="url(#bubbleB)" opacity="0.45"/>
  </g>
  <g opacity="0.2">
    <path d="M 500 600 C 800 500, 1100 550, 1422 500" stroke="#e0e0e0" stroke-width="1.5" fill="none"/>
    <path d="M 1422 500 C 1700 450, 2000 520, 2300 600" stroke="#e0e0e0" stroke-width="1.5" fill="none"/>
    <path d="M 500 600 C 700 700, 900 680, 900 720" stroke="#e0e0e0" stroke-width="1" fill="none"/>
    <path d="M 2300 600 C 2100 700, 1900 680, 1900 720" stroke="#e0e0e0" stroke-width="1" fill="none"/>
  </g>
  <g opacity="0.3">
    <circle cx="500" cy="600" r="30" fill="#3b82f6"/>
    <circle cx="1422" cy="500" r="36" fill="#be2edd"/>
    <circle cx="2300" cy="650" r="28" fill="#f59e0b"/>
  </g>
</svg>
