<svg xmlns="http://www.w3.org/2000/svg" viewBox="0 0 2844 1600">
  <defs>
    <linearGradient id="glow" x1="0" y1="0" x2="1" y2="1">
      <stop offset="0" stop-color="#9b1fb8"/>
      <stop offset="1" stop-color="#be2edd"/>
    </linearGradient>
    <linearGradient id="cool" x1="0" y1="0" x2="1" y2="1">
      <stop offset="0" stop-color="#3b82f6"/>
      <stop offset="1" stop-color="#9b1fb8"/>
    </linearGradient>
    <linearGradient id="warmth" x1="0" y1="1" x2="1" y2="0">
      <stop offset="0" stop-color="#be2edd"/>
      <stop offset="1" stop-color="#f59e0b"/>
    </linearGradient>
    <radialGradient id="haze-l" cx="0.25" cy="0.5" r="0.5">
      <stop offset="0" stop-color="#3b82f6" stop-opacity="0.12"/>
      <stop offset="1" stop-color="#1a1a1a" stop-opacity="0"/>
    </radialGradient>
    <radialGradient id="haze-r" cx="0.75" cy="0.5" r="0.5">
      <stop offset="0" stop-color="#be2edd" stop-opacity="0.12"/>
      <stop offset="1" stop-color="#1a1a1a" stop-opacity="0"/>
    </radialGradient>
  </defs>
  <rect fill="#1a1a1a" width="2844" height="1600"/>
  <rect fill="url(#haze-l)" width="2844" height="1600"/>
  <rect fill="url(#haze-r)" width="2844" height="1600"/>
  <g transform="rotate(-3 600 800)">
    <rect x="180" y="340" width="680" height="460" rx="60" fill="url(#cool)" opacity="0.22"/>
    <rect x="210" y="370" width="620" height="400" rx="48" fill="none" stroke="#3b82f6" stroke-width="6" opacity="0.35"/>
    <rect x="260" y="440" width="160" height="90" rx="18" fill="#3b82f6" opacity="0.55"/>
    <rect x="460" y="440" width="120" height="90" rx="18" fill="#3b82f6" opacity="0.4"/>
    <rect x="620" y="440" width="140" height="90" rx="18" fill="#3b82f6" opacity="0.35"/>
    <rect x="260" y="570" width="100" height="90" rx="18" fill="#3b82f6" opacity="0.3"/>
    <rect x="400" y="570" width="200" height="90" rx="18" fill="#3b82f6" opacity="0.28"/>
    <rect x="640" y="570" width="120" height="90" rx="18" fill="#3b82f6" opacity="0.3"/>
    <text x="340" y="502" font-family="monospace" font-size="52" fill="#e0e0e0" opacity="0.7" text-anchor="middle">CTRL</text>
    <text x="500" y="502" font-family="monospace" font-size="52" fill="#e0e0e0" opacity="0.5" text-anchor="middle">+</text>
    <text x="680" y="502" font-family="monospace" font-size="52" fill="#e0e0e0" opacity="0.6" text-anchor="middle">S</text>
  </g>
  <g transform="rotate(4 2200 800)">
    <rect x="1960" y="340" width="680" height="460" rx="60" fill="url(#glow)" opacity="0.22"/>
    <rect x="1990" y="370" width="620" height="400" rx="48" fill="none" stroke="#be2edd" stroke-width="6" opacity="0.35"/>
    <rect x="2040" y="440" width="160" height="90" rx="18" fill="#be2edd" opacity="0.55"/>
    <rect x="2240" y="440" width="120" height="90" rx="18" fill="#be2edd" opacity="0.4"/>
    <rect x="2400" y="440" width="140" height="90" rx="18" fill="#be2edd" opacity="0.35"/>
    <rect x="2040" y="570" width="100" height="90" rx="18" fill="#9b1fb8" opacity="0.3"/>
    <rect x="2180" y="570" width="200" height="90" rx="18" fill="#9b1fb8" opacity="0.28"/>
    <rect x="2420" y="570" width="120" height="90" rx="18" fill="#9b1fb8" opacity="0.3"/>
    <text x="2120" y="502" font-family="monospace" font-size="52" fill="#e0e0e0" opacity="0.7" text-anchor="middle">⌘</text>
    <text x="2280" y="502" font-family="monospace" font-size="52" fill="#e0e0e0" opacity="0.5" text-anchor="middle">+</text>
    <text x="2460" y="502" font-family="monospace" font-size="52" fill="#e0e0e0" opacity="0.6" text-anchor="middle">S</text>
  </g>
  <g transform="translate(0 40)">
    <path d="M 900 800 C 1050 700, 1200 620, 1422 700 S 1700 800, 1944 700" fill="none" stroke="#f59e0b" stroke-width="8" stroke-linecap="round" opacity="0.45"/>
    <path d="M 900 800 C 1050 900, 1200 980, 1422 900 S 1700 800, 1944 900" fill="none" stroke="#f59e0b" stroke-width="4" stroke-linecap="round" opacity="0.2"/>
    <circle cx="1422" cy="800" r="28" fill="url(#warmth)" opacity="0.7"/>
    <circle cx="1422" cy="800" r="48" fill="none" stroke="#f59e0b" stroke-width="3" opacity="0.3"/>
    <path d="M 1390 775 L 1422 820 L 1454 775" fill="none" stroke="#f59e0b" stroke-width="5" stroke-linecap="round" stroke-linejoin="round" opacity="0.9"/>
  </g>
  <g opacity="0.18">
    <path d="M 300 950 C 500 880, 700 920, 900 860 S 1200 800, 1422 850 S 1700 880, 1944 820 S 2300 760, 2550 820" fill="none" stroke="#e0e0e0" stroke-width="2" stroke-linecap="round"/>
    <path d="M 200 1100 C 450 1040, 700 1080, 1000 1020 S 1300 960, 1600 1000 S 1900 1040, 2200 980 S 2500 940, 2700 970" fill="none" stroke="#e0e0e0" stroke-width="1.5" stroke-linecap="round"/>
  </g>
  <path d="M -100 1350 C 300 1200, 700 1280, 1100 1200 S 1600 1100, 2000 1180 S 2400 1050, 2900 1100 L 2900 1700 L -100 1700 Z" fill="url(#cool)" opacity="0.1"/>
</svg>
