<svg xmlns="http://www.w3.org/2000/svg" viewBox="0 0 2844 1600">
  <defs>
    <linearGradient id="purpleBlue" x1="0" y1="0" x2="1" y2="1">
      <stop offset="0%" stop-color="#be2edd"/>
      <stop offset="100%" stop-color="#3b82f6"/>
    </linearGradient>
    <linearGradient id="amberDeep" x1="0" y1="0" x2="1" y2="1">
      <stop offset="0%" stop-color="#f59e0b"/>
      <stop offset="100%" stop-color="#9b1fb8"/>
    </linearGradient>
    <radialGradient id="pathGlow" cx="50%" cy="50%" r="60%">
      <stop offset="0%" stop-color="#be2edd" stop-opacity="0.1"/>
      <stop offset="100%" stop-color="#1a1a1a" stop-opacity="0"/>
    </radialGradient>
  </defs>
  <rect fill="#1a1a1a" width="2844" height="1600"/>
  <rect fill="url(#pathGlow)" width="2844" height="1600"/>
  <path d="M 100,1200 C 300,1000 400,1100 600,900 C 800,700 900,850 1100,680 C 1300,510 1400,700 1600,550 C 1800,400 1900,580 2100,440 C 2300,300 2400,480 2600,360 C 2750,270 2844,350 2844,350" fill="none" stroke="#be2edd" stroke-width="8" stroke-opacity="0.45"/>
  <path d="M 100,1280 C 300,1080 400,1180 600,980 C 800,780 900,930 1100,760 C 1300,590 1400,780 1600,630 C 1800,480 1900,660 2100,520 C 2300,380 2400,560 2600,440 C 2750,350 2844,430 2844,430" fill="none" stroke="#3b82f6" stroke-width="4" stroke-opacity="0.3"/>
  <circle cx="600" cy="900" r="45" fill="#be2edd" fill-opacity="0.6"/>
  <circle cx="600" cy="900" r="45" fill="none" stroke="#e0e0e0" stroke-width="4"/>
  <circle cx="900" cy="848" r="40" fill="#3b82f6" fill-opacity="0.5"/>
  <circle cx="900" cy="848" r="40" fill="none" stroke="#e0e0e0" stroke-width="3"/>
  <circle cx="1200" cy="720" r="45" fill="#f59e0b" fill-opacity="0.5"/>
  <circle cx="1200" cy="720" r="45" fill="none" stroke="#e0e0e0" stroke-width="4"/>
  <circle cx="1500" cy="592" r="40" fill="#9b1fb8" fill-opacity="0.5"/>
  <circle cx="1500" cy="592" r="40" fill="none" stroke="#e0e0e0" stroke-width="3"/>
  <circle cx="1800" cy="490" r="45" fill="#be2edd" fill-opacity="0.5"/>
  <circle cx="1800" cy="490" r="45" fill="none" stroke="#e0e0e0" stroke-width="4"/>
  <circle cx="2100" cy="400" r="40" fill="#3b82f6" fill-opacity="0.5"/>
  <circle cx="2100" cy="400" r="40" fill="none" stroke="#e0e0e0" stroke-width="3"/>
  <circle cx="2400" cy="330" r="45" fill="#f59e0b" fill-opacity="0.5"/>
  <circle cx="2400" cy="330" r="45" fill="none" stroke="#e0e0e0" stroke-width="4"/>
  <circle cx="2680" cy="310" r="50" fill="none" stroke="#be2edd" stroke-width="5" stroke-dasharray="15 8"/>
  <circle cx="2680" cy="310" r="30" fill="#be2edd" fill-opacity="0.25"/>
  <g fill="#e0e0e0" fill-opacity="0.12">
    <rect x="560" y="830" width="80" height="10" rx="5"/>
    <rect x="570" y="848" width="60" height="8" rx="4"/>
    <rect x="860" y="778" width="80" height="10" rx="5"/>
    <rect x="870" y="796" width="60" height="8" rx="4"/>
    <rect x="1160" y="650" width="80" height="10" rx="5"/>
    <rect x="1170" y="668" width="60" height="8" rx="4"/>
    <rect x="1460" y="520" width="80" height="10" rx="5"/>
    <rect x="1470" y="538" width="60" height="8" rx="4"/>
    <rect x="1760" y="418" width="80" height="10" rx="5"/>
    <rect x="1770" y="436" width="60" height="8" rx="4"/>
    <rect x="2060" y="330" width="80" height="10" rx="5"/>
    <rect x="2070" y="348" width="60" height="8" rx="4"/>
    <rect x="2360" y="260" width="80" height="10" rx="5"/>
    <rect x="2370" y="278" width="60" height="8" rx="4"/>
  </g>
  <path d="M 0,1400 C 300,1280 600,1460 900,1350 C 1200,1240 1500,1420 1800,1310 C 2100,1200 2400,1380 2844,1280 L 2844,1600 L 0,1600 Z" fill="#9b1fb8" fill-opacity="0.08"/>
  <path d="M 0,1500 C 400,1400 800,1540 1200,1450 C 1600,1360 2000,1500 2400,1420 L 2844,1500 L 2844,1600 L 0,1600 Z" fill="#3b82f6" fill-opacity="0.05"/>
</svg>
