<svg xmlns="http://www.w3.org/2000/svg" viewBox="0 0 2844 1600">
  <defs>
    <linearGradient id="protoGrad" x1="0" y1="0" x2="1" y2="1">
      <stop offset="0%" stop-color="#be2edd"/>
      <stop offset="100%" stop-color="#3b82f6"/>
    </linearGradient>
    <radialGradient id="webGlow" cx="50%" cy="50%" r="50%">
      <stop offset="0%" stop-color="#3b82f6" stop-opacity="0.35"/>
      <stop offset="100%" stop-color="#1a1a1a" stop-opacity="0"/>
    </radialGradient>
    <radialGradient id="nodeAura" cx="50%" cy="50%" r="50%">
      <stop offset="0%" stop-color="#be2edd" stop-opacity="0.5"/>
      <stop offset="100%" stop-color="#1a1a1a" stop-opacity="0"/>
    </radialGradient>
  </defs>
  <rect fill="#1a1a1a" width="2844" height="1600"/>
  <ellipse cx="1422" cy="820" rx="1300" ry="780" fill="url(#webGlow)"/>
  <g fill="none" stroke="#3b82f6" stroke-width="1.5" opacity="0.18">
    <path d="M1422 800 C1100 600, 700 500, 300 480"/>
    <path d="M1422 800 C1200 700, 900 620, 600 700"/>
    <path d="M1422 800 C1300 600, 1250 400, 1100 200"/>
    <path d="M1422 800 C1500 600, 1600 400, 1750 150"/>
    <path d="M1422 800 C1700 700, 2000 600, 2300 550"/>
    <path d="M1422 800 C1800 750, 2200 800, 2700 780"/>
    <path d="M1422 800 C1200 950, 900 1050, 600 1200"/>
    <path d="M1422 800 C1350 1000, 1200 1200, 950 1450"/>
    <path d="M1422 800 C1550 1000, 1700 1200, 1900 1450"/>
    <path d="M1422 800 C1700 900, 2100 1000, 2500 1100"/>
  </g>
  <g fill="none" stroke="#be2edd" stroke-width="2.5" opacity="0.4">
    <path d="M200 900 C500 850, 800 780, 1100 800 C1250 808, 1350 810, 1422 800"/>
    <path d="M2650 700 C2300 720, 2000 760, 1700 780 C1580 786, 1500 790, 1422 800"/>
    <path d="M800 200 C900 350, 1050 500, 1200 620 C1310 700, 1380 760, 1422 800"/>
    <path d="M2100 150 C2000 300, 1850 480, 1700 620 C1590 710, 1500 760, 1422 800"/>
  </g>
  <g opacity="0.15" fill="none" stroke="#f59e0b" stroke-width="1">
    <rect x="320" y="340" width="220" height="140" rx="8" transform="rotate(-4, 430, 410)"/>
    <rect x="600" y="180" width="180" height="110" rx="8" transform="rotate(3, 690, 235)"/>
    <rect x="1850" y="260" width="200" height="130" rx="8" transform="rotate(-3, 1950, 325)"/>
    <rect x="2200" y="420" width="190" height="120" rx="8" transform="rotate(5, 2295, 480)"/>
    <rect x="380" y="1100" width="210" height="130" rx="8" transform="rotate(4, 485, 1165)"/>
    <rect x="2100" y="1150" width="200" height="120" rx="8" transform="rotate(-5, 2200, 1210)"/>
  </g>
  <ellipse cx="1422" cy="800" rx="200" ry="200" fill="url(#nodeAura)"/>
  <circle cx="1422" cy="800" r="70" fill="#be2edd" opacity="0.9"/>
  <circle cx="1422" cy="800" r="110" fill="none" stroke="#be2edd" stroke-width="3" opacity="0.5"/>
  <circle cx="1422" cy="800" r="160" fill="none" stroke="#9b1fb8" stroke-width="2" opacity="0.3"/>
  <g opacity="0.75">
    <circle cx="400" cy="480" r="32" fill="#3b82f6"/>
    <circle cx="700" cy="300" r="24" fill="#3b82f6" opacity="0.8"/>
    <circle cx="1100" cy="200" r="28" fill="#f59e0b"/>
    <circle cx="1750" cy="160" r="26" fill="#3b82f6"/>
    <circle cx="2250" cy="380" r="30" fill="#3b82f6"/>
    <circle cx="2650" cy="680" r="24" fill="#be2edd" opacity="0.8"/>
    <circle cx="2500" cy="1050" r="28" fill="#f59e0b"/>
    <circle cx="2000" cy="1380" r="26" fill="#3b82f6" opacity="0.8"/>
    <circle cx="1000" cy="1450" r="30" fill="#be2edd"/>
    <circle cx="500" cy="1250" r="24" fill="#f59e0b" opacity="0.8"/>
    <circle cx="200" cy="900" r="28" fill="#3b82f6"/>
  </g>
  <g opacity="0.2">
    <rect x="1410" y="250" width="4" height="1100" fill="#e0e0e0" transform="rotate(5, 1422, 800)"/>
    <rect x="700" y="796" width="1444" height="4" fill="#e0e0e0" transform="rotate(-3, 1422, 800)"/>
  </g>
</svg>
