<svg xmlns="http://www.w3.org/2000/svg" viewBox="0 0 2844 1600">
  <defs>
    <linearGradient id="streamIn" x1="0" y1="0" x2="1" y2="0">
      <stop offset="0%" stop-color="#f59e0b" stop-opacity="0"/>
      <stop offset="60%" stop-color="#f59e0b" stop-opacity="0.55"/>
      <stop offset="100%" stop-color="#be2edd" stop-opacity="0.75"/>
    </linearGradient>
    <linearGradient id="streamOut" x1="0" y1="0" x2="1" y2="0">
      <stop offset="0%" stop-color="#be2edd" stop-opacity="0.8"/>
      <stop offset="50%" stop-color="#3b82f6" stop-opacity="0.55"/>
      <stop offset="100%" stop-color="#3b82f6" stop-opacity="0.1"/>
    </linearGradient>
    <linearGradient id="gateGlow" x1="0" y1="0" x2="0" y2="1">
      <stop offset="0%" stop-color="#be2edd" stop-opacity="0.45"/>
      <stop offset="50%" stop-color="#3b82f6" stop-opacity="0.35"/>
      <stop offset="100%" stop-color="#9b1fb8" stop-opacity="0.45"/>
    </linearGradient>
    <radialGradient id="coreGlow" cx="50%" cy="50%" r="50%">
      <stop offset="0%" stop-color="#f59e0b" stop-opacity="0.28"/>
      <stop offset="100%" stop-color="#1a1a1a" stop-opacity="0"/>
    </radialGradient>
    <radialGradient id="centrePulse" cx="50%" cy="50%" r="50%">
      <stop offset="0%" stop-color="#f59e0b" stop-opacity="0.9"/>
      <stop offset="60%" stop-color="#be2edd" stop-opacity="0.3"/>
      <stop offset="100%" stop-color="#1a1a1a" stop-opacity="0"/>
    </radialGradient>
  </defs>
  <rect fill="#1a1a1a" width="2844" height="1600"/>
  <rect fill="url(#coreGlow)" width="2844" height="1600"/>
  <g fill="none" stroke="url(#streamIn)">
    <path d="M 0,180 C 500,180 950,520 1380,780" stroke-width="3" stroke-opacity="0.35"/>
    <path d="M 0,330 C 500,340 950,580 1380,790" stroke-width="3" stroke-opacity="0.4"/>
    <path d="M 0,470 C 500,490 950,650 1380,795" stroke-width="3" stroke-opacity="0.45"/>
    <path d="M 0,600 C 500,620 950,720 1380,800" stroke-width="3.5" stroke-opacity="0.5"/>
    <path d="M 0,720 C 500,735 950,775 1380,805" stroke-width="4" stroke-opacity="0.55"/>
    <path d="M 0,830 C 500,835 950,815 1380,810" stroke-width="4" stroke-opacity="0.55"/>
    <path d="M 0,940 C 500,935 950,875 1380,815" stroke-width="3.5" stroke-opacity="0.5"/>
    <path d="M 0,1060 C 500,1060 950,940 1380,820" stroke-width="3" stroke-opacity="0.45"/>
    <path d="M 0,1200 C 500,1210 950,1030 1380,825" stroke-width="3" stroke-opacity="0.4"/>
    <path d="M 0,1360 C 500,1380 950,1130 1380,830" stroke-width="3" stroke-opacity="0.35"/>
    <path d="M 0,1500 C 500,1520 950,1220 1380,840" stroke-width="2.5" stroke-opacity="0.3"/>
  </g>
  <g>
    <ellipse cx="1422" cy="800" rx="340" ry="380" fill="none" stroke="#be2edd" stroke-width="3" stroke-opacity="0.2"/>
    <ellipse cx="1422" cy="800" rx="260" ry="300" fill="none" stroke="#be2edd" stroke-width="2" stroke-opacity="0.25"/>
    <rect x="1298" y="500" width="248" height="600" rx="44" fill="url(#gateGlow)"/>
    <rect x="1298" y="500" width="248" height="600" rx="44" fill="none" stroke="#be2edd" stroke-width="2.5" stroke-opacity="0.7"/>
    <rect x="1330" y="550" width="184" height="14" rx="7" fill="#e0e0e0" fill-opacity="0.1"/>
    <rect x="1330" y="550" width="128" height="14" rx="7" fill="#be2edd" fill-opacity="0.6"/>
    <rect x="1330" y="588" width="184" height="14" rx="7" fill="#e0e0e0" fill-opacity="0.1"/>
    <rect x="1330" y="588" width="92" height="14" rx="7" fill="#3b82f6" fill-opacity="0.6"/>
    <rect x="1330" y="626" width="184" height="14" rx="7" fill="#e0e0e0" fill-opacity="0.1"/>
    <rect x="1330" y="626" width="156" height="14" rx="7" fill="#f59e0b" fill-opacity="0.6"/>
    <rect x="1330" y="664" width="184" height="14" rx="7" fill="#e0e0e0" fill-opacity="0.1"/>
    <rect x="1330" y="664" width="68" height="14" rx="7" fill="#be2edd" fill-opacity="0.5"/>
    <rect x="1330" y="702" width="184" height="14" rx="7" fill="#e0e0e0" fill-opacity="0.1"/>
    <rect x="1330" y="702" width="140" height="14" rx="7" fill="#3b82f6" fill-opacity="0.5"/>
    <rect x="1330" y="890" width="184" height="14" rx="7" fill="#e0e0e0" fill-opacity="0.1"/>
    <rect x="1330" y="890" width="108" height="14" rx="7" fill="#be2edd" fill-opacity="0.55"/>
    <rect x="1330" y="928" width="184" height="14" rx="7" fill="#e0e0e0" fill-opacity="0.1"/>
    <rect x="1330" y="928" width="48" height="14" rx="7" fill="#f59e0b" fill-opacity="0.55"/>
    <rect x="1330" y="966" width="184" height="14" rx="7" fill="#e0e0e0" fill-opacity="0.1"/>
    <rect x="1330" y="966" width="164" height="14" rx="7" fill="#3b82f6" fill-opacity="0.55"/>
    <rect x="1330" y="1004" width="184" height="14" rx="7" fill="#e0e0e0" fill-opacity="0.1"/>
    <rect x="1330" y="1004" width="80" height="14" rx="7" fill="#be2edd" fill-opacity="0.55"/>
    <rect x="1330" y="1042" width="184" height="14" rx="7" fill="#e0e0e0" fill-opacity="0.1"/>
    <rect x="1330" y="1042" width="132" height="14" rx="7" fill="#f59e0b" fill-opacity="0.55"/>
    <circle cx="1422" cy="800" r="140" fill="url(#centrePulse)"/>
    <circle cx="1422" cy="800" r="52" fill="#f59e0b" fill-opacity="0.85"/>
    <circle cx="1422" cy="800" r="26" fill="#e0e0e0" fill-opacity="0.9"/>
  </g>
  <g transform="translate(2260 1120)">
    <ellipse cx="0" cy="0" rx="180" ry="36" fill="#1a1a1a" stroke="#3b82f6" stroke-width="2.5" stroke-opacity="0.55"/>
    <path d="M -180,0 L -180,220 C -180,242 180,242 180,220 L 180,0" fill="#3b82f6" fill-opacity="0.08" stroke="#3b82f6" stroke-width="2.5" stroke-opacity="0.55"/>
    <ellipse cx="0" cy="72" rx="180" ry="36" fill="none" stroke="#3b82f6" stroke-width="1.5" stroke-opacity="0.3"/>
    <ellipse cx="0" cy="144" rx="180" ry="36" fill="none" stroke="#3b82f6" stroke-width="1.5" stroke-opacity="0.3"/>
  </g>
  <path d="M 1546,1020 C 1750,1080 1980,1130 2130,1130" fill="none" stroke="#3b82f6" stroke-width="3.5" stroke-opacity="0.45" stroke-dasharray="14 10"/>
  <circle cx="1760" cy="1092" r="9" fill="#3b82f6" fill-opacity="0.75"/>
  <circle cx="1960" cy="1122" r="7" fill="#3b82f6" fill-opacity="0.6"/>
  <path d="M 1546,780 C 1900,760 2300,640 2844,560" fill="none" stroke="url(#streamOut)" stroke-width="16" stroke-opacity="0.7"/>
  <path d="M 1546,810 C 1900,790 2300,690 2844,620" fill="none" stroke="url(#streamOut)" stroke-width="10" stroke-opacity="0.45"/>
  <path d="M 1546,840 C 1900,830 2300,770 2844,700" fill="none" stroke="url(#streamOut)" stroke-width="6" stroke-opacity="0.3"/>
  <circle cx="640" cy="410" r="14" fill="#f59e0b" fill-opacity="0.8"/>
  <circle cx="880" cy="700" r="11" fill="#f59e0b" fill-opacity="0.7"/>
  <circle cx="1140" cy="815" r="13" fill="#be2edd" fill-opacity="0.85"/>
  <circle cx="760" cy="1090" r="10" fill="#f59e0b" fill-opacity="0.65"/>
  <circle cx="1820" cy="768" r="18" fill="#3b82f6" fill-opacity="0.85"/>
  <circle cx="2180" cy="670" r="14" fill="#3b82f6" fill-opacity="0.7"/>
  <circle cx="2540" cy="590" r="11" fill="#3b82f6" fill-opacity="0.55"/>
  <circle cx="280" cy="260" r="130" fill="none" stroke="#9b1fb8" stroke-width="2.5" stroke-opacity="0.22"/>
  <circle cx="280" cy="260" r="78" fill="none" stroke="#9b1fb8" stroke-width="2" stroke-opacity="0.18"/>
  <circle cx="280" cy="260" r="32" fill="#9b1fb8" fill-opacity="0.12"/>
  <circle cx="2620" cy="260" r="110" fill="none" stroke="#be2edd" stroke-width="2.5" stroke-opacity="0.22"/>
  <circle cx="2620" cy="260" r="60" fill="none" stroke="#be2edd" stroke-width="2" stroke-opacity="0.18"/>
  <circle cx="340" cy="1360" r="95" fill="none" stroke="#3b82f6" stroke-width="2" stroke-opacity="0.2"/>
  <circle cx="340" cy="1360" r="48" fill="#3b82f6" fill-opacity="0.08"/>
</svg>
