<svg xmlns="http://www.w3.org/2000/svg" viewBox="0 0 2844 1600">
  <defs>
    <linearGradient id="purpleBlue" x1="0" y1="0" x2="1" y2="1">
      <stop offset="0%" stop-color="#be2edd"/>
      <stop offset="100%" stop-color="#3b82f6"/>
    </linearGradient>
    <linearGradient id="amberDeep" x1="0" y1="0" x2="1" y2="1">
      <stop offset="0%" stop-color="#f59e0b"/>
      <stop offset="100%" stop-color="#9b1fb8"/>
    </linearGradient>
    <radialGradient id="glow" cx="50%" cy="50%" r="55%">
      <stop offset="0%" stop-color="#be2edd" stop-opacity="0.1"/>
      <stop offset="100%" stop-color="#1a1a1a" stop-opacity="0"/>
    </radialGradient>
  </defs>
  <rect fill="#1a1a1a" width="2844" height="1600"/>
  <rect fill="url(#glow)" width="2844" height="1600"/>
  <path d="M -100,900 C 300,700 700,1000 1100,800 C 1500,600 1900,850 2300,700 C 2600,580 2844,750 2844,750 L 2844,1700 L -100,1700 Z" fill="#3b82f6" fill-opacity="0.06"/>
  <circle cx="1422" cy="780" r="50" fill="#be2edd" fill-opacity="0.6"/>
  <circle cx="1422" cy="780" r="50" fill="none" stroke="#be2edd" stroke-width="4"/>
  <g stroke="#e0e0e0" stroke-width="2" stroke-opacity="0.2" fill="none">
    <line x1="1422" y1="730" x2="760" y2="300"/>
    <line x1="1422" y1="730" x2="1000" y2="280"/>
    <line x1="1422" y1="730" x2="1240" y2="260"/>
    <line x1="1422" y1="730" x2="1480" y2="260"/>
    <line x1="1422" y1="730" x2="1700" y2="280"/>
    <line x1="1422" y1="730" x2="1940" y2="300"/>
    <line x1="1472" y1="780" x2="2100" y2="580"/>
    <line x1="1472" y1="780" x2="2300" y2="700"/>
    <line x1="1472" y1="780" x2="2400" y2="900"/>
    <line x1="1422" y1="830" x2="2200" y2="1200"/>
    <line x1="1422" y1="830" x2="1800" y2="1300"/>
    <line x1="1422" y1="830" x2="1422" y2="1300"/>
    <line x1="1372" y1="780" x2="600" y2="1200"/>
    <line x1="1372" y1="780" x2="900" y2="1280"/>
    <line x1="1372" y1="780" x2="400" y2="900"/>
  </g>
  <circle cx="760" cy="300" r="44" fill="#be2edd" fill-opacity="0.35"/>
  <circle cx="760" cy="300" r="44" fill="none" stroke="#be2edd" stroke-width="3"/>
  <circle cx="1000" cy="280" r="40" fill="#3b82f6" fill-opacity="0.35"/>
  <circle cx="1000" cy="280" r="40" fill="none" stroke="#3b82f6" stroke-width="3"/>
  <circle cx="1240" cy="260" r="36" fill="#f59e0b" fill-opacity="0.35"/>
  <circle cx="1240" cy="260" r="36" fill="none" stroke="#f59e0b" stroke-width="3"/>
  <circle cx="1480" cy="260" r="36" fill="#9b1fb8" fill-opacity="0.4"/>
  <circle cx="1480" cy="260" r="36" fill="none" stroke="#9b1fb8" stroke-width="3"/>
  <circle cx="1700" cy="280" r="40" fill="#be2edd" fill-opacity="0.3"/>
  <circle cx="1700" cy="280" r="40" fill="none" stroke="#be2edd" stroke-width="3"/>
  <circle cx="1940" cy="300" r="44" fill="#3b82f6" fill-opacity="0.3"/>
  <circle cx="1940" cy="300" r="44" fill="none" stroke="#3b82f6" stroke-width="3"/>
  <circle cx="2100" cy="580" r="38" fill="#f59e0b" fill-opacity="0.3"/>
  <circle cx="2100" cy="580" r="38" fill="none" stroke="#f59e0b" stroke-width="3"/>
  <circle cx="2300" cy="700" r="42" fill="#9b1fb8" fill-opacity="0.35"/>
  <circle cx="2300" cy="700" r="42" fill="none" stroke="#9b1fb8" stroke-width="3"/>
  <circle cx="2400" cy="900" r="38" fill="#be2edd" fill-opacity="0.28"/>
  <circle cx="2400" cy="900" r="38" fill="none" stroke="#be2edd" stroke-width="3"/>
  <circle cx="2200" cy="1200" r="40" fill="#3b82f6" fill-opacity="0.3"/>
  <circle cx="2200" cy="1200" r="40" fill="none" stroke="#3b82f6" stroke-width="3"/>
  <circle cx="1800" cy="1300" r="38" fill="#f59e0b" fill-opacity="0.3"/>
  <circle cx="1800" cy="1300" r="38" fill="none" stroke="#f59e0b" stroke-width="3"/>
  <circle cx="1422" cy="1300" r="44" fill="#9b1fb8" fill-opacity="0.35"/>
  <circle cx="1422" cy="1300" r="44" fill="none" stroke="#9b1fb8" stroke-width="3"/>
  <circle cx="900" cy="1280" r="40" fill="#be2edd" fill-opacity="0.3"/>
  <circle cx="900" cy="1280" r="40" fill="none" stroke="#be2edd" stroke-width="3"/>
  <circle cx="600" cy="1200" r="44" fill="#3b82f6" fill-opacity="0.3"/>
  <circle cx="600" cy="1200" r="44" fill="none" stroke="#3b82f6" stroke-width="3"/>
  <circle cx="400" cy="900" r="40" fill="#f59e0b" fill-opacity="0.3"/>
  <circle cx="400" cy="900" r="40" fill="none" stroke="#f59e0b" stroke-width="3"/>
  <rect x="660" y="270" width="80" height="10" rx="5" fill="#e0e0e0" fill-opacity="0.3"/>
  <rect x="660" y="288" width="60" height="8" rx="4" fill="#e0e0e0" fill-opacity="0.2"/>
  <rect x="900" y="248" width="80" height="10" rx="5" fill="#e0e0e0" fill-opacity="0.3"/>
  <rect x="900" y="266" width="60" height="8" rx="4" fill="#e0e0e0" fill-opacity="0.2"/>
  <path d="M -50,500 C 200,400 400,580 600,480 C 800,380 900,500 1100,420" fill="none" stroke="#9b1fb8" stroke-width="2" stroke-opacity="0.2"/>
  <path d="M 1744,500 C 2000,400 2200,550 2400,460 C 2600,370 2700,500 2900,420" fill="none" stroke="#9b1fb8" stroke-width="2" stroke-opacity="0.18"/>
</svg>
