<svg xmlns="http://www.w3.org/2000/svg" viewBox="0 0 2844 1600">
  <defs>
    <radialGradient id="core" cx="50%" cy="50%" r="50%">
      <stop offset="0" stop-color="#f59e0b"/>
      <stop offset="0.5" stop-color="#be2edd"/>
      <stop offset="1" stop-color="#1a1a1a"/>
    </radialGradient>
    <linearGradient id="wave1" x1="0" y1="0" x2="1" y2="0">
      <stop offset="0" stop-color="#3b82f6"/>
      <stop offset="1" stop-color="#be2edd"/>
    </linearGradient>
    <linearGradient id="wave2" x1="0" y1="0" x2="1" y2="0">
      <stop offset="0" stop-color="#be2edd"/>
      <stop offset="1" stop-color="#f59e0b"/>
    </linearGradient>
    <linearGradient id="gridLine" x1="0" y1="0" x2="0" y2="1">
      <stop offset="0" stop-color="#3b82f6" stop-opacity="0.6"/>
      <stop offset="1" stop-color="#3b82f6" stop-opacity="0"/>
    </linearGradient>
  </defs>
  <rect fill="#1a1a1a" width="2844" height="1600"/>
  <g opacity="0.12">
    <path d="M 400 0 L 400 1600" stroke="#3b82f6" stroke-width="1"/>
    <path d="M 800 0 L 800 1600" stroke="#3b82f6" stroke-width="1"/>
    <path d="M 1200 0 L 1200 1600" stroke="#3b82f6" stroke-width="1"/>
    <path d="M 1600 0 L 1600 1600" stroke="#3b82f6" stroke-width="1"/>
    <path d="M 2000 0 L 2000 1600" stroke="#3b82f6" stroke-width="1"/>
    <path d="M 2400 0 L 2400 1600" stroke="#3b82f6" stroke-width="1"/>
    <path d="M 0 400 L 2844 400" stroke="#3b82f6" stroke-width="1"/>
    <path d="M 0 800 L 2844 800" stroke="#3b82f6" stroke-width="1"/>
    <path d="M 0 1200 L 2844 1200" stroke="#3b82f6" stroke-width="1"/>
  </g>
  <circle cx="1422" cy="800" r="520" fill="url(#core)" opacity="0.55"/>
  <circle cx="1422" cy="800" r="380" fill="none" stroke="#be2edd" stroke-width="2" opacity="0.4"/>
  <circle cx="1422" cy="800" r="260" fill="none" stroke="#f59e0b" stroke-width="1.5" opacity="0.5"/>
  <g transform="rotate(-5 1422 800)">
    <path d="M -100 800 C 200 640, 500 720, 800 660 S 1100 540, 1422 620 S 1744 700, 2044 640 S 2344 520, 2944 680" stroke="url(#wave1)" stroke-width="4" fill="none" opacity="0.8"/>
  </g>
  <g transform="rotate(3 1422 800)">
    <path d="M -100 860 C 300 720, 600 800, 900 740 S 1200 620, 1422 680 S 1644 740, 1944 680 S 2244 560, 2944 720" stroke="url(#wave1)" stroke-width="3" fill="none" opacity="0.6"/>
  </g>
  <g transform="rotate(7 1422 800)">
    <path d="M -100 920 C 200 780, 500 860, 800 800 S 1100 680, 1422 740 S 1744 800, 2044 740 S 2344 620, 2944 760" stroke="url(#wave2)" stroke-width="3.5" fill="none" opacity="0.7"/>
  </g>
  <g transform="rotate(-4 1422 800)">
    <path d="M -100 740 C 300 600, 600 680, 900 620 S 1200 500, 1422 560 S 1644 620, 1944 560 S 2244 440, 2944 600" stroke="url(#wave2)" stroke-width="2.5" fill="none" opacity="0.5"/>
  </g>
  <g transform="rotate(2 1422 800)">
    <path d="M -100 680 C 200 540, 500 620, 800 560 S 1100 440, 1422 500 S 1744 560, 2044 500 S 2344 380, 2944 540" stroke="#f59e0b" stroke-width="2" fill="none" opacity="0.4"/>
  </g>
  <circle cx="1422" cy="800" r="60" fill="#f59e0b" opacity="0.9"/>
  <circle cx="1422" cy="800" r="30" fill="#e0e0e0" opacity="0.8"/>
</svg>
