<svg xmlns="http://www.w3.org/2000/svg" viewBox="0 0 2844 1600">
  <defs>
    <radialGradient id="ear-glow" cx="50%" cy="50%" r="50%">
      <stop offset="0%" stop-color="#3b82f6" stop-opacity="0.4"/>
      <stop offset="100%" stop-color="#1a1a1a" stop-opacity="0"/>
    </radialGradient>
    <radialGradient id="out-glow" cx="50%" cy="50%" r="50%">
      <stop offset="0%" stop-color="#be2edd" stop-opacity="0.35"/>
      <stop offset="100%" stop-color="#1a1a1a" stop-opacity="0"/>
    </radialGradient>
    <linearGradient id="wave-grad" x1="0%" y1="0%" x2="100%" y2="0%">
      <stop offset="0%" stop-color="#3b82f6" stop-opacity="0"/>
      <stop offset="30%" stop-color="#3b82f6" stop-opacity="0.8"/>
      <stop offset="70%" stop-color="#be2edd" stop-opacity="0.8"/>
      <stop offset="100%" stop-color="#be2edd" stop-opacity="0"/>
    </linearGradient>
  </defs>
  <rect fill="#1a1a1a" width="2844" height="1600"/>
  <rect x="0" y="0" width="1422" height="1600" fill="url(#ear-glow)"/>
  <rect x="1422" y="0" width="1422" height="1600" fill="url(#out-glow)"/>
  <g opacity="0.5">
    <path d="M200,800 C300,500 600,300 900,400 C1100,470 1250,650 1300,800 C1350,950 1250,1130 1100,1200 C800,1300 500,1150 350,950 C250,820 200,800 200,800 Z" stroke="#3b82f6" stroke-width="3" fill="none" opacity="0.6"/>
    <path d="M350,800 C420,580 620,420 850,500 C1020,560 1130,700 1160,800 C1190,900 1120,1050 980,1110 C750,1200 520,1080 420,930 C360,850 350,800 350,800 Z" stroke="#3b82f6" stroke-width="2" fill="none" opacity="0.4"/>
    <path d="M500,800 C560,660 680,560 820,600 C930,630 1000,730 1020,800 C1040,870 1000,970 900,1010 C740,1080 580,1000 520,900 C500,850 500,800 500,800 Z" stroke="#3b82f6" stroke-width="1.5" fill="none" opacity="0.3"/>
  </g>
  <g opacity="0.5">
    <path d="M2644,800 C2544,500 2244,300 1944,400 C1744,470 1594,650 1544,800 C1494,950 1594,1130 1744,1200 C2044,1300 2344,1150 2494,950 C2594,820 2644,800 2644,800 Z" stroke="#be2edd" stroke-width="3" fill="none" opacity="0.6"/>
    <path d="M2494,800 C2424,580 2224,420 1994,500 C1824,560 1714,700 1684,800 C1654,900 1724,1050 1864,1110 C2094,1200 2324,1080 2424,930 C2484,850 2494,800 2494,800 Z" stroke="#be2edd" stroke-width="2" fill="none" opacity="0.4"/>
    <path d="M2344,800 C2284,660 2164,560 2024,600 C1914,630 1844,730 1824,800 C1804,870 1844,970 1944,1010 C2104,1080 2264,1000 2324,900 C2344,850 2344,800 2344,800 Z" stroke="#be2edd" stroke-width="1.5" fill="none" opacity="0.3"/>
  </g>
  <g opacity="0.6">
    <path d="M0,750 C250,700 500,780 750,720 C1000,660 1200,740 1422,730" stroke="url(#wave-grad)" stroke-width="4" fill="none"/>
    <path d="M1422,730 C1622,720 1822,810 2044,760 C2266,710 2544,790 2844,750" stroke="url(#wave-grad)" stroke-width="4" fill="none"/>
    <path d="M0,820 C200,780 450,860 700,810 C950,760 1150,840 1422,820" stroke="url(#wave-grad)" stroke-width="3" fill="none" opacity="0.6"/>
    <path d="M1422,820 C1650,800 1900,880 2150,830 C2400,780 2650,860 2844,830" stroke="url(#wave-grad)" stroke-width="3" fill="none" opacity="0.6"/>
  </g>
  <line x1="1422" y1="0" x2="1422" y2="1600" stroke="#e0e0e0" stroke-width="1" opacity="0.06"/>
  <g opacity="0.35">
    <circle cx="1422" cy="800" r="15" fill="#f59e0b"/>
    <circle cx="1422" cy="800" r="50" stroke="#f59e0b" stroke-width="2" fill="none" opacity="0.5"/>
    <circle cx="1422" cy="800" r="100" stroke="#f59e0b" stroke-width="1" fill="none" opacity="0.3"/>
  </g>
  <g opacity="0.15">
    <path d="M-200,400 C500,250 1000,500 1422,350 C1844,200 2344,450 3044,300" stroke="#e0e0e0" stroke-width="1" fill="none"/>
    <path d="M-200,1200 C500,1050 1000,1300 1422,1150 C1844,1000 2344,1250 3044,1100" stroke="#e0e0e0" stroke-width="1" fill="none"/>
  </g>
</svg>
