<svg xmlns="http://www.w3.org/2000/svg" viewBox="0 0 2844 1600">
  <defs>
    <linearGradient id="purpleBlue" x1="0" y1="0" x2="1" y2="1">
      <stop offset="0%" stop-color="#be2edd"/>
      <stop offset="100%" stop-color="#3b82f6"/>
    </linearGradient>
    <linearGradient id="amberDeep" x1="0" y1="0" x2="1" y2="1">
      <stop offset="0%" stop-color="#f59e0b"/>
      <stop offset="100%" stop-color="#9b1fb8"/>
    </linearGradient>
    <radialGradient id="glow1" cx="20%" cy="40%" r="35%">
      <stop offset="0%" stop-color="#be2edd" stop-opacity="0.2"/>
      <stop offset="100%" stop-color="#1a1a1a" stop-opacity="0"/>
    </radialGradient>
    <radialGradient id="glow2" cx="50%" cy="60%" r="35%">
      <stop offset="0%" stop-color="#3b82f6" stop-opacity="0.18"/>
      <stop offset="100%" stop-color="#1a1a1a" stop-opacity="0"/>
    </radialGradient>
    <radialGradient id="glow3" cx="80%" cy="40%" r="35%">
      <stop offset="0%" stop-color="#f59e0b" stop-opacity="0.18"/>
      <stop offset="100%" stop-color="#1a1a1a" stop-opacity="0"/>
    </radialGradient>
  </defs>
  <rect fill="#1a1a1a" width="2844" height="1600"/>
  <rect fill="url(#glow1)" width="2844" height="1600"/>
  <rect fill="url(#glow2)" width="2844" height="1600"/>
  <rect fill="url(#glow3)" width="2844" height="1600"/>
  <path d="M -100,800 C 300,600 600,1000 900,750 C 1200,500 1500,900 1800,700 C 2100,500 2400,850 2944,650 L 2944,1800 L -100,1800 Z" fill="#9b1fb8" fill-opacity="0.07"/>
  <rect x="150" y="350" width="720" height="780" rx="32" fill="none" stroke="#be2edd" stroke-width="5" transform="rotate(-3 510 740)"/>
  <rect x="170" y="370" width="680" height="740" rx="24" fill="#be2edd" fill-opacity="0.06" transform="rotate(-3 510 740)"/>
  <g transform="rotate(-3 510 740)">
    <circle cx="510" cy="480" r="60" fill="none" stroke="#be2edd" stroke-width="4" stroke-opacity="0.6"/>
    <text x="510" y="490" text-anchor="middle" font-size="52" fill="#be2edd" fill-opacity="0.7" font-family="serif">?</text>
    <rect x="220" y="580" width="560" height="16" rx="8" fill="#be2edd" fill-opacity="0.35"/>
    <rect x="250" y="614" width="500" height="12" rx="6" fill="#e0e0e0" fill-opacity="0.15"/>
    <rect x="270" y="642" width="460" height="12" rx="6" fill="#e0e0e0" fill-opacity="0.12"/>
    <rect x="240" y="700" width="520" height="16" rx="8" fill="#be2edd" fill-opacity="0.2"/>
    <rect x="260" y="734" width="480" height="12" rx="6" fill="#e0e0e0" fill-opacity="0.1"/>
    <rect x="280" y="762" width="420" height="12" rx="6" fill="#e0e0e0" fill-opacity="0.1"/>
    <rect x="250" y="820" width="500" height="16" rx="8" fill="#be2edd" fill-opacity="0.15"/>
    <rect x="270" y="854" width="440" height="12" rx="6" fill="#e0e0e0" fill-opacity="0.08"/>
    <rect x="290" y="882" width="380" height="12" rx="6" fill="#e0e0e0" fill-opacity="0.08"/>
    <rect x="260" y="940" width="460" height="14" rx="7" fill="#be2edd" fill-opacity="0.12"/>
  </g>
  <rect x="1062" y="350" width="720" height="780" rx="32" fill="none" stroke="#3b82f6" stroke-width="5" transform="rotate(1 1422 740)"/>
  <rect x="1082" y="370" width="680" height="740" rx="24" fill="#3b82f6" fill-opacity="0.06" transform="rotate(1 1422 740)"/>
  <g transform="rotate(1 1422 740)">
    <circle cx="1422" cy="480" r="60" fill="none" stroke="#3b82f6" stroke-width="4" stroke-opacity="0.6"/>
    <text x="1422" y="490" text-anchor="middle" font-size="52" fill="#3b82f6" fill-opacity="0.7" font-family="serif">?</text>
    <rect x="1132" y="580" width="560" height="16" rx="8" fill="#3b82f6" fill-opacity="0.35"/>
    <rect x="1152" y="614" width="500" height="12" rx="6" fill="#e0e0e0" fill-opacity="0.15"/>
    <rect x="1172" y="642" width="460" height="12" rx="6" fill="#e0e0e0" fill-opacity="0.12"/>
    <rect x="1142" y="700" width="520" height="16" rx="8" fill="#3b82f6" fill-opacity="0.2"/>
    <rect x="1162" y="734" width="480" height="12" rx="6" fill="#e0e0e0" fill-opacity="0.1"/>
    <rect x="1182" y="762" width="420" height="12" rx="6" fill="#e0e0e0" fill-opacity="0.1"/>
    <rect x="1152" y="820" width="500" height="16" rx="8" fill="#3b82f6" fill-opacity="0.15"/>
    <rect x="1172" y="854" width="440" height="12" rx="6" fill="#e0e0e0" fill-opacity="0.08"/>
  </g>
  <rect x="1974" y="350" width="720" height="780" rx="32" fill="none" stroke="#f59e0b" stroke-width="5" transform="rotate(-2 2334 740)"/>
  <rect x="1994" y="370" width="680" height="740" rx="24" fill="#f59e0b" fill-opacity="0.05" transform="rotate(-2 2334 740)"/>
  <g transform="rotate(-2 2334 740)">
    <circle cx="2334" cy="480" r="60" fill="none" stroke="#f59e0b" stroke-width="4" stroke-opacity="0.6"/>
    <text x="2334" y="490" text-anchor="middle" font-size="52" fill="#f59e0b" fill-opacity="0.7" font-family="serif">?</text>
    <rect x="2044" y="580" width="560" height="16" rx="8" fill="#f59e0b" fill-opacity="0.3"/>
    <rect x="2064" y="614" width="500" height="12" rx="6" fill="#e0e0e0" fill-opacity="0.15"/>
    <rect x="2084" y="642" width="460" height="12" rx="6" fill="#e0e0e0" fill-opacity="0.12"/>
    <rect x="2054" y="700" width="520" height="16" rx="8" fill="#f59e0b" fill-opacity="0.18"/>
    <rect x="2074" y="734" width="480" height="12" rx="6" fill="#e0e0e0" fill-opacity="0.1"/>
    <rect x="2094" y="762" width="420" height="12" rx="6" fill="#e0e0e0" fill-opacity="0.1"/>
  </g>
  <path d="M 870,640 C 960,620 1000,720 1062,700" fill="none" stroke="#e0e0e0" stroke-width="3" stroke-opacity="0.2"/>
  <path d="M 1782,640 C 1870,620 1910,720 1974,700" fill="none" stroke="#e0e0e0" stroke-width="3" stroke-opacity="0.2"/>
</svg>
