<svg xmlns="http://www.w3.org/2000/svg" viewBox="0 0 2844 1600">
  <defs>
    <linearGradient id="loopGrad" x1="0" y1="0" x2="1" y2="1">
      <stop offset="0%" stop-color="#be2edd"/>
      <stop offset="100%" stop-color="#f59e0b"/>
    </linearGradient>
    <radialGradient id="loopGlow" cx="50%" cy="50%" r="50%">
      <stop offset="0%" stop-color="#be2edd" stop-opacity="0.4"/>
      <stop offset="100%" stop-color="#1a1a1a" stop-opacity="0"/>
    </radialGradient>
  </defs>
  <rect fill="#1a1a1a" width="2844" height="1600"/>
  <ellipse cx="1422" cy="800" rx="1200" ry="750" fill="url(#loopGlow)"/>
  <g fill="none" stroke-linecap="round" stroke-linejoin="round">
    <path d="M 1422 350 C 1750 350, 2050 540, 2150 800 C 2250 1060, 2100 1350, 1750 1450 C 1400 1550, 1050 1450, 800 1250 C 550 1050, 550 700, 750 500 C 950 300, 1200 280, 1422 350" fill="none" stroke="#be2edd" stroke-width="5" opacity="0.6"/>
    <path d="M 1422 500 C 1680 500, 1880 650, 1950 830 C 2020 1010, 1920 1220, 1720 1320 C 1520 1420, 1260 1380, 1080 1240 C 900 1100, 860 880, 920 700 C 980 520, 1200 460, 1422 500" fill="none" stroke="#9b1fb8" stroke-width="4" opacity="0.5"/>
    <path d="M 1422 650 C 1580 650, 1720 740, 1770 860 C 1820 980, 1760 1130, 1640 1200 C 1520 1270, 1360 1250, 1240 1160 C 1120 1070, 1080 920, 1120 800 C 1160 680, 1290 620, 1422 650" fill="none" stroke="#f59e0b" stroke-width="3" opacity="0.55"/>
  </g>
  <g opacity="0.8">
    <path d="M 2148 790 L 2180 770 L 2165 810 Z" fill="#be2edd"/>
    <path d="M 1945 808 L 1975 788 L 1960 828 Z" fill="#9b1fb8"/>
    <path d="M 1768 848 L 1795 828 L 1783 868 Z" fill="#f59e0b"/>
  </g>
  <g opacity="0.8">
    <circle cx="1422" cy="350" r="36" fill="#be2edd"/>
    <circle cx="1422" cy="500" r="30" fill="#9b1fb8"/>
    <circle cx="1422" cy="650" r="24" fill="#f59e0b"/>
  </g>
  <g fill="none" stroke="#e0e0e0" stroke-width="1" opacity="0.08">
    <circle cx="1422" cy="800" r="450"/>
    <circle cx="1422" cy="800" r="700"/>
    <circle cx="1422" cy="800" r="950"/>
  </g>
  <circle cx="1422" cy="800" r="65" fill="#be2edd" opacity="0.85"/>
  <circle cx="1422" cy="800" r="110" fill="none" stroke="#be2edd" stroke-width="3" opacity="0.3"/>
  <g opacity="0.35">
    <circle cx="500" cy="500" r="20" fill="#3b82f6"/>
    <circle cx="2350" cy="500" r="20" fill="#3b82f6"/>
    <circle cx="500" cy="1100" r="20" fill="#3b82f6"/>
    <circle cx="2350" cy="1100" r="20" fill="#3b82f6"/>
    <circle cx="1422" cy="200" r="20" fill="#3b82f6"/>
    <circle cx="1422" cy="1400" r="20" fill="#3b82f6"/>
  </g>
</svg>
