<svg xmlns="http://www.w3.org/2000/svg" viewBox="0 0 2844 1600">
  <defs>
    <linearGradient id="glow" x1="0" y1="0" x2="1" y2="1">
      <stop offset="0" stop-color="#9b1fb8"/>
      <stop offset="1" stop-color="#be2edd"/>
    </linearGradient>
    <linearGradient id="cool" x1="0" y1="0" x2="1" y2="1">
      <stop offset="0" stop-color="#3b82f6"/>
      <stop offset="1" stop-color="#9b1fb8"/>
    </linearGradient>
    <linearGradient id="warmth" x1="0" y1="1" x2="1" y2="0">
      <stop offset="0" stop-color="#be2edd"/>
      <stop offset="1" stop-color="#f59e0b"/>
    </linearGradient>
    <radialGradient id="haze-l" cx="0.2" cy="0.5" r="0.45">
      <stop offset="0" stop-color="#3b82f6" stop-opacity="0.1"/>
      <stop offset="1" stop-color="#1a1a1a" stop-opacity="0"/>
    </radialGradient>
    <radialGradient id="haze-r" cx="0.8" cy="0.5" r="0.45">
      <stop offset="0" stop-color="#be2edd" stop-opacity="0.1"/>
      <stop offset="1" stop-color="#1a1a1a" stop-opacity="0"/>
    </radialGradient>
  </defs>
  <rect fill="#1a1a1a" width="2844" height="1600"/>
  <rect fill="url(#haze-l)" width="2844" height="1600"/>
  <rect fill="url(#haze-r)" width="2844" height="1600"/>
  <g opacity="0.15">
    <circle cx="600" cy="500" r="180" fill="url(#cool)"/>
    <circle cx="600" cy="500" r="180" fill="none" stroke="#3b82f6" stroke-width="5"/>
    <circle cx="1200" cy="700" r="160" fill="url(#glow)"/>
    <circle cx="1200" cy="700" r="160" fill="none" stroke="#be2edd" stroke-width="5"/>
    <circle cx="1800" cy="500" r="170" fill="url(#cool)"/>
    <circle cx="1800" cy="500" r="170" fill="none" stroke="#3b82f6" stroke-width="5"/>
    <circle cx="2400" cy="700" r="150" fill="url(#glow)"/>
    <circle cx="2400" cy="700" r="150" fill="none" stroke="#9b1fb8" stroke-width="5"/>
    <circle cx="900" cy="1100" r="155" fill="url(#glow)"/>
    <circle cx="900" cy="1100" r="155" fill="none" stroke="#be2edd" stroke-width="4"/>
    <circle cx="1600" cy="1000" r="145" fill="url(#cool)"/>
    <circle cx="1600" cy="1000" r="145" fill="none" stroke="#3b82f6" stroke-width="4"/>
    <circle cx="2200" cy="1150" r="140" fill="url(#glow)"/>
    <circle cx="2200" cy="1150" r="140" fill="none" stroke="#9b1fb8" stroke-width="4"/>
  </g>
  <g stroke="#be2edd" fill="none" stroke-linecap="round" opacity="0.28">
    <path d="M 600 500 C 850 580, 1000 640, 1200 700" stroke-width="5"/>
    <path d="M 1200 700 C 1450 620, 1600 550, 1800 500" stroke-width="5"/>
    <path d="M 1800 500 C 2050 570, 2200 620, 2400 700" stroke-width="5"/>
    <path d="M 600 500 C 680 700, 760 880, 900 1100" stroke-width="4"/>
    <path d="M 1200 700 C 1200 820, 1300 920, 1600 1000" stroke-width="4"/>
    <path d="M 1800 500 C 1800 650, 1950 800, 2200 1150" stroke-width="4"/>
    <path d="M 900 1100 C 1150 1050, 1350 1020, 1600 1000" stroke-width="4"/>
    <path d="M 1600 1000 C 1850 1050, 2050 1100, 2200 1150" stroke-width="4"/>
    <path d="M 2400 700 C 2380 880, 2330 1020, 2200 1150" stroke-width="4"/>
  </g>
  <g opacity="0.4">
    <circle cx="600" cy="500" r="22" fill="#3b82f6"/>
    <circle cx="1200" cy="700" r="26" fill="#be2edd"/>
    <circle cx="1800" cy="500" r="24" fill="#3b82f6"/>
    <circle cx="2400" cy="700" r="20" fill="#9b1fb8"/>
    <circle cx="900" cy="1100" r="22" fill="#be2edd"/>
    <circle cx="1600" cy="1000" r="22" fill="#3b82f6"/>
    <circle cx="2200" cy="1150" r="20" fill="#9b1fb8"/>
  </g>
  <g opacity="0.2">
    <path d="M 200 250 C 600 200, 1000 230, 1422 200 S 1900 170, 2400 190 S 2700 175, 2900 185" fill="none" stroke="#e0e0e0" stroke-width="2.5" stroke-linecap="round"/>
    <path d="M 100 380 C 500 340, 900 360, 1300 335 S 1700 310, 2100 330 S 2500 305, 2800 320" fill="none" stroke="#e0e0e0" stroke-width="1.5" stroke-linecap="round"/>
  </g>
  <path d="M -100 1400 C 400 1330, 900 1370, 1422 1310 S 2100 1250, 2900 1290 L 2900 1700 L -100 1700 Z" fill="url(#cool)" opacity="0.12"/>
  <g opacity="0.18">
    <path d="M 300 1500 C 700 1450, 1100 1480, 1422 1440 S 1900 1400, 2300 1430 S 2650 1400, 2900 1420" fill="none" stroke="#f59e0b" stroke-width="3" stroke-linecap="round"/>
  </g>
</svg>
