<svg xmlns="http://www.w3.org/2000/svg" viewBox="0 0 2844 1600">
  <defs>
    <linearGradient id="cap" x1="0" y1="0" x2="1" y2="1">
      <stop offset="0" stop-color="#be2edd"/>
      <stop offset="1" stop-color="#9b1fb8"/>
    </linearGradient>
    <radialGradient id="celebration" cx="0.5" cy="0.5" r="0.5">
      <stop offset="0" stop-color="#f59e0b" stop-opacity="0.5"/>
      <stop offset="0.5" stop-color="#be2edd" stop-opacity="0.2"/>
      <stop offset="1" stop-color="#1a1a1a" stop-opacity="0"/>
    </radialGradient>
    <linearGradient id="neural" x1="0" y1="0" x2="1" y2="1">
      <stop offset="0" stop-color="#3b82f6"/>
      <stop offset="1" stop-color="#be2edd"/>
    </linearGradient>
    <radialGradient id="brain-alt" cx="0.5" cy="0.4" r="0.6">
      <stop offset="0" stop-color="#9b1fb8" stop-opacity="0.25"/>
      <stop offset="1" stop-color="#9b1fb8" stop-opacity="0"/>
    </radialGradient>
  </defs>
  <rect fill="#1a1a1a" width="2844" height="1600"/>
  <ellipse cx="1422" cy="800" rx="900" ry="700" fill="url(#celebration)"/>
  <ellipse cx="1422" cy="780" rx="650" ry="500" fill="url(#brain-alt)"/>
  <g opacity="0.5" fill="none" stroke="url(#neural)" stroke-width="2">
    <path d="M 700 600 C 900 500 1100 550 1200 480 C 1300 410 1400 460 1500 400"/>
    <path d="M 800 700 C 950 620 1100 660 1250 600 C 1400 540 1550 580 1700 520"/>
    <path d="M 750 800 C 950 730 1100 760 1300 700 C 1500 640 1650 680 1850 620"/>
    <path d="M 700 900 C 900 840 1100 870 1300 810 C 1500 750 1700 790 1900 730"/>
    <path d="M 750 1000 C 950 940 1150 970 1350 910 C 1550 850 1750 890 1950 830"/>
    <path d="M 800 680 C 1000 750 1150 720 1300 780 C 1450 840 1600 800 1750 860"/>
    <path d="M 900 560 C 1050 640 1200 600 1400 660 C 1600 720 1750 680 1900 740"/>
  </g>
  <g opacity="0.7">
    <circle cx="700" cy="600" r="14" fill="#3b82f6"/>
    <circle cx="1200" cy="480" r="12" fill="#be2edd"/>
    <circle cx="1500" cy="400" r="10" fill="#9b1fb8"/>
    <circle cx="800" cy="700" r="12" fill="#3b82f6"/>
    <circle cx="1250" cy="600" r="14" fill="#be2edd"/>
    <circle cx="1700" cy="520" r="10" fill="#9b1fb8"/>
    <circle cx="750" cy="800" r="10" fill="#3b82f6"/>
    <circle cx="1300" cy="700" r="16" fill="#be2edd"/>
    <circle cx="1850" cy="620" r="12" fill="#9b1fb8"/>
    <circle cx="700" cy="900" r="14" fill="#3b82f6"/>
    <circle cx="1300" cy="810" r="10" fill="#be2edd"/>
    <circle cx="1900" cy="730" r="12" fill="#9b1fb8"/>
    <circle cx="800" cy="680" r="10" fill="#3b82f6"/>
    <circle cx="1300" cy="780" r="14" fill="#be2edd"/>
    <circle cx="1750" cy="860" r="10" fill="#9b1fb8"/>
  </g>
  <g fill="#f59e0b" opacity="0.8">
    <polygon points="1300,360 1422,220 1544,360 1492,360 1492,420 1352,420 1352,360" transform="rotate(3 1422 340)"/>
    <rect x="1392" y="415" width="60" height="5" fill="#f59e0b" transform="rotate(3 1422 420)"/>
    <path d="M 1350 425 L 1422 480 L 1494 425" fill="none" stroke="#f59e0b" stroke-width="3"/>
  </g>
  <g fill="#f59e0b" opacity="0.6">
    <circle cx="600" cy="350" r="8"/>
    <circle cx="650" cy="280" r="6"/>
    <circle cx="720" cy="320" r="10"/>
    <circle cx="560" cy="410" r="7"/>
    <circle cx="2200" cy="380" r="8"/>
    <circle cx="2250" cy="300" r="6"/>
    <circle cx="2160" cy="340" r="10"/>
    <circle cx="2290" cy="440" r="7"/>
    <circle cx="1200" cy="230" r="7"/>
    <circle cx="1650" cy="250" r="8"/>
    <circle cx="1350" cy="180" r="6"/>
    <circle cx="1500" cy="195" r="9"/>
    <circle cx="1100" cy="310" r="5"/>
    <circle cx="1750" cy="290" r="6"/>
  </g>
  <path d="M 980 1200 C 1100 1150 1300 1140 1422 1160 C 1544 1180 1750 1160 1870 1130" fill="none" stroke="#e0e0e0" stroke-width="1.5" opacity="0.15"/>
  <path d="M 1100 1320 C 1200 1280 1310 1260 1422 1275 C 1534 1290 1650 1265 1750 1240" fill="none" stroke="#e0e0e0" stroke-width="1" opacity="0.1"/>
</svg>
