<svg xmlns="http://www.w3.org/2000/svg" viewBox="0 0 2844 1600">
  <defs>
    <linearGradient id="purpleBlue" x1="0" y1="0" x2="1" y2="1">
      <stop offset="0%" stop-color="#be2edd"/>
      <stop offset="100%" stop-color="#3b82f6"/>
    </linearGradient>
    <linearGradient id="amberPurple" x1="0" y1="0" x2="1" y2="1">
      <stop offset="0%" stop-color="#f59e0b"/>
      <stop offset="100%" stop-color="#9b1fb8"/>
    </linearGradient>
    <radialGradient id="termGlow" cx="30%" cy="50%" r="45%">
      <stop offset="0%" stop-color="#3b82f6" stop-opacity="0.15"/>
      <stop offset="100%" stop-color="#1a1a1a" stop-opacity="0"/>
    </radialGradient>
    <radialGradient id="browserGlow" cx="70%" cy="50%" r="45%">
      <stop offset="0%" stop-color="#f59e0b" stop-opacity="0.12"/>
      <stop offset="100%" stop-color="#1a1a1a" stop-opacity="0"/>
    </radialGradient>
  </defs>
  <rect fill="#1a1a1a" width="2844" height="1600"/>
  <rect fill="url(#termGlow)" width="2844" height="1600"/>
  <rect fill="url(#browserGlow)" width="2844" height="1600"/>
  <rect x="100" y="200" width="1240" height="1180" rx="24" fill="none" stroke="#3b82f6" stroke-width="5" transform="rotate(-1.5 720 790)"/>
  <rect x="120" y="220" width="1200" height="1140" rx="16" fill="#3b82f6" fill-opacity="0.05" transform="rotate(-1.5 720 790)"/>
  <rect x="120" y="220" width="1200" height="52" rx="16" fill="#3b82f6" fill-opacity="0.15" transform="rotate(-1.5 720 790)"/>
  <circle cx="160" cy="248" r="10" fill="#be2edd" fill-opacity="0.7" transform="rotate(-1.5 720 790)"/>
  <circle cx="196" cy="248" r="10" fill="#f59e0b" fill-opacity="0.7" transform="rotate(-1.5 720 790)"/>
  <circle cx="232" cy="248" r="10" fill="#3b82f6" fill-opacity="0.7" transform="rotate(-1.5 720 790)"/>
  <g transform="rotate(-1.5 720 790)">
    <rect x="140" y="300" width="480" height="14" rx="7" fill="#3b82f6" fill-opacity="0.35"/>
    <rect x="140" y="330" width="360" height="12" rx="6" fill="#e0e0e0" fill-opacity="0.15"/>
    <rect x="140" y="358" width="420" height="12" rx="6" fill="#be2edd" fill-opacity="0.25"/>
    <rect x="140" y="386" width="280" height="12" rx="6" fill="#e0e0e0" fill-opacity="0.12"/>
    <rect x="140" y="414" width="390" height="12" rx="6" fill="#3b82f6" fill-opacity="0.2"/>
    <rect x="140" y="442" width="320" height="12" rx="6" fill="#f59e0b" fill-opacity="0.2"/>
    <rect x="140" y="470" width="450" height="12" rx="6" fill="#e0e0e0" fill-opacity="0.1"/>
    <rect x="140" y="498" width="260" height="12" rx="6" fill="#be2edd" fill-opacity="0.2"/>
    <rect x="140" y="526" width="380" height="12" rx="6" fill="#3b82f6" fill-opacity="0.15"/>
    <rect x="140" y="554" width="300" height="12" rx="6" fill="#e0e0e0" fill-opacity="0.1"/>
    <rect x="140" y="600" width="460" height="14" rx="7" fill="#f59e0b" fill-opacity="0.3"/>
    <rect x="140" y="630" width="340" height="12" rx="6" fill="#e0e0e0" fill-opacity="0.12"/>
    <rect x="140" y="658" width="400" height="12" rx="6" fill="#be2edd" fill-opacity="0.2"/>
    <rect x="140" y="686" width="220" height="12" rx="6" fill="#3b82f6" fill-opacity="0.18"/>
  </g>
  <rect x="1504" y="200" width="1240" height="1180" rx="24" fill="none" stroke="#f59e0b" stroke-width="5" transform="rotate(1.5 2124 790)"/>
  <rect x="1524" y="220" width="1200" height="1140" rx="16" fill="#f59e0b" fill-opacity="0.04" transform="rotate(1.5 2124 790)"/>
  <rect x="1524" y="220" width="1200" height="52" rx="16" fill="#f59e0b" fill-opacity="0.12" transform="rotate(1.5 2124 790)"/>
  <circle cx="1840" cy="248" r="30" fill="none" stroke="#f59e0b" stroke-width="2" stroke-opacity="0.5" transform="rotate(1.5 2124 790)"/>
  <g transform="rotate(1.5 2124 790)">
    <rect x="1544" y="300" width="1140" height="860" rx="8" fill="#3b82f6" fill-opacity="0.06"/>
    <path d="M 1560,600 C 1700,400 1900,700 2100,500 C 2300,300 2500,550 2700,400" fill="none" stroke="#f59e0b" stroke-width="3" stroke-opacity="0.4"/>
    <path d="M 1560,700 C 1700,600 1900,800 2100,650 C 2300,500 2500,700 2700,580" fill="none" stroke="#be2edd" stroke-width="2" stroke-opacity="0.3"/>
    <circle cx="2100" cy="500" r="40" fill="none" stroke="#f59e0b" stroke-width="3" stroke-opacity="0.5"/>
    <circle cx="2100" cy="500" r="20" fill="#f59e0b" fill-opacity="0.3"/>
  </g>
  <line x1="1340" y1="600" x2="1504" y2="700" stroke="#e0e0e0" stroke-width="3" stroke-opacity="0.15" stroke-dasharray="16 8"/>
  <path d="M 0,1380 C 500,1250 1000,1450 1422,1320 C 1844,1190 2344,1400 2844,1280" fill="none" stroke="#9b1fb8" stroke-width="2" stroke-opacity="0.18"/>
</svg>
