<svg xmlns="http://www.w3.org/2000/svg" viewBox="0 0 2844 1600">
  <defs>
    <linearGradient id="glow" x1="0" y1="0" x2="1" y2="1">
      <stop offset="0" stop-color="#9b1fb8"/>
      <stop offset="1" stop-color="#be2edd"/>
    </linearGradient>
    <linearGradient id="cool" x1="0" y1="0" x2="1" y2="1">
      <stop offset="0" stop-color="#3b82f6"/>
      <stop offset="1" stop-color="#9b1fb8"/>
    </linearGradient>
    <linearGradient id="warmth" x1="0" y1="1" x2="1" y2="0">
      <stop offset="0" stop-color="#be2edd"/>
      <stop offset="1" stop-color="#f59e0b"/>
    </linearGradient>
    <radialGradient id="bloom" cx="0.5" cy="0.45" r="0.55">
      <stop offset="0" stop-color="#be2edd" stop-opacity="0.22"/>
      <stop offset="1" stop-color="#1a1a1a" stop-opacity="0"/>
    </radialGradient>
  </defs>
  <rect fill="#1a1a1a" width="2844" height="1600"/>
  <rect fill="url(#bloom)" width="2844" height="1600"/>
  <g opacity="0.22">
    <path d="M 0 1100 C 300 900, 600 1000, 900 820 C 1100 700, 1200 750, 1422 620 C 1650 490, 1800 550, 2000 420 C 2200 300, 2500 350, 2900 200 L 2900 -100 L -100 -100 Z" fill="url(#glow)"/>
  </g>
  <g opacity="0.3">
    <path d="M 400 1200 C 500 1050, 600 900, 700 720 C 780 570, 820 480, 900 350" fill="none" stroke="#be2edd" stroke-width="10" stroke-linecap="round"/>
    <path d="M 900 1200 C 1000 1000, 1100 800, 1200 600 C 1280 460, 1320 380, 1422 250" fill="none" stroke="#be2edd" stroke-width="8" stroke-linecap="round"/>
    <path d="M 1422 1200 C 1500 1000, 1580 800, 1650 600 C 1710 440, 1750 360, 1800 230" fill="none" stroke="#f59e0b" stroke-width="8" stroke-linecap="round"/>
    <path d="M 1950 1200 C 2020 1000, 2080 800, 2150 600 C 2210 440, 2250 360, 2300 230" fill="none" stroke="#3b82f6" stroke-width="6" stroke-linecap="round"/>
    <path d="M 2400 1300 C 2460 1100, 2520 900, 2580 700 C 2630 540, 2660 450, 2700 320" fill="none" stroke="#9b1fb8" stroke-width="6" stroke-linecap="round"/>
  </g>
  <g opacity="0.28">
    <circle cx="900" cy="350" r="35" fill="#be2edd"/>
    <circle cx="1422" cy="250" r="45" fill="#be2edd"/>
    <circle cx="1800" cy="230" r="38" fill="#f59e0b"/>
    <circle cx="2300" cy="230" r="30" fill="#3b82f6"/>
    <circle cx="2700" cy="320" r="28" fill="#9b1fb8"/>
  </g>
  <g opacity="0.18">
    <path d="M 300 1400 C 700 1300, 1100 1350, 1422 1280 S 1900 1210, 2300 1260 S 2650 1200, 2900 1230" fill="none" stroke="#f59e0b" stroke-width="5" stroke-linecap="round"/>
    <path d="M 200 1500 C 600 1440, 1000 1470, 1422 1400 S 2000 1330, 2400 1370 S 2700 1310, 2950 1340" fill="none" stroke="#f59e0b" stroke-width="3" stroke-linecap="round"/>
  </g>
  <g opacity="0.14">
    <path d="M 300 700 C 600 680, 800 710, 1000 685 S 1300 665, 1500 685" fill="none" stroke="#e0e0e0" stroke-width="2" stroke-linecap="round"/>
    <path d="M 1600 700 C 1800 680, 2000 710, 2200 685 S 2500 665, 2700 685" fill="none" stroke="#e0e0e0" stroke-width="2" stroke-linecap="round"/>
    <circle cx="1422" cy="700" r="18" fill="#e0e0e0" opacity="0.4"/>
  </g>
  <path d="M -100 1480 C 400 1420, 900 1450, 1422 1390 S 2100 1330, 2900 1370 L 2900 1700 L -100 1700 Z" fill="url(#cool)" opacity="0.12"/>
</svg>
