<svg xmlns="http://www.w3.org/2000/svg" viewBox="0 0 2844 1600">
  <defs>
    <linearGradient id="fast" x1="0" y1="0" x2="1" y2="0">
      <stop offset="0" stop-color="#f59e0b"/>
      <stop offset="1" stop-color="#be2edd"/>
    </linearGradient>
    <linearGradient id="cool" x1="0" y1="0" x2="1" y2="1">
      <stop offset="0" stop-color="#3b82f6"/>
      <stop offset="1" stop-color="#9b1fb8"/>
    </linearGradient>
    <radialGradient id="burst" cx="0.72" cy="0.5" r="0.38">
      <stop offset="0" stop-color="#f59e0b" stop-opacity="0.18"/>
      <stop offset="1" stop-color="#1a1a1a" stop-opacity="0"/>
    </radialGradient>
    <radialGradient id="origin" cx="0.12" cy="0.5" r="0.3">
      <stop offset="0" stop-color="#3b82f6" stop-opacity="0.12"/>
      <stop offset="1" stop-color="#1a1a1a" stop-opacity="0"/>
    </radialGradient>
  </defs>
  <rect fill="#1a1a1a" width="2844" height="1600"/>
  <rect fill="url(#origin)" width="2844" height="1600"/>
  <rect fill="url(#burst)" width="2844" height="1600"/>
  <g transform="rotate(-4 500 800)">
    <path d="M -100 400 C 200 300, 600 350, 900 380 S 1300 420, 1600 400 C 1850 380, 2100 320, 2400 360 S 2750 400, 2950 380 L 2950 1700 L -100 1700 Z" fill="url(#cool)" opacity="0.07"/>
  </g>
  <g fill="none" stroke="#3b82f6" stroke-linecap="round">
    <path d="M 80 750 C 200 700, 380 680, 560 720 S 820 780, 1000 750" stroke-width="18" opacity="0.15"/>
    <path d="M 80 850 C 200 800, 380 780, 560 820 S 820 880, 1000 850" stroke-width="18" opacity="0.15"/>
    <path d="M 80 950 C 200 900, 380 880, 560 920 S 820 980, 1000 950" stroke-width="14" opacity="0.1"/>
  </g>
  <g fill="none" stroke="url(#fast)" stroke-linecap="round">
    <path d="M 1050 620 C 1250 560, 1520 540, 1800 580 S 2200 650, 2500 620 C 2650 608, 2800 620, 2900 610" stroke-width="22" opacity="0.3"/>
    <path d="M 1080 750 C 1280 690, 1550 670, 1830 710 S 2230 780, 2530 750 C 2680 738, 2830 750, 2930 740" stroke-width="22" opacity="0.3"/>
    <path d="M 1060 880 C 1260 820, 1530 800, 1810 840 S 2210 910, 2510 880 C 2660 868, 2810 880, 2910 870" stroke-width="18" opacity="0.22"/>
    <path d="M 1090 1010 C 1290 950, 1560 930, 1840 970 S 2240 1040, 2540 1010" stroke-width="14" opacity="0.18"/>
  </g>
  <g transform="rotate(5 1022 800)">
    <rect x="980" y="500" width="80" height="600" rx="8" fill="#e0e0e0" opacity="0.06"/>
  </g>
  <g fill="#f59e0b" opacity="0.5">
    <circle cx="1600" cy="625" r="8"/>
    <circle cx="1750" cy="640" r="6"/>
    <circle cx="1900" cy="618" r="8"/>
    <circle cx="2050" cy="632" r="6"/>
    <circle cx="2200" cy="614" r="8"/>
    <circle cx="1650" cy="755" r="7"/>
    <circle cx="1820" cy="770" r="6"/>
    <circle cx="1970" cy="748" r="8"/>
    <circle cx="2120" cy="762" r="6"/>
    <circle cx="2280" cy="744" r="7"/>
    <circle cx="2430" cy="758" r="6"/>
  </g>
  <g fill="#be2edd" opacity="0.35">
    <circle cx="350" cy="752" r="6"/>
    <circle cx="500" cy="768" r="5"/>
    <circle cx="650" cy="746" r="6"/>
    <circle cx="800" cy="760" r="5"/>
    <circle cx="350" cy="852" r="5"/>
    <circle cx="550" cy="868" r="6"/>
    <circle cx="750" cy="846" r="5"/>
  </g>
  <g transform="translate(0 0) rotate(-3 2044 400)">
    <path d="M 1050 200 C 1400 140, 1800 160, 2100 150 S 2500 130, 2700 145" fill="none" stroke="#f59e0b" stroke-width="2" opacity="0.15" stroke-linecap="round"/>
    <path d="M 1050 1380 C 1400 1440, 1800 1420, 2100 1430 S 2500 1450, 2700 1435" fill="none" stroke="#f59e0b" stroke-width="2" opacity="0.12" stroke-linecap="round"/>
  </g>
  <path d="M 200 -50 C 500 200, 800 400, 1000 800 S 900 1200, 600 1650" fill="none" stroke="#3b82f6" stroke-width="1.5" opacity="0.08" stroke-linecap="round"/>
  <path d="M 2900 -50 C 2600 200, 2300 500, 2100 850 S 2200 1250, 2500 1650" fill="none" stroke="#be2edd" stroke-width="1.5" opacity="0.08" stroke-linecap="round"/>
</svg>
