<svg xmlns="http://www.w3.org/2000/svg" viewBox="0 0 2844 1600">
  <defs>
    <radialGradient id="tableGlow" cx="50%" cy="50%" r="50%">
      <stop offset="0%" stop-color="#be2edd" stop-opacity="0.5"/>
      <stop offset="100%" stop-color="#1a1a1a" stop-opacity="0"/>
    </radialGradient>
    <radialGradient id="ringGlow" cx="50%" cy="50%" r="50%">
      <stop offset="0%" stop-color="#f59e0b" stop-opacity="0.2"/>
      <stop offset="100%" stop-color="#1a1a1a" stop-opacity="0"/>
    </radialGradient>
    <linearGradient id="bgGrad" x1="0" y1="0" x2="0" y2="1">
      <stop offset="0%" stop-color="#1a1a1a"/>
      <stop offset="100%" stop-color="#1a1a1a"/>
    </linearGradient>
  </defs>
  <rect fill="#1a1a1a" width="2844" height="1600"/>
  <ellipse cx="1420" cy="820" rx="900" ry="900" fill="url(#tableGlow)"/>
  <g transform="translate(1420, 820)">
    <circle r="520" fill="none" stroke="#9b1fb8" stroke-width="3" opacity="0.4"/>
    <circle r="420" fill="none" stroke="#be2edd" stroke-width="5" opacity="0.6"/>
    <circle r="320" fill="none" stroke="#9b1fb8" stroke-width="3" opacity="0.4"/>
    <circle r="220" fill="none" stroke="#be2edd" stroke-width="4" opacity="0.5"/>
    <circle r="120" fill="none" stroke="#f59e0b" stroke-width="6" opacity="0.7"/>
    <circle r="50" fill="#be2edd" opacity="0.8"/>
    <line x1="0" y1="-520" x2="0" y2="520" stroke="#3b82f6" stroke-width="2" opacity="0.3"/>
    <line x1="-520" y1="0" x2="520" y2="0" stroke="#3b82f6" stroke-width="2" opacity="0.3"/>
    <line x1="-368" y1="-368" x2="368" y2="368" stroke="#3b82f6" stroke-width="2" opacity="0.2"/>
    <line x1="368" y1="-368" x2="-368" y2="368" stroke="#3b82f6" stroke-width="2" opacity="0.2"/>
    <g opacity="0.7">
      <circle cx="420" cy="0" r="14" fill="#f59e0b"/>
      <circle cx="-420" cy="0" r="14" fill="#f59e0b"/>
      <circle cx="0" cy="420" r="14" fill="#f59e0b"/>
      <circle cx="0" cy="-420" r="14" fill="#f59e0b"/>
      <circle cx="297" cy="297" r="10" fill="#e0e0e0" opacity="0.5"/>
      <circle cx="-297" cy="297" r="10" fill="#e0e0e0" opacity="0.5"/>
      <circle cx="297" cy="-297" r="10" fill="#e0e0e0" opacity="0.5"/>
      <circle cx="-297" cy="-297" r="10" fill="#e0e0e0" opacity="0.5"/>
    </g>
  </g>
  <g opacity="0.3">
    <circle cx="280" cy="200" r="60" fill="none" stroke="#3b82f6" stroke-width="4"/>
    <circle cx="280" cy="200" r="30" fill="#3b82f6" opacity="0.5"/>
    <circle cx="2560" cy="300" r="80" fill="none" stroke="#f59e0b" stroke-width="4"/>
    <circle cx="2560" cy="300" r="40" fill="#f59e0b" opacity="0.4"/>
    <circle cx="350" cy="1380" r="50" fill="none" stroke="#be2edd" stroke-width="3"/>
    <circle cx="2480" cy="1300" r="70" fill="none" stroke="#9b1fb8" stroke-width="4"/>
  </g>
  <g opacity="0.15">
    <path d="M-100 100 C500 300, 1000 0, 1500 200 S2400 100, 2950 300" fill="none" stroke="#e0e0e0" stroke-width="40"/>
    <path d="M-100 1300 C500 1100, 1000 1500, 1500 1200 S2400 1400, 2950 1100" fill="none" stroke="#e0e0e0" stroke-width="40"/>
  </g>
</svg>
