<svg xmlns="http://www.w3.org/2000/svg" viewBox="0 0 2844 1600">
  <defs>
    <linearGradient id="horizonGrad" x1="0%" y1="0%" x2="0%" y2="100%">
      <stop offset="0%" stop-color="#1a1a1a"/>
      <stop offset="55%" stop-color="#3b82f6" stop-opacity="0.12"/>
      <stop offset="100%" stop-color="#1a1a1a"/>
    </linearGradient>
    <radialGradient id="mirage" cx="50%" cy="60%" r="45%">
      <stop offset="0%" stop-color="#f59e0b" stop-opacity="0.15"/>
      <stop offset="100%" stop-color="#1a1a1a" stop-opacity="0"/>
    </radialGradient>
  </defs>
  <rect fill="#1a1a1a" width="2844" height="1600"/>
  <rect fill="url(#horizonGrad)" width="2844" height="1600"/>
  <rect fill="url(#mirage)" width="2844" height="1600"/>
  <g opacity="0.5">
    <path d="M -100 900 C 400 880 700 920 1000 900 C 1300 880 1600 920 1900 900 C 2200 880 2500 920 2944 900 L 2944 1000 C 2500 1010 2200 970 1900 990 C 1600 1010 1300 970 1000 990 C 700 1010 400 970 -100 1000 Z" fill="#3b82f6" opacity="0.12"/>
    <path d="M -100 950 C 500 935 800 965 1150 950 C 1500 935 1750 965 2100 950 C 2400 935 2650 965 2944 950 L 2944 1050 C 2650 1058 2400 1028 2100 1043 C 1750 1058 1500 1028 1150 1043 C 800 1058 500 1028 -100 1050 Z" fill="#3b82f6" opacity="0.09"/>
  </g>
  <g opacity="0.45" transform="rotate(-3 1422 800)">
    <path d="M 900 600 L 1000 500 L 1100 600 L 1100 800 L 1000 820 L 900 800 Z" fill="none" stroke="#f59e0b" stroke-width="5" opacity="0.3"/>
    <path d="M 1000 820 L 1000 900" stroke="#f59e0b" stroke-width="3" stroke-dasharray="12 8" opacity="0.25"/>
    <path d="M 850 900 C 860 840 950 820 1000 840 C 1050 820 1140 840 1150 900 L 1150 950 C 1140 1010 1050 1020 1000 1010 C 950 1020 860 1010 850 950 Z" fill="#3b82f6" fill-opacity="0.1" stroke="#3b82f6" stroke-width="3" opacity="0.2"/>
  </g>
  <g opacity="0.4" transform="rotate(4 1422 800)">
    <path d="M 1600 500 L 1720 390 L 1840 500 L 1840 720 L 1720 745 L 1600 720 Z" fill="none" stroke="#be2edd" stroke-width="5" opacity="0.28"/>
    <path d="M 1720 745 L 1720 830" stroke="#be2edd" stroke-width="3" stroke-dasharray="12 8" opacity="0.22"/>
    <path d="M 1630 830 C 1640 770 1710 750 1760 770 C 1810 750 1870 770 1880 830 L 1880 880 C 1870 935 1810 945 1760 935 C 1710 945 1640 935 1630 880 Z" fill="#9b1fb8" fill-opacity="0.1" stroke="#9b1fb8" stroke-width="3" opacity="0.18"/>
  </g>
  <g opacity="0.35">
    <path d="M 350 750 C 400 680 480 660 560 690 C 640 720 680 790 660 870 C 640 950 570 990 490 975 C 410 960 360 890 360 820 C 360 790 350 760 350 750 Z" fill="none" stroke="#f59e0b" stroke-width="3" opacity="0.3"/>
    <path d="M 2300 700 C 2350 640 2420 625 2492 652 C 2562 678 2596 742 2578 816 C 2560 890 2494 928 2422 914 C 2350 900 2306 836 2308 768 C 2310 742 2300 720 2300 700 Z" fill="none" stroke="#3b82f6" stroke-width="3" opacity="0.28"/>
  </g>
  <g opacity="0.35">
    <path d="M -100 1100 C 500 1080 900 1120 1300 1100 C 1700 1080 2100 1120 2500 1100 C 2700 1090 2800 1100 2944 1100 L 2944 1600 L -100 1600 Z" fill="#9b1fb8" opacity="0.08"/>
    <path d="M -100 1250 C 600 1235 1000 1265 1422 1250 C 1844 1235 2300 1265 2944 1250 L 2944 1600 L -100 1600 Z" fill="#3b82f6" opacity="0.06"/>
  </g>
  <g opacity="0.3">
    <path d="M 600 1080 C 650 1060 700 1065 740 1090 C 780 1115 790 1155 770 1185 C 748 1215 704 1222 660 1202 C 616 1182 600 1142 608 1110 C 610 1097 604 1086 600 1080 Z" fill="#f59e0b" opacity="0.2"/>
    <path d="M 1800 1080 C 1840 1062 1886 1068 1922 1092 C 1958 1116 1968 1152 1950 1180 C 1930 1208 1888 1214 1848 1195 C 1808 1176 1792 1138 1800 1108 C 1802 1095 1798 1088 1800 1080 Z" fill="#be2edd" opacity="0.18"/>
    <path d="M 2400 1060 C 2432 1044 2470 1050 2502 1072 C 2534 1094 2542 1126 2526 1152 C 2510 1178 2472 1184 2438 1167 C 2404 1150 2390 1116 2398 1088 C 2400 1076 2398 1064 2400 1060 Z" fill="#3b82f6" opacity="0.18"/>
  </g>
</svg>
