<svg xmlns="http://www.w3.org/2000/svg" viewBox="0 0 2844 1600">
  <defs>
    <linearGradient id="flame" x1="0" y1="1" x2="0.3" y2="0">
      <stop offset="0" stop-color="#f59e0b"/>
      <stop offset="0.6" stop-color="#be2edd"/>
      <stop offset="1" stop-color="#9b1fb8"/>
    </linearGradient>
    <linearGradient id="sky" x1="0" y1="0" x2="1" y2="1">
      <stop offset="0" stop-color="#3b82f6"/>
      <stop offset="1" stop-color="#9b1fb8"/>
    </linearGradient>
    <radialGradient id="heat" cx="0.42" cy="0.72" r="0.4">
      <stop offset="0" stop-color="#f59e0b" stop-opacity="0.18"/>
      <stop offset="1" stop-color="#1a1a1a" stop-opacity="0"/>
    </radialGradient>
    <radialGradient id="cloud" cx="0.7" cy="0.3" r="0.45">
      <stop offset="0" stop-color="#3b82f6" stop-opacity="0.1"/>
      <stop offset="1" stop-color="#1a1a1a" stop-opacity="0"/>
    </radialGradient>
  </defs>
  <rect fill="#1a1a1a" width="2844" height="1600"/>
  <rect fill="url(#cloud)" width="2844" height="1600"/>
  <rect fill="url(#heat)" width="2844" height="1600"/>
  <g opacity="0.08" fill="none" stroke="#3b82f6" stroke-width="1">
    <path d="M 1400 -50 C 1600 100, 1800 200, 2000 180 S 2400 120, 2700 200 C 2850 240, 2950 300, 2950 -100"/>
    <path d="M 1600 -80 C 1800 80, 2000 160, 2200 140 S 2600 80, 2900 160"/>
    <path d="M 1200 -60 C 1400 90, 1600 180, 1800 160 S 2200 100, 2500 180"/>
  </g>
  <g transform="rotate(-3 1200 1300)">
    <path d="M -200 1700 C 300 1400, 700 1300, 1000 1350 S 1500 1450, 1800 1380 C 2000 1330, 2200 1280, 2400 1320 S 2700 1400, 2950 1350 L 2950 1800 L -200 1800 Z" fill="#3b82f6" opacity="0.06"/>
  </g>
  <g transform="rotate(4 1200 900)">
    <path d="M 800 1650 C 950 1350, 1050 1100, 1080 900 C 1110 700, 1060 500, 1100 350 C 1140 200, 1200 100, 1180 -50" fill="none" stroke="url(#flame)" stroke-width="90" stroke-linecap="round" opacity="0.12"/>
    <path d="M 900 1650 C 1020 1380, 1100 1150, 1120 950 C 1140 750, 1100 560, 1130 410 C 1160 260, 1210 160, 1200 20" fill="none" stroke="url(#flame)" stroke-width="60" stroke-linecap="round" opacity="0.18"/>
    <path d="M 1000 1650 C 1090 1400, 1140 1180, 1155 980 C 1170 780, 1140 600, 1160 450 C 1180 300, 1220 200, 1210 60" fill="none" stroke="url(#flame)" stroke-width="34" stroke-linecap="round" opacity="0.28"/>
  </g>
  <g transform="rotate(-2 1200 900)">
    <path d="M 1050 1650 C 1100 1450, 1130 1280, 1140 1100 C 1150 920, 1120 740, 1145 580 S 1190 350, 1185 150" fill="none" stroke="#f59e0b" stroke-width="14" stroke-linecap="round" opacity="0.45"/>
    <path d="M 1100 1650 C 1145 1480, 1165 1310, 1172 1130 C 1179 950, 1155 780, 1175 620 S 1210 390, 1208 190" fill="none" stroke="#f59e0b" stroke-width="8" stroke-linecap="round" opacity="0.3"/>
  </g>
  <g fill="#f59e0b" opacity="0.55">
    <circle cx="1120" cy="400" r="12"/>
    <circle cx="1080" cy="560" r="9"/>
    <circle cx="1140" cy="320" r="7"/>
    <circle cx="1060" cy="480" r="8"/>
    <circle cx="1165" cy="460" r="6"/>
  </g>
  <g fill="none" stroke="#3b82f6" stroke-linecap="round" opacity="0.15">
    <path d="M 1600 350 C 1750 300, 1950 280, 2150 310 S 2450 360, 2650 330" stroke-width="2"/>
    <path d="M 1700 480 C 1850 430, 2050 410, 2250 440 S 2550 490, 2750 460" stroke-width="2"/>
    <path d="M 1650 610 C 1800 560, 2000 540, 2200 570 S 2500 620, 2700 590" stroke-width="2"/>
    <path d="M 1750 740 C 1900 690, 2100 670, 2300 700 S 2600 750, 2800 720" stroke-width="1.5"/>
  </g>
  <g fill="#9b1fb8" opacity="0.4">
    <circle cx="1800" cy="420" r="5"/>
    <circle cx="2000" cy="380" r="6"/>
    <circle cx="2200" cy="410" r="5"/>
    <circle cx="2400" cy="390" r="6"/>
    <circle cx="1900" cy="550" r="4"/>
    <circle cx="2100" cy="520" r="5"/>
    <circle cx="2300" cy="545" r="4"/>
    <circle cx="2500" cy="530" r="5"/>
  </g>
  <path d="M 400 800 C 600 650, 800 700, 900 780" fill="none" stroke="#be2edd" stroke-width="2" opacity="0.15" stroke-linecap="round"/>
  <path d="M 200 1000 C 400 850, 600 900, 750 980" fill="none" stroke="#be2edd" stroke-width="2" opacity="0.12" stroke-linecap="round"/>
</svg>
