<svg xmlns="http://www.w3.org/2000/svg" viewBox="0 0 2844 1600">
  <defs>
    <linearGradient id="hose" x1="0" y1="0" x2="0" y2="1">
      <stop offset="0" stop-color="#be2edd"/>
      <stop offset="1" stop-color="#9b1fb8"/>
    </linearGradient>
    <linearGradient id="spray" x1="0" y1="0" x2="1" y2="1">
      <stop offset="0" stop-color="#f59e0b" stop-opacity="0.6"/>
      <stop offset="1" stop-color="#be2edd" stop-opacity="0"/>
    </linearGradient>
    <radialGradient id="flood" cx="0.3" cy="0.2" r="0.8">
      <stop offset="0" stop-color="#be2edd" stop-opacity="0.3"/>
      <stop offset="1" stop-color="#1a1a1a" stop-opacity="0"/>
    </radialGradient>
    <linearGradient id="stream" x1="0" y1="0" x2="1" y2="0.5">
      <stop offset="0" stop-color="#f59e0b" stop-opacity="0.8"/>
      <stop offset="0.5" stop-color="#be2edd" stop-opacity="0.6"/>
      <stop offset="1" stop-color="#3b82f6" stop-opacity="0.2"/>
    </linearGradient>
  </defs>
  <rect fill="#1a1a1a" width="2844" height="1600"/>
  <rect fill="url(#flood)" width="2844" height="1600"/>
  <g opacity="0.45">
    <path d="M -200 -100 C 200 100 400 500 300 800 C 200 1100 600 1400 400 1700" fill="none" stroke="#be2edd" stroke-width="60" stroke-linecap="round"/>
    <path d="M 100 -100 C 500 150 700 550 600 850 C 500 1150 900 1450 700 1700" fill="none" stroke="#9b1fb8" stroke-width="40" stroke-linecap="round"/>
    <path d="M 400 -150 C 700 100 800 600 750 900 C 700 1200 1100 1450 900 1750" fill="none" stroke="#3b82f6" stroke-width="30" stroke-linecap="round"/>
  </g>
  <g opacity="0.7">
    <path d="M 200 0 C 500 200 1200 400 1800 300 C 2300 220 2700 400 3000 350" fill="none" stroke="url(#stream)" stroke-width="80" stroke-linecap="round"/>
    <path d="M 100 180 C 500 350 1300 550 1900 480 C 2400 420 2750 580 3050 540" fill="none" stroke="#f59e0b" stroke-width="50" stroke-linecap="round" opacity="0.4"/>
    <path d="M 300 350 C 700 500 1400 680 2000 620 C 2500 570 2850 730 3100 700" fill="none" stroke="#be2edd" stroke-width="35" stroke-linecap="round" opacity="0.35"/>
    <path d="M 0 550 C 500 650 1200 820 1800 760 C 2300 710 2700 880 3000 850" fill="none" stroke="#3b82f6" stroke-width="28" stroke-linecap="round" opacity="0.35"/>
    <path d="M 150 720 C 600 820 1300 980 1900 920 C 2400 870 2800 1040 3100 1010" fill="none" stroke="#9b1fb8" stroke-width="22" stroke-linecap="round" opacity="0.3"/>
    <path d="M 0 900 C 550 990 1250 1140 1850 1080 C 2350 1030 2750 1200 3050 1170" fill="none" stroke="#be2edd" stroke-width="18" stroke-linecap="round" opacity="0.25"/>
    <path d="M 200 1080 C 700 1160 1400 1300 2000 1240 C 2500 1190 2850 1360 3100 1330" fill="none" stroke="#f59e0b" stroke-width="15" stroke-linecap="round" opacity="0.2"/>
  </g>
  <g fill="#e0e0e0" opacity="0.08">
    <rect x="2000" y="200" width="180" height="26" rx="4" transform="rotate(-2 2000 200)"/>
    <rect x="2050" y="245" width="140" height="26" rx="4" transform="rotate(1 2050 245)"/>
    <rect x="2020" y="290" width="160" height="26" rx="4" transform="rotate(-1 2020 290)"/>
    <rect x="2080" y="335" width="120" height="26" rx="4" transform="rotate(2 2080 335)"/>
    <rect x="2030" y="380" width="170" height="26" rx="4" transform="rotate(-3 2030 380)"/>
    <rect x="2060" y="425" width="150" height="26" rx="4" transform="rotate(1 2060 425)"/>
    <rect x="2010" y="470" width="190" height="26" rx="4" transform="rotate(-2 2010 470)"/>
    <rect x="2070" y="515" width="130" height="26" rx="4" transform="rotate(3 2070 515)"/>
    <rect x="2040" y="560" width="165" height="26" rx="4" transform="rotate(-1 2040 560)"/>
    <rect x="2090" y="605" width="110" height="26" rx="4" transform="rotate(2 2090 605)"/>
    <rect x="2025" y="650" width="180" height="26" rx="4" transform="rotate(-2 2025 650)"/>
    <rect x="2055" y="695" width="145" height="26" rx="4" transform="rotate(1 2055 695)"/>
  </g>
  <path d="M 1600 1600 Q 1700 1200 1800 1000 Q 1900 800 2100 700 Q 2200 660 2400 680 L 2500 600 L 2600 700 L 2400 750 Q 2200 770 2100 900 Q 1950 1100 1870 1300 Q 1800 1450 1750 1600 Z" fill="url(#hose)" opacity="0.5"/>
  <ellipse cx="900" cy="1350" rx="500" ry="120" fill="#be2edd" opacity="0.08"/>
  <path d="M 400 1300 C 700 1200 1100 1280 1400 1250 C 1700 1220 2000 1300 2300 1280" fill="none" stroke="#f59e0b" stroke-width="2" opacity="0.2"/>
</svg>
