<svg xmlns="http://www.w3.org/2000/svg" viewBox="0 0 2844 1600">
  <defs>
    <linearGradient id="purple" x1="0%" y1="0%" x2="100%" y2="100%">
      <stop offset="0%" stop-color="#be2edd"/>
      <stop offset="100%" stop-color="#9b1fb8"/>
    </linearGradient>
    <linearGradient id="blue" x1="0%" y1="0%" x2="100%" y2="100%">
      <stop offset="0%" stop-color="#3b82f6"/>
      <stop offset="100%" stop-color="#3b82f6"/>
    </linearGradient>
    <linearGradient id="amber" x1="0%" y1="0%" x2="100%" y2="100%">
      <stop offset="0%" stop-color="#f59e0b"/>
      <stop offset="100%" stop-color="#f59e0b"/>
    </linearGradient>
    <radialGradient id="spin-glow" cx="50%" cy="50%" r="50%">
      <stop offset="0%" stop-color="#be2edd" stop-opacity="0.35"/>
      <stop offset="70%" stop-color="#3b82f6" stop-opacity="0.1"/>
      <stop offset="100%" stop-color="#1a1a1a" stop-opacity="0"/>
    </radialGradient>
  </defs>
  <rect fill="#1a1a1a" width="2844" height="1600"/>
  <ellipse cx="1422" cy="800" rx="1000" ry="1000" fill="url(#spin-glow)"/>
  <g transform="rotate(15, 1422, 800)">
    <path d="M 1422 800 m -600 0 a 600 600 0 1 1 1200 0" stroke="#be2edd" stroke-width="6" fill="none" opacity="0.7"/>
    <path d="M 1422 800 m -450 0 a 450 450 0 1 1 900 0" stroke="#3b82f6" stroke-width="5" fill="none" opacity="0.6"/>
    <path d="M 1422 800 m -300 0 a 300 300 0 1 1 600 0" stroke="#f59e0b" stroke-width="4" fill="none" opacity="0.7"/>
    <path d="M 1422 800 m -150 0 a 150 150 0 1 1 300 0" stroke="#9b1fb8" stroke-width="3" fill="none" opacity="0.6"/>
  </g>
  <g transform="rotate(-20, 1422, 800)" opacity="0.4">
    <path d="M 1422 800 m -700 0 a 700 700 0 0 1 1400 0" stroke="#be2edd" stroke-width="3" fill="none" stroke-dasharray="30 20"/>
    <path d="M 1422 800 m -550 0 a 550 550 0 0 1 1100 0" stroke="#f59e0b" stroke-width="2" fill="none" stroke-dasharray="20 30"/>
  </g>
  <g transform="rotate(35, 1422, 800)">
    <line x1="1422" y1="200" x2="1422" y2="800" stroke="#be2edd" stroke-width="4" opacity="0.5"/>
    <line x1="1422" y1="800" x2="2022" y2="800" stroke="#3b82f6" stroke-width="4" opacity="0.5"/>
    <line x1="1422" y1="800" x2="976" y2="354" stroke="#f59e0b" stroke-width="3" opacity="0.45"/>
    <line x1="1422" y1="800" x2="1868" y2="1246" stroke="#9b1fb8" stroke-width="3" opacity="0.45"/>
  </g>
  <g transform="rotate(-10, 1422, 800)">
    <circle cx="1422" cy="200" r="20" fill="#be2edd" opacity="0.8"/>
    <circle cx="2022" cy="800" r="18" fill="#3b82f6" opacity="0.8"/>
    <circle cx="822" cy="800" r="18" fill="#f59e0b" opacity="0.7"/>
    <circle cx="1422" cy="1400" r="20" fill="#9b1fb8" opacity="0.7"/>
    <circle cx="976" cy="354" r="14" fill="#be2edd" opacity="0.6"/>
    <circle cx="1868" cy="354" r="14" fill="#3b82f6" opacity="0.6"/>
    <circle cx="976" cy="1246" r="14" fill="#f59e0b" opacity="0.6"/>
    <circle cx="1868" cy="1246" r="14" fill="#9b1fb8" opacity="0.6"/>
  </g>
  <circle cx="1422" cy="800" r="60" fill="#be2edd" opacity="0.9"/>
  <circle cx="1422" cy="800" r="35" fill="#9b1fb8"/>
  <g opacity="0.2">
    <path d="M 0 0 C 500 200 1000 100 1422 800 S 2000 1500 2844 1200" stroke="#e0e0e0" stroke-width="1" fill="none"/>
    <path d="M 2844 0 C 2344 300 1800 100 1422 800 S 800 1500 0 1300" stroke="#e0e0e0" stroke-width="1" fill="none"/>
  </g>
</svg>
