<svg xmlns="http://www.w3.org/2000/svg" viewBox="0 0 2844 1600">
  <defs>
    <radialGradient id="circle-glow" cx="50%" cy="50%" r="50%">
      <stop offset="0%" stop-color="#be2edd" stop-opacity="0.3"/>
      <stop offset="100%" stop-color="#1a1a1a" stop-opacity="0"/>
    </radialGradient>
    <radialGradient id="hit-glow" cx="50%" cy="50%" r="50%">
      <stop offset="0%" stop-color="#f59e0b"/>
      <stop offset="100%" stop-color="#f59e0b" stop-opacity="0"/>
    </radialGradient>
    <radialGradient id="miss-glow" cx="50%" cy="50%" r="50%">
      <stop offset="0%" stop-color="#3b82f6" stop-opacity="0.6"/>
      <stop offset="100%" stop-color="#3b82f6" stop-opacity="0"/>
    </radialGradient>
  </defs>
  <rect fill="#1a1a1a" width="2844" height="1600"/>
  <rect fill="url(#circle-glow)" width="2844" height="1600"/>
  <g transform="translate(700, 800)">
    <circle cx="0" cy="0" r="320" stroke="#9b1fb8" stroke-width="2" fill="none" opacity="0.4"/>
    <circle cx="0" cy="0" r="330" stroke="#be2edd" stroke-width="1" fill="none" opacity="0.2"/>
    <circle cx="0" cy="-320" r="18" fill="#f59e0b"/>
    <circle cx="200" cy="-250" r="18" fill="#f59e0b"/>
    <circle cx="311" cy="-80" r="18" fill="none" stroke="#3b82f6" stroke-width="3"/>
    <circle cx="311" cy="80" r="18" fill="#f59e0b"/>
    <circle cx="200" cy="250" r="18" fill="none" stroke="#3b82f6" stroke-width="3"/>
    <circle cx="0" cy="320" r="18" fill="#f59e0b"/>
    <circle cx="-200" cy="250" r="18" fill="none" stroke="#3b82f6" stroke-width="3"/>
    <circle cx="-311" cy="80" r="18" fill="#f59e0b"/>
    <circle cx="-311" cy="-80" r="18" fill="none" stroke="#3b82f6" stroke-width="3"/>
    <circle cx="-200" cy="-250" r="18" fill="#f59e0b"/>
  </g>
  <g transform="translate(1422, 800)">
    <circle cx="0" cy="0" r="280" stroke="#3b82f6" stroke-width="2" fill="none" opacity="0.4"/>
    <circle cx="0" cy="-280" r="14" fill="#f59e0b"/>
    <circle cx="140" cy="-242" r="14" fill="none" stroke="#3b82f6" stroke-width="2.5"/>
    <circle cx="242" cy="-140" r="14" fill="#f59e0b"/>
    <circle cx="280" cy="0" r="14" fill="none" stroke="#3b82f6" stroke-width="2.5"/>
    <circle cx="242" cy="140" r="14" fill="#f59e0b"/>
    <circle cx="140" cy="242" r="14" fill="none" stroke="#3b82f6" stroke-width="2.5"/>
    <circle cx="0" cy="280" r="14" fill="#f59e0b"/>
    <circle cx="-140" cy="242" r="14" fill="none" stroke="#3b82f6" stroke-width="2.5"/>
    <circle cx="-242" cy="140" r="14" fill="#f59e0b"/>
    <circle cx="-280" cy="0" r="14" fill="none" stroke="#3b82f6" stroke-width="2.5"/>
    <circle cx="-242" cy="-140" r="14" fill="#f59e0b"/>
    <circle cx="-140" cy="-242" r="14" fill="none" stroke="#3b82f6" stroke-width="2.5"/>
    <circle cx="-140" cy="-242" r="14" fill="none" stroke="#3b82f6" stroke-width="2.5"/>
  </g>
  <g transform="translate(2144, 800)">
    <circle cx="0" cy="0" r="240" stroke="#be2edd" stroke-width="2" fill="none" opacity="0.45"/>
    <circle cx="0" cy="-240" r="12" fill="#f59e0b"/>
    <circle cx="120" cy="-207" r="12" fill="#f59e0b"/>
    <circle cx="207" cy="-120" r="12" fill="none" stroke="#9b1fb8" stroke-width="2.5"/>
    <circle cx="240" cy="0" r="12" fill="#f59e0b"/>
    <circle cx="207" cy="120" r="12" fill="#f59e0b"/>
    <circle cx="120" cy="207" r="12" fill="none" stroke="#9b1fb8" stroke-width="2.5"/>
    <circle cx="0" cy="240" r="12" fill="#f59e0b"/>
    <circle cx="-120" cy="207" r="12" fill="#f59e0b"/>
    <circle cx="-207" cy="120" r="12" fill="none" stroke="#9b1fb8" stroke-width="2.5"/>
    <circle cx="-240" cy="0" r="12" fill="#f59e0b"/>
    <circle cx="-207" cy="-120" r="12" fill="#f59e0b"/>
    <circle cx="-120" cy="-207" r="12" fill="none" stroke="#9b1fb8" stroke-width="2.5"/>
  </g>
  <g opacity="0.2">
    <path d="M380,800 L1142,800" stroke="#e0e0e0" stroke-width="1" stroke-dasharray="10,15"/>
    <path d="M1702,800 L2904,800" stroke="#e0e0e0" stroke-width="1" stroke-dasharray="10,15"/>
  </g>
  <g opacity="0.1">
    <path d="M0,200 C500,120 1100,250 1700,180 C2300,110 2700,240 2844,180" stroke="#be2edd" stroke-width="1" fill="none"/>
    <path d="M0,1400 C500,1320 1100,1450 1700,1380 C2300,1310 2700,1440 2844,1380" stroke="#3b82f6" stroke-width="1" fill="none"/>
  </g>
</svg>
