<svg xmlns="http://www.w3.org/2000/svg" viewBox="0 0 2844 1600">
  <defs>
    <linearGradient id="wave-blue" x1="0%" y1="0%" x2="100%" y2="0%">
      <stop offset="0%" stop-color="#3b82f6" stop-opacity="0"/>
      <stop offset="40%" stop-color="#3b82f6"/>
      <stop offset="100%" stop-color="#3b82f6" stop-opacity="0.3"/>
    </linearGradient>
    <linearGradient id="wave-purple" x1="0%" y1="0%" x2="100%" y2="0%">
      <stop offset="0%" stop-color="#be2edd" stop-opacity="0.3"/>
      <stop offset="60%" stop-color="#be2edd"/>
      <stop offset="100%" stop-color="#be2edd" stop-opacity="0"/>
    </linearGradient>
    <radialGradient id="code-glow" cx="35%" cy="50%" r="45%">
      <stop offset="0%" stop-color="#3b82f6" stop-opacity="0.25"/>
      <stop offset="100%" stop-color="#1a1a1a" stop-opacity="0"/>
    </radialGradient>
    <radialGradient id="music-glow" cx="70%" cy="50%" r="45%">
      <stop offset="0%" stop-color="#be2edd" stop-opacity="0.25"/>
      <stop offset="100%" stop-color="#1a1a1a" stop-opacity="0"/>
    </radialGradient>
  </defs>
  <rect fill="#1a1a1a" width="2844" height="1600"/>
  <rect fill="url(#code-glow)" width="2844" height="1600"/>
  <rect fill="url(#music-glow)" width="2844" height="1600"/>
  <g opacity="0.5">
    <path d="M0,600 C300,500 600,700 900,580 C1200,460 1500,660 1800,540" stroke="url(#wave-blue)" stroke-width="5" fill="none"/>
    <path d="M0,650 C250,570 550,740 850,640 C1150,540 1450,720 1750,600" stroke="url(#wave-blue)" stroke-width="3.5" fill="none" opacity="0.7"/>
    <path d="M0,700 C200,640 500,790 800,700 C1100,610 1400,770 1700,670" stroke="url(#wave-blue)" stroke-width="2" fill="none" opacity="0.5"/>
  </g>
  <g opacity="0.5">
    <path d="M1044,960 C1344,840 1644,1040 1944,920 C2244,800 2544,1000 2844,880" stroke="url(#wave-purple)" stroke-width="5" fill="none"/>
    <path d="M1044,1010 C1294,910 1594,1090 1894,980 C2194,870 2494,1060 2844,940" stroke="url(#wave-purple)" stroke-width="3.5" fill="none" opacity="0.7"/>
    <path d="M1044,1060 C1244,980 1544,1140 1844,1040 C2144,940 2444,1120 2844,1000" stroke="url(#wave-purple)" stroke-width="2" fill="none" opacity="0.5"/>
  </g>
  <g opacity="0.3" transform="rotate(-4, 550, 800)">
    <rect x="300" y="620" width="500" height="360" rx="10" fill="none" stroke="#3b82f6" stroke-width="3"/>
    <line x1="300" y1="670" x2="800" y2="670" stroke="#3b82f6" stroke-width="2"/>
    <text x="340" y="720" font-family="monospace" font-size="36" fill="#3b82f6" opacity="0.6">(define-</text>
    <text x="360" y="760" font-family="monospace" font-size="36" fill="#be2edd" opacity="0.5">  play</text>
    <text x="340" y="800" font-family="monospace" font-size="36" fill="#f59e0b" opacity="0.5">    60 1.0)</text>
  </g>
  <g opacity="0.6">
    <line x1="1100" y1="500" x2="1100" y2="380" stroke="#f59e0b" stroke-width="4"/>
    <ellipse cx="1080" cy="370" rx="30" ry="20" fill="#f59e0b" transform="rotate(-20, 1080, 370)"/>
    <line x1="1300" y1="540" x2="1300" y2="400" stroke="#f59e0b" stroke-width="4"/>
    <ellipse cx="1280" cy="388" rx="30" ry="20" fill="none" stroke="#f59e0b" stroke-width="3" transform="rotate(-20, 1280, 388)"/>
    <line x1="1500" y1="510" x2="1500" y2="370" stroke="#f59e0b" stroke-width="4"/>
    <ellipse cx="1480" cy="360" rx="30" ry="20" fill="#f59e0b" transform="rotate(-20, 1480, 360)"/>
    <line x1="1700" y1="490" x2="1700" y2="370" stroke="#be2edd" stroke-width="4"/>
    <ellipse cx="1680" cy="358" rx="30" ry="20" fill="none" stroke="#be2edd" stroke-width="3" transform="rotate(-20, 1680, 358)"/>
    <line x1="1900" y1="520" x2="1900" y2="380" stroke="#be2edd" stroke-width="4"/>
    <ellipse cx="1880" cy="368" rx="30" ry="20" fill="#be2edd" transform="rotate(-20, 1880, 368)"/>
    <path d="M1100,380 L2100,340" stroke="#f59e0b" stroke-width="2" opacity="0.4"/>
    <path d="M1100,400 L2100,360" stroke="#f59e0b" stroke-width="2" opacity="0.3"/>
    <path d="M1100,420 L2100,380" stroke="#be2edd" stroke-width="2" opacity="0.3"/>
    <path d="M1100,440 L2100,400" stroke="#be2edd" stroke-width="2" opacity="0.3"/>
    <path d="M1100,460 L2100,420" stroke="#3b82f6" stroke-width="2" opacity="0.3"/>
  </g>
  <g opacity="0.12">
    <path d="M-100,300 C400,200 900,350 1422,260 C1944,170 2400,320 2944,230" stroke="#e0e0e0" stroke-width="1" fill="none"/>
    <path d="M-100,1300 C400,1200 900,1350 1422,1260 C1944,1170 2400,1320 2944,1230" stroke="#e0e0e0" stroke-width="1" fill="none"/>
  </g>
</svg>
