<svg xmlns="http://www.w3.org/2000/svg" viewBox="0 0 2844 1600">
  <defs>
    <linearGradient id="extGrad" x1="0" y1="0" x2="1" y2="1">
      <stop offset="0%" stop-color="#f59e0b"/>
      <stop offset="100%" stop-color="#3b82f6"/>
    </linearGradient>
    <radialGradient id="extGlow" cx="50%" cy="50%" r="50%">
      <stop offset="0%" stop-color="#f59e0b" stop-opacity="0.35"/>
      <stop offset="100%" stop-color="#1a1a1a" stop-opacity="0"/>
    </radialGradient>
    <radialGradient id="compileGlow" cx="50%" cy="50%" r="50%">
      <stop offset="0%" stop-color="#3b82f6" stop-opacity="0.5"/>
      <stop offset="100%" stop-color="#1a1a1a" stop-opacity="0"/>
    </radialGradient>
  </defs>
  <rect fill="#1a1a1a" width="2844" height="1600"/>
  <ellipse cx="1422" cy="800" rx="1300" ry="750" fill="url(#extGlow)"/>
  <g fill="none" stroke="#f59e0b" stroke-width="2" opacity="0.25">
    <path d="M 0 800 C 200 780, 400 810, 600 800 C 800 790, 1000 800, 1200 800 C 1400 800, 1600 800, 1800 800 C 2000 800, 2200 790, 2400 800 C 2600 810, 2700 800, 2844 800"/>
    <path d="M 0 700 C 300 690, 600 710, 900 700 C 1100 694, 1300 700, 1422 700 C 1600 700, 1800 695, 2100 700 C 2400 705, 2700 700, 2844 698"/>
    <path d="M 0 900 C 300 908, 600 892, 900 900 C 1100 906, 1300 900, 1422 900 C 1600 900, 1800 905, 2100 900 C 2400 895, 2700 900, 2844 902"/>
  </g>
  <g opacity="0.7">
    <rect x="320" y="500" width="280" height="600" rx="8" fill="none" stroke="#f59e0b" stroke-width="3"/>
    <rect x="320" y="500" width="280" height="600" rx="8" fill="#f59e0b" opacity="0.04"/>
    <rect x="320" y="680" width="280" height="420" rx="4" fill="#f59e0b" opacity="0.2"/>
    <text x="460" y="540" text-anchor="middle" font-size="28" fill="#f59e0b" opacity="0.7" font-family="monospace">BEFORE</text>
    <text x="460" y="590" text-anchor="middle" font-size="42" fill="#f59e0b" font-family="monospace">216s</text>
    <rect x="800" y="900" width="280" height="200" rx="8" fill="none" stroke="#3b82f6" stroke-width="3"/>
    <rect x="800" y="900" width="280" height="200" rx="4" fill="#3b82f6" opacity="0.04"/>
    <rect x="800" y="960" width="280" height="140" rx="4" fill="#3b82f6" opacity="0.2"/>
    <text x="940" y="940" text-anchor="middle" font-size="28" fill="#3b82f6" opacity="0.7" font-family="monospace">AFTER</text>
    <text x="940" y="990" text-anchor="middle" font-size="42" fill="#3b82f6" font-family="monospace">53s</text>
  </g>
  <g opacity="0.55">
    <path d="M 1300 300 C 1350 340, 1380 380, 1400 420 C 1420 460, 1422 500, 1422 540" fill="none" stroke="#be2edd" stroke-width="4" stroke-linecap="round"/>
    <path d="M 1560 280 C 1520 330, 1490 380, 1470 430 C 1450 478, 1440 510, 1422 540" fill="none" stroke="#be2edd" stroke-width="4" stroke-linecap="round"/>
    <circle cx="1422" cy="540" r="50" fill="#be2edd" opacity="0.8"/>
    <circle cx="1422" cy="540" r="80" fill="none" stroke="#9b1fb8" stroke-width="3" opacity="0.5"/>
  </g>
  <g opacity="0.4" fill="none" stroke="#e0e0e0" stroke-width="1.5">
    <path d="M 1700 500 C 1900 480, 2100 520, 2300 500 C 2500 480, 2650 510, 2800 500"/>
    <path d="M 1700 560 C 1900 545, 2100 575, 2300 558 C 2500 540, 2650 565, 2800 555"/>
    <path d="M 1700 620 C 1900 610, 2100 630, 2300 618"/>
    <path d="M 1700 680 C 1900 672, 2100 688, 2300 678"/>
    <path d="M 1700 740 C 1900 734, 2100 746, 2300 738"/>
  </g>
  <g opacity="0.7">
    <circle cx="2500" cy="400" r="25" fill="#3b82f6"/>
    <circle cx="2650" cy="380" r="20" fill="#3b82f6" opacity="0.6"/>
    <circle cx="2750" cy="430" r="18" fill="#f59e0b" opacity="0.7"/>
    <circle cx="2200" cy="350" r="22" fill="#be2edd"/>
    <circle cx="200" cy="400" r="25" fill="#f59e0b"/>
    <circle cx="150" cy="1100" r="22" fill="#3b82f6" opacity="0.7"/>
    <circle cx="2700" cy="1100" r="22" fill="#f59e0b" opacity="0.7"/>
  </g>
  <g opacity="0.2" fill="none" stroke="#e0e0e0" stroke-width="1">
    <line x1="600" y1="1100" x2="1200" y2="1100"/>
    <text x="900" y="1090" text-anchor="middle" font-size="24" fill="#e0e0e0" font-family="monospace">4.1x speedup</text>
  </g>
  <path d="M 1150 1080 L 1280 1080 L 1280 1150 L 1150 1150 Z" fill="none" stroke="#3b82f6" stroke-width="2" opacity="0.5"/>
  <text x="1215" y="1125" text-anchor="middle" font-size="28" fill="#3b82f6" opacity="0.7" font-family="monospace">4.1×</text>
</svg>
