<svg xmlns="http://www.w3.org/2000/svg" viewBox="0 0 2844 1600">
  <defs>
    <radialGradient id="fb-glow-l" cx="0.25" cy="0.45" r="0.4">
      <stop offset="0" stop-color="#3b82f6" stop-opacity="0.18"/>
      <stop offset="1" stop-color="#1a1a1a" stop-opacity="0"/>
    </radialGradient>
    <radialGradient id="fb-glow-r" cx="0.75" cy="0.55" r="0.4">
      <stop offset="0" stop-color="#be2edd" stop-opacity="0.18"/>
      <stop offset="1" stop-color="#1a1a1a" stop-opacity="0"/>
    </radialGradient>
    <linearGradient id="fb-loop" x1="0" y1="0" x2="1" y2="0">
      <stop offset="0" stop-color="#3b82f6"/>
      <stop offset="0.5" stop-color="#f59e0b"/>
      <stop offset="1" stop-color="#be2edd"/>
    </linearGradient>
    <linearGradient id="fb-ground" x1="0" y1="0" x2="0" y2="1">
      <stop offset="0" stop-color="#9b1fb8" stop-opacity="0"/>
      <stop offset="1" stop-color="#9b1fb8" stop-opacity="0.2"/>
    </linearGradient>
  </defs>
  <rect fill="#1a1a1a" width="2844" height="1600"/>
  <rect fill="url(#fb-glow-l)" width="2844" height="1600"/>
  <rect fill="url(#fb-glow-r)" width="2844" height="1600"/>
  <g transform="translate(1422 800)" fill="none">
    <path d="M -500 0 C -500 -350, -200 -600, 0 -600 S 500 -350, 500 0 S 200 600, 0 600 S -500 350, -500 0 Z" stroke="url(#fb-loop)" stroke-width="5" opacity="0.35"/>
    <path d="M -350 0 C -350 -250, -150 -420, 0 -420 S 350 -250, 350 0 S 150 420, 0 420 S -350 250, -350 0 Z" stroke="#be2edd" stroke-width="3.5" opacity="0.3"/>
    <path d="M -200 0 C -200 -150, -90 -240, 0 -240 S 200 -150, 200 0 S 90 240, 0 240 S -200 150, -200 0 Z" stroke="#3b82f6" stroke-width="2.5" opacity="0.28"/>
    <path d="M -100 0 C -100 -80, -45 -120, 0 -120 S 100 -80, 100 0 S 45 120, 0 120 S -100 80, -100 0 Z" stroke="#9b1fb8" stroke-width="2" opacity="0.3"/>
    <path d="M -650 0 C -650 -450, -250 -750, 0 -750 S 650 -450, 650 0 S 250 750, 0 750 S -650 450, -650 0 Z" stroke="#f59e0b" stroke-width="2" opacity="0.15"/>
    <path d="M -800 0 C -800 -550, -300 -900, 0 -900 S 800 -550, 800 0 S 300 900, 0 900 S -800 550, -800 0 Z" stroke="#3b82f6" stroke-width="1.5" opacity="0.1"/>
  </g>
  <g fill="none" stroke="#f59e0b" stroke-linecap="round" opacity="0.35">
    <path d="M 1422 200 C 1600 230, 1700 260, 1700 280" stroke-width="3"/>
    <path d="M 1422 1400 C 1250 1370, 1150 1340, 1150 1320" stroke-width="3"/>
    <path d="M 722 800 C 740 950, 780 1050, 800 1060" stroke-width="3"/>
    <path d="M 2122 800 C 2104 650, 2064 550, 2044 540" stroke-width="3"/>
  </g>
  <g fill="#f59e0b" opacity="0.5">
    <circle cx="1422" cy="200" r="12"/>
    <circle cx="1422" cy="1400" r="12"/>
    <circle cx="722" cy="800" r="12"/>
    <circle cx="2122" cy="800" r="12"/>
  </g>
  <g fill="#f59e0b" opacity="0.15">
    <circle cx="1422" cy="200" r="30"/>
    <circle cx="1422" cy="1400" r="30"/>
    <circle cx="722" cy="800" r="30"/>
    <circle cx="2122" cy="800" r="30"/>
  </g>
  <circle cx="1422" cy="800" r="18" fill="#be2edd" opacity="0.7"/>
  <circle cx="1422" cy="800" r="8" fill="#f59e0b" opacity="0.9"/>
  <circle cx="1422" cy="800" r="35" fill="none" stroke="#be2edd" stroke-width="2.5" opacity="0.3"/>
  <circle cx="1422" cy="800" r="55" fill="none" stroke="#9b1fb8" stroke-width="1.5" opacity="0.2"/>
  <g fill="#3b82f6" opacity="0.4">
    <circle cx="400" cy="250" r="8"/>
    <circle cx="550" cy="180" r="6"/>
    <circle cx="700" cy="300" r="7"/>
    <circle cx="350" cy="400" r="5"/>
    <circle cx="2200" cy="200" r="8"/>
    <circle cx="2450" cy="300" r="6"/>
    <circle cx="2350" cy="150" r="7"/>
    <circle cx="2550" cy="420" r="5"/>
    <circle cx="300" cy="1200" r="8"/>
    <circle cx="450" cy="1350" r="6"/>
    <circle cx="200" cy="1100" r="7"/>
    <circle cx="2350" cy="1300" r="8"/>
    <circle cx="2550" cy="1150" r="6"/>
    <circle cx="2650" cy="1350" r="7"/>
  </g>
  <g stroke="#3b82f6" fill="none" stroke-linecap="round" opacity="0.12">
    <path d="M 400 250 C 700 400, 1000 600, 1422 800" stroke-width="1.5"/>
    <path d="M 2350 150 C 2100 350, 1800 550, 1422 800" stroke-width="1.5"/>
    <path d="M 300 1200 C 600 1050, 1000 900, 1422 800" stroke-width="1.5"/>
    <path d="M 2550 1150 C 2200 1000, 1800 900, 1422 800" stroke-width="1.5"/>
  </g>
  <rect y="1300" width="2844" height="300" fill="url(#fb-ground)" opacity="0.8"/>
  <g stroke="#e0e0e0" fill="none" stroke-linecap="round" opacity="0.06">
    <path d="M -100 1450 C 500 1380, 1100 1400, 1700 1390 S 2400 1360, 2944 1400" stroke-width="1.5"/>
    <path d="M -100 1500 C 500 1430, 1100 1450, 1700 1440 S 2400 1410, 2944 1450" stroke-width="1"/>
  </g>
</svg>
