<svg xmlns="http://www.w3.org/2000/svg" viewBox="0 0 2844 1600">
  <defs>
    <linearGradient id="lineGrad" x1="0%" y1="0%" x2="100%" y2="0%">
      <stop offset="0%" stop-color="#3b82f6" stop-opacity="0.5"/>
      <stop offset="50%" stop-color="#be2edd" stop-opacity="0.4"/>
      <stop offset="100%" stop-color="#3b82f6" stop-opacity="0.3"/>
    </linearGradient>
    <radialGradient id="centerGlow" cx="50%" cy="50%" r="40%">
      <stop offset="0%" stop-color="#3b82f6" stop-opacity="0.15"/>
      <stop offset="100%" stop-color="#1a1a1a" stop-opacity="0"/>
    </radialGradient>
  </defs>
  <rect fill="#1a1a1a" width="2844" height="1600"/>
  <rect fill="url(#centerGlow)" width="2844" height="1600"/>
  <g opacity="0.5" transform="rotate(-2 1422 800)">
    <rect x="200" y="200" width="1800" height="8" rx="4" fill="#3b82f6" opacity="0.35"/>
    <rect x="200" y="270" width="1600" height="6" rx="3" fill="#e0e0e0" opacity="0.15"/>
    <rect x="200" y="330" width="1800" height="6" rx="3" fill="#e0e0e0" opacity="0.15"/>
    <rect x="200" y="390" width="1400" height="6" rx="3" fill="#e0e0e0" opacity="0.12"/>
    <rect x="200" y="450" width="1800" height="8" rx="4" fill="#be2edd" opacity="0.28"/>
    <rect x="200" y="520" width="1700" height="6" rx="3" fill="#e0e0e0" opacity="0.15"/>
    <rect x="200" y="580" width="1800" height="6" rx="3" fill="#e0e0e0" opacity="0.15"/>
    <rect x="200" y="640" width="1500" height="6" rx="3" fill="#e0e0e0" opacity="0.12"/>
    <rect x="200" y="700" width="1800" height="8" rx="4" fill="#3b82f6" opacity="0.3"/>
    <rect x="200" y="770" width="1600" height="6" rx="3" fill="#e0e0e0" opacity="0.13"/>
    <rect x="200" y="830" width="1800" height="6" rx="3" fill="#e0e0e0" opacity="0.13"/>
    <rect x="200" y="890" width="1200" height="6" rx="3" fill="#e0e0e0" opacity="0.10"/>
    <rect x="200" y="950" width="1800" height="8" rx="4" fill="#f59e0b" opacity="0.25"/>
    <rect x="200" y="1020" width="1700" height="6" rx="3" fill="#e0e0e0" opacity="0.13"/>
    <rect x="200" y="1080" width="1800" height="6" rx="3" fill="#e0e0e0" opacity="0.13"/>
    <rect x="200" y="1140" width="1300" height="6" rx="3" fill="#e0e0e0" opacity="0.10"/>
    <rect x="200" y="1200" width="1800" height="8" rx="4" fill="#be2edd" opacity="0.22"/>
    <rect x="200" y="1270" width="1500" height="6" rx="3" fill="#e0e0e0" opacity="0.12"/>
    <rect x="200" y="1330" width="1800" height="6" rx="3" fill="#e0e0e0" opacity="0.12"/>
    <rect x="200" y="1390" width="1100" height="6" rx="3" fill="#e0e0e0" opacity="0.09"/>
  </g>
  <g opacity="0.4" transform="rotate(2 1422 800)">
    <rect x="900" y="180" width="8" height="1300" rx="4" fill="#3b82f6" opacity="0.2"/>
    <rect x="1800" y="160" width="8" height="1320" rx="4" fill="#3b82f6" opacity="0.18"/>
  </g>
  <g opacity="0.6">
    <path d="M 2100 300 C 2180 280 2250 310 2260 390 C 2270 460 2220 520 2150 530 C 2080 540 2020 490 2020 420 C 2020 360 2040 310 2100 300 Z" fill="#be2edd" opacity="0.22"/>
    <path d="M 2160 390 L 2100 430 L 2160 470 Z" fill="#be2edd" opacity="0.3"/>
    <path d="M 2200 390 L 2260 350 L 2200 310 L 2230 390 Z" fill="#3b82f6" opacity="0.25"/>
  </g>
  <g opacity="0.25">
    <path d="M 2050 550 C 2130 530 2200 560 2210 630 C 2220 695 2175 745 2108 752 C 2041 759 1988 715 1990 650 C 1992 595 2010 562 2050 550 Z" fill="none" stroke="#f59e0b" stroke-width="3" opacity="0.3"/>
    <path d="M 2070 780 C 2140 762 2205 790 2214 855 C 2222 915 2180 960 2116 966 C 2052 972 2002 930 2004 868 C 2006 816 2022 786 2070 780 Z" fill="none" stroke="#3b82f6" stroke-width="3" opacity="0.25"/>
  </g>
  <g opacity="0.15">
    <rect x="120" y="150" width="4" height="1350" fill="#9b1fb8" opacity="0.4"/>
  </g>
</svg>
