<svg xmlns="http://www.w3.org/2000/svg" viewBox="0 0 2844 1600">
  <defs>
    <linearGradient id="glow-blue" x1="0%" y1="0%" x2="0%" y2="100%">
      <stop offset="0%" stop-color="#3b82f6" stop-opacity="0.4"/>
      <stop offset="100%" stop-color="#3b82f6" stop-opacity="0"/>
    </linearGradient>
    <linearGradient id="glow-purple" x1="0%" y1="0%" x2="0%" y2="100%">
      <stop offset="0%" stop-color="#be2edd" stop-opacity="0.5"/>
      <stop offset="100%" stop-color="#be2edd" stop-opacity="0"/>
    </linearGradient>
  </defs>
  <rect fill="#1a1a1a" width="2844" height="1600"/>
  <g opacity="0.12">
    <rect x="0" y="0" width="2844" height="80" fill="#3b82f6"/>
    <rect x="0" y="120" width="2844" height="80" fill="#3b82f6"/>
    <rect x="0" y="240" width="2844" height="80" fill="#3b82f6"/>
    <rect x="0" y="360" width="2844" height="80" fill="#3b82f6"/>
    <rect x="0" y="480" width="2844" height="80" fill="#3b82f6"/>
    <rect x="0" y="600" width="2844" height="80" fill="#3b82f6"/>
    <rect x="0" y="720" width="2844" height="80" fill="#3b82f6"/>
    <rect x="0" y="840" width="2844" height="80" fill="#3b82f6"/>
    <rect x="0" y="960" width="2844" height="80" fill="#3b82f6"/>
    <rect x="0" y="1080" width="2844" height="80" fill="#3b82f6"/>
    <rect x="0" y="1200" width="2844" height="80" fill="#3b82f6"/>
    <rect x="0" y="1320" width="2844" height="80" fill="#3b82f6"/>
    <rect x="0" y="1440" width="2844" height="80" fill="#3b82f6"/>
  </g>
  <g>
    <rect x="80" y="30" width="420" height="36" rx="4" fill="#be2edd" opacity="0.7"/>
    <rect x="80" y="150" width="280" height="36" rx="4" fill="#3b82f6" opacity="0.6"/>
    <rect x="380" y="150" width="180" height="36" rx="4" fill="#f59e0b" opacity="0.6"/>
    <rect x="80" y="270" width="520" height="36" rx="4" fill="#e0e0e0" opacity="0.3"/>
    <rect x="80" y="390" width="340" height="36" rx="4" fill="#be2edd" opacity="0.5"/>
    <rect x="440" y="390" width="220" height="36" rx="4" fill="#3b82f6" opacity="0.5"/>
    <rect x="80" y="510" width="260" height="36" rx="4" fill="#f59e0b" opacity="0.6"/>
    <rect x="80" y="630" width="460" height="36" rx="4" fill="#e0e0e0" opacity="0.25"/>
    <rect x="80" y="750" width="300" height="36" rx="4" fill="#3b82f6" opacity="0.6"/>
    <rect x="80" y="870" width="400" height="36" rx="4" fill="#be2edd" opacity="0.5"/>
    <rect x="80" y="990" width="220" height="36" rx="4" fill="#f59e0b" opacity="0.5"/>
    <rect x="80" y="1110" width="480" height="36" rx="4" fill="#e0e0e0" opacity="0.2"/>
    <rect x="80" y="1230" width="320" height="36" rx="4" fill="#3b82f6" opacity="0.5"/>
    <rect x="80" y="1350" width="260" height="36" rx="4" fill="#be2edd" opacity="0.45"/>
    <rect x="80" y="1470" width="380" height="36" rx="4" fill="#f59e0b" opacity="0.4"/>
  </g>
  <g transform="rotate(-3, 1600, 800)">
    <path d="M 1100 -100 C 1250 200 1150 500 1300 700 S 1600 1100 1500 1700" stroke="#be2edd" stroke-width="6" fill="none" opacity="0.6"/>
    <path d="M 1200 -100 C 1350 300 1250 600 1400 800 S 1700 1200 1600 1700" stroke="#3b82f6" stroke-width="4" fill="none" opacity="0.5"/>
    <path d="M 1000 -100 C 1150 100 1050 400 1200 600 S 1500 1000 1400 1700" stroke="#9b1fb8" stroke-width="3" fill="none" opacity="0.4"/>
  </g>
  <g>
    <path d="M 1700 300 C 1900 200 2200 400 2400 300 S 2700 600 2844 500 L 2844 -50 L 1600 -50 Z" fill="url(#glow-purple)" opacity="0.6"/>
    <path d="M 1600 600 C 1800 500 2100 700 2300 600 S 2600 900 2844 800 L 2844 1700 L 1500 1700 Z" fill="url(#glow-blue)" opacity="0.4"/>
  </g>
  <g>
    <circle cx="1900" cy="700" r="220" fill="#be2edd" opacity="0.08"/>
    <circle cx="1900" cy="700" r="160" fill="#be2edd" opacity="0.1"/>
    <circle cx="1900" cy="700" r="100" fill="#be2edd" opacity="0.15"/>
    <text x="1900" y="720" text-anchor="middle" font-family="monospace" font-size="72" fill="#be2edd" opacity="0.9">(lambda</text>
    <text x="1900" y="820" text-anchor="middle" font-family="monospace" font-size="52" fill="#3b82f6" opacity="0.8">  (xtlang</text>
    <text x="1900" y="910" text-anchor="middle" font-family="monospace" font-size="52" fill="#f59e0b" opacity="0.8">    highlight))</text>
  </g>
  <g opacity="0.5">
    <circle cx="2500" cy="400" r="8" fill="#f59e0b"/>
    <circle cx="2600" cy="350" r="5" fill="#3b82f6"/>
    <circle cx="2200" cy="1100" r="7" fill="#be2edd"/>
    <circle cx="1500" cy="1300" r="6" fill="#f59e0b"/>
    <circle cx="700" cy="900" r="9" fill="#3b82f6"/>
  </g>
</svg>
