<svg xmlns="http://www.w3.org/2000/svg" viewBox="0 0 2844 1600">
  <defs>
    <linearGradient id="pipeA" x1="0" y1="0" x2="1" y2="0">
      <stop offset="0" stop-color="#3b82f6"/>
      <stop offset="1" stop-color="#be2edd"/>
    </linearGradient>
    <linearGradient id="pipeB" x1="0" y1="0" x2="1" y2="0">
      <stop offset="0" stop-color="#be2edd"/>
      <stop offset="1" stop-color="#f59e0b"/>
    </linearGradient>
    <linearGradient id="pipeC" x1="0" y1="0" x2="1" y2="0">
      <stop offset="0" stop-color="#9b1fb8"/>
      <stop offset="1" stop-color="#3b82f6"/>
    </linearGradient>
    <linearGradient id="nodeGlow" x1="0" y1="0" x2="1" y2="1">
      <stop offset="0" stop-color="#f59e0b"/>
      <stop offset="1" stop-color="#be2edd"/>
    </linearGradient>
    <linearGradient id="bgLayer" x1="0" y1="0" x2="0" y2="1">
      <stop offset="0" stop-color="#1a1a1a"/>
      <stop offset="1" stop-color="#1a1a1a"/>
    </linearGradient>
  </defs>
  <rect fill="#1a1a1a" width="2844" height="1600"/>
  <g opacity="0.08">
    <path d="M 0 200 L 2844 200" stroke="#3b82f6" stroke-width="1"/>
    <path d="M 0 400 L 2844 400" stroke="#3b82f6" stroke-width="1"/>
    <path d="M 0 600 L 2844 600" stroke="#3b82f6" stroke-width="1"/>
    <path d="M 0 800 L 2844 800" stroke="#3b82f6" stroke-width="1"/>
    <path d="M 0 1000 L 2844 1000" stroke="#3b82f6" stroke-width="1"/>
    <path d="M 0 1200 L 2844 1200" stroke="#3b82f6" stroke-width="1"/>
    <path d="M 0 1400 L 2844 1400" stroke="#3b82f6" stroke-width="1"/>
    <path d="M 400 0 L 400 1600" stroke="#9b1fb8" stroke-width="1"/>
    <path d="M 800 0 L 800 1600" stroke="#9b1fb8" stroke-width="1"/>
    <path d="M 1200 0 L 1200 1600" stroke="#9b1fb8" stroke-width="1"/>
    <path d="M 1600 0 L 1600 1600" stroke="#9b1fb8" stroke-width="1"/>
    <path d="M 2000 0 L 2000 1600" stroke="#9b1fb8" stroke-width="1"/>
    <path d="M 2400 0 L 2400 1600" stroke="#9b1fb8" stroke-width="1"/>
  </g>
  <g transform="rotate(-4 1422 800)">
    <path d="M 200 800 C 400 760, 550 800, 700 760 S 850 700, 1000 760 S 1150 820, 1300 780 S 1450 720, 1600 780 S 1750 840, 1900 800 S 2050 740, 2200 800 S 2400 840, 2644 780" stroke="url(#pipeA)" stroke-width="12" fill="none" stroke-linecap="round" opacity="0.85"/>
  </g>
  <g transform="rotate(3 1422 800)">
    <path d="M 200 950 C 380 910, 530 950, 680 910 S 830 850, 980 910 S 1130 970, 1280 930 S 1430 870, 1580 930 S 1730 990, 1880 950 S 2030 890, 2180 950 S 2380 990, 2644 940" stroke="url(#pipeB)" stroke-width="10" fill="none" stroke-linecap="round" opacity="0.75"/>
  </g>
  <g transform="rotate(-2 1422 800)">
    <path d="M 200 640 C 420 600, 570 640, 720 600 S 870 540, 1020 600 S 1170 660, 1320 620 S 1470 560, 1620 620 S 1770 680, 1920 640 S 2070 580, 2220 640 S 2420 680, 2644 620" stroke="url(#pipeC)" stroke-width="8" fill="none" stroke-linecap="round" opacity="0.65"/>
  </g>
  <g transform="rotate(5 1422 800)">
    <path d="M 200 480 C 440 440, 590 480, 740 440 S 890 380, 1040 440 S 1190 500, 1340 460 S 1490 400, 1640 460 S 1790 520, 1940 480 S 2090 420, 2240 480 S 2440 520, 2644 460" stroke="url(#pipeA)" stroke-width="6" fill="none" stroke-linecap="round" opacity="0.5"/>
  </g>
  <g opacity="0.9">
    <circle cx="300" cy="800" r="40" fill="url(#nodeGlow)"/>
    <circle cx="300" cy="800" r="22" fill="#1a1a1a"/>
    <circle cx="1422" cy="770" r="50" fill="url(#nodeGlow)"/>
    <circle cx="1422" cy="770" r="28" fill="#1a1a1a"/>
    <circle cx="2544" cy="780" r="40" fill="url(#nodeGlow)"/>
    <circle cx="2544" cy="780" r="22" fill="#1a1a1a"/>
  </g>
  <g opacity="0.5">
    <path d="M 300 800 L 1422 770" stroke="#e0e0e0" stroke-width="1.5" stroke-dasharray="8 6"/>
    <path d="M 1422 770 L 2544 780" stroke="#e0e0e0" stroke-width="1.5" stroke-dasharray="8 6"/>
  </g>
</svg>
