<svg xmlns="http://www.w3.org/2000/svg" viewBox="0 0 2844 1600">
  <defs>
    <linearGradient id="cite-a" x1="0" y1="0" x2="1" y2="1">
      <stop offset="0" stop-color="#3b82f6"/>
      <stop offset="1" stop-color="#be2edd"/>
    </linearGradient>
    <linearGradient id="cite-b" x1="1" y1="0" x2="0" y2="1">
      <stop offset="0" stop-color="#f59e0b"/>
      <stop offset="1" stop-color="#9b1fb8"/>
    </linearGradient>
    <radialGradient id="cite-glow" cx="0.5" cy="0.5" r="0.5">
      <stop offset="0" stop-color="#be2edd" stop-opacity="0.15"/>
      <stop offset="1" stop-color="#1a1a1a" stop-opacity="0"/>
    </radialGradient>
  </defs>
  <rect fill="#1a1a1a" width="2844" height="1600"/>
  <rect fill="url(#cite-glow)" width="2844" height="1600"/>
  <g transform="rotate(-2 1422 800)">
    <path d="M -100 1700 C 400 1200, 900 1000, 1400 1100 S 2100 800, 2500 950 C 2700 1050, 2950 800, 2950 1700 Z" fill="url(#cite-a)" opacity="0.12"/>
  </g>
  <g stroke="#3b82f6" fill="none" stroke-linecap="round" opacity="0.2">
    <path d="M 300 200 C 400 250, 500 220, 600 200" stroke-width="3"/>
    <path d="M 300 260 C 400 310, 600 290, 700 270" stroke-width="3"/>
    <path d="M 300 320 C 400 370, 550 350, 650 330" stroke-width="3"/>
    <path d="M 300 380 C 400 430, 500 410, 600 400" stroke-width="2.5"/>
    <path d="M 300 440 C 450 490, 700 470, 850 450" stroke-width="2.5"/>
    <path d="M 300 500 C 400 550, 600 530, 700 510" stroke-width="2"/>
  </g>
  <g stroke="#f59e0b" fill="none" stroke-linecap="round" opacity="0.25">
    <path d="M 1050 320 C 1200 350, 1400 330, 1550 320" stroke-width="3"/>
    <path d="M 1050 380 C 1200 410, 1450 390, 1620 380" stroke-width="3"/>
    <path d="M 1050 440 C 1200 470, 1400 450, 1550 440" stroke-width="3"/>
    <path d="M 1050 500 C 1200 530, 1500 510, 1700 500" stroke-width="2.5"/>
    <path d="M 1050 560 C 1200 590, 1400 570, 1580 560" stroke-width="2"/>
  </g>
  <g fill="none" stroke="#be2edd" stroke-linecap="round" opacity="0.35">
    <path d="M 700 350 C 800 330, 900 340, 1000 350" stroke-width="2.5" stroke-dasharray="8 6"/>
    <path d="M 720 430 C 820 410, 920 420, 1020 430" stroke-width="2" stroke-dasharray="8 6"/>
    <path d="M 700 510 C 820 490, 940 500, 1040 510" stroke-width="2" stroke-dasharray="8 6"/>
  </g>
  <g stroke="#3b82f6" fill="none" stroke-linecap="round" opacity="0.2">
    <path d="M 1800 600 C 1900 650, 2000 620, 2100 600" stroke-width="3"/>
    <path d="M 1800 660 C 1900 710, 2100 690, 2200 670" stroke-width="3"/>
    <path d="M 1800 720 C 1900 770, 2000 750, 2150 730" stroke-width="2.5"/>
    <path d="M 1800 780 C 1950 830, 2150 810, 2300 790" stroke-width="2.5"/>
    <path d="M 1800 840 C 1900 890, 2000 870, 2100 850" stroke-width="2"/>
    <path d="M 1800 900 C 1950 950, 2200 930, 2400 910" stroke-width="2"/>
  </g>
  <g fill="none" stroke="#be2edd" stroke-linecap="round" opacity="0.3">
    <path d="M 1680 700 C 1720 680, 1760 690, 1780 700" stroke-width="2" stroke-dasharray="6 5"/>
    <path d="M 1680 780 C 1720 760, 1760 770, 1780 780" stroke-width="2" stroke-dasharray="6 5"/>
    <path d="M 1680 860 C 1720 840, 1760 850, 1780 860" stroke-width="2" stroke-dasharray="6 5"/>
  </g>
  <g fill="#f59e0b" opacity="0.5">
    <circle cx="350" cy="270" r="18"/>
    <circle cx="1120" cy="430" r="16"/>
    <circle cx="1860" cy="730" r="18"/>
  </g>
  <g fill="#f59e0b" opacity="0.15">
    <circle cx="350" cy="270" r="40"/>
    <circle cx="1120" cy="430" r="36"/>
    <circle cx="1860" cy="730" r="40"/>
  </g>
  <g fill="#9b1fb8" opacity="0.3">
    <circle cx="700" cy="380" r="10"/>
    <circle cx="1040" cy="460" r="10"/>
    <circle cx="1680" cy="760" r="10"/>
    <circle cx="1780" cy="840" r="10"/>
  </g>
  <g transform="rotate(5 2200 300)" opacity="0.1">
    <path d="M 1900 -100 C 2100 100, 2300 80, 2500 -50 S 2850 50, 2900 200 C 2950 400, 2800 500, 2600 450" fill="url(#cite-b)" opacity="1"/>
  </g>
  <g transform="rotate(-5 500 1300)" opacity="0.1">
    <path d="M 100 1100 C 300 950, 600 980, 700 1200 S 650 1450, 400 1600 C 200 1700, -100 1650, -100 1400 Z" fill="url(#cite-a)" opacity="1"/>
  </g>
  <path d="M 600 1700 C 900 1350, 1400 1200, 1800 1300 S 2400 1100, 2900 1150" fill="none" stroke="#e0e0e0" stroke-width="1.5" stroke-linecap="round" opacity="0.06"/>
</svg>
