<svg xmlns="http://www.w3.org/2000/svg" viewBox="0 0 2844 1600">
  <defs>
    <radialGradient id="burst" cx="50%" cy="55%" r="55%">
      <stop offset="0%" stop-color="#f59e0b" stop-opacity="0.5"/>
      <stop offset="40%" stop-color="#be2edd" stop-opacity="0.3"/>
      <stop offset="100%" stop-color="#1a1a1a" stop-opacity="0"/>
    </radialGradient>
    <radialGradient id="innerBurst" cx="50%" cy="55%" r="30%">
      <stop offset="0%" stop-color="#f59e0b" stop-opacity="0.6"/>
      <stop offset="100%" stop-color="#be2edd" stop-opacity="0"/>
    </radialGradient>
    <linearGradient id="rayGrad" x1="50%" y1="50%" x2="100%" y2="0%">
      <stop offset="0%" stop-color="#f59e0b"/>
      <stop offset="100%" stop-color="#be2edd"/>
    </linearGradient>
  </defs>
  <rect fill="#1a1a1a" width="2844" height="1600"/>
  <ellipse cx="1422" cy="880" rx="1200" ry="900" fill="url(#burst)"/>
  <ellipse cx="1422" cy="880" rx="600" ry="450" fill="url(#innerBurst)"/>
  <g transform="translate(1422, 880)">
    <line x1="0" y1="0" x2="0" y2="-850" stroke="#f59e0b" stroke-width="3" opacity="0.25"/>
    <line x1="0" y1="0" x2="590" y2="-620" stroke="#f59e0b" stroke-width="3" opacity="0.22"/>
    <line x1="0" y1="0" x2="850" y2="0" stroke="#be2edd" stroke-width="3" opacity="0.22"/>
    <line x1="0" y1="0" x2="590" y2="620" stroke="#9b1fb8" stroke-width="2" opacity="0.18"/>
    <line x1="0" y1="0" x2="0" y2="720" stroke="#9b1fb8" stroke-width="2" opacity="0.15"/>
    <line x1="0" y1="0" x2="-590" y2="620" stroke="#9b1fb8" stroke-width="2" opacity="0.18"/>
    <line x1="0" y1="0" x2="-850" y2="0" stroke="#be2edd" stroke-width="3" opacity="0.22"/>
    <line x1="0" y1="0" x2="-590" y2="-620" stroke="#f59e0b" stroke-width="3" opacity="0.22"/>
    <line x1="0" y1="0" x2="420" y2="-760" stroke="#3b82f6" stroke-width="2" opacity="0.2"/>
    <line x1="0" y1="0" x2="760" y2="-420" stroke="#3b82f6" stroke-width="2" opacity="0.2"/>
    <line x1="0" y1="0" x2="760" y2="420" stroke="#3b82f6" stroke-width="2" opacity="0.18"/>
    <line x1="0" y1="0" x2="-760" y2="420" stroke="#3b82f6" stroke-width="2" opacity="0.18"/>
    <line x1="0" y1="0" x2="-760" y2="-420" stroke="#3b82f6" stroke-width="2" opacity="0.2"/>
    <line x1="0" y1="0" x2="-420" y2="-760" stroke="#3b82f6" stroke-width="2" opacity="0.2"/>
  </g>
  <circle cx="1422" cy="880" r="280" fill="none" stroke="#f59e0b" stroke-width="3" opacity="0.5"/>
  <circle cx="1422" cy="880" r="420" fill="none" stroke="#be2edd" stroke-width="2" opacity="0.35"/>
  <circle cx="1422" cy="880" r="580" fill="none" stroke="#3b82f6" stroke-width="1.5" opacity="0.25"/>
  <circle cx="1422" cy="880" r="740" fill="none" stroke="#9b1fb8" stroke-width="1" opacity="0.15"/>
  <circle cx="1422" cy="880" r="160" fill="#1a1a1a" stroke="#f59e0b" stroke-width="5" opacity="0.95"/>
  <path d="M 1370 880 C 1370 850, 1390 835, 1422 835 S 1474 850, 1474 880 S 1450 920, 1422 920 S 1370 910, 1370 880 Z" fill="#f59e0b" opacity="0.8"/>
  <path d="M 1395 830 C 1400 810, 1422 800, 1422 800 S 1444 810, 1449 830" fill="none" stroke="#f59e0b" stroke-width="4" opacity="0.7"/>
</svg>
