<svg xmlns="http://www.w3.org/2000/svg" viewBox="0 0 2844 1600">
  <defs>
    <linearGradient id="speed" x1="0" y1="0" x2="1" y2="0">
      <stop offset="0" stop-color="#9b1fb8"/>
      <stop offset="0.5" stop-color="#be2edd"/>
      <stop offset="1" stop-color="#f59e0b"/>
    </linearGradient>
    <linearGradient id="slow-bar" x1="0" y1="0" x2="1" y2="0">
      <stop offset="0" stop-color="#3b82f6" stop-opacity="0.6"/>
      <stop offset="1" stop-color="#3b82f6" stop-opacity="0.2"/>
    </linearGradient>
    <linearGradient id="fast-bar" x1="0" y1="0" x2="1" y2="0">
      <stop offset="0" stop-color="#f59e0b" stop-opacity="0.9"/>
      <stop offset="1" stop-color="#be2edd" stop-opacity="0.4"/>
    </linearGradient>
    <radialGradient id="glow-fast" cx="0.1" cy="0.5" r="0.5">
      <stop offset="0" stop-color="#f59e0b" stop-opacity="0.3"/>
      <stop offset="1" stop-color="#f59e0b" stop-opacity="0"/>
    </radialGradient>
  </defs>
  <rect fill="#1a1a1a" width="2844" height="1600"/>
  <g opacity="0.08" fill="none" stroke="#e0e0e0" stroke-width="1">
    <line x1="400" y1="0" x2="400" y2="1600"/>
    <line x1="800" y1="0" x2="800" y2="1600"/>
    <line x1="1200" y1="0" x2="1200" y2="1600"/>
    <line x1="1600" y1="0" x2="1600" y2="1600"/>
    <line x1="2000" y1="0" x2="2000" y2="1600"/>
    <line x1="2400" y1="0" x2="2400" y2="1600"/>
    <line x1="0" y1="300" x2="2844" y2="300"/>
    <line x1="0" y1="600" x2="2844" y2="600"/>
    <line x1="0" y1="900" x2="2844" y2="900"/>
    <line x1="0" y1="1200" x2="2844" y2="1200"/>
  </g>
  <rect x="250" y="1250" width="2344" height="4" fill="#e0e0e0" opacity="0.3"/>
  <rect x="250" y="200" width="4" height="1050" fill="#e0e0e0" opacity="0.3"/>
  <rect x="280" y="750" width="1660" height="100" rx="6" fill="url(#slow-bar)" opacity="0.9"/>
  <rect x="280" y="900" width="1660" height="100" rx="6" fill="url(#slow-bar)" opacity="0.8"/>
  <rect x="280" y="1050" width="1710" height="100" rx="6" fill="url(#slow-bar)" opacity="0.75"/>
  <g opacity="0.6">
    <rect x="280" y="350" width="360" height="90" rx="6" fill="url(#fast-bar)" opacity="0.95"/>
    <rect x="280" y="470" width="355" height="90" rx="6" fill="url(#fast-bar)" opacity="0.9"/>
    <rect x="280" y="590" width="365" height="90" rx="6" fill="url(#fast-bar)" opacity="0.85"/>
  </g>
  <ellipse cx="400" cy="490" rx="500" ry="300" fill="url(#glow-fast)"/>
  <path d="M 1940 200 C 2300 300 2600 500 2800 800 C 2900 950 2800 1100 2600 1150" fill="none" stroke="url(#speed)" stroke-width="6" stroke-linecap="round" opacity="0.6"/>
  <path d="M 1940 200 C 2100 220 2250 270 2350 350" fill="none" stroke="#f59e0b" stroke-width="4" stroke-linecap="round" opacity="0.5"/>
  <g opacity="0.4">
    <path d="M 1960 400 C 2200 380 2400 420 2500 500" fill="none" stroke="#be2edd" stroke-width="20" stroke-linecap="round"/>
    <path d="M 1960 560 C 2200 540 2400 580 2500 660" fill="none" stroke="#be2edd" stroke-width="14" stroke-linecap="round"/>
    <path d="M 1960 700 C 2200 680 2400 720 2500 800" fill="none" stroke="#9b1fb8" stroke-width="10" stroke-linecap="round"/>
    <path d="M 1960 820 C 2200 800 2400 840 2500 920" fill="none" stroke="#be2edd" stroke-width="7" stroke-linecap="round"/>
    <path d="M 1960 920 C 2200 900 2400 940 2500 1020" fill="none" stroke="#9b1fb8" stroke-width="5" stroke-linecap="round"/>
  </g>
  <g fill="#f59e0b" opacity="0.8">
    <circle cx="650" cy="395" r="14"/>
    <circle cx="635" cy="515" r="14"/>
    <circle cx="645" cy="635" r="14"/>
  </g>
  <g fill="#3b82f6" opacity="0.6">
    <circle cx="1942" cy="800" r="14"/>
    <circle cx="1942" cy="950" r="14"/>
    <circle cx="1992" cy="1100" r="14"/>
  </g>
  <g fill="#e0e0e0" opacity="0.15">
    <rect x="700" y="380" width="80" height="22" rx="3"/>
    <rect x="700" y="500" width="80" height="22" rx="3"/>
    <rect x="700" y="620" width="80" height="22" rx="3"/>
    <rect x="1700" y="790" width="120" height="22" rx="3"/>
    <rect x="1700" y="940" width="120" height="22" rx="3"/>
    <rect x="1750" y="1090" width="120" height="22" rx="3"/>
  </g>
</svg>
