<svg xmlns="http://www.w3.org/2000/svg" viewBox="0 0 2844 1600">
  <defs>
    <linearGradient id="ensembleGrad" x1="0%" y1="0%" x2="100%" y2="100%">
      <stop offset="0%" stop-color="#be2edd"/>
      <stop offset="100%" stop-color="#3b82f6"/>
    </linearGradient>
    <radialGradient id="laptopGlow" cx="50%" cy="40%" r="50%">
      <stop offset="0%" stop-color="#3b82f6" stop-opacity="0.4"/>
      <stop offset="100%" stop-color="#1a1a1a" stop-opacity="0"/>
    </radialGradient>
    <radialGradient id="screenGlow" cx="50%" cy="50%" r="50%">
      <stop offset="0%" stop-color="#be2edd" stop-opacity="0.6"/>
      <stop offset="100%" stop-color="#1a1a1a" stop-opacity="0"/>
    </radialGradient>
  </defs>
  <rect fill="#1a1a1a" width="2844" height="1600"/>
  <ellipse cx="1422" cy="700" rx="1200" ry="700" fill="url(#laptopGlow)"/>
  <g transform="translate(560, 680) rotate(-5)">
    <rect x="0" y="0" width="280" height="180" rx="10" fill="#1a1a1a" stroke="#3b82f6" stroke-width="3"/>
    <rect x="12" y="12" width="256" height="148" rx="6" fill="#1a1a1a"/>
    <rect x="20" y="24" width="160" height="8" rx="4" fill="#3b82f6" opacity="0.7"/>
    <rect x="20" y="40" width="220" height="6" rx="3" fill="#9b1fb8" opacity="0.5"/>
    <rect x="20" y="54" width="200" height="6" rx="3" fill="#3b82f6" opacity="0.4"/>
    <rect x="20" y="68" width="180" height="6" rx="3" fill="#9b1fb8" opacity="0.4"/>
    <rect x="20" y="82" width="210" height="6" rx="3" fill="#3b82f6" opacity="0.35"/>
    <rect x="20" y="96" width="190" height="6" rx="3" fill="#9b1fb8" opacity="0.35"/>
    <rect x="0" y="180" width="280" height="16" rx="4" fill="#1a1a1a"/>
  </g>
  <g transform="translate(1062, 580)">
    <rect x="0" y="0" width="320" height="200" rx="10" fill="#1a1a1a" stroke="#be2edd" stroke-width="3.5"/>
    <rect x="14" y="14" width="292" height="166" rx="6" fill="#1a1a1a"/>
    <rect x="22" y="26" width="180" height="9" rx="4" fill="#be2edd" opacity="0.7"/>
    <rect x="22" y="44" width="260" height="7" rx="3" fill="#3b82f6" opacity="0.5"/>
    <rect x="22" y="59" width="230" height="7" rx="3" fill="#be2edd" opacity="0.4"/>
    <rect x="22" y="74" width="250" height="7" rx="3" fill="#3b82f6" opacity="0.4"/>
    <rect x="22" y="89" width="200" height="7" rx="3" fill="#be2edd" opacity="0.35"/>
    <rect x="22" y="104" width="240" height="7" rx="3" fill="#3b82f6" opacity="0.35"/>
    <rect x="22" y="119" width="210" height="7" rx="3" fill="#be2edd" opacity="0.3"/>
    <rect x="0" y="200" width="320" height="18" rx="4" fill="#1a1a1a"/>
  </g>
  <g transform="translate(1700, 640) rotate(4)">
    <rect x="0" y="0" width="300" height="190" rx="10" fill="#1a1a1a" stroke="#f59e0b" stroke-width="3"/>
    <rect x="12" y="12" width="276" height="158" rx="6" fill="#1a1a1a"/>
    <rect x="20" y="24" width="170" height="8" rx="4" fill="#f59e0b" opacity="0.7"/>
    <rect x="20" y="40" width="240" height="6" rx="3" fill="#be2edd" opacity="0.5"/>
    <rect x="20" y="54" width="210" height="6" rx="3" fill="#f59e0b" opacity="0.4"/>
    <rect x="20" y="68" width="230" height="6" rx="3" fill="#be2edd" opacity="0.4"/>
    <rect x="20" y="82" width="195" height="6" rx="3" fill="#f59e0b" opacity="0.35"/>
    <rect x="20" y="96" width="220" height="6" rx="3" fill="#be2edd" opacity="0.35"/>
    <rect x="0" y="190" width="300" height="17" rx="4" fill="#1a1a1a"/>
  </g>
  <g transform="translate(2180, 700) rotate(6)">
    <rect x="0" y="0" width="260" height="166" rx="10" fill="#1a1a1a" stroke="#9b1fb8" stroke-width="2.5"/>
    <rect x="11" y="11" width="238" height="136" rx="6" fill="#1a1a1a"/>
    <rect x="18" y="22" width="150" height="7" rx="3" fill="#9b1fb8" opacity="0.7"/>
    <rect x="18" y="38" width="200" height="6" rx="3" fill="#3b82f6" opacity="0.5"/>
    <rect x="18" y="52" width="180" height="6" rx="3" fill="#9b1fb8" opacity="0.4"/>
    <rect x="18" y="66" width="195" height="6" rx="3" fill="#3b82f6" opacity="0.35"/>
    <rect x="18" y="80" width="165" height="6" rx="3" fill="#9b1fb8" opacity="0.3"/>
    <rect x="0" y="166" width="260" height="15" rx="4" fill="#1a1a1a"/>
  </g>
  <path d="M 700 870 C 900 900, 1100 880, 1222 870" stroke="#3b82f6" stroke-width="2" fill="none" opacity="0.3"/>
  <path d="M 1382 870 C 1500 880, 1700 900, 1850 870" stroke="#be2edd" stroke-width="2" fill="none" opacity="0.3"/>
  <path d="M 2000 870 C 2100 880, 2200 870, 2310 860" stroke="#9b1fb8" stroke-width="2" fill="none" opacity="0.3"/>
  <rect x="300" y="1220" width="2244" height="120" rx="8" fill="#1a1a1a" opacity="0.8"/>
  <rect x="340" y="1240" width="340" height="18" rx="6" fill="#e0e0e0" opacity="0.3"/>
  <rect x="340" y="1268" width="560" height="10" rx="4" fill="#e0e0e0" opacity="0.2"/>
  <rect x="340" y="1284" width="480" height="10" rx="4" fill="#e0e0e0" opacity="0.18"/>
  <rect x="340" y="1300" width="520" height="10" rx="4" fill="#e0e0e0" opacity="0.18"/>
</svg>
