<svg xmlns="http://www.w3.org/2000/svg" viewBox="0 0 2844 1600">
  <defs>
    <radialGradient id="lens-center" cx="50%" cy="50%" r="50%">
      <stop offset="0%" stop-color="#3b82f6" stop-opacity="0.5"/>
      <stop offset="60%" stop-color="#9b1fb8" stop-opacity="0.2"/>
      <stop offset="100%" stop-color="#1a1a1a" stop-opacity="0"/>
    </radialGradient>
    <radialGradient id="purple-orb" cx="50%" cy="50%" r="50%">
      <stop offset="0%" stop-color="#be2edd"/>
      <stop offset="100%" stop-color="#9b1fb8" stop-opacity="0"/>
    </radialGradient>
    <linearGradient id="string1" x1="0%" y1="0%" x2="100%" y2="100%">
      <stop offset="0%" stop-color="#f59e0b" stop-opacity="0"/>
      <stop offset="50%" stop-color="#f59e0b"/>
      <stop offset="100%" stop-color="#f59e0b" stop-opacity="0"/>
    </linearGradient>
  </defs>
  <rect fill="#1a1a1a" width="2844" height="1600"/>
  <rect fill="url(#lens-center)" width="2844" height="1600"/>
  <g opacity="0.45">
    <ellipse cx="1422" cy="800" rx="900" ry="650" stroke="#3b82f6" stroke-width="2" fill="none" transform="rotate(-5, 1422, 800)"/>
    <ellipse cx="1422" cy="800" rx="700" ry="500" stroke="#be2edd" stroke-width="2" fill="none" transform="rotate(3, 1422, 800)"/>
    <ellipse cx="1422" cy="800" rx="500" ry="360" stroke="#3b82f6" stroke-width="1.5" fill="none" transform="rotate(-7, 1422, 800)"/>
    <ellipse cx="1422" cy="800" rx="300" ry="220" stroke="#9b1fb8" stroke-width="1.5" fill="none" transform="rotate(4, 1422, 800)"/>
  </g>
  <g opacity="0.5">
    <path d="M522,450 C700,600 900,700 1050,780" stroke="#f59e0b" stroke-width="3" fill="none"/>
    <path d="M2322,450 C2144,600 1944,700 1794,780" stroke="#f59e0b" stroke-width="3" fill="none"/>
    <path d="M800,200 C900,400 1000,600 1100,780" stroke="#be2edd" stroke-width="2.5" fill="none"/>
    <path d="M2044,200 C1944,400 1844,600 1744,780" stroke="#be2edd" stroke-width="2.5" fill="none"/>
    <path d="M500,1100 C700,1000 900,900 1100,820" stroke="#3b82f6" stroke-width="2" fill="none"/>
    <path d="M2344,1100 C2144,1000 1944,900 1744,820" stroke="#3b82f6" stroke-width="2" fill="none"/>
  </g>
  <g opacity="0.6">
    <circle cx="522" cy="430" r="22" fill="#f59e0b"/>
    <circle cx="800" cy="180" r="18" fill="#be2edd"/>
    <circle cx="1422" cy="100" r="20" fill="#3b82f6"/>
    <circle cx="2044" cy="180" r="18" fill="#be2edd"/>
    <circle cx="2322" cy="430" r="22" fill="#f59e0b"/>
    <circle cx="2500" cy="800" r="18" fill="#9b1fb8"/>
    <circle cx="2322" cy="1170" r="20" fill="#3b82f6"/>
    <circle cx="2044" cy="1420" r="18" fill="#f59e0b"/>
    <circle cx="1422" cy="1500" r="20" fill="#be2edd"/>
    <circle cx="800" cy="1420" r="18" fill="#3b82f6"/>
    <circle cx="522" cy="1170" r="22" fill="#9b1fb8"/>
    <circle cx="344" cy="800" r="18" fill="#f59e0b"/>
  </g>
  <circle cx="1422" cy="800" r="120" fill="url(#purple-orb)" opacity="0.7"/>
  <circle cx="1422" cy="800" r="60" fill="#be2edd" opacity="0.6"/>
  <circle cx="1422" cy="800" r="25" fill="#e0e0e0" opacity="0.5"/>
  <g opacity="0.15">
    <path d="M-100,200 C500,100 1000,300 1422,200 C1844,100 2400,300 2944,200" stroke="#e0e0e0" stroke-width="1" fill="none"/>
    <path d="M-100,1400 C500,1300 1000,1500 1422,1400 C1844,1300 2400,1500 2944,1400" stroke="#e0e0e0" stroke-width="1" fill="none"/>
  </g>
</svg>
