<svg xmlns="http://www.w3.org/2000/svg" viewBox="0 0 2844 1600">
  <defs>
    <radialGradient id="lens-spot1" cx="0.3" cy="0.65" r="0.4">
      <stop offset="0" stop-color="#be2edd" stop-opacity="0.3"/>
      <stop offset="1" stop-color="#1a1a1a" stop-opacity="0"/>
    </radialGradient>
    <radialGradient id="lens-spot2" cx="0.7" cy="0.65" r="0.4">
      <stop offset="0" stop-color="#3b82f6" stop-opacity="0.25"/>
      <stop offset="1" stop-color="#1a1a1a" stop-opacity="0"/>
    </radialGradient>
    <radialGradient id="lens-spot3" cx="0.5" cy="0.55" r="0.3">
      <stop offset="0" stop-color="#f59e0b" stop-opacity="0.18"/>
      <stop offset="1" stop-color="#1a1a1a" stop-opacity="0"/>
    </radialGradient>
    <linearGradient id="lens-stage" x1="0" y1="0" x2="0" y2="1">
      <stop offset="0" stop-color="#9b1fb8" stop-opacity="0"/>
      <stop offset="1" stop-color="#9b1fb8" stop-opacity="0.3"/>
    </linearGradient>
  </defs>
  <rect fill="#1a1a1a" width="2844" height="1600"/>
  <rect fill="url(#lens-spot1)" width="2844" height="1600"/>
  <rect fill="url(#lens-spot2)" width="2844" height="1600"/>
  <rect fill="url(#lens-spot3)" width="2844" height="1600"/>
  <rect y="1100" width="2844" height="500" fill="url(#lens-stage)" opacity="0.8"/>
  <g opacity="0.35">
    <path d="M 500 -50 C 480 200, 520 500, 500 800 S 460 1100, 500 1400" fill="none" stroke="#be2edd" stroke-width="80" stroke-linecap="round" opacity="0.15"/>
    <path d="M 900 -80 C 880 200, 920 500, 900 800 S 860 1100, 900 1400" fill="none" stroke="#3b82f6" stroke-width="60" stroke-linecap="round" opacity="0.12"/>
    <path d="M 1422 -60 C 1400 200, 1440 500, 1422 800 S 1380 1100, 1422 1400" fill="none" stroke="#f59e0b" stroke-width="70" stroke-linecap="round" opacity="0.1"/>
    <path d="M 1900 -80 C 1880 200, 1920 500, 1900 800 S 1860 1100, 1900 1400" fill="none" stroke="#be2edd" stroke-width="60" stroke-linecap="round" opacity="0.12"/>
    <path d="M 2350 -50 C 2330 200, 2370 500, 2350 800 S 2310 1100, 2350 1400" fill="none" stroke="#3b82f6" stroke-width="80" stroke-linecap="round" opacity="0.15"/>
  </g>
  <g stroke="#be2edd" fill="none" stroke-linecap="round">
    <path d="M -100 400 C 200 350, 500 380, 800 360 S 1200 340, 1422 360 S 1800 380, 2100 360 S 2500 340, 2944 370" stroke-width="2" opacity="0.2"/>
    <path d="M -100 450 C 200 400, 500 430, 800 410 S 1200 390, 1422 410 S 1800 430, 2100 410 S 2500 390, 2944 420" stroke-width="1.5" opacity="0.15"/>
    <path d="M -100 500 C 200 450, 500 480, 800 460 S 1200 440, 1422 460 S 1800 480, 2100 460 S 2500 440, 2944 470" stroke-width="1" opacity="0.1"/>
  </g>
  <g fill="#f59e0b" opacity="0.55">
    <circle cx="500" cy="1150" r="30"/>
    <circle cx="850" cy="1150" r="28"/>
    <circle cx="1200" cy="1150" r="32"/>
    <circle cx="1550" cy="1150" r="28"/>
    <circle cx="1900" cy="1150" r="30"/>
    <circle cx="2250" cy="1150" r="28"/>
    <circle cx="2600" cy="1150" r="32"/>
  </g>
  <g fill="#f59e0b" opacity="0.15">
    <circle cx="500" cy="1150" r="70"/>
    <circle cx="850" cy="1150" r="65"/>
    <circle cx="1200" cy="1150" r="75"/>
    <circle cx="1550" cy="1150" r="65"/>
    <circle cx="1900" cy="1150" r="70"/>
    <circle cx="2250" cy="1150" r="65"/>
    <circle cx="2600" cy="1150" r="75"/>
  </g>
  <g fill="#be2edd" opacity="0.5">
    <circle cx="675" cy="1200" r="20"/>
    <circle cx="1025" cy="1200" r="18"/>
    <circle cx="1375" cy="1200" r="22"/>
    <circle cx="1725" cy="1200" r="20"/>
    <circle cx="2075" cy="1200" r="18"/>
    <circle cx="2425" cy="1200" r="22"/>
  </g>
  <g opacity="0.2">
    <path d="M 400 200 C 500 100, 650 50, 700 200 S 600 400, 500 500" fill="none" stroke="#be2edd" stroke-width="4" stroke-linecap="round"/>
    <path d="M 1300 150 C 1380 50, 1520 30, 1550 180 S 1450 380, 1350 450" fill="none" stroke="#3b82f6" stroke-width="4" stroke-linecap="round"/>
    <path d="M 2100 180 C 2200 80, 2350 60, 2380 210 S 2280 410, 2180 480" fill="none" stroke="#be2edd" stroke-width="4" stroke-linecap="round"/>
  </g>
  <path d="M -100 1480 C 600 1380, 1200 1420, 1800 1400 S 2400 1360, 2944 1400" fill="none" stroke="#e0e0e0" stroke-width="2" stroke-linecap="round" opacity="0.06"/>
</svg>
