<svg xmlns="http://www.w3.org/2000/svg" viewBox="0 0 2844 1600">
  <defs>
    <linearGradient id="spotA" x1="0%" y1="0%" x2="100%" y2="100%">
      <stop offset="0%" stop-color="#be2edd"/>
      <stop offset="100%" stop-color="#9b1fb8"/>
    </linearGradient>
    <linearGradient id="spotB" x1="0%" y1="0%" x2="100%" y2="100%">
      <stop offset="0%" stop-color="#3b82f6"/>
      <stop offset="100%" stop-color="#be2edd"/>
    </linearGradient>
    <linearGradient id="spotC" x1="0%" y1="0%" x2="0%" y2="100%">
      <stop offset="0%" stop-color="#f59e0b"/>
      <stop offset="100%" stop-color="#1a1a1a"/>
    </linearGradient>
    <radialGradient id="glowA" cx="30%" cy="0%" r="60%">
      <stop offset="0%" stop-color="#be2edd" stop-opacity="0.35"/>
      <stop offset="100%" stop-color="#1a1a1a" stop-opacity="0"/>
    </radialGradient>
    <radialGradient id="glowB" cx="70%" cy="0%" r="60%">
      <stop offset="0%" stop-color="#3b82f6" stop-opacity="0.3"/>
      <stop offset="100%" stop-color="#1a1a1a" stop-opacity="0"/>
    </radialGradient>
    <radialGradient id="glowC" cx="50%" cy="0%" r="50%">
      <stop offset="0%" stop-color="#f59e0b" stop-opacity="0.25"/>
      <stop offset="100%" stop-color="#1a1a1a" stop-opacity="0"/>
    </radialGradient>
  </defs>
  <rect fill="#1a1a1a" width="2844" height="1600"/>
  <ellipse cx="860" cy="-60" rx="500" ry="800" fill="url(#glowA)"/>
  <ellipse cx="1984" cy="-60" rx="500" ry="800" fill="url(#glowB)"/>
  <ellipse cx="1422" cy="-80" rx="400" ry="700" fill="url(#glowC)"/>
  <polygon points="860,-100 560,1600 1160,1600" fill="#be2edd" opacity="0.12"/>
  <polygon points="1984,-100 1684,1600 2284,1600" fill="#3b82f6" opacity="0.10"/>
  <polygon points="1422,-80 1122,1600 1722,1600" fill="#f59e0b" opacity="0.08"/>
  <rect x="0" y="1300" width="2844" height="300" fill="#1a1a1a"/>
  <path d="M 0 1300 C 400 1280, 800 1320, 1200 1300 S 1700 1280, 2100 1310 S 2600 1290, 2844 1300 L 2844 1600 L 0 1600 Z" fill="#1a1a1a"/>
  <g transform="rotate(-4, 1422, 800)">
    <path d="M 200 1400 C 600 1380, 900 1350, 1200 1370 S 1700 1390, 2000 1360 S 2400 1340, 2700 1360" stroke="#9b1fb8" stroke-width="2" fill="none" opacity="0.3"/>
  </g>
  <rect x="600" y="1250" width="16" height="50" rx="4" fill="#e0e0e0" opacity="0.2"/>
  <rect x="1200" y="1240" width="16" height="60" rx="4" fill="#e0e0e0" opacity="0.2"/>
  <rect x="1810" y="1250" width="16" height="50" rx="4" fill="#e0e0e0" opacity="0.2"/>
  <rect x="2200" y="1245" width="16" height="55" rx="4" fill="#e0e0e0" opacity="0.2"/>
  <circle cx="860" cy="1320" r="60" fill="#be2edd" opacity="0.15"/>
  <circle cx="1422" cy="1310" r="50" fill="#f59e0b" opacity="0.12"/>
  <circle cx="1984" cy="1320" r="60" fill="#3b82f6" opacity="0.15"/>
  <path d="M 100 1500 C 400 1460, 700 1480, 1000 1470 S 1400 1450, 1700 1465 S 2100 1485, 2400 1470 S 2700 1450, 2844 1460" stroke="#3b82f6" stroke-width="2" fill="none" opacity="0.2"/>
</svg>
