<svg xmlns="http://www.w3.org/2000/svg" viewBox="0 0 2844 1600">
  <defs>
    <linearGradient id="chartGrad" x1="0%" y1="100%" x2="0%" y2="0%">
      <stop offset="0%" stop-color="#3b82f6" stop-opacity="0.2"/>
      <stop offset="100%" stop-color="#be2edd" stop-opacity="0.4"/>
    </linearGradient>
    <linearGradient id="bigChartGrad" x1="0%" y1="100%" x2="0%" y2="0%">
      <stop offset="0%" stop-color="#3b82f6" stop-opacity="0.35"/>
      <stop offset="100%" stop-color="#be2edd" stop-opacity="0.6"/>
    </linearGradient>
    <radialGradient id="dataGlow" cx="50%" cy="50%" r="50%">
      <stop offset="0%" stop-color="#3b82f6" stop-opacity="0.3"/>
      <stop offset="100%" stop-color="#1a1a1a" stop-opacity="0"/>
    </radialGradient>
  </defs>
  <rect fill="#1a1a1a" width="2844" height="1600"/>
  <g transform="translate(120, 200)" opacity="0.6">
    <rect x="0" y="0" width="800" height="600" rx="12" fill="#1a1a1a" stroke="#3b82f6" stroke-width="2"/>
    <line x1="60" y1="20" x2="60" y2="560" stroke="#e0e0e0" stroke-width="1.5" opacity="0.2"/>
    <line x1="60" y1="560" x2="780" y2="560" stroke="#e0e0e0" stroke-width="1.5" opacity="0.2"/>
    <line x1="60" y1="140" x2="780" y2="140" stroke="#e0e0e0" stroke-width="0.8" opacity="0.1" stroke-dasharray="4 4"/>
    <line x1="60" y1="280" x2="780" y2="280" stroke="#e0e0e0" stroke-width="0.8" opacity="0.1" stroke-dasharray="4 4"/>
    <line x1="60" y1="420" x2="780" y2="420" stroke="#e0e0e0" stroke-width="0.8" opacity="0.1" stroke-dasharray="4 4"/>
    <path d="M 60 400 C 120 380, 160 300, 220 280 S 300 260, 360 240 S 440 200, 500 180 S 580 160, 640 200 S 700 260, 780 240" stroke="#3b82f6" stroke-width="3" fill="none"/>
    <rect x="30" y="120" width="6" height="8" rx="1" fill="#e0e0e0" opacity="0.2"/>
    <rect x="30" y="256" width="6" height="8" rx="1" fill="#e0e0e0" opacity="0.2"/>
    <rect x="30" y="396" width="6" height="8" rx="1" fill="#e0e0e0" opacity="0.2"/>
    <rect x="100" y="570" width="8" height="6" rx="1" fill="#e0e0e0" opacity="0.2"/>
    <rect x="300" y="570" width="8" height="6" rx="1" fill="#e0e0e0" opacity="0.2"/>
    <rect x="500" y="570" width="8" height="6" rx="1" fill="#e0e0e0" opacity="0.2"/>
    <rect x="700" y="570" width="8" height="6" rx="1" fill="#e0e0e0" opacity="0.2"/>
    <rect x="80" y="580" width="80" height="5" rx="2" fill="#e0e0e0" opacity="0.15"/>
    <rect x="80" y="590" width="60" height="5" rx="2" fill="#e0e0e0" opacity="0.12"/>
  </g>
  <g transform="translate(1200, 100)" opacity="0.95">
    <rect x="0" y="0" width="1500" height="1100" rx="20" fill="#1a1a1a" stroke="#be2edd" stroke-width="4"/>
    <line x1="100" y1="40" x2="100" y2="1020" stroke="#e0e0e0" stroke-width="2.5" opacity="0.3"/>
    <line x1="100" y1="1020" x2="1440" y2="1020" stroke="#e0e0e0" stroke-width="2.5" opacity="0.3"/>
    <line x1="100" y1="260" x2="1440" y2="260" stroke="#e0e0e0" stroke-width="1.2" opacity="0.12" stroke-dasharray="8 6"/>
    <line x1="100" y1="500" x2="1440" y2="500" stroke="#e0e0e0" stroke-width="1.2" opacity="0.12" stroke-dasharray="8 6"/>
    <line x1="100" y1="740" x2="1440" y2="740" stroke="#e0e0e0" stroke-width="1.2" opacity="0.12" stroke-dasharray="8 6"/>
    <path d="M 100 700 C 220 660, 320 540, 460 500 S 640 460, 760 420 S 920 360, 1060 320 S 1200 300, 1340 360 S 1440 460, 1440 440" stroke="#be2edd" stroke-width="8" fill="none"/>
    <path d="M 100 700 C 220 660, 320 540, 460 500 S 640 460, 760 420 S 920 360, 1060 320 S 1200 300, 1340 360 S 1440 460, 1440 440 L 1440 1020 L 100 1020 Z" fill="url(#bigChartGrad)" opacity="0.3"/>
    <rect x="40" y="240" width="18" height="28" rx="3" fill="#e0e0e0" opacity="0.35"/>
    <rect x="40" y="480" width="18" height="28" rx="3" fill="#e0e0e0" opacity="0.35"/>
    <rect x="40" y="720" width="18" height="28" rx="3" fill="#e0e0e0" opacity="0.35"/>
    <rect x="160" y="1040" width="28" height="18" rx="3" fill="#e0e0e0" opacity="0.35"/>
    <rect x="500" y="1040" width="28" height="18" rx="3" fill="#e0e0e0" opacity="0.35"/>
    <rect x="840" y="1040" width="28" height="18" rx="3" fill="#e0e0e0" opacity="0.35"/>
    <rect x="1180" y="1040" width="28" height="18" rx="3" fill="#e0e0e0" opacity="0.35"/>
    <rect x="140" y="1060" width="200" height="18" rx="5" fill="#e0e0e0" opacity="0.2"/>
    <rect x="140" y="1084" width="160" height="14" rx="4" fill="#e0e0e0" opacity="0.15"/>
    <circle cx="460" cy="500" r="16" fill="#be2edd" opacity="0.8"/>
    <circle cx="760" cy="420" r="16" fill="#be2edd" opacity="0.8"/>
    <circle cx="1060" cy="320" r="16" fill="#be2edd" opacity="0.8"/>
    <circle cx="1340" cy="360" r="16" fill="#be2edd" opacity="0.8"/>
  </g>
  <path d="M 940 700 C 1000 700, 1080 700, 1160 700" stroke="#f59e0b" stroke-width="5" fill="none" opacity="0.7" stroke-dasharray="20 10"/>
  <circle cx="1180" cy="700" r="14" fill="#f59e0b" opacity="0.8"/>
</svg>
