<svg xmlns="http://www.w3.org/2000/svg" viewBox="0 0 2844 1600">
  <defs>
    <linearGradient id="purpleBlue" x1="0%" y1="0%" x2="100%" y2="100%">
      <stop offset="0%" stop-color="#be2edd"/>
      <stop offset="100%" stop-color="#3b82f6"/>
    </linearGradient>
    <linearGradient id="amberPurple" x1="0%" y1="0%" x2="100%" y2="100%">
      <stop offset="0%" stop-color="#f59e0b"/>
      <stop offset="100%" stop-color="#9b1fb8"/>
    </linearGradient>
    <radialGradient id="centreGlow" cx="50%" cy="50%" r="45%">
      <stop offset="0%" stop-color="#3b82f6" stop-opacity="0.25"/>
      <stop offset="100%" stop-color="#1a1a1a" stop-opacity="0"/>
    </radialGradient>
  </defs>
  <rect fill="#1a1a1a" width="2844" height="1600"/>
  <ellipse cx="1422" cy="800" rx="1000" ry="700" fill="url(#centreGlow)"/>
  <circle cx="1422" cy="800" r="520" fill="none" stroke="#3b82f6" stroke-width="1.5" stroke-dasharray="20 12" opacity="0.25"/>
  <circle cx="1422" cy="800" r="380" fill="none" stroke="#be2edd" stroke-width="1.5" stroke-dasharray="16 10" opacity="0.3"/>
  <circle cx="1422" cy="800" r="240" fill="none" stroke="#9b1fb8" stroke-width="2" opacity="0.35"/>
  <circle cx="900" cy="560" r="90" fill="#9b1fb8" opacity="0.7"/>
  <circle cx="900" cy="560" r="70" fill="#1a1a1a"/>
  <rect x="856" y="530" width="88" height="10" rx="5" fill="#e0e0e0" opacity="0.5"/>
  <rect x="860" y="550" width="70" height="8" rx="4" fill="#e0e0e0" opacity="0.35"/>
  <rect x="864" y="566" width="60" height="8" rx="4" fill="#e0e0e0" opacity="0.25"/>
  <circle cx="1944" cy="560" r="90" fill="#3b82f6" opacity="0.7"/>
  <circle cx="1944" cy="560" r="70" fill="#1a1a1a"/>
  <rect x="1900" y="530" width="88" height="10" rx="5" fill="#e0e0e0" opacity="0.5"/>
  <rect x="1904" y="550" width="70" height="8" rx="4" fill="#e0e0e0" opacity="0.35"/>
  <rect x="1908" y="566" width="60" height="8" rx="4" fill="#e0e0e0" opacity="0.25"/>
  <circle cx="800" cy="1100" r="80" fill="#be2edd" opacity="0.6"/>
  <circle cx="800" cy="1100" r="62" fill="#1a1a1a"/>
  <rect x="760" y="1074" width="80" height="9" rx="4" fill="#e0e0e0" opacity="0.4"/>
  <rect x="763" y="1091" width="62" height="8" rx="4" fill="#e0e0e0" opacity="0.3"/>
  <circle cx="2044" cy="1100" r="80" fill="#be2edd" opacity="0.6"/>
  <circle cx="2044" cy="1100" r="62" fill="#1a1a1a"/>
  <rect x="2004" y="1074" width="80" height="9" rx="4" fill="#e0e0e0" opacity="0.4"/>
  <rect x="2007" y="1091" width="62" height="8" rx="4" fill="#e0e0e0" opacity="0.3"/>
  <circle cx="1422" cy="400" r="70" fill="#f59e0b" opacity="0.6"/>
  <circle cx="1422" cy="400" r="52" fill="#1a1a1a"/>
  <rect x="1386" y="378" width="72" height="8" rx="4" fill="#e0e0e0" opacity="0.45"/>
  <rect x="1390" y="394" width="56" height="7" rx="3" fill="#e0e0e0" opacity="0.3"/>
  <line x1="900" y1="560" x2="1422" y2="800" stroke="#9b1fb8" stroke-width="2" opacity="0.4"/>
  <line x1="1944" y1="560" x2="1422" y2="800" stroke="#3b82f6" stroke-width="2" opacity="0.4"/>
  <line x1="800" y1="1100" x2="1422" y2="800" stroke="#be2edd" stroke-width="2" opacity="0.4"/>
  <line x1="2044" y1="1100" x2="1422" y2="800" stroke="#be2edd" stroke-width="2" opacity="0.4"/>
  <line x1="1422" y1="400" x2="1422" y2="800" stroke="#f59e0b" stroke-width="2" opacity="0.4"/>
  <circle cx="1422" cy="800" r="120" fill="#1a1a1a" stroke="url(#purpleBlue)" stroke-width="4" opacity="0.95"/>
  <rect x="1360" y="770" width="124" height="10" rx="5" fill="#e0e0e0" opacity="0.6"/>
  <rect x="1365" y="790" width="100" height="8" rx="4" fill="#e0e0e0" opacity="0.45"/>
  <rect x="1370" y="807" width="84" height="8" rx="4" fill="#e0e0e0" opacity="0.35"/>
  <rect x="1374" y="823" width="60" height="8" rx="4" fill="#e0e0e0" opacity="0.25"/>
</svg>
