<svg xmlns="http://www.w3.org/2000/svg" viewBox="0 0 2844 1600">
  <defs>
    <linearGradient id="purpleBlue" x1="0" y1="0" x2="1" y2="1">
      <stop offset="0%" stop-color="#be2edd"/>
      <stop offset="100%" stop-color="#3b82f6"/>
    </linearGradient>
    <linearGradient id="amberDeep" x1="0" y1="0" x2="1" y2="1">
      <stop offset="0%" stop-color="#f59e0b"/>
      <stop offset="100%" stop-color="#9b1fb8"/>
    </linearGradient>
    <linearGradient id="fillBar" x1="0" y1="0" x2="1" y2="0">
      <stop offset="0%" stop-color="#be2edd"/>
      <stop offset="60%" stop-color="#3b82f6"/>
      <stop offset="100%" stop-color="#f59e0b"/>
    </linearGradient>
    <radialGradient id="centreGlow" cx="50%" cy="50%" r="50%">
      <stop offset="0%" stop-color="#f59e0b" stop-opacity="0.15"/>
      <stop offset="100%" stop-color="#1a1a1a" stop-opacity="0"/>
    </radialGradient>
  </defs>
  <rect fill="#1a1a1a" width="2844" height="1600"/>
  <rect fill="url(#centreGlow)" width="2844" height="1600"/>
  <path d="M 200,700 C 500,500 800,900 1100,680 C 1400,460 1700,800 2000,620 C 2300,440 2600,750 2844,600 L 2844,200 L 200,200 Z" fill="#9b1fb8" fill-opacity="0.07"/>
  <g transform="rotate(-2 1422 800)">
    <rect x="400" y="500" width="2040" height="80" rx="40" fill="#e0e0e0" fill-opacity="0.08"/>
    <rect x="400" y="500" width="1380" height="80" rx="40" fill="url(#fillBar)" fill-opacity="0.5"/>
    <rect x="400" y="640" width="2040" height="60" rx="30" fill="#e0e0e0" fill-opacity="0.06"/>
    <rect x="400" y="640" width="860" height="60" rx="30" fill="#3b82f6" fill-opacity="0.4"/>
    <rect x="400" y="760" width="2040" height="60" rx="30" fill="#e0e0e0" fill-opacity="0.06"/>
    <rect x="400" y="760" width="1640" height="60" rx="30" fill="#be2edd" fill-opacity="0.35"/>
    <rect x="400" y="880" width="2040" height="60" rx="30" fill="#e0e0e0" fill-opacity="0.06"/>
    <rect x="400" y="880" width="520" height="60" rx="30" fill="#f59e0b" fill-opacity="0.4"/>
    <rect x="400" y="1000" width="2040" height="60" rx="30" fill="#e0e0e0" fill-opacity="0.06"/>
    <rect x="400" y="1000" width="1200" height="60" rx="30" fill="#3b82f6" fill-opacity="0.3"/>
    <rect x="400" y="1120" width="2040" height="60" rx="30" fill="#e0e0e0" fill-opacity="0.06"/>
    <rect x="400" y="1120" width="960" height="60" rx="30" fill="#be2edd" fill-opacity="0.28"/>
  </g>
  <path d="M 600,300 C 700,250 800,350 900,280 C 1000,210 1100,320 1200,260 C 1300,200 1400,290 1500,230 C 1600,170 1700,260 1800,210" fill="none" stroke="#f59e0b" stroke-width="3" stroke-opacity="0.35"/>
  <path d="M 600,340 C 700,280 800,390 900,310 C 1000,230 1100,360 1200,300 C 1300,240 1400,330 1500,270 C 1600,210 1700,310 1800,250" fill="none" stroke="#f59e0b" stroke-width="2" stroke-opacity="0.2"/>
  <circle cx="1780" cy="210" r="35" fill="#f59e0b" fill-opacity="0.5"/>
  <circle cx="1780" cy="210" r="20" fill="#f59e0b" fill-opacity="0.8"/>
  <path d="M 0,1450 C 400,1350 800,1480 1200,1400 C 1600,1320 2000,1460 2400,1380 C 2700,1320 2844,1400 2844,1400 L 2844,1600 L 0,1600 Z" fill="#3b82f6" fill-opacity="0.06"/>
  <circle cx="2500" cy="400" r="200" fill="none" stroke="#3b82f6" stroke-width="3" stroke-opacity="0.15"/>
  <circle cx="2500" cy="400" r="140" fill="none" stroke="#3b82f6" stroke-width="2" stroke-opacity="0.12"/>
  <circle cx="2500" cy="400" r="80" fill="#3b82f6" fill-opacity="0.12"/>
  <circle cx="340" cy="1200" r="160" fill="none" stroke="#9b1fb8" stroke-width="3" stroke-opacity="0.15"/>
  <circle cx="340" cy="1200" r="100" fill="#9b1fb8" fill-opacity="0.08"/>
</svg>
