<svg xmlns="http://www.w3.org/2000/svg" viewBox="0 0 2844 1600">
  <defs>
    <linearGradient id="glow" x1="0" y1="0" x2="1" y2="1">
      <stop offset="0" stop-color="#9b1fb8"/>
      <stop offset="1" stop-color="#be2edd"/>
    </linearGradient>
    <linearGradient id="cool" x1="0" y1="0" x2="1" y2="1">
      <stop offset="0" stop-color="#3b82f6"/>
      <stop offset="1" stop-color="#9b1fb8"/>
    </linearGradient>
    <linearGradient id="warmth" x1="0" y1="1" x2="1" y2="0">
      <stop offset="0" stop-color="#be2edd"/>
      <stop offset="1" stop-color="#f59e0b"/>
    </linearGradient>
    <radialGradient id="crack" cx="0.5" cy="0.5" r="0.5">
      <stop offset="0" stop-color="#f59e0b" stop-opacity="0.28"/>
      <stop offset="1" stop-color="#1a1a1a" stop-opacity="0"/>
    </radialGradient>
  </defs>
  <rect fill="#1a1a1a" width="2844" height="1600"/>
  <g opacity="0.12">
    <rect x="100" y="100" width="2644" height="1400" rx="8" fill="none" stroke="#e0e0e0" stroke-width="2"/>
    <line x1="100" y1="280" x2="2744" y2="280" stroke="#e0e0e0" stroke-width="1.5" opacity="0.5"/>
    <line x1="100" y1="460" x2="2744" y2="460" stroke="#e0e0e0" stroke-width="1" opacity="0.4"/>
    <line x1="100" y1="640" x2="2744" y2="640" stroke="#e0e0e0" stroke-width="1" opacity="0.4"/>
    <line x1="100" y1="820" x2="2744" y2="820" stroke="#e0e0e0" stroke-width="1" opacity="0.4"/>
    <line x1="100" y1="1000" x2="2744" y2="1000" stroke="#e0e0e0" stroke-width="1" opacity="0.4"/>
    <line x1="100" y1="1180" x2="2744" y2="1180" stroke="#e0e0e0" stroke-width="1" opacity="0.4"/>
    <line x1="100" y1="1360" x2="2744" y2="1360" stroke="#e0e0e0" stroke-width="1" opacity="0.4"/>
  </g>
  <g opacity="0.14">
    <rect x="150" y="310" width="400" height="120" rx="8" fill="#3b82f6"/>
    <rect x="600" y="310" width="500" height="120" rx="8" fill="#3b82f6" opacity="0.7"/>
    <rect x="150" y="490" width="300" height="120" rx="8" fill="#3b82f6" opacity="0.6"/>
    <rect x="500" y="490" width="650" height="120" rx="8" fill="#3b82f6" opacity="0.5"/>
    <rect x="150" y="670" width="350" height="120" rx="8" fill="#3b82f6" opacity="0.5"/>
    <rect x="550" y="670" width="400" height="120" rx="8" fill="#3b82f6" opacity="0.4"/>
  </g>
  <rect fill="url(#crack)" width="2844" height="1600"/>
  <g opacity="0.6">
    <path d="M 1422 200 C 1440 400, 1380 500, 1422 650 C 1464 800, 1400 900, 1422 1050 C 1444 1200, 1390 1300, 1422 1400" fill="none" stroke="#f59e0b" stroke-width="8" stroke-linecap="round"/>
    <path d="M 1422 650 C 1480 700, 1560 680, 1600 720" fill="none" stroke="#f59e0b" stroke-width="5" stroke-linecap="round" opacity="0.5"/>
    <path d="M 1422 800 C 1360 840, 1300 820, 1270 860" fill="none" stroke="#f59e0b" stroke-width="4" stroke-linecap="round" opacity="0.4"/>
  </g>
  <g opacity="0.3">
    <circle cx="1422" cy="650" r="20" fill="#f59e0b"/>
    <circle cx="1422" cy="800" r="16" fill="#f59e0b"/>
    <circle cx="1422" cy="950" r="14" fill="#be2edd"/>
  </g>
  <g opacity="0.2">
    <path d="M 1600 310 C 1800 280, 2100 300, 2400 275 S 2700 260, 2850 270" fill="none" stroke="#be2edd" stroke-width="4" stroke-linecap="round"/>
    <path d="M 1600 490 C 1800 460, 2000 480, 2200 455 S 2500 440, 2750 460" fill="none" stroke="#be2edd" stroke-width="3" stroke-linecap="round"/>
    <path d="M 1600 670 C 1850 645, 2100 660, 2350 640 S 2600 625, 2800 640" fill="none" stroke="#be2edd" stroke-width="3" stroke-linecap="round"/>
    <path d="M 1600 850 C 1850 825, 2100 840, 2350 820 S 2600 805, 2800 820" fill="none" stroke="#9b1fb8" stroke-width="3" stroke-linecap="round"/>
    <path d="M 1600 1030 C 1850 1005, 2100 1020, 2350 1000 S 2600 985, 2800 1000" fill="none" stroke="#9b1fb8" stroke-width="2.5" stroke-linecap="round"/>
  </g>
  <path d="M -100 1450 C 500 1380, 1000 1420, 1422 1360 S 2100 1290, 2900 1340 L 2900 1700 L -100 1700 Z" fill="url(#glow)" opacity="0.1"/>
</svg>
