<svg xmlns="http://www.w3.org/2000/svg" viewBox="0 0 2844 1600">
  <defs>
    <radialGradient id="neonGlow" cx="50%" cy="50%" r="50%">
      <stop offset="0%" stop-color="#f59e0b" stop-opacity="0.5"/>
      <stop offset="100%" stop-color="#1a1a1a" stop-opacity="0"/>
    </radialGradient>
    <radialGradient id="blueNodeGlow" cx="50%" cy="50%" r="50%">
      <stop offset="0%" stop-color="#3b82f6" stop-opacity="0.8"/>
      <stop offset="100%" stop-color="#1a1a1a" stop-opacity="0"/>
    </radialGradient>
    <radialGradient id="purpleNodeGlow" cx="50%" cy="50%" r="50%">
      <stop offset="0%" stop-color="#be2edd" stop-opacity="0.8"/>
      <stop offset="100%" stop-color="#1a1a1a" stop-opacity="0"/>
    </radialGradient>
    <linearGradient id="posWire" x1="0" y1="0" x2="1" y2="0">
      <stop offset="0%" stop-color="#f59e0b"/>
      <stop offset="100%" stop-color="#f59e0b" stop-opacity="0.3"/>
    </linearGradient>
    <linearGradient id="negWire" x1="0" y1="0" x2="1" y2="0">
      <stop offset="0%" stop-color="#3b82f6"/>
      <stop offset="100%" stop-color="#3b82f6" stop-opacity="0.3"/>
    </linearGradient>
  </defs>
  <rect fill="#1a1a1a" width="2844" height="1600"/>
  <ellipse cx="1422" cy="800" rx="1400" ry="850" fill="url(#neonGlow)"/>
  <g opacity="0.55">
    <line x1="500" y1="550" x2="1100" y2="550" stroke="url(#posWire)" stroke-width="4"/>
    <line x1="500" y1="550" x2="1100" y2="800" stroke="url(#negWire)" stroke-width="3"/>
    <line x1="500" y1="550" x2="1100" y2="1050" stroke="url(#posWire)" stroke-width="2"/>
    <line x1="500" y1="750" x2="1100" y2="550" stroke="url(#negWire)" stroke-width="3"/>
    <line x1="500" y1="750" x2="1100" y2="800" stroke="url(#posWire)" stroke-width="4"/>
    <line x1="500" y1="750" x2="1100" y2="1050" stroke="url(#negWire)" stroke-width="2.5"/>
    <line x1="500" y1="950" x2="1100" y2="550" stroke="url(#posWire)" stroke-width="2"/>
    <line x1="500" y1="950" x2="1100" y2="800" stroke="url(#negWire)" stroke-width="3"/>
    <line x1="500" y1="950" x2="1100" y2="1050" stroke="url(#posWire)" stroke-width="4"/>
    <line x1="500" y1="1150" x2="1100" y2="550" stroke="url(#negWire)" stroke-width="2"/>
    <line x1="500" y1="1150" x2="1100" y2="800" stroke="url(#posWire)" stroke-width="2.5"/>
    <line x1="500" y1="1150" x2="1100" y2="1050" stroke="url(#negWire)" stroke-width="3"/>
  </g>
  <g opacity="0.55">
    <line x1="1100" y1="550" x2="1800" y2="680" stroke="url(#posWire)" stroke-width="4"/>
    <line x1="1100" y1="550" x2="1800" y2="920" stroke="url(#negWire)" stroke-width="2.5"/>
    <line x1="1100" y1="800" x2="1800" y2="680" stroke="url(#negWire)" stroke-width="3"/>
    <line x1="1100" y1="800" x2="1800" y2="920" stroke="url(#posWire)" stroke-width="3.5"/>
    <line x1="1100" y1="1050" x2="1800" y2="680" stroke="url(#posWire)" stroke-width="2"/>
    <line x1="1100" y1="1050" x2="1800" y2="920" stroke="url(#negWire)" stroke-width="4"/>
  </g>
  <g opacity="0.85">
    <ellipse cx="500" cy="550" rx="60" ry="60" fill="url(#blueNodeGlow)"/>
    <circle cx="500" cy="550" r="30" fill="#3b82f6"/>
    <ellipse cx="500" cy="750" rx="60" ry="60" fill="url(#blueNodeGlow)"/>
    <circle cx="500" cy="750" r="30" fill="#3b82f6" opacity="0.4"/>
    <ellipse cx="500" cy="950" rx="60" ry="60" fill="url(#blueNodeGlow)"/>
    <circle cx="500" cy="950" r="30" fill="#3b82f6" opacity="0.6"/>
    <ellipse cx="500" cy="1150" rx="60" ry="60" fill="url(#blueNodeGlow)"/>
    <circle cx="500" cy="1150" r="30" fill="#3b82f6" opacity="0.3"/>
  </g>
  <g opacity="0.85">
    <ellipse cx="1100" cy="550" rx="70" ry="70" fill="url(#purpleNodeGlow)"/>
    <circle cx="1100" cy="550" r="35" fill="#be2edd"/>
    <ellipse cx="1100" cy="800" rx="70" ry="70" fill="url(#purpleNodeGlow)"/>
    <circle cx="1100" cy="800" r="35" fill="#9b1fb8"/>
    <ellipse cx="1100" cy="1050" rx="70" ry="70" fill="url(#purpleNodeGlow)"/>
    <circle cx="1100" cy="1050" r="35" fill="#be2edd" opacity="0.8"/>
  </g>
  <g opacity="0.85">
    <ellipse cx="1800" cy="680" rx="90" ry="90" fill="url(#neonGlow)"/>
    <circle cx="1800" cy="680" r="45" fill="#f59e0b"/>
    <circle cx="1800" cy="680" r="70" fill="none" stroke="#f59e0b" stroke-width="3" opacity="0.4"/>
    <ellipse cx="1800" cy="920" rx="60" ry="60" fill="url(#purpleNodeGlow)"/>
    <circle cx="1800" cy="920" r="30" fill="#be2edd" opacity="0.5"/>
  </g>
  <g fill="none" stroke="#e0e0e0" stroke-width="1" opacity="0.08">
    <rect x="380" y="490" width="240" height="720" rx="8" transform="rotate(-1, 500, 850)"/>
    <rect x="980" y="490" width="240" height="620" rx="8" transform="rotate(1, 1100, 800)"/>
    <rect x="1700" y="600" width="200" height="400" rx="8" transform="rotate(-2, 1800, 800)"/>
  </g>
  <g opacity="0.25">
    <circle cx="2300" cy="680" r="80" fill="none" stroke="#f59e0b" stroke-width="3"/>
    <circle cx="2300" cy="680" r="130" fill="none" stroke="#f59e0b" stroke-width="1.5" opacity="0.5"/>
    <circle cx="2300" cy="920" r="55" fill="none" stroke="#be2edd" stroke-width="2.5"/>
    <circle cx="2300" cy="920" r="90" fill="none" stroke="#be2edd" stroke-width="1.5" opacity="0.5"/>
  </g>
</svg>
