<svg xmlns="http://www.w3.org/2000/svg" viewBox="0 0 2844 1600">
  <defs>
    <linearGradient id="cyb-left" x1="0" y1="0" x2="1" y2="0">
      <stop offset="0" stop-color="#3b82f6"/>
      <stop offset="1" stop-color="#3b82f6" stop-opacity="0"/>
    </linearGradient>
    <linearGradient id="cyb-right" x1="0" y1="0" x2="1" y2="0">
      <stop offset="0" stop-color="#be2edd" stop-opacity="0"/>
      <stop offset="1" stop-color="#be2edd"/>
    </linearGradient>
    <linearGradient id="cyb-terrain" x1="0" y1="1" x2="0" y2="0">
      <stop offset="0" stop-color="#9b1fb8"/>
      <stop offset="1" stop-color="#be2edd" stop-opacity="0"/>
    </linearGradient>
    <radialGradient id="cyb-centre" cx="0.5" cy="0.5" r="0.4">
      <stop offset="0" stop-color="#f59e0b" stop-opacity="0.15"/>
      <stop offset="1" stop-color="#1a1a1a" stop-opacity="0"/>
    </radialGradient>
  </defs>
  <rect fill="#1a1a1a" width="2844" height="1600"/>
  <rect fill="url(#cyb-centre)" width="2844" height="1600"/>
  <g opacity="0.18">
    <rect x="-100" y="0" width="1200" height="1600" fill="url(#cyb-left)" opacity="0.3"/>
    <rect x="1744" y="0" width="1200" height="1600" fill="url(#cyb-right)" opacity="0.3"/>
  </g>
  <g stroke="#3b82f6" fill="none" stroke-linecap="round" opacity="0.2">
    <path d="M 100 250 C 200 230, 350 240, 500 250" stroke-width="3"/>
    <path d="M 100 320 C 200 300, 400 310, 580 320" stroke-width="3"/>
    <path d="M 100 390 C 220 370, 380 380, 540 390" stroke-width="2.5"/>
    <path d="M 100 460 C 200 440, 360 450, 520 460" stroke-width="2.5"/>
    <path d="M 100 530 C 220 510, 420 520, 600 530" stroke-width="2"/>
    <path d="M 100 600 C 200 580, 350 590, 500 600" stroke-width="2"/>
    <path d="M 100 670 C 220 650, 400 660, 580 670" stroke-width="2"/>
    <path d="M 100 740 C 200 720, 380 730, 550 740" stroke-width="1.5"/>
    <path d="M 100 810 C 220 790, 420 800, 610 810" stroke-width="1.5"/>
    <path d="M 100 880 C 200 860, 360 870, 520 880" stroke-width="1.5"/>
  </g>
  <g stroke="#be2edd" fill="none" stroke-linecap="round" opacity="0.2">
    <path d="M 2744 250 C 2644 230, 2494 240, 2344 250" stroke-width="3"/>
    <path d="M 2744 330 C 2644 310, 2444 320, 2264 330" stroke-width="3"/>
    <path d="M 2744 410 C 2624 390, 2464 400, 2304 410" stroke-width="2.5"/>
    <path d="M 2744 490 C 2644 470, 2484 480, 2324 490" stroke-width="2.5"/>
    <path d="M 2744 570 C 2624 550, 2424 560, 2244 570" stroke-width="2"/>
    <path d="M 2744 650 C 2644 630, 2494 640, 2344 650" stroke-width="2"/>
    <path d="M 2744 730 C 2624 710, 2444 720, 2264 730" stroke-width="2"/>
    <path d="M 2744 810 C 2644 790, 2464 800, 2294 810" stroke-width="1.5"/>
    <path d="M 2744 890 C 2624 870, 2424 880, 2234 890" stroke-width="1.5"/>
    <path d="M 2744 970 C 2644 950, 2484 960, 2324 970" stroke-width="1.5"/>
  </g>
  <g transform="translate(1422 800)" opacity="0.5">
    <path d="M -300 0 C -200 -80, -100 -60, 0 0 S 200 80, 300 0" fill="none" stroke="#f59e0b" stroke-width="4" stroke-linecap="round"/>
    <path d="M 0 0 C 100 80, 200 60, 300 0 S 500 -80, 600 0" fill="none" stroke="#f59e0b" stroke-width="3" stroke-linecap="round" opacity="0.6"/>
    <path d="M 0 0 C -100 80, -200 60, -300 0 S -500 -80, -600 0" fill="none" stroke="#f59e0b" stroke-width="3" stroke-linecap="round" opacity="0.6"/>
    <path d="M 0 -300 C 80 -200, 60 -100, 0 0 S -80 200, 0 300" fill="none" stroke="#f59e0b" stroke-width="4" stroke-linecap="round"/>
    <circle r="15" fill="#f59e0b" opacity="0.8"/>
    <circle r="30" fill="none" stroke="#f59e0b" stroke-width="2" opacity="0.4"/>
    <circle r="60" fill="none" stroke="#f59e0b" stroke-width="1.5" opacity="0.2"/>
    <circle r="100" fill="none" stroke="#f59e0b" stroke-width="1" opacity="0.1"/>
  </g>
  <g transform="rotate(-3 1422 1200)">
    <path d="M -100 1700 C 400 1350, 950 1200, 1422 1250 S 2000 1050, 2500 1150 C 2700 1220, 2950 1050, 2944 1700 Z" fill="url(#cyb-terrain)" opacity="0.18"/>
  </g>
  <g fill="none" stroke="#f59e0b" stroke-linecap="round" opacity="0.25">
    <path d="M 900 800 C 1050 750, 1150 760, 1200 800" stroke-width="2"/>
    <path d="M 1644 800 C 1700 750, 1800 760, 1900 800" stroke-width="2"/>
  </g>
  <g fill="#be2edd" opacity="0.3">
    <circle cx="1200" cy="800" r="12"/>
    <circle cx="1644" cy="800" r="12"/>
  </g>
  <path d="M 1200 800 L 1422 800 L 1644 800" stroke="#f59e0b" stroke-width="3" stroke-linecap="round" fill="none" opacity="0.4"/>
  <g fill="#3b82f6" opacity="0.4">
    <circle cx="600" cy="565" r="8"/>
    <circle cx="600" cy="640" r="7"/>
    <circle cx="600" cy="715" r="8"/>
  </g>
  <g fill="#be2edd" opacity="0.4">
    <circle cx="2244" cy="570" r="8"/>
    <circle cx="2244" cy="650" r="7"/>
    <circle cx="2244" cy="730" r="8"/>
  </g>
</svg>
