<svg xmlns="http://www.w3.org/2000/svg" viewBox="0 0 2844 1600">
  <defs>
    <linearGradient id="purple" x1="0%" y1="0%" x2="100%" y2="100%">
      <stop offset="0%" stop-color="#be2edd"/>
      <stop offset="100%" stop-color="#9b1fb8"/>
    </linearGradient>
    <linearGradient id="blue" x1="0%" y1="0%" x2="100%" y2="100%">
      <stop offset="0%" stop-color="#3b82f6"/>
      <stop offset="100%" stop-color="#3b82f6"/>
    </linearGradient>
    <linearGradient id="amber" x1="0%" y1="0%" x2="100%" y2="100%">
      <stop offset="0%" stop-color="#f59e0b"/>
      <stop offset="100%" stop-color="#f59e0b"/>
    </linearGradient>
    <linearGradient id="canvas" x1="0%" y1="0%" x2="100%" y2="100%">
      <stop offset="0%" stop-color="#f59e0b" stop-opacity="0.2"/>
      <stop offset="50%" stop-color="#be2edd" stop-opacity="0.1"/>
      <stop offset="100%" stop-color="#3b82f6" stop-opacity="0.15"/>
    </linearGradient>
    <linearGradient id="sky" x1="0%" y1="0%" x2="0%" y2="100%">
      <stop offset="0%" stop-color="#3b82f6" stop-opacity="0.15"/>
      <stop offset="100%" stop-color="#1a1a1a" stop-opacity="0"/>
    </linearGradient>
  </defs>
  <rect fill="#1a1a1a" width="2844" height="1600"/>
  <rect x="0" y="0" width="2844" height="900" fill="url(#sky)"/>
  <g opacity="0.5">
    <path d="M 0 900 C 400 800 700 950 1100 850 S 1600 700 2000 880 S 2400 1000 2844 900 L 2844 1700 L 0 1700 Z" fill="#3b82f6" opacity="0.18"/>
    <path d="M 0 1000 C 350 880 750 1050 1150 950 S 1650 800 2050 980 S 2500 1100 2844 1000 L 2844 1700 L 0 1700 Z" fill="#9b1fb8" opacity="0.25"/>
    <path d="M 0 1150 C 500 1050 900 1200 1300 1100 S 1800 950 2200 1130 S 2600 1250 2844 1150 L 2844 1700 L 0 1700 Z" fill="#be2edd" opacity="0.2"/>
    <path d="M 0 1350 C 600 1250 1000 1400 1400 1300 S 1900 1150 2300 1330 S 2700 1450 2844 1350 L 2844 1700 L 0 1700 Z" fill="#f59e0b" opacity="0.15"/>
  </g>
  <g transform="rotate(-2, 1422, 800)">
    <rect x="900" y="250" width="1000" height="800" rx="6" fill="url(#canvas)" stroke="#e0e0e0" stroke-width="2" opacity="0.6"/>
    <path d="M 920 600 C 1020 400 1150 700 1200 500 S 1300 350 1400 550 S 1500 700 1600 500 S 1700 350 1800 600 S 1850 750 1880 550" stroke="#f59e0b" stroke-width="18" fill="none" stroke-linecap="round" opacity="0.5"/>
    <path d="M 920 700 C 1050 550 1200 800 1300 650 S 1450 500 1550 700 S 1700 850 1800 680 S 1860 530 1880 700" stroke="#be2edd" stroke-width="14" fill="none" stroke-linecap="round" opacity="0.45"/>
    <path d="M 920 800 C 1080 680 1220 880 1350 760 S 1500 640 1620 820 S 1760 950 1880 810" stroke="#3b82f6" stroke-width="10" fill="none" stroke-linecap="round" opacity="0.4"/>
    <ellipse cx="1150" cy="500" rx="80" ry="100" fill="#f59e0b" opacity="0.3"/>
    <ellipse cx="1600" cy="480" rx="70" ry="90" fill="#be2edd" opacity="0.25"/>
    <ellipse cx="1400" cy="700" rx="90" ry="60" fill="#3b82f6" opacity="0.2"/>
  </g>
  <g opacity="0.6">
    <path d="M 200 400 C 250 350 270 380 300 400 S 350 430 380 400 S 420 360 460 400" stroke="#f59e0b" stroke-width="6" fill="none" stroke-linecap="round"/>
    <path d="M 2400 300 C 2450 250 2470 280 2500 300 S 2550 330 2580 300 S 2620 260 2660 300" stroke="#be2edd" stroke-width="5" fill="none" stroke-linecap="round"/>
    <path d="M 300 1200 C 360 1150 390 1180 430 1200 S 490 1230 530 1200" stroke="#3b82f6" stroke-width="4" fill="none" stroke-linecap="round"/>
  </g>
  <g opacity="0.35">
    <circle cx="450" cy="700" r="120" fill="#be2edd"/>
    <circle cx="2500" cy="900" r="100" fill="#3b82f6"/>
    <circle cx="350" cy="1100" r="80" fill="#f59e0b"/>
    <circle cx="2600" cy="400" r="90" fill="#9b1fb8"/>
  </g>
</svg>
