<svg xmlns="http://www.w3.org/2000/svg" viewBox="0 0 2844 1600">
  <defs>
    <linearGradient id="purple" x1="0%" y1="0%" x2="100%" y2="100%">
      <stop offset="0%" stop-color="#be2edd"/>
      <stop offset="100%" stop-color="#9b1fb8"/>
    </linearGradient>
    <linearGradient id="blue" x1="0%" y1="0%" x2="100%" y2="100%">
      <stop offset="0%" stop-color="#3b82f6"/>
      <stop offset="100%" stop-color="#3b82f6"/>
    </linearGradient>
    <linearGradient id="amber" x1="0%" y1="0%" x2="100%" y2="100%">
      <stop offset="0%" stop-color="#f59e0b"/>
      <stop offset="100%" stop-color="#f59e0b"/>
    </linearGradient>
    <linearGradient id="horizon" x1="0%" y1="0%" x2="0%" y2="100%">
      <stop offset="0%" stop-color="#3b82f6" stop-opacity="0.2"/>
      <stop offset="40%" stop-color="#be2edd" stop-opacity="0.08"/>
      <stop offset="100%" stop-color="#f59e0b" stop-opacity="0.05"/>
    </linearGradient>
  </defs>
  <rect fill="#1a1a1a" width="2844" height="1600"/>
  <rect x="0" y="0" width="2844" height="1600" fill="url(#horizon)"/>
  <g opacity="0.4">
    <path d="M -100 1050 C 400 900 800 1100 1200 950 S 1700 750 2100 980 S 2500 1150 2944 1050 L 2944 1700 L -100 1700 Z" fill="#3b82f6" opacity="0.15"/>
    <path d="M -100 1200 C 500 1050 1000 1250 1500 1100 S 2100 900 2500 1130 S 2844 1300 2944 1200 L 2944 1700 L -100 1700 Z" fill="#9b1fb8" opacity="0.2"/>
    <path d="M -100 1400 C 600 1280 1200 1450 1800 1320 S 2400 1180 2944 1400 L 2944 1700 L -100 1700 Z" fill="#be2edd" opacity="0.15"/>
  </g>
  <g transform="rotate(-4, 800, 700)">
    <path d="M 500 300 C 600 200 750 200 850 300 L 900 700 L 450 700 Z" fill="#3b82f6" opacity="0.55"/>
    <ellipse cx="700" cy="700" rx="260" ry="180" fill="#3b82f6" opacity="0.5"/>
    <ellipse cx="700" cy="680" rx="200" ry="140" fill="#9b1fb8" opacity="0.6"/>
  </g>
  <g transform="rotate(3, 2100, 650)">
    <path d="M 1900 250 C 2000 150 2150 150 2250 250 L 2350 680 L 1850 680 Z" fill="#be2edd" opacity="0.45"/>
    <ellipse cx="2100" cy="680" rx="270" ry="190" fill="#be2edd" opacity="0.4"/>
    <ellipse cx="2100" cy="660" rx="210" ry="150" fill="#9b1fb8" opacity="0.5"/>
  </g>
  <g opacity="0.7">
    <circle cx="700" cy="550" r="30" fill="#f59e0b"/>
    <circle cx="700" cy="540" r="22" fill="#f59e0b" opacity="0.6"/>
    <circle cx="2100" cy="500" r="26" fill="#f59e0b"/>
  </g>
  <g opacity="0.5">
    <path d="M 600 350 C 700 280 800 320 850 350" stroke="#e0e0e0" stroke-width="2" fill="none" stroke-linecap="round"/>
    <path d="M 630 380 C 700 310 780 340 820 370" stroke="#e0e0e0" stroke-width="1.5" fill="none" stroke-linecap="round"/>
  </g>
  <g opacity="0.3">
    <path d="M 1300 400 L 1540 400 L 1540 600 L 1300 600 Z" fill="none" stroke="#e0e0e0" stroke-width="2"/>
    <line x1="1300" y1="450" x2="1540" y2="450" stroke="#e0e0e0" stroke-width="1"/>
    <path d="M 1300 400 L 1420 470 L 1540 400" stroke="#e0e0e0" stroke-width="1.5" fill="none"/>
    <rect x="1350" y="480" width="120" height="12" rx="2" fill="#e0e0e0" opacity="0.5"/>
    <rect x="1320" y="510" width="180" height="10" rx="2" fill="#e0e0e0" opacity="0.4"/>
    <rect x="1320" y="535" width="150" height="10" rx="2" fill="#e0e0e0" opacity="0.3"/>
  </g>
  <g opacity="0.25">
    <path d="M 1540 480 C 1640 400 1700 450 1720 500 L 1700 510 L 1730 530 L 1690 520 C 1680 560 1620 580 1540 530" stroke="#3b82f6" stroke-width="2" fill="none"/>
  </g>
</svg>
