<svg xmlns="http://www.w3.org/2000/svg" viewBox="0 0 2844 1600">
  <defs>
    <linearGradient id="purpleBlue" x1="0" y1="0" x2="1" y2="1">
      <stop offset="0%" stop-color="#be2edd"/>
      <stop offset="100%" stop-color="#3b82f6"/>
    </linearGradient>
    <linearGradient id="amberPurple" x1="0" y1="0" x2="1" y2="1">
      <stop offset="0%" stop-color="#f59e0b"/>
      <stop offset="100%" stop-color="#9b1fb8"/>
    </linearGradient>
    <radialGradient id="centreGlow" cx="50%" cy="50%" r="50%">
      <stop offset="0%" stop-color="#f59e0b" stop-opacity="0.12"/>
      <stop offset="100%" stop-color="#1a1a1a" stop-opacity="0"/>
    </radialGradient>
  </defs>
  <rect fill="#1a1a1a" width="2844" height="1600"/>
  <rect fill="url(#centreGlow)" width="2844" height="1600"/>
  <circle cx="1422" cy="800" r="680" fill="none" stroke="#f59e0b" stroke-width="4" stroke-opacity="0.12"/>
  <circle cx="1422" cy="800" r="560" fill="none" stroke="#e0e0e0" stroke-width="2.5" stroke-opacity="0.1"/>
  <circle cx="1422" cy="800" r="440" fill="none" stroke="#be2edd" stroke-width="3" stroke-opacity="0.15"/>
  <circle cx="1422" cy="800" r="320" fill="none" stroke="#3b82f6" stroke-width="3" stroke-opacity="0.18"/>
  <circle cx="1422" cy="800" r="200" fill="none" stroke="#f59e0b" stroke-width="4" stroke-opacity="0.25"/>
  <circle cx="1422" cy="800" r="90" fill="#9b1fb8" fill-opacity="0.3"/>
  <circle cx="1422" cy="800" r="90" fill="none" stroke="#f59e0b" stroke-width="5"/>
  <circle cx="1422" cy="800" r="40" fill="#f59e0b" fill-opacity="0.5"/>
  <g stroke="#f59e0b" stroke-width="2" stroke-opacity="0.35" fill="none">
    <line x1="1422" y1="120" x2="1422" y2="710"/>
    <line x1="1422" y1="890" x2="1422" y2="1480"/>
    <line x1="742" y1="800" x2="1332" y2="800"/>
    <line x1="1512" y1="800" x2="2102" y2="800"/>
    <line x1="940" y1="318" x2="1373" y2="751"/>
    <line x1="1471" y1="849" x2="1904" y2="1282"/>
    <line x1="1904" y1="318" x2="1471" y2="751"/>
    <line x1="1373" y1="849" x2="940" y2="1282"/>
  </g>
  <g stroke="#3b82f6" stroke-width="1.5" stroke-opacity="0.25" fill="none">
    <line x1="1422" y1="240" x2="1422" y2="600"/>
    <line x1="1422" y1="1000" x2="1422" y2="1360"/>
    <line x1="862" y1="800" x2="1222" y2="800"/>
    <line x1="1622" y1="800" x2="1982" y2="800"/>
    <line x1="1042" y1="420" x2="1382" y2="760"/>
    <line x1="1462" y1="840" x2="1802" y2="1180"/>
    <line x1="1802" y1="420" x2="1462" y2="760"/>
    <line x1="1382" y1="840" x2="1042" y2="1180"/>
  </g>
  <g fill="#f59e0b" fill-opacity="0.7">
    <circle cx="1422" cy="120" r="14"/>
    <circle cx="1778" cy="234" r="12"/>
    <circle cx="2062" cy="480" r="12"/>
    <circle cx="2102" cy="800" r="14"/>
    <circle cx="2062" cy="1120" r="12"/>
    <circle cx="1778" cy="1366" r="12"/>
    <circle cx="1422" cy="1480" r="14"/>
    <circle cx="1066" cy="1366" r="12"/>
    <circle cx="782" cy="1120" r="12"/>
    <circle cx="742" cy="800" r="14"/>
    <circle cx="782" cy="480" r="12"/>
    <circle cx="1066" cy="234" r="12"/>
  </g>
  <g fill="#3b82f6" fill-opacity="0.55">
    <circle cx="1422" cy="240" r="10"/>
    <circle cx="1659" cy="318" r="9"/>
    <circle cx="1862" cy="480" r="9"/>
    <circle cx="1982" cy="800" r="10"/>
    <circle cx="1862" cy="1120" r="9"/>
    <circle cx="1659" cy="1282" r="9"/>
    <circle cx="1422" cy="1360" r="10"/>
    <circle cx="1185" cy="1282" r="9"/>
    <circle cx="982" cy="1120" r="9"/>
    <circle cx="862" cy="800" r="10"/>
    <circle cx="982" cy="480" r="9"/>
    <circle cx="1185" cy="318" r="9"/>
  </g>
  <g fill="#be2edd" fill-opacity="0.5">
    <circle cx="1422" cy="360" r="8"/>
    <circle cx="1573" cy="404" r="7"/>
    <circle cx="1694" cy="530" r="7"/>
    <circle cx="1762" cy="800" r="8"/>
    <circle cx="1694" cy="1070" r="7"/>
    <circle cx="1573" cy="1196" r="7"/>
    <circle cx="1422" cy="1240" r="8"/>
    <circle cx="1271" cy="1196" r="7"/>
    <circle cx="1150" cy="1070" r="7"/>
    <circle cx="1082" cy="800" r="8"/>
    <circle cx="1150" cy="530" r="7"/>
    <circle cx="1271" cy="404" r="7"/>
  </g>
  <path d="M 200,500 C 400,300 500,700 700,500 C 900,300 950,600 1150,450" fill="none" stroke="#e0e0e0" stroke-width="2" stroke-opacity="0.08"/>
  <path d="M 1694,500 C 1900,300 2000,700 2200,500 C 2400,300 2500,600 2700,450" fill="none" stroke="#e0e0e0" stroke-width="2" stroke-opacity="0.08"/>
</svg>
