<svg xmlns="http://www.w3.org/2000/svg" viewBox="0 0 2844 1600">
  <defs>
    <linearGradient id="bar" x1="0" y1="1" x2="0" y2="0">
      <stop offset="0" stop-color="#3b82f6"/>
      <stop offset="1" stop-color="#be2edd"/>
    </linearGradient>
    <linearGradient id="bar2" x1="0" y1="1" x2="0" y2="0">
      <stop offset="0" stop-color="#9b1fb8"/>
      <stop offset="1" stop-color="#f59e0b"/>
    </linearGradient>
    <radialGradient id="data-glow" cx="0.6" cy="0.6" r="0.45">
      <stop offset="0" stop-color="#3b82f6" stop-opacity="0.1"/>
      <stop offset="1" stop-color="#1a1a1a" stop-opacity="0"/>
    </radialGradient>
  </defs>
  <rect fill="#1a1a1a" width="2844" height="1600"/>
  <rect fill="url(#data-glow)" width="2844" height="1600"/>
  <g opacity="0.07" fill="none" stroke="#e0e0e0" stroke-width="1">
    <path d="M 300 200 L 300 1400"/>
    <path d="M 300 1200 L 2700 1200"/>
    <path d="M 300 1000 L 2700 1000"/>
    <path d="M 300 800 L 2700 800"/>
    <path d="M 300 600 L 2700 600"/>
    <path d="M 300 400 L 2700 400"/>
    <path d="M 300 200 L 2700 200"/>
  </g>
  <g transform="rotate(-2 1422 900)">
    <rect x="380" y="780" width="160" height="520" rx="6" fill="url(#bar)" opacity="0.6"/>
    <rect x="600" y="520" width="160" height="780" rx="6" fill="url(#bar)" opacity="0.55"/>
    <rect x="820" y="680" width="160" height="620" rx="6" fill="url(#bar)" opacity="0.5"/>
    <rect x="1040" y="420" width="160" height="880" rx="6" fill="url(#bar2)" opacity="0.55"/>
    <rect x="1260" y="600" width="160" height="700" rx="6" fill="url(#bar)" opacity="0.5"/>
    <rect x="1480" y="360" width="160" height="940" rx="6" fill="url(#bar2)" opacity="0.6"/>
    <rect x="1700" y="700" width="160" height="600" rx="6" fill="url(#bar)" opacity="0.45"/>
    <rect x="1920" y="480" width="160" height="820" rx="6" fill="url(#bar2)" opacity="0.5"/>
    <rect x="2140" y="820" width="160" height="480" rx="6" fill="url(#bar)" opacity="0.45"/>
    <rect x="2360" y="540" width="160" height="760" rx="6" fill="url(#bar2)" opacity="0.5"/>
    <rect x="2580" y="680" width="160" height="620" rx="6" fill="url(#bar)" opacity="0.4"/>
  </g>
  <g opacity="0.12" fill="none" stroke="#be2edd" stroke-width="2" stroke-linecap="round">
    <path d="M 380 780 C 600 720, 820 680, 1040 620 S 1480 560, 1700 700 C 1900 820, 2200 820, 2500 680"/>
  </g>
  <g opacity="0.08" fill="none" stroke="#f59e0b" stroke-width="1.5" stroke-linecap="round">
    <path d="M 380 920 C 580 860, 820 820, 1040 760 S 1480 700, 1700 840 C 1900 960, 2200 960, 2500 820"/>
  </g>
  <g fill="#f59e0b" opacity="0.5">
    <circle cx="460" cy="775" r="7"/>
    <circle cx="680" cy="515" r="7"/>
    <circle cx="900" cy="675" r="7"/>
    <circle cx="1120" cy="415" r="7"/>
    <circle cx="1340" cy="595" r="7"/>
    <circle cx="1560" cy="355" r="7"/>
    <circle cx="1780" cy="695" r="7"/>
    <circle cx="2000" cy="475" r="7"/>
    <circle cx="2220" cy="815" r="7"/>
    <circle cx="2440" cy="535" r="7"/>
    <circle cx="2660" cy="675" r="7"/>
  </g>
  <g transform="rotate(3 200 800)" opacity="0.06" fill="none" stroke="#3b82f6" stroke-width="1">
    <path d="M -100 -100 L 2950 -100 L 2950 50 L -100 50 Z"/>
    <path d="M -100 80 L 2950 80 L 2950 130 L -100 130 Z"/>
    <path d="M -100 160 L 2950 160 L 2950 190 L -100 190 Z"/>
  </g>
  <g transform="rotate(-3 1422 1400)">
    <path d="M -100 1500 C 300 1380, 700 1350, 1100 1380 S 1800 1420, 2200 1370 C 2500 1330, 2750 1340, 2950 1320 L 2950 1800 L -100 1800 Z" fill="#9b1fb8" opacity="0.06"/>
  </g>
  <g fill="none" stroke="#9b1fb8" stroke-linecap="round" opacity="0.12">
    <path d="M 200 1300 L 2700 1300" stroke-width="2"/>
    <path d="M 200 1300 L 200 100" stroke-width="2"/>
  </g>
</svg>
