<svg xmlns="http://www.w3.org/2000/svg" viewBox="0 0 2844 1600">
  <defs>
    <linearGradient id="purpleBlue" x1="0" y1="0" x2="1" y2="1">
      <stop offset="0%" stop-color="#be2edd"/>
      <stop offset="100%" stop-color="#3b82f6"/>
    </linearGradient>
    <linearGradient id="amberDeep" x1="0" y1="1" x2="1" y2="0">
      <stop offset="0%" stop-color="#f59e0b"/>
      <stop offset="100%" stop-color="#9b1fb8"/>
    </linearGradient>
    <radialGradient id="centreGlow" cx="50%" cy="50%" r="50%">
      <stop offset="0%" stop-color="#be2edd" stop-opacity="0.18"/>
      <stop offset="100%" stop-color="#1a1a1a" stop-opacity="0"/>
    </radialGradient>
  </defs>
  <rect fill="#1a1a1a" width="2844" height="1600"/>
  <rect fill="url(#centreGlow)" width="2844" height="1600"/>
  <circle cx="1422" cy="780" r="620" fill="none" stroke="#be2edd" stroke-width="2" stroke-opacity="0.15"/>
  <circle cx="1422" cy="780" r="480" fill="none" stroke="#3b82f6" stroke-width="2" stroke-opacity="0.12"/>
  <circle cx="1422" cy="780" r="340" fill="none" stroke="#be2edd" stroke-width="3" stroke-opacity="0.18"/>
  <circle cx="1422" cy="780" r="200" fill="none" stroke="#3b82f6" stroke-width="3" stroke-opacity="0.2"/>
  <circle cx="1422" cy="780" r="80" fill="#be2edd" fill-opacity="0.25"/>
  <circle cx="1422" cy="780" r="80" fill="none" stroke="#be2edd" stroke-width="4"/>
  <line x1="1422" y1="160" x2="1422" y2="780" stroke="#be2edd" stroke-width="2" stroke-opacity="0.4"/>
  <line x1="1422" y1="780" x2="1422" y2="1400" stroke="#be2edd" stroke-width="2" stroke-opacity="0.4"/>
  <line x1="802" y1="780" x2="2042" y2="780" stroke="#be2edd" stroke-width="2" stroke-opacity="0.4"/>
  <line x1="1422" y1="780" x2="940" y2="240" stroke="#3b82f6" stroke-width="1.5" stroke-opacity="0.3"/>
  <line x1="1422" y1="780" x2="1904" y2="240" stroke="#3b82f6" stroke-width="1.5" stroke-opacity="0.3"/>
  <line x1="1422" y1="780" x2="940" y2="1320" stroke="#3b82f6" stroke-width="1.5" stroke-opacity="0.3"/>
  <line x1="1422" y1="780" x2="1904" y2="1320" stroke="#3b82f6" stroke-width="1.5" stroke-opacity="0.3"/>
  <circle cx="1422" cy="300" r="32" fill="#3b82f6" fill-opacity="0.6"/>
  <circle cx="1802" cy="440" r="28" fill="#f59e0b" fill-opacity="0.5"/>
  <circle cx="1900" cy="780" r="30" fill="#3b82f6" fill-opacity="0.5"/>
  <circle cx="1802" cy="1120" r="26" fill="#be2edd" fill-opacity="0.5"/>
  <circle cx="1422" cy="1260" r="32" fill="#f59e0b" fill-opacity="0.5"/>
  <circle cx="1042" cy="1120" r="28" fill="#3b82f6" fill-opacity="0.5"/>
  <circle cx="944" cy="780" r="30" fill="#be2edd" fill-opacity="0.5"/>
  <circle cx="1042" cy="440" r="26" fill="#f59e0b" fill-opacity="0.5"/>
  <circle cx="1422" cy="580" r="20" fill="#e0e0e0" fill-opacity="0.4"/>
  <circle cx="1612" cy="610" r="16" fill="#e0e0e0" fill-opacity="0.3"/>
  <circle cx="1700" cy="780" r="18" fill="#e0e0e0" fill-opacity="0.3"/>
  <circle cx="1232" cy="610" r="16" fill="#e0e0e0" fill-opacity="0.3"/>
  <circle cx="1144" cy="780" r="18" fill="#e0e0e0" fill-opacity="0.3"/>
  <circle cx="1232" cy="950" r="16" fill="#e0e0e0" fill-opacity="0.3"/>
  <circle cx="1612" cy="950" r="16" fill="#e0e0e0" fill-opacity="0.3"/>
  <circle cx="1422" cy="980" r="20" fill="#e0e0e0" fill-opacity="0.4"/>
  <path d="M -200,1100 C 400,900 900,1300 1422,1050 C 1944,800 2400,1200 3044,1000" fill="none" stroke="#9b1fb8" stroke-width="2" stroke-opacity="0.2"/>
  <path d="M -200,300 C 400,500 900,200 1422,450 C 1944,700 2400,350 3044,550" fill="none" stroke="#9b1fb8" stroke-width="2" stroke-opacity="0.15"/>
</svg>
