<svg xmlns="http://www.w3.org/2000/svg" viewBox="0 0 2844 1600">
  <defs>
    <linearGradient id="pipe" x1="0" y1="0" x2="1" y2="0">
      <stop offset="0" stop-color="#3b82f6"/>
      <stop offset="1" stop-color="#9b1fb8"/>
    </linearGradient>
    <linearGradient id="pipe2" x1="0" y1="0" x2="1" y2="0">
      <stop offset="0" stop-color="#9b1fb8"/>
      <stop offset="1" stop-color="#be2edd"/>
    </linearGradient>
    <linearGradient id="exclude" x1="0" y1="0" x2="1" y2="1">
      <stop offset="0" stop-color="#f59e0b"/>
      <stop offset="1" stop-color="#be2edd"/>
    </linearGradient>
    <radialGradient id="filter-glow" cx="0.5" cy="0.5" r="0.5">
      <stop offset="0" stop-color="#f59e0b" stop-opacity="0.3"/>
      <stop offset="1" stop-color="#f59e0b" stop-opacity="0"/>
    </radialGradient>
  </defs>
  <rect fill="#1a1a1a" width="2844" height="1600"/>
  <g opacity="0.12">
    <rect x="0" y="0" width="2844" height="1600" fill="none" stroke="#3b82f6" stroke-width="1"/>
    <line x1="200" y1="0" x2="200" y2="1600" stroke="#3b82f6" stroke-width="0.5"/>
    <line x1="400" y1="0" x2="400" y2="1600" stroke="#3b82f6" stroke-width="0.5"/>
    <line x1="600" y1="0" x2="600" y2="1600" stroke="#3b82f6" stroke-width="0.5"/>
    <line x1="800" y1="0" x2="800" y2="1600" stroke="#3b82f6" stroke-width="0.5"/>
    <line x1="1000" y1="0" x2="1000" y2="1600" stroke="#3b82f6" stroke-width="0.5"/>
    <line x1="1200" y1="0" x2="1200" y2="1600" stroke="#3b82f6" stroke-width="0.5"/>
    <line x1="1400" y1="0" x2="1400" y2="1600" stroke="#3b82f6" stroke-width="0.5"/>
    <line x1="1600" y1="0" x2="1600" y2="1600" stroke="#3b82f6" stroke-width="0.5"/>
    <line x1="1800" y1="0" x2="1800" y2="1600" stroke="#3b82f6" stroke-width="0.5"/>
    <line x1="2000" y1="0" x2="2000" y2="1600" stroke="#3b82f6" stroke-width="0.5"/>
    <line x1="2200" y1="0" x2="2200" y2="1600" stroke="#3b82f6" stroke-width="0.5"/>
    <line x1="2400" y1="0" x2="2400" y2="1600" stroke="#3b82f6" stroke-width="0.5"/>
    <line x1="2600" y1="0" x2="2600" y2="1600" stroke="#3b82f6" stroke-width="0.5"/>
    <line x1="2800" y1="0" x2="2800" y2="1600" stroke="#3b82f6" stroke-width="0.5"/>
    <line x1="0" y1="200" x2="2844" y2="200" stroke="#3b82f6" stroke-width="0.5"/>
    <line x1="0" y1="400" x2="2844" y2="400" stroke="#3b82f6" stroke-width="0.5"/>
    <line x1="0" y1="600" x2="2844" y2="600" stroke="#3b82f6" stroke-width="0.5"/>
    <line x1="0" y1="800" x2="2844" y2="800" stroke="#3b82f6" stroke-width="0.5"/>
    <line x1="0" y1="1000" x2="2844" y2="1000" stroke="#3b82f6" stroke-width="0.5"/>
    <line x1="0" y1="1200" x2="2844" y2="1200" stroke="#3b82f6" stroke-width="0.5"/>
    <line x1="0" y1="1400" x2="2844" y2="1400" stroke="#3b82f6" stroke-width="0.5"/>
  </g>
  <g opacity="0.6">
    <path d="M -100 680 L 900 680" stroke="url(#pipe)" stroke-width="16" stroke-linecap="round" fill="none"/>
    <path d="M -100 760 L 900 760" stroke="url(#pipe)" stroke-width="12" stroke-linecap="round" fill="none" opacity="0.7"/>
    <path d="M -100 840 L 900 840" stroke="url(#pipe)" stroke-width="16" stroke-linecap="round" fill="none"/>
    <path d="M -100 920 L 900 920" stroke="url(#pipe)" stroke-width="10" stroke-linecap="round" fill="none" opacity="0.5"/>
    <path d="M -100 1000 L 900 1000" stroke="url(#pipe)" stroke-width="14" stroke-linecap="round" fill="none" opacity="0.8"/>
  </g>
  <ellipse cx="1000" cy="840" rx="200" ry="350" fill="url(#filter-glow)"/>
  <rect x="960" y="580" width="80" height="520" rx="40" fill="url(#exclude)" opacity="0.9"/>
  <line x1="960" y1="680" x2="1040" y2="760" stroke="#1a1a1a" stroke-width="5"/>
  <line x1="1040" y1="680" x2="960" y2="760" stroke="#1a1a1a" stroke-width="5"/>
  <line x1="960" y1="820" x2="1040" y2="900" stroke="#1a1a1a" stroke-width="5"/>
  <line x1="1040" y1="820" x2="960" y2="900" stroke="#1a1a1a" stroke-width="5"/>
  <line x1="960" y1="960" x2="1040" y2="1040" stroke="#1a1a1a" stroke-width="5"/>
  <line x1="1040" y1="960" x2="960" y2="1040" stroke="#1a1a1a" stroke-width="5"/>
  <g opacity="0.5">
    <path d="M 1100 760 L 2950 760" stroke="url(#pipe2)" stroke-width="16" stroke-linecap="round" fill="none"/>
    <path d="M 1100 840 L 2950 840" stroke="url(#pipe2)" stroke-width="10" stroke-linecap="round" fill="none" opacity="0.7"/>
    <path d="M 1100 920 L 2950 920" stroke="url(#pipe2)" stroke-width="14" stroke-linecap="round" fill="none" opacity="0.8"/>
  </g>
  <g opacity="0.4">
    <path d="M 1100 680 C 1300 680 1400 400 1600 350 C 1800 300 1900 200 2100 180" stroke="#9b1fb8" stroke-width="8" stroke-linecap="round" fill="none" stroke-dasharray="12 8"/>
    <path d="M 1100 1000 C 1300 1000 1400 1200 1600 1250 C 1800 1300 1900 1380 2100 1400" stroke="#9b1fb8" stroke-width="6" stroke-linecap="round" fill="none" stroke-dasharray="10 8"/>
  </g>
  <g fill="#e0e0e0" opacity="0.15">
    <rect x="220" y="500" width="160" height="22" rx="3"/>
    <rect x="220" y="535" width="120" height="22" rx="3"/>
    <rect x="220" y="570" width="145" height="22" rx="3"/>
    <rect x="1600" y="680" width="160" height="22" rx="3"/>
    <rect x="1600" y="715" width="120" height="22" rx="3"/>
    <rect x="1600" y="750" width="145" height="22" rx="3"/>
  </g>
  <g fill="#f59e0b" opacity="0.7">
    <circle cx="300" cy="680" r="8"/>
    <circle cx="300" cy="760" r="8"/>
    <circle cx="300" cy="840" r="8"/>
    <circle cx="300" cy="920" r="8"/>
    <circle cx="300" cy="1000" r="8"/>
  </g>
  <g fill="#3b82f6" opacity="0.7">
    <circle cx="2500" cy="760" r="8"/>
    <circle cx="2500" cy="840" r="8"/>
    <circle cx="2500" cy="920" r="8"/>
  </g>
</svg>
