<svg xmlns="http://www.w3.org/2000/svg" viewBox="0 0 2844 1600">
  <defs>
    <linearGradient id="redact" x1="0" y1="0" x2="1" y2="0">
      <stop offset="0" stop-color="#be2edd"/>
      <stop offset="1" stop-color="#9b1fb8"/>
    </linearGradient>
    <linearGradient id="image-tint" x1="0" y1="0" x2="1" y2="1">
      <stop offset="0" stop-color="#3b82f6"/>
      <stop offset="1" stop-color="#f59e0b"/>
    </linearGradient>
    <radialGradient id="censored" cx="0.5" cy="0.4" r="0.4">
      <stop offset="0" stop-color="#be2edd" stop-opacity="0.18"/>
      <stop offset="1" stop-color="#1a1a1a" stop-opacity="0"/>
    </radialGradient>
  </defs>
  <rect fill="#1a1a1a" width="2844" height="1600"/>
  <rect fill="url(#censored)" width="2844" height="1600"/>
  <g transform="rotate(-2 1422 800)">
    <g opacity="0.22">
      <rect x="180" y="200" width="680" height="480" rx="12" fill="url(#image-tint)"/>
      <rect x="900" y="200" width="680" height="480" rx="12" fill="url(#image-tint)"/>
      <rect x="1620" y="200" width="680" height="480" rx="12" fill="url(#image-tint)"/>
      <rect x="180" y="720" width="680" height="480" rx="12" fill="url(#image-tint)"/>
      <rect x="900" y="720" width="680" height="480" rx="12" fill="url(#image-tint)"/>
      <rect x="1620" y="720" width="680" height="480" rx="12" fill="url(#image-tint)"/>
      <rect x="180" y="1240" width="680" height="480" rx="12" fill="url(#image-tint)"/>
      <rect x="900" y="1240" width="680" height="480" rx="12" fill="url(#image-tint)"/>
      <rect x="1620" y="1240" width="680" height="480" rx="12" fill="url(#image-tint)"/>
    </g>
  </g>
  <g opacity="0.06" fill="none" stroke="#e0e0e0" stroke-width="1">
    <path d="M 860 100 L 860 1700"/>
    <path d="M 1580 100 L 1580 1700"/>
    <path d="M 2300 100 L 2300 1700"/>
    <path d="M 100 700 L 2800 700"/>
    <path d="M 100 1220 L 2800 1220"/>
  </g>
  <g transform="rotate(3 1422 400)">
    <rect x="100" y="310" width="2650" height="140" rx="8" fill="url(#redact)" opacity="0.65"/>
  </g>
  <g transform="rotate(-1 1422 830)">
    <rect x="120" y="830" width="2620" height="140" rx="8" fill="url(#redact)" opacity="0.6"/>
  </g>
  <g transform="rotate(2 1422 1350)">
    <rect x="110" y="1350" width="2640" height="140" rx="8" fill="url(#redact)" opacity="0.55"/>
  </g>
  <g fill="#f59e0b" opacity="0.4">
    <rect x="400" y="250" width="240" height="30" rx="4"/>
    <rect x="700" y="260" width="180" height="25" rx="4"/>
    <rect x="1080" y="245" width="260" height="30" rx="4"/>
    <rect x="1380" y="258" width="150" height="25" rx="4"/>
    <rect x="1800" y="248" width="220" height="30" rx="4"/>
    <rect x="2080" y="260" width="170" height="25" rx="4"/>
    <rect x="420" y="770" width="200" height="28" rx="4"/>
    <rect x="680" y="780" width="240" height="24" rx="4"/>
    <rect x="1100" y="768" width="180" height="28" rx="4"/>
    <rect x="1840" y="772" width="200" height="26" rx="4"/>
    <rect x="2100" y="765" width="160" height="28" rx="4"/>
  </g>
  <g fill="#e0e0e0" opacity="0.08">
    <rect x="220" y="450" width="580" height="180" rx="6"/>
    <rect x="940" y="450" width="580" height="180" rx="6"/>
    <rect x="1660" y="450" width="580" height="180" rx="6"/>
    <rect x="220" y="980" width="580" height="180" rx="6"/>
    <rect x="940" y="980" width="580" height="180" rx="6"/>
    <rect x="1660" y="980" width="580" height="180" rx="6"/>
  </g>
  <g fill="none" stroke="#be2edd" stroke-linecap="round" opacity="0.15">
    <path d="M -100 -50 C 400 100, 900 200, 1422 180 S 2100 120, 2600 200 C 2750 230, 2900 250, 2950 200" stroke-width="2"/>
  </g>
</svg>
