<svg xmlns="http://www.w3.org/2000/svg" viewBox="0 0 2844 1600">
  <defs>
    <linearGradient id="purple" x1="0%" y1="0%" x2="100%" y2="100%">
      <stop offset="0%" stop-color="#be2edd"/>
      <stop offset="100%" stop-color="#9b1fb8"/>
    </linearGradient>
    <linearGradient id="blue" x1="0%" y1="0%" x2="100%" y2="100%">
      <stop offset="0%" stop-color="#3b82f6"/>
      <stop offset="100%" stop-color="#3b82f6"/>
    </linearGradient>
    <linearGradient id="amber" x1="0%" y1="0%" x2="100%" y2="100%">
      <stop offset="0%" stop-color="#f59e0b"/>
      <stop offset="100%" stop-color="#f59e0b"/>
    </linearGradient>
    <radialGradient id="bloom" cx="50%" cy="50%" r="60%">
      <stop offset="0%" stop-color="#f59e0b" stop-opacity="0.3"/>
      <stop offset="50%" stop-color="#be2edd" stop-opacity="0.1"/>
      <stop offset="100%" stop-color="#1a1a1a" stop-opacity="0"/>
    </radialGradient>
  </defs>
  <rect fill="#1a1a1a" width="2844" height="1600"/>
  <ellipse cx="1422" cy="800" rx="1100" ry="900" fill="url(#bloom)"/>
  <g transform="rotate(3, 1422, 800)">
    <path d="M 1422 800 C 1422 600 1600 500 1750 400 S 2000 200 2100 50" stroke="#f59e0b" stroke-width="4" fill="none" opacity="0.6"/>
    <path d="M 1422 800 C 1500 650 1700 600 1900 550 S 2200 450 2400 350" stroke="#f59e0b" stroke-width="3" fill="none" opacity="0.4"/>
    <path d="M 1422 800 C 1422 600 1244 500 1094 400 S 844 200 744 50" stroke="#3b82f6" stroke-width="4" fill="none" opacity="0.6"/>
    <path d="M 1422 800 C 1344 650 1144 600 944 550 S 644 450 444 350" stroke="#3b82f6" stroke-width="3" fill="none" opacity="0.4"/>
    <path d="M 1422 800 C 1600 900 1700 1050 1800 1200 S 2000 1450 2100 1700" stroke="#be2edd" stroke-width="4" fill="none" opacity="0.6"/>
    <path d="M 1422 800 C 1244 900 1144 1050 1044 1200 S 844 1450 744 1700" stroke="#be2edd" stroke-width="3" fill="none" opacity="0.4"/>
    <path d="M 1422 800 C 1700 780 1900 820 2100 800 S 2500 780 2844 800" stroke="#9b1fb8" stroke-width="3" fill="none" opacity="0.4"/>
    <path d="M 1422 800 C 1144 780 944 820 744 800 S 344 780 0 800" stroke="#9b1fb8" stroke-width="3" fill="none" opacity="0.4"/>
  </g>
  <g>
    <circle cx="1422" cy="800" r="90" fill="#f59e0b" opacity="0.9"/>
    <circle cx="1422" cy="800" r="60" fill="#f59e0b"/>
    <circle cx="2100" cy="50" r="40" fill="#f59e0b" opacity="0.7"/>
    <circle cx="744" cy="50" r="40" fill="#3b82f6" opacity="0.7"/>
    <circle cx="2100" cy="1700" r="38" fill="#be2edd" opacity="0.6"/>
    <circle cx="744" cy="1700" r="38" fill="#be2edd" opacity="0.6"/>
    <circle cx="2844" cy="800" r="35" fill="#9b1fb8" opacity="0.5"/>
    <circle cx="0" cy="800" r="35" fill="#9b1fb8" opacity="0.5"/>
    <circle cx="2400" cy="350" r="28" fill="#f59e0b" opacity="0.5"/>
    <circle cx="444" cy="350" r="28" fill="#3b82f6" opacity="0.5"/>
  </g>
  <g opacity="0.3">
    <path d="M 2100 50 C 2200 200 2300 400 2844 500" stroke="#f59e0b" stroke-width="2" fill="none"/>
    <path d="M 744 50 C 644 200 444 400 0 500" stroke="#3b82f6" stroke-width="2" fill="none"/>
    <path d="M 2100 1700 C 2300 1500 2600 1200 2844 1000" stroke="#be2edd" stroke-width="2" fill="none"/>
    <path d="M 744 1700 C 544 1500 244 1200 0 1000" stroke="#be2edd" stroke-width="2" fill="none"/>
  </g>
  <g opacity="0.2">
    <circle cx="1422" cy="800" r="300" fill="none" stroke="#e0e0e0" stroke-width="1" stroke-dasharray="12 8"/>
    <circle cx="1422" cy="800" r="550" fill="none" stroke="#e0e0e0" stroke-width="1" stroke-dasharray="8 12"/>
    <circle cx="1422" cy="800" r="800" fill="none" stroke="#e0e0e0" stroke-width="1" stroke-dasharray="6 14"/>
  </g>
</svg>
