<svg xmlns="http://www.w3.org/2000/svg" viewBox="0 0 2844 1600">
  <defs>
    <linearGradient id="glow" x1="0" y1="0" x2="1" y2="1">
      <stop offset="0" stop-color="#9b1fb8"/>
      <stop offset="1" stop-color="#be2edd"/>
    </linearGradient>
    <linearGradient id="sky" x1="0" y1="0" x2="0" y2="1">
      <stop offset="0" stop-color="#3b82f6" stop-opacity="0.18"/>
      <stop offset="1" stop-color="#1a1a1a" stop-opacity="0"/>
    </linearGradient>
    <linearGradient id="warmth" x1="0" y1="1" x2="1" y2="0">
      <stop offset="0" stop-color="#be2edd"/>
      <stop offset="1" stop-color="#f59e0b"/>
    </linearGradient>
    <radialGradient id="sun" cx="0.72" cy="0.25" r="0.35">
      <stop offset="0" stop-color="#f59e0b" stop-opacity="0.35"/>
      <stop offset="1" stop-color="#1a1a1a" stop-opacity="0"/>
    </radialGradient>
    <linearGradient id="hill" x1="0" y1="0" x2="0" y2="1">
      <stop offset="0" stop-color="#9b1fb8"/>
      <stop offset="1" stop-color="#be2edd"/>
    </linearGradient>
  </defs>
  <rect fill="#1a1a1a" width="2844" height="1600"/>
  <rect fill="url(#sky)" width="2844" height="1600"/>
  <rect fill="url(#sun)" width="2844" height="1600"/>
  <g opacity="0.22">
    <path d="M -100 1400 C 200 1180, 500 1250, 700 1100 C 900 950, 1050 1050, 1200 900 C 1350 750, 1500 820, 1650 700 C 1800 580, 2000 640, 2200 500 C 2400 360, 2600 450, 2900 350 L 2900 1700 L -100 1700 Z" fill="url(#hill)"/>
  </g>
  <g opacity="0.14">
    <path d="M -100 1500 C 300 1380, 600 1420, 900 1300 C 1150 1200, 1350 1280, 1600 1180 C 1850 1080, 2100 1150, 2400 1060 C 2600 1000, 2750 1030, 2900 1010 L 2900 1700 L -100 1700 Z" fill="#3b82f6"/>
  </g>
  <g transform="rotate(3 2050 400)" opacity="0.5">
    <circle cx="2050" cy="320" r="90" fill="none" stroke="#f59e0b" stroke-width="6" opacity="0.5"/>
    <circle cx="2050" cy="320" r="140" fill="none" stroke="#f59e0b" stroke-width="2" opacity="0.2"/>
    <circle cx="2050" cy="320" r="60" fill="#f59e0b" opacity="0.18"/>
  </g>
  <g opacity="0.35">
    <path d="M 100 1000 C 200 920, 280 940, 350 880 C 420 820, 480 850, 540 800" fill="none" stroke="#e0e0e0" stroke-width="4" stroke-linecap="round"/>
    <path d="M 540 800 C 620 740, 700 770, 780 700 C 820 665, 840 640, 820 610" fill="none" stroke="#e0e0e0" stroke-width="4" stroke-linecap="round"/>
    <circle cx="820" cy="590" r="16" fill="#f59e0b" opacity="0.8"/>
    <circle cx="820" cy="590" r="30" fill="none" stroke="#f59e0b" stroke-width="3" opacity="0.4"/>
  </g>
  <g opacity="0.12">
    <path d="M 1200 650 C 1350 620, 1500 660, 1650 630 S 1950 600, 2100 620" fill="none" stroke="#be2edd" stroke-width="3" stroke-linecap="round"/>
    <path d="M 1150 750 C 1300 720, 1450 760, 1600 730 S 1900 700, 2050 720" fill="none" stroke="#be2edd" stroke-width="2" stroke-linecap="round"/>
    <path d="M 1300 850 C 1450 820, 1600 860, 1750 830 S 2000 800, 2150 820" fill="none" stroke="#be2edd" stroke-width="2" stroke-linecap="round"/>
  </g>
  <g transform="translate(0 20) rotate(-2 1422 800)">
    <path d="M 1200 850 C 1300 780, 1400 760, 1500 800 C 1600 840, 1650 900, 1600 960 C 1550 1020, 1400 1040, 1300 980 C 1200 920, 1180 890, 1200 850 Z" fill="url(#glow)" opacity="0.25"/>
  </g>
  <g opacity="0.15" transform="rotate(5 2500 900)">
    <path d="M 2300 700 C 2400 650, 2550 680, 2650 640 C 2750 600, 2800 620, 2850 590" fill="none" stroke="#3b82f6" stroke-width="5" stroke-linecap="round"/>
    <path d="M 2200 900 C 2350 850, 2500 890, 2650 850 S 2800 820, 2900 840" fill="none" stroke="#3b82f6" stroke-width="4" stroke-linecap="round"/>
  </g>
  <path d="M -100 1580 C 400 1520, 900 1560, 1422 1500 S 2000 1450, 2900 1490" fill="none" stroke="#be2edd" stroke-width="3" opacity="0.2" stroke-linecap="round"/>
</svg>
