<svg xmlns="http://www.w3.org/2000/svg" viewBox="0 0 2844 1600">
  <defs>
    <linearGradient id="webGrad" x1="0%" y1="0%" x2="100%" y2="100%">
      <stop offset="0%" stop-color="#3b82f6"/>
      <stop offset="100%" stop-color="#be2edd"/>
    </linearGradient>
    <radialGradient id="hubGlow" cx="50%" cy="50%" r="50%">
      <stop offset="0%" stop-color="#be2edd" stop-opacity="0.4"/>
      <stop offset="100%" stop-color="#1a1a1a" stop-opacity="0"/>
    </radialGradient>
    <radialGradient id="nodeGlow" cx="50%" cy="50%" r="50%">
      <stop offset="0%" stop-color="#3b82f6" stop-opacity="0.3"/>
      <stop offset="100%" stop-color="#1a1a1a" stop-opacity="0"/>
    </radialGradient>
  </defs>
  <rect fill="#1a1a1a" width="2844" height="1600"/>
  <ellipse cx="1422" cy="800" rx="900" ry="700" fill="url(#hubGlow)"/>
  <g opacity="0.35" stroke="#3b82f6" stroke-width="1.5" fill="none">
    <line x1="1422" y1="800" x2="620" y2="320"/>
    <line x1="1422" y1="800" x2="1100" y2="200"/>
    <line x1="1422" y1="800" x2="1744" y2="200"/>
    <line x1="1422" y1="800" x2="2224" y2="320"/>
    <line x1="1422" y1="800" x2="2400" y2="700"/>
    <line x1="1422" y1="800" x2="2300" y2="1200"/>
    <line x1="1422" y1="800" x2="1800" y2="1380"/>
    <line x1="1422" y1="800" x2="1044" y2="1380"/>
    <line x1="1422" y1="800" x2="544" y2="1200"/>
    <line x1="1422" y1="800" x2="444" y2="700"/>
  </g>
  <g opacity="0.2" stroke="#9b1fb8" stroke-width="1" fill="none">
    <line x1="620" y1="320" x2="1100" y2="200"/>
    <line x1="1100" y1="200" x2="1744" y2="200"/>
    <line x1="1744" y1="200" x2="2224" y2="320"/>
    <line x1="2224" y1="320" x2="2400" y2="700"/>
    <line x1="2400" y1="700" x2="2300" y2="1200"/>
    <line x1="2300" y1="1200" x2="1800" y2="1380"/>
    <line x1="1800" y1="1380" x2="1044" y2="1380"/>
    <line x1="1044" y1="1380" x2="544" y2="1200"/>
    <line x1="544" y1="1200" x2="444" y2="700"/>
    <line x1="444" y1="700" x2="620" y2="320"/>
    <line x1="620" y1="320" x2="1744" y2="200"/>
    <line x1="1100" y1="200" x2="2224" y2="320"/>
    <line x1="444" y1="700" x2="2300" y2="1200"/>
    <line x1="544" y1="1200" x2="2400" y2="700"/>
  </g>
  <circle cx="620" cy="320" r="36" fill="#3b82f6" opacity="0.7"/>
  <circle cx="1100" cy="200" r="30" fill="#9b1fb8" opacity="0.7"/>
  <circle cx="1744" cy="200" r="34" fill="#3b82f6" opacity="0.7"/>
  <circle cx="2224" cy="320" r="30" fill="#9b1fb8" opacity="0.7"/>
  <circle cx="2400" cy="700" r="38" fill="#3b82f6" opacity="0.7"/>
  <circle cx="2300" cy="1200" r="32" fill="#9b1fb8" opacity="0.7"/>
  <circle cx="1800" cy="1380" r="36" fill="#3b82f6" opacity="0.7"/>
  <circle cx="1044" cy="1380" r="34" fill="#9b1fb8" opacity="0.7"/>
  <circle cx="544" cy="1200" r="36" fill="#3b82f6" opacity="0.7"/>
  <circle cx="444" cy="700" r="30" fill="#9b1fb8" opacity="0.7"/>
  <circle cx="1422" cy="800" r="200" fill="url(#hubGlow)"/>
  <circle cx="1422" cy="800" r="150" fill="#1a1a1a" stroke="#be2edd" stroke-width="4" opacity="0.95"/>
  <circle cx="1422" cy="800" r="90" fill="#be2edd" opacity="0.2"/>
  <circle cx="1422" cy="800" r="50" fill="#be2edd" opacity="0.4"/>
  <path d="M 1380 800 C 1380 776, 1399 758, 1422 758 S 1464 776, 1464 800 S 1445 842, 1422 842 S 1380 824, 1380 800 Z" fill="#be2edd" opacity="0.7"/>
</svg>
