<svg xmlns="http://www.w3.org/2000/svg" viewBox="0 0 2844 1600">
  <defs>
    <radialGradient id="rlm-haze1" cx="0.25" cy="0.4" r="0.5">
      <stop offset="0" stop-color="#be2edd" stop-opacity="0.12"/>
      <stop offset="1" stop-color="#1a1a1a" stop-opacity="0"/>
    </radialGradient>
    <radialGradient id="rlm-haze2" cx="0.75" cy="0.6" r="0.45">
      <stop offset="0" stop-color="#3b82f6" stop-opacity="0.1"/>
      <stop offset="1" stop-color="#1a1a1a" stop-opacity="0"/>
    </radialGradient>
    <radialGradient id="rlm-node" cx="0.5" cy="0.5" r="0.5">
      <stop offset="0" stop-color="#f59e0b" stop-opacity="0.9"/>
      <stop offset="1" stop-color="#f59e0b" stop-opacity="0"/>
    </radialGradient>
    <linearGradient id="rlm-sweep" x1="0" y1="0" x2="1" y2="1">
      <stop offset="0" stop-color="#9b1fb8"/>
      <stop offset="1" stop-color="#3b82f6"/>
    </linearGradient>
  </defs>
  <rect fill="#1a1a1a" width="2844" height="1600"/>
  <rect fill="url(#rlm-haze1)" width="2844" height="1600"/>
  <rect fill="url(#rlm-haze2)" width="2844" height="1600"/>
  <g fill="none" stroke="#be2edd" stroke-linecap="round" opacity="0.18">
    <path d="M 420 380 C 650 320, 820 480, 700 650" stroke-width="2"/>
    <path d="M 420 380 C 380 600, 200 720, 350 900" stroke-width="2"/>
    <path d="M 700 650 C 900 700, 1050 580, 1200 700" stroke-width="2"/>
    <path d="M 700 650 C 750 850, 600 950, 680 1100" stroke-width="2"/>
    <path d="M 350 900 C 500 980, 620 1020, 680 1100" stroke-width="2"/>
    <path d="M 1200 700 C 1400 650, 1550 800, 1500 980" stroke-width="2"/>
    <path d="M 1200 700 C 1350 550, 1580 480, 1750 600" stroke-width="2"/>
    <path d="M 680 1100 C 900 1200, 1100 1150, 1300 1250" stroke-width="2"/>
    <path d="M 1500 980 C 1650 1050, 1800 980, 1950 1100" stroke-width="2"/>
    <path d="M 1750 600 C 1950 520, 2150 620, 2200 800" stroke-width="2"/>
    <path d="M 1950 1100 C 2100 1180, 2300 1100, 2450 1200" stroke-width="2"/>
    <path d="M 2200 800 C 2350 750, 2500 880, 2450 1050" stroke-width="2"/>
    <path d="M 2450 1050 C 2550 1100, 2650 1000, 2700 1150" stroke-width="2"/>
    <path d="M 1300 1250 C 1500 1350, 1700 1300, 1950 1100" stroke-width="2"/>
    <path d="M 1750 600 C 1700 400, 1900 320, 2100 380" stroke-width="2"/>
    <path d="M 2100 380 C 2300 280, 2550 400, 2600 600" stroke-width="2"/>
    <path d="M 2600 600 C 2750 680, 2800 500, 2900 420" stroke-width="2"/>
  </g>
  <g fill="#be2edd">
    <circle cx="420" cy="380" r="22" opacity="0.5"/>
    <circle cx="700" cy="650" r="18" opacity="0.55"/>
    <circle cx="350" cy="900" r="14" opacity="0.4"/>
    <circle cx="680" cy="1100" r="16" opacity="0.45"/>
    <circle cx="1200" cy="700" r="24" opacity="0.6"/>
    <circle cx="1500" cy="980" r="16" opacity="0.45"/>
    <circle cx="1750" cy="600" r="20" opacity="0.5"/>
    <circle cx="1300" cy="1250" r="14" opacity="0.35"/>
    <circle cx="1950" cy="1100" r="18" opacity="0.45"/>
    <circle cx="2200" cy="800" r="22" opacity="0.5"/>
    <circle cx="2450" cy="1050" r="16" opacity="0.4"/>
    <circle cx="2100" cy="380" r="14" opacity="0.35"/>
    <circle cx="2600" cy="600" r="18" opacity="0.45"/>
    <circle cx="2450" cy="1200" r="12" opacity="0.3"/>
    <circle cx="2700" cy="1150" r="10" opacity="0.3"/>
  </g>
  <g fill="#f59e0b">
    <circle cx="1200" cy="700" r="34" opacity="0.3"/>
    <circle cx="1200" cy="700" r="54" opacity="0.1"/>
    <circle cx="2200" cy="800" r="28" opacity="0.25"/>
    <circle cx="2200" cy="800" r="48" opacity="0.08"/>
  </g>
  <g fill="#3b82f6">
    <circle cx="420" cy="380" r="8" opacity="0.7"/>
    <circle cx="700" cy="650" r="8" opacity="0.7"/>
    <circle cx="1200" cy="700" r="10" opacity="0.8"/>
    <circle cx="1750" cy="600" r="8" opacity="0.7"/>
    <circle cx="2200" cy="800" r="9" opacity="0.75"/>
    <circle cx="1950" cy="1100" r="7" opacity="0.6"/>
    <circle cx="2600" cy="600" r="7" opacity="0.6"/>
  </g>
  <g transform="rotate(-3 500 1400)" opacity="0.08">
    <path d="M -100 1200 C 300 1000, 700 1100, 900 1400 S 1400 1600, 1600 1700" fill="none" stroke="#9b1fb8" stroke-width="80" stroke-linecap="round"/>
  </g>
  <g transform="rotate(4 2400 200)" opacity="0.08">
    <path d="M 2100 -100 C 2300 100, 2500 50, 2700 -50 S 3000 100, 3000 300" fill="none" stroke="#3b82f6" stroke-width="60" stroke-linecap="round"/>
  </g>
</svg>
