<svg xmlns="http://www.w3.org/2000/svg" viewBox="0 0 2844 1600">
  <defs>
    <linearGradient id="quadTL" x1="0" y1="0" x2="1" y2="1">
      <stop offset="0%" stop-color="#3b82f6" stop-opacity="0.25"/>
      <stop offset="100%" stop-color="#3b82f6" stop-opacity="0.05"/>
    </linearGradient>
    <linearGradient id="quadTR" x1="1" y1="0" x2="0" y2="1">
      <stop offset="0%" stop-color="#f59e0b" stop-opacity="0.3"/>
      <stop offset="100%" stop-color="#f59e0b" stop-opacity="0.08"/>
    </linearGradient>
    <linearGradient id="quadBL" x1="0" y1="1" x2="1" y2="0">
      <stop offset="0%" stop-color="#9b1fb8" stop-opacity="0.25"/>
      <stop offset="100%" stop-color="#9b1fb8" stop-opacity="0.05"/>
    </linearGradient>
    <linearGradient id="quadBR" x1="1" y1="1" x2="0" y2="0">
      <stop offset="0%" stop-color="#be2edd" stop-opacity="0.2"/>
      <stop offset="100%" stop-color="#be2edd" stop-opacity="0.04"/>
    </linearGradient>
  </defs>
  <rect fill="#1a1a1a" width="2844" height="1600"/>
  <rect x="-20" y="-20" width="1442" height="820" fill="url(#quadTL)"/>
  <rect x="1422" y="-20" width="1442" height="820" fill="url(#quadTR)"/>
  <rect x="-20" y="800" width="1442" height="820" fill="url(#quadBL)"/>
  <rect x="1422" y="800" width="1442" height="820" fill="url(#quadBR)"/>
  <g opacity="0.5">
    <line x1="1422" y1="-50" x2="1422" y2="1650" stroke="#e0e0e0" stroke-width="5" stroke-dasharray="20 12"/>
    <line x1="-50" y1="800" x2="2894" y2="800" stroke="#e0e0e0" stroke-width="5" stroke-dasharray="20 12"/>
  </g>
  <g opacity="0.15">
    <path d="M200 200 C600 100, 1000 300, 1300 150 C1600 0, 2000 200, 2400 100" fill="none" stroke="#e0e0e0" stroke-width="60"/>
    <path d="M200 1400 C600 1500, 1000 1300, 1300 1450 C1600 1600, 2000 1400, 2400 1500" fill="none" stroke="#e0e0e0" stroke-width="60"/>
  </g>
  <g opacity="0.7">
    <circle cx="600" cy="350" r="60" fill="#3b82f6" opacity="0.5"/>
    <circle cx="600" cy="350" r="90" fill="none" stroke="#3b82f6" stroke-width="4"/>
    <circle cx="2200" cy="300" r="80" fill="#f59e0b" opacity="0.6"/>
    <circle cx="2200" cy="300" r="110" fill="none" stroke="#f59e0b" stroke-width="4"/>
    <circle cx="700" cy="1250" r="50" fill="#9b1fb8" opacity="0.5"/>
    <circle cx="700" cy="1250" r="75" fill="none" stroke="#9b1fb8" stroke-width="3"/>
    <circle cx="2100" cy="1100" r="65" fill="#be2edd" opacity="0.5"/>
    <circle cx="2100" cy="1100" r="95" fill="none" stroke="#be2edd" stroke-width="4"/>
  </g>
  <g opacity="0.4">
    <circle cx="900" cy="500" r="28" fill="#3b82f6"/>
    <circle cx="1150" cy="420" r="22" fill="#3b82f6" opacity="0.6"/>
    <circle cx="400" cy="600" r="18" fill="#3b82f6" opacity="0.5"/>
    <circle cx="1800" cy="450" r="32" fill="#f59e0b"/>
    <circle cx="2400" cy="550" r="24" fill="#f59e0b" opacity="0.6"/>
    <circle cx="1600" cy="380" r="20" fill="#f59e0b" opacity="0.5"/>
    <circle cx="500" cy="1050" r="26" fill="#9b1fb8"/>
    <circle cx="900" cy="1150" r="20" fill="#9b1fb8" opacity="0.6"/>
    <circle cx="1800" cy="950" r="30" fill="#be2edd"/>
    <circle cx="2300" cy="1200" r="22" fill="#be2edd" opacity="0.6"/>
  </g>
  <g opacity="0.25" fill="none" stroke="#e0e0e0" stroke-width="2">
    <path d="M700 600 C900 500, 1100 480, 1300 420"/>
    <path d="M1700 500 C1900 450, 2100 400, 2350 380"/>
    <path d="M600 1100 C800 1050, 1000 1100, 1200 1050"/>
    <path d="M1700 1000 C1900 950, 2100 1000, 2300 980"/>
  </g>
  <g opacity="0.6">
    <path d="M1422 0 L1442 60 L1402 60 Z" fill="#e0e0e0"/>
    <path d="M1422 1600 L1442 1540 L1402 1540 Z" fill="#e0e0e0"/>
    <path d="M0 800 L60 820 L60 780 Z" fill="#e0e0e0"/>
    <path d="M2844 800 L2784 820 L2784 780 Z" fill="#e0e0e0"/>
  </g>
</svg>
