<svg xmlns="http://www.w3.org/2000/svg" viewBox="0 0 2844 1600">
  <defs>
    <linearGradient id="pdf-flow" x1="0" y1="0" x2="1" y2="0">
      <stop offset="0" stop-color="#3b82f6"/>
      <stop offset="0.5" stop-color="#be2edd"/>
      <stop offset="1" stop-color="#f59e0b"/>
    </linearGradient>
    <linearGradient id="pdf-land" x1="0" y1="0" x2="0" y2="1">
      <stop offset="0" stop-color="#9b1fb8"/>
      <stop offset="1" stop-color="#be2edd"/>
    </linearGradient>
    <radialGradient id="pdf-glow-l" cx="0.15" cy="0.5" r="0.4">
      <stop offset="0" stop-color="#3b82f6" stop-opacity="0.14"/>
      <stop offset="1" stop-color="#1a1a1a" stop-opacity="0"/>
    </radialGradient>
    <radialGradient id="pdf-glow-r" cx="0.85" cy="0.5" r="0.38">
      <stop offset="0" stop-color="#f59e0b" stop-opacity="0.12"/>
      <stop offset="1" stop-color="#1a1a1a" stop-opacity="0"/>
    </radialGradient>
  </defs>
  <rect fill="#1a1a1a" width="2844" height="1600"/>
  <rect fill="url(#pdf-glow-l)" width="2844" height="1600"/>
  <rect fill="url(#pdf-glow-r)" width="2844" height="1600"/>
  <g transform="rotate(-3 300 800)" opacity="0.2">
    <path d="M 100 300 C 180 280, 260 290, 340 300" stroke="#3b82f6" stroke-width="3" fill="none" stroke-linecap="round"/>
    <path d="M 100 360 C 200 340, 320 350, 420 360" stroke="#3b82f6" stroke-width="3" fill="none" stroke-linecap="round"/>
    <path d="M 100 420 C 180 400, 280 410, 360 420" stroke="#3b82f6" stroke-width="3" fill="none" stroke-linecap="round"/>
    <path d="M 100 480 C 200 460, 350 470, 460 480" stroke="#3b82f6" stroke-width="2.5" fill="none" stroke-linecap="round"/>
    <path d="M 100 540 C 180 520, 260 530, 340 540" stroke="#3b82f6" stroke-width="2.5" fill="none" stroke-linecap="round"/>
    <path d="M 100 600 C 200 580, 380 590, 500 600" stroke="#3b82f6" stroke-width="2" fill="none" stroke-linecap="round"/>
    <path d="M 100 660 C 180 640, 280 650, 360 660" stroke="#3b82f6" stroke-width="2" fill="none" stroke-linecap="round"/>
    <path d="M 100 720 C 200 700, 340 710, 440 720" stroke="#3b82f6" stroke-width="2" fill="none" stroke-linecap="round"/>
    <path d="M 100 780 C 180 760, 260 770, 340 780" stroke="#3b82f6" stroke-width="1.5" fill="none" stroke-linecap="round"/>
    <path d="M 100 840 C 200 820, 360 830, 460 840" stroke="#3b82f6" stroke-width="1.5" fill="none" stroke-linecap="round"/>
  </g>
  <g transform="rotate(3 2550 800)" opacity="0.2">
    <path d="M 2300 300 C 2380 280, 2450 290, 2550 300" stroke="#f59e0b" stroke-width="4" fill="none" stroke-linecap="round"/>
    <path d="M 2300 370 C 2400 350, 2500 360, 2600 370" stroke="#f59e0b" stroke-width="4" fill="none" stroke-linecap="round"/>
    <path d="M 2300 440 C 2380 420, 2470 430, 2570 440" stroke="#f59e0b" stroke-width="3.5" fill="none" stroke-linecap="round"/>
    <path d="M 2300 510 C 2400 490, 2520 500, 2640 510" stroke="#f59e0b" stroke-width="3.5" fill="none" stroke-linecap="round"/>
    <path d="M 2300 580 C 2380 560, 2470 570, 2570 580" stroke="#f59e0b" stroke-width="3" fill="none" stroke-linecap="round"/>
    <path d="M 2300 650 C 2400 630, 2510 640, 2620 650" stroke="#f59e0b" stroke-width="3" fill="none" stroke-linecap="round"/>
    <path d="M 2300 720 C 2380 700, 2460 710, 2560 720" stroke="#f59e0b" stroke-width="2.5" fill="none" stroke-linecap="round"/>
    <path d="M 2300 790 C 2400 770, 2520 780, 2640 790" stroke="#f59e0b" stroke-width="2.5" fill="none" stroke-linecap="round"/>
    <path d="M 2300 860 C 2380 840, 2460 850, 2560 860" stroke="#f59e0b" stroke-width="2" fill="none" stroke-linecap="round"/>
    <path d="M 2300 930 C 2400 910, 2520 920, 2640 930" stroke="#f59e0b" stroke-width="2" fill="none" stroke-linecap="round"/>
  </g>
  <path d="M 550 750 C 800 680, 1000 720, 1200 750 S 1500 780, 1700 750 S 2000 700, 2200 750" fill="none" stroke="url(#pdf-flow)" stroke-width="5" stroke-linecap="round" opacity="0.5"/>
  <path d="M 550 800 C 800 730, 1050 760, 1250 800 S 1550 830, 1750 800 S 2050 750, 2250 800" fill="none" stroke="url(#pdf-flow)" stroke-width="8" stroke-linecap="round" opacity="0.3"/>
  <path d="M 550 850 C 800 780, 1000 820, 1200 850 S 1500 880, 1700 850 S 2000 800, 2200 850" fill="none" stroke="url(#pdf-flow)" stroke-width="3" stroke-linecap="round" opacity="0.2"/>
  <g transform="rotate(-2 1422 400)">
    <path d="M -100 1700 C 500 1300, 1000 1150, 1500 1200 S 2200 950, 2500 1050 C 2700 1120, 2950 950, 2950 1700 Z" fill="url(#pdf-land)" opacity="0.14"/>
  </g>
  <g fill="#be2edd" opacity="0.35">
    <path d="M 1150 600 C 1250 580, 1350 600, 1450 580" stroke="#be2edd" stroke-width="3" fill="none" stroke-linecap="round"/>
    <path d="M 1150 650 C 1280 630, 1420 650, 1550 640" stroke="#be2edd" stroke-width="2.5" fill="none" stroke-linecap="round"/>
    <path d="M 1150 700 C 1250 680, 1380 700, 1480 690" stroke="#be2edd" stroke-width="2" fill="none" stroke-linecap="round"/>
    <path d="M 1150 950 C 1250 930, 1350 950, 1450 940" stroke="#be2edd" stroke-width="3" fill="none" stroke-linecap="round"/>
    <path d="M 1150 1000 C 1280 980, 1450 1000, 1580 990" stroke="#be2edd" stroke-width="2.5" fill="none" stroke-linecap="round"/>
    <path d="M 1150 1050 C 1250 1030, 1380 1050, 1480 1040" stroke="#be2edd" stroke-width="2" fill="none" stroke-linecap="round"/>
  </g>
  <g fill="#e0e0e0" opacity="0.05">
    <path d="M 100 150 C 200 100, 350 120, 500 150 L 500 900 C 350 930, 200 910, 100 900 Z"/>
    <path d="M 2350 250 C 2450 200, 2600 220, 2750 250 L 2750 1000 C 2600 1030, 2450 1010, 2350 1000 Z"/>
  </g>
  <path d="M 490 1700 C 800 1350, 1300 1200, 1700 1280 S 2350 1050, 2900 1100" fill="none" stroke="#e0e0e0" stroke-width="1.5" stroke-linecap="round" opacity="0.05"/>
</svg>
