<svg xmlns="http://www.w3.org/2000/svg" viewBox="0 0 2844 1600">
  <defs>
    <linearGradient id="human" x1="0" y1="0" x2="1" y2="1">
      <stop offset="0" stop-color="#f59e0b"/>
      <stop offset="1" stop-color="#be2edd"/>
    </linearGradient>
    <linearGradient id="machine" x1="1" y1="0" x2="0" y2="1">
      <stop offset="0" stop-color="#3b82f6"/>
      <stop offset="1" stop-color="#9b1fb8"/>
    </linearGradient>
    <radialGradient id="overlap" cx="0.5" cy="0.5" r="0.35">
      <stop offset="0" stop-color="#be2edd" stop-opacity="0.2"/>
      <stop offset="1" stop-color="#1a1a1a" stop-opacity="0"/>
    </radialGradient>
    <radialGradient id="human-side" cx="0.22" cy="0.5" r="0.3">
      <stop offset="0" stop-color="#f59e0b" stop-opacity="0.12"/>
      <stop offset="1" stop-color="#1a1a1a" stop-opacity="0"/>
    </radialGradient>
    <radialGradient id="machine-side" cx="0.78" cy="0.5" r="0.3">
      <stop offset="0" stop-color="#3b82f6" stop-opacity="0.12"/>
      <stop offset="1" stop-color="#1a1a1a" stop-opacity="0"/>
    </radialGradient>
  </defs>
  <rect fill="#1a1a1a" width="2844" height="1600"/>
  <rect fill="url(#human-side)" width="2844" height="1600"/>
  <rect fill="url(#machine-side)" width="2844" height="1600"/>
  <rect fill="url(#overlap)" width="2844" height="1600"/>
  <g transform="rotate(-3 600 800)">
    <path d="M -100 -100 C 200 200, 500 400, 700 600 C 900 800, 1000 1000, 900 1200 C 800 1400, 500 1500, 200 1700" fill="none" stroke="url(#human)" stroke-width="200" stroke-linecap="round" opacity="0.08"/>
  </g>
  <g transform="rotate(3 2200 800)">
    <path d="M 2950 -100 C 2650 200, 2350 400, 2150 600 C 1950 800, 1850 1000, 1950 1200 C 2050 1400, 2350 1500, 2650 1700" fill="none" stroke="url(#machine)" stroke-width="200" stroke-linecap="round" opacity="0.08"/>
  </g>
  <g fill="none" stroke="#f59e0b" stroke-linecap="round" opacity="0.3">
    <path d="M 200 600 C 350 550, 500 560, 650 540 S 850 520, 950 550" stroke-width="3"/>
    <path d="M 180 700 C 330 650, 480 660, 630 640 S 830 620, 930 650" stroke-width="2.5"/>
    <path d="M 220 800 C 370 750, 520 760, 670 740 S 870 720, 970 750" stroke-width="2.5"/>
    <path d="M 200 900 C 350 850, 500 860, 650 840 S 850 820, 950 850" stroke-width="2"/>
    <path d="M 220 1000 C 370 950, 520 960, 670 940 S 870 920, 970 950" stroke-width="2"/>
  </g>
  <g fill="none" stroke="#3b82f6" stroke-linecap="round" opacity="0.3">
    <path d="M 1900 580 C 2050 540, 2200 550, 2350 530 S 2600 510, 2750 540" stroke-width="3"/>
    <path d="M 1920 680 C 2070 640, 2220 650, 2370 630 S 2620 610, 2770 640" stroke-width="2.5"/>
    <path d="M 1900 780 C 2050 740, 2200 750, 2350 730 S 2600 710, 2750 740" stroke-width="2.5"/>
    <path d="M 1920 880 C 2070 840, 2220 850, 2370 830 S 2620 810, 2770 840" stroke-width="2"/>
    <path d="M 1900 980 C 2050 940, 2200 950, 2350 930 S 2600 910, 2750 940" stroke-width="2"/>
    <path d="M 1920 1080 C 2070 1040, 2220 1050, 2370 1030 S 2620 1010, 2770 1040" stroke-width="2"/>
    <path d="M 1900 1180 C 2050 1140, 2200 1150, 2350 1130 S 2600 1110, 2750 1140" stroke-width="1.5"/>
  </g>
  <g transform="rotate(2 1422 800)">
    <path d="M 950 200 C 1050 400, 1100 600, 1100 800 C 1100 1000, 1050 1200, 950 1400" fill="none" stroke="#be2edd" stroke-width="4" stroke-linecap="round" opacity="0.4"/>
    <path d="M 1050 150 C 1150 350, 1200 570, 1200 800 C 1200 1030, 1150 1250, 1050 1450" fill="none" stroke="#be2edd" stroke-width="3" stroke-linecap="round" opacity="0.3"/>
    <path d="M 1750 150 C 1650 350, 1600 570, 1600 800 C 1600 1030, 1650 1250, 1750 1450" fill="none" stroke="#9b1fb8" stroke-width="4" stroke-linecap="round" opacity="0.4"/>
    <path d="M 1850 200 C 1750 400, 1700 600, 1700 800 C 1700 1000, 1750 1200, 1850 1400" fill="none" stroke="#9b1fb8" stroke-width="3" stroke-linecap="round" opacity="0.3"/>
  </g>
  <g fill="#be2edd" opacity="0.4">
    <circle cx="1200" cy="580" r="8"/>
    <circle cx="1300" cy="640" r="6"/>
    <circle cx="1422" cy="600" r="9"/>
    <circle cx="1550" cy="640" r="6"/>
    <circle cx="1640" cy="580" r="8"/>
    <circle cx="1250" cy="740" r="6"/>
    <circle cx="1380" cy="760" r="8"/>
    <circle cx="1500" cy="750" r="6"/>
    <circle cx="1600" cy="740" r="7"/>
    <circle cx="1200" cy="900" r="7"/>
    <circle cx="1350" cy="880" r="6"/>
    <circle cx="1480" cy="900" r="8"/>
    <circle cx="1620" cy="880" r="6"/>
    <circle cx="1250" cy="1040" r="6"/>
    <circle cx="1422" cy="1020" r="7"/>
    <circle cx="1580" cy="1040" r="6"/>
  </g>
  <g fill="#f59e0b" opacity="0.3">
    <circle cx="550" cy="640" r="9"/>
    <circle cx="700" cy="720" r="7"/>
    <circle cx="450" cy="800" r="8"/>
    <circle cx="650" cy="880" r="7"/>
    <circle cx="550" cy="960" r="9"/>
    <circle cx="750" cy="840" r="6"/>
    <circle cx="380" cy="700" r="7"/>
  </g>
  <g fill="#3b82f6" opacity="0.3">
    <circle cx="2200" cy="640" r="9"/>
    <circle cx="2050" cy="720" r="7"/>
    <circle cx="2300" cy="800" r="8"/>
    <circle cx="2100" cy="880" r="7"/>
    <circle cx="2200" cy="960" r="9"/>
    <circle cx="2000" cy="840" r="6"/>
    <circle cx="2380" cy="700" r="7"/>
    <circle cx="2150" cy="1040" r="8"/>
    <circle cx="2320" cy="1120" r="6"/>
  </g>
</svg>
