<svg xmlns="http://www.w3.org/2000/svg" viewBox="0 0 2844 1600">
  <defs>
    <linearGradient id="bufferGrad" x1="0%" y1="0%" x2="100%" y2="0%">
      <stop offset="0%" stop-color="#3b82f6" stop-opacity="0.6"/>
      <stop offset="100%" stop-color="#be2edd" stop-opacity="0.6"/>
    </linearGradient>
    <linearGradient id="readGrad" x1="0%" y1="0%" x2="100%" y2="0%">
      <stop offset="0%" stop-color="#3b82f6"/>
      <stop offset="100%" stop-color="#1a1a1a"/>
    </linearGradient>
    <linearGradient id="writeGrad" x1="0%" y1="0%" x2="100%" y2="0%">
      <stop offset="0%" stop-color="#1a1a1a"/>
      <stop offset="100%" stop-color="#f59e0b"/>
    </linearGradient>
    <radialGradient id="processGlow" cx="50%" cy="50%" r="50%">
      <stop offset="0%" stop-color="#be2edd" stop-opacity="0.45"/>
      <stop offset="100%" stop-color="#1a1a1a" stop-opacity="0"/>
    </radialGradient>
  </defs>
  <rect fill="#1a1a1a" width="2844" height="1600"/>
  <rect x="60" y="360" width="680" height="880" rx="18" fill="#1a1a1a" stroke="#3b82f6" stroke-width="3" opacity="0.8"/>
  <rect x="80" y="420" width="640" height="24" rx="6" fill="#3b82f6" opacity="0.3"/>
  <g opacity="0.6">
    <path d="M 80 500 C 140 460, 180 540, 240 480 S 300 420, 360 470 S 420 530, 480 480 S 540 420, 600 465 S 660 510, 720 480" stroke="#3b82f6" stroke-width="3" fill="none"/>
    <path d="M 80 560 C 130 520, 170 600, 230 540 S 290 480, 350 530 S 410 590, 470 540 S 530 480, 590 525 S 650 570, 720 540" stroke="#3b82f6" stroke-width="2.5" fill="none" opacity="0.8"/>
    <path d="M 80 620 C 150 580, 190 660, 250 600 S 310 540, 370 590 S 430 650, 490 600 S 550 540, 610 585 S 670 630, 720 600" stroke="#3b82f6" stroke-width="2" fill="none" opacity="0.6"/>
    <path d="M 80 680 C 120 640, 160 720, 220 660 S 280 600, 340 650 S 400 710, 460 660 S 520 600, 580 645 S 640 690, 720 660" stroke="#3b82f6" stroke-width="1.5" fill="none" opacity="0.4"/>
  </g>
  <rect x="80" y="720" width="640" height="60" rx="8" fill="#3b82f6" opacity="0.12"/>
  <rect x="80" y="800" width="640" height="200" rx="8" fill="#1a1a1a" stroke="#9b1fb8" stroke-width="2" opacity="0.7"/>
  <rect x="100" y="820" width="140" height="8" rx="4" fill="#9b1fb8" opacity="0.6"/>
  <rect x="100" y="840" width="600" height="6" rx="3" fill="#e0e0e0" opacity="0.25"/>
  <rect x="100" y="856" width="560" height="6" rx="3" fill="#e0e0e0" opacity="0.2"/>
  <rect x="100" y="872" width="580" height="6" rx="3" fill="#e0e0e0" opacity="0.2"/>
  <rect x="100" y="888" width="540" height="6" rx="3" fill="#9b1fb8" opacity="0.25"/>
  <rect x="100" y="904" width="560" height="6" rx="3" fill="#e0e0e0" opacity="0.2"/>
  <rect x="100" y="920" width="500" height="6" rx="3" fill="#e0e0e0" opacity="0.18"/>
  <rect x="60" y="1050" width="680" height="80" rx="12" fill="#3b82f6" opacity="0.15"/>
  <rect x="100" y="1068" width="600" height="12" rx="6" fill="#3b82f6" opacity="0.5"/>
  <rect x="100" y="1090" width="440" height="8" rx="4" fill="#3b82f6" opacity="0.3"/>
  <path d="M 740 800 L 900 800 L 900 800" stroke="#3b82f6" stroke-width="4" fill="none" marker-end="url(#arrow)" opacity="0.7"/>
  <line x1="740" y1="800" x2="940" y2="800" stroke="#3b82f6" stroke-width="4" opacity="0.7" stroke-dasharray="16 8"/>
  <ellipse cx="1422" cy="800" rx="380" ry="380" fill="url(#processGlow)"/>
  <circle cx="1422" cy="800" r="260" fill="#1a1a1a" stroke="#be2edd" stroke-width="4" opacity="0.95"/>
  <circle cx="1422" cy="800" r="180" fill="none" stroke="#be2edd" stroke-width="2" stroke-dasharray="12 8" opacity="0.5"/>
  <circle cx="1422" cy="800" r="100" fill="#be2edd" opacity="0.15"/>
  <path d="M 1340 800 C 1350 760, 1380 730, 1422 730 S 1494 760, 1504 800 S 1480 870, 1422 870 S 1350 840, 1340 800 Z" fill="#be2edd" opacity="0.5"/>
  <path d="M 960 800 C 960 800, 1100 800, 1160 800" stroke="#be2edd" stroke-width="4" fill="none" stroke-dasharray="16 8" opacity="0.6"/>
  <path d="M 1684 800 C 1740 800, 1860 800, 1900 800" stroke="#f59e0b" stroke-width="4" fill="none" stroke-dasharray="16 8" opacity="0.6"/>
  <rect x="2104" y="360" width="680" height="880" rx="18" fill="#1a1a1a" stroke="#f59e0b" stroke-width="3" opacity="0.8"/>
  <rect x="2124" y="420" width="640" height="24" rx="6" fill="#f59e0b" opacity="0.3"/>
  <g opacity="0.6">
    <path d="M 2124 500 C 2184 450, 2224 530, 2284 470 S 2344 410, 2404 460 S 2464 520, 2524 460 S 2584 390, 2644 440 S 2704 490, 2764 460" stroke="#f59e0b" stroke-width="3" fill="none"/>
    <path d="M 2124 560 C 2174 510, 2214 590, 2274 530 S 2334 470, 2394 520 S 2454 580, 2514 530 S 2574 470, 2634 515 S 2694 560, 2764 530" stroke="#f59e0b" stroke-width="2.5" fill="none" opacity="0.8"/>
    <path d="M 2124 620 C 2194 570, 2234 660, 2294 590 S 2354 520, 2414 580 S 2474 650, 2534 590 S 2594 520, 2654 575 S 2714 630, 2764 600" stroke="#f59e0b" stroke-width="2" fill="none" opacity="0.6"/>
    <path d="M 2124 660 C 2160 620, 2200 710, 2260 640 S 2320 560, 2380 620 S 2440 690, 2500 640 S 2560 570, 2620 625 S 2680 680, 2764 650" stroke="#f59e0b" stroke-width="3" fill="none" opacity="0.7"/>
  </g>
  <rect x="2124" y="720" width="640" height="60" rx="8" fill="#f59e0b" opacity="0.12"/>
  <rect x="2124" y="800" width="640" height="200" rx="8" fill="#1a1a1a" stroke="#f59e0b" stroke-width="2" opacity="0.7"/>
  <rect x="2144" y="820" width="140" height="8" rx="4" fill="#f59e0b" opacity="0.6"/>
  <rect x="2144" y="840" width="600" height="6" rx="3" fill="#e0e0e0" opacity="0.25"/>
  <rect x="2144" y="856" width="560" height="6" rx="3" fill="#e0e0e0" opacity="0.2"/>
  <rect x="2144" y="872" width="580" height="6" rx="3" fill="#e0e0e0" opacity="0.2"/>
  <rect x="2144" y="888" width="540" height="6" rx="3" fill="#f59e0b" opacity="0.25"/>
  <rect x="2144" y="904" width="560" height="6" rx="3" fill="#e0e0e0" opacity="0.2"/>
  <rect x="2124" y="1050" width="680" height="80" rx="12" fill="#f59e0b" opacity="0.15"/>
  <rect x="2164" y="1068" width="600" height="12" rx="6" fill="#f59e0b" opacity="0.5"/>
  <rect x="2164" y="1090" width="440" height="8" rx="4" fill="#f59e0b" opacity="0.3"/>
</svg>
