<svg xmlns="http://www.w3.org/2000/svg" viewBox="0 0 2844 1600">
  <defs>
    <linearGradient id="glow" x1="0" y1="0" x2="1" y2="1">
      <stop offset="0" stop-color="#9b1fb8"/>
      <stop offset="1" stop-color="#be2edd"/>
    </linearGradient>
    <linearGradient id="cool" x1="0" y1="0" x2="1" y2="1">
      <stop offset="0" stop-color="#3b82f6"/>
      <stop offset="1" stop-color="#9b1fb8"/>
    </linearGradient>
    <linearGradient id="warmth" x1="0" y1="1" x2="1" y2="0">
      <stop offset="0" stop-color="#be2edd"/>
      <stop offset="1" stop-color="#f59e0b"/>
    </linearGradient>
    <radialGradient id="haze" cx="0.5" cy="0.5" r="0.55">
      <stop offset="0" stop-color="#9b1fb8" stop-opacity="0.15"/>
      <stop offset="1" stop-color="#1a1a1a" stop-opacity="0"/>
    </radialGradient>
  </defs>
  <rect fill="#1a1a1a" width="2844" height="1600"/>
  <rect fill="url(#haze)" width="2844" height="1600"/>
  <g transform="translate(1422 800) rotate(-15)" opacity="0.18">
    <rect x="-600" y="-400" width="1200" height="800" rx="10" fill="none" stroke="#3b82f6" stroke-width="5"/>
    <rect x="-520" y="-340" width="1040" height="680" rx="8" fill="none" stroke="#3b82f6" stroke-width="2" opacity="0.5"/>
  </g>
  <g transform="translate(1422 800) rotate(-15)" opacity="0.12">
    <line x1="-600" y1="-300" x2="600" y2="-300" stroke="#3b82f6" stroke-width="1.5"/>
    <line x1="-600" y1="-200" x2="600" y2="-200" stroke="#3b82f6" stroke-width="1.5"/>
    <line x1="-600" y1="-100" x2="600" y2="-100" stroke="#3b82f6" stroke-width="1.5"/>
    <line x1="-600" y1="0" x2="600" y2="0" stroke="#3b82f6" stroke-width="1.5"/>
    <line x1="-600" y1="100" x2="600" y2="100" stroke="#3b82f6" stroke-width="1.5"/>
    <line x1="-600" y1="200" x2="600" y2="200" stroke="#3b82f6" stroke-width="1.5"/>
    <line x1="-600" y1="300" x2="600" y2="300" stroke="#3b82f6" stroke-width="1.5"/>
  </g>
  <g transform="translate(1422 800) rotate(-15)" opacity="0.25">
    <text x="-480" y="-270" font-family="monospace" font-size="48" fill="#be2edd" opacity="0.7">(define melody</text>
    <text x="-480" y="-170" font-family="monospace" font-size="48" fill="#3b82f6" opacity="0.6">  (lambda (t)</text>
    <text x="-480" y="-70" font-family="monospace" font-size="48" fill="#f59e0b" opacity="0.65">    (play 60 80 1)</text>
    <text x="-480" y="30" font-family="monospace" font-size="48" fill="#be2edd" opacity="0.55">    (callback (+ t *q*)</text>
    <text x="-480" y="130" font-family="monospace" font-size="48" fill="#3b82f6" opacity="0.5">      melody (+ t *q*))))</text>
    <text x="-480" y="230" font-family="monospace" font-size="48" fill="#e0e0e0" opacity="0.3">(melody (now))</text>
  </g>
  <g opacity="0.4">
    <path d="M 800 400 C 900 360, 980 340, 1060 350 C 1120 358, 1160 380, 1140 420" fill="none" stroke="#f59e0b" stroke-width="7" stroke-linecap="round"/>
    <path d="M 1140 420 C 1160 450, 1150 480, 1120 490 C 1090 500, 1060 490, 1050 470" fill="none" stroke="#f59e0b" stroke-width="7" stroke-linecap="round"/>
    <path d="M 1050 470 C 1040 458, 1040 445, 1050 440" fill="none" stroke="#f59e0b" stroke-width="7" stroke-linecap="round"/>
    <circle cx="1055" cy="490" r="8" fill="#f59e0b" opacity="0.8"/>
  </g>
  <g opacity="0.35">
    <path d="M 1700 350 C 1820 320, 1940 330, 2020 360 C 2080 382, 2100 420, 2080 460" fill="none" stroke="#be2edd" stroke-width="7" stroke-linecap="round"/>
    <path d="M 2080 460 C 2100 490, 2090 520, 2060 530 C 2030 540, 2000 530, 1990 510" fill="none" stroke="#be2edd" stroke-width="7" stroke-linecap="round"/>
    <circle cx="1994" cy="530" r="7" fill="#be2edd" opacity="0.8"/>
  </g>
  <g opacity="0.2">
    <circle cx="600" cy="1100" r="140" fill="url(#cool)"/>
    <circle cx="600" cy="1100" r="140" fill="none" stroke="#3b82f6" stroke-width="5"/>
    <circle cx="2250" cy="1000" r="120" fill="url(#glow)"/>
    <circle cx="2250" cy="1000" r="120" fill="none" stroke="#be2edd" stroke-width="5"/>
  </g>
  <path d="M -100 1430 C 400 1360, 900 1400, 1422 1330 S 2100 1260, 2900 1300 L 2900 1700 L -100 1700 Z" fill="url(#cool)" opacity="0.1"/>
</svg>
