<svg xmlns="http://www.w3.org/2000/svg" viewBox="0 0 2844 1600">
  <defs>
    <linearGradient id="oldSide" x1="0" y1="0" x2="1" y2="0">
      <stop offset="0%" stop-color="#9b1fb8"/>
      <stop offset="100%" stop-color="#9b1fb8" stop-opacity="0"/>
    </linearGradient>
    <linearGradient id="newSide" x1="0" y1="0" x2="1" y2="0">
      <stop offset="0%" stop-color="#f59e0b" stop-opacity="0"/>
      <stop offset="100%" stop-color="#f59e0b"/>
    </linearGradient>
    <linearGradient id="bridge" x1="0" y1="0" x2="1" y2="0">
      <stop offset="0%" stop-color="#9b1fb8"/>
      <stop offset="50%" stop-color="#3b82f6"/>
      <stop offset="100%" stop-color="#f59e0b"/>
    </linearGradient>
    <radialGradient id="midGlow" cx="50%" cy="50%" r="50%">
      <stop offset="0%" stop-color="#3b82f6" stop-opacity="0.3"/>
      <stop offset="100%" stop-color="#1a1a1a" stop-opacity="0"/>
    </radialGradient>
  </defs>
  <rect fill="#1a1a1a" width="2844" height="1600"/>
  <rect x="-20" y="-20" width="1500" height="1640" fill="url(#oldSide)" opacity="0.12"/>
  <rect x="1364" y="-20" width="1500" height="1640" fill="url(#newSide)" opacity="0.12"/>
  <ellipse cx="1422" cy="800" rx="600" ry="600" fill="url(#midGlow)"/>
  <g opacity="0.55">
    <path d="M100 300 C200 250, 400 350, 600 280 C800 210, 900 320, 950 250" fill="none" stroke="#9b1fb8" stroke-width="6" stroke-linecap="round"/>
    <path d="M100 420 C200 370, 400 470, 600 400 C800 330, 900 440, 950 370" fill="none" stroke="#9b1fb8" stroke-width="5" stroke-linecap="round"/>
    <path d="M100 540 C200 490, 400 590, 600 520 C800 450, 900 560, 950 490" fill="none" stroke="#9b1fb8" stroke-width="4" stroke-linecap="round"/>
    <path d="M100 660 C200 610, 400 710, 600 640 C800 570, 900 680, 950 610" fill="none" stroke="#9b1fb8" stroke-width="5" stroke-linecap="round"/>
    <path d="M100 780 C200 730, 400 830, 600 760 C800 690, 900 800, 950 730" fill="none" stroke="#9b1fb8" stroke-width="4" stroke-linecap="round"/>
  </g>
  <g opacity="0.55">
    <path d="M1890 320 C2000 260, 2200 360, 2400 290 C2600 220, 2700 330, 2750 260" fill="none" stroke="#f59e0b" stroke-width="6" stroke-linecap="round"/>
    <path d="M1890 480 C2000 420, 2200 520, 2400 450 C2600 380, 2700 490, 2750 420" fill="none" stroke="#f59e0b" stroke-width="5" stroke-linecap="round"/>
    <path d="M1890 640 C2000 580, 2200 680, 2400 610 C2600 540, 2700 650, 2750 580" fill="none" stroke="#f59e0b" stroke-width="4" stroke-linecap="round"/>
    <path d="M1890 800 C2000 740, 2200 840, 2400 770 C2600 700, 2700 810, 2750 740" fill="none" stroke="#f59e0b" stroke-width="5" stroke-linecap="round"/>
    <path d="M1890 960 C2000 900, 2200 1000, 2400 930 C2600 860, 2700 970, 2750 900" fill="none" stroke="#f59e0b" stroke-width="4" stroke-linecap="round"/>
  </g>
  <g opacity="0.7">
    <path d="M900 800 C1050 720, 1200 750, 1350 780 C1500 810, 1700 740, 1900 800" fill="none" stroke="url(#bridge)" stroke-width="18" stroke-linecap="round"/>
    <path d="M920 840 C1070 780, 1220 800, 1370 820 C1520 840, 1720 780, 1900 840" fill="none" stroke="url(#bridge)" stroke-width="10" stroke-linecap="round" opacity="0.6"/>
  </g>
  <g opacity="0.8">
    <circle cx="1422" cy="800" r="55" fill="#3b82f6"/>
    <circle cx="1422" cy="800" r="85" fill="none" stroke="#3b82f6" stroke-width="5" opacity="0.5"/>
  </g>
  <g opacity="0.3">
    <path d="M0 1100 C300 1050, 600 1150, 950 1080" fill="none" stroke="#9b1fb8" stroke-width="30" stroke-linecap="round"/>
    <path d="M0 1250 C300 1200, 600 1300, 950 1230" fill="none" stroke="#9b1fb8" stroke-width="20" stroke-linecap="round"/>
    <path d="M0 1380 C300 1330, 600 1430, 950 1360" fill="none" stroke="#9b1fb8" stroke-width="14" stroke-linecap="round"/>
    <path d="M1890 1100 C2100 1050, 2400 1150, 2850 1080" fill="none" stroke="#f59e0b" stroke-width="30" stroke-linecap="round"/>
    <path d="M1890 1250 C2100 1200, 2400 1300, 2850 1230" fill="none" stroke="#f59e0b" stroke-width="20" stroke-linecap="round"/>
    <path d="M1890 1380 C2100 1330, 2400 1430, 2850 1360" fill="none" stroke="#f59e0b" stroke-width="14" stroke-linecap="round"/>
  </g>
</svg>
