<svg xmlns="http://www.w3.org/2000/svg" viewBox="0 0 2844 1600">
  <defs>
    <linearGradient id="web" x1="0" y1="0" x2="1" y2="1">
      <stop offset="0" stop-color="#be2edd"/>
      <stop offset="1" stop-color="#3b82f6"/>
    </linearGradient>
    <linearGradient id="warm" x1="0" y1="1" x2="1" y2="0">
      <stop offset="0" stop-color="#f59e0b"/>
      <stop offset="1" stop-color="#be2edd"/>
    </linearGradient>
    <radialGradient id="hub-glow" cx="0.5" cy="0.5" r="0.4">
      <stop offset="0" stop-color="#be2edd" stop-opacity="0.18"/>
      <stop offset="1" stop-color="#1a1a1a" stop-opacity="0"/>
    </radialGradient>
  </defs>
  <rect fill="#1a1a1a" width="2844" height="1600"/>
  <rect fill="url(#hub-glow)" width="2844" height="1600"/>
  <g transform="rotate(4 1422 800)">
    <path d="M -100 600 C 400 450, 900 500, 1422 520 S 2100 540, 2600 480 C 2800 460, 2950 450, 2980 430 L 2980 1800 L -100 1800 Z" fill="url(#web)" opacity="0.06"/>
  </g>
  <g fill="none" stroke="#be2edd" stroke-linecap="round" opacity="0.2">
    <path d="M 1422 800 C 1100 600, 800 480, 500 420" stroke-width="1.5"/>
    <path d="M 1422 800 C 1050 700, 720 650, 380 680" stroke-width="1.5"/>
    <path d="M 1422 800 C 1100 900, 800 980, 480 1050" stroke-width="1.5"/>
    <path d="M 1422 800 C 1200 1050, 1050 1280, 900 1500" stroke-width="1.5"/>
    <path d="M 1422 800 C 1422 1050, 1380 1300, 1300 1550" stroke-width="1.5"/>
    <path d="M 1422 800 C 1700 1000, 1900 1200, 2050 1450" stroke-width="1.5"/>
    <path d="M 1422 800 C 1750 900, 2050 960, 2380 1020" stroke-width="1.5"/>
    <path d="M 1422 800 C 1780 700, 2100 620, 2450 560" stroke-width="1.5"/>
    <path d="M 1422 800 C 1700 620, 1950 480, 2200 300" stroke-width="1.5"/>
    <path d="M 1422 800 C 1400 560, 1350 320, 1280 80" stroke-width="1.5"/>
    <path d="M 1422 800 C 1200 560, 1000 360, 760 180" stroke-width="1.5"/>
  </g>
  <circle cx="1422" cy="800" r="36" fill="#be2edd" opacity="0.35"/>
  <circle cx="1422" cy="800" r="20" fill="#be2edd" opacity="0.6"/>
  <circle cx="1422" cy="800" r="80" fill="none" stroke="#be2edd" stroke-width="2" opacity="0.15"/>
  <circle cx="1422" cy="800" r="160" fill="none" stroke="#9b1fb8" stroke-width="1.5" opacity="0.08"/>
  <circle cx="1422" cy="800" r="300" fill="none" stroke="#3b82f6" stroke-width="1" opacity="0.06"/>
  <g fill="#f59e0b" opacity="0.45">
    <circle cx="500" cy="420" r="12"/>
    <circle cx="380" cy="680" r="10"/>
    <circle cx="480" cy="1050" r="12"/>
    <circle cx="900" cy="1500" r="9"/>
    <circle cx="1300" cy="1550" r="10"/>
    <circle cx="2050" cy="1450" r="12"/>
    <circle cx="2380" cy="1020" r="10"/>
    <circle cx="2450" cy="560" r="12"/>
    <circle cx="2200" cy="300" r="9"/>
    <circle cx="1280" cy="80" r="10"/>
    <circle cx="760" cy="180" r="12"/>
  </g>
  <g fill="#3b82f6" opacity="0.35">
    <circle cx="800" cy="480" r="8"/>
    <circle cx="720" cy="650" r="7"/>
    <circle cx="800" cy="980" r="8"/>
    <circle cx="1050" cy="1280" r="7"/>
    <circle cx="1380" cy="1300" r="8"/>
    <circle cx="1900" cy="1200" r="7"/>
    <circle cx="2050" cy="960" r="8"/>
    <circle cx="2100" cy="620" r="7"/>
    <circle cx="1950" cy="480" r="8"/>
    <circle cx="1350" cy="320" r="7"/>
    <circle cx="1000" cy="360" r="8"/>
  </g>
  <g fill="none" stroke="#f59e0b" stroke-linecap="round" opacity="0.12">
    <path d="M 500 420 C 650 460, 760 500, 800 480" stroke-width="1"/>
    <path d="M 380 680 C 520 670, 640 660, 720 650" stroke-width="1"/>
    <path d="M 800 480 C 900 560, 950 620, 1000 660" stroke-width="1"/>
    <path d="M 2450 560 C 2300 580, 2200 600, 2100 620" stroke-width="1"/>
    <path d="M 2380 1020 C 2250 1000, 2150 980, 2050 960" stroke-width="1"/>
  </g>
  <g transform="rotate(3 400 800)">
    <path d="M -100 1000 C 200 900, 550 850, 850 870 S 1300 910, 1600 880 C 1850 855, 2100 810, 2350 830 S 2700 870, 2950 850 L 2950 1800 L -100 1800 Z" fill="url(#warm)" opacity="0.05"/>
  </g>
</svg>
