<svg xmlns="http://www.w3.org/2000/svg" viewBox="0 0 2844 1600">
  <defs>
    <radialGradient id="sourceGlow" cx="0.18" cy="0.5" r="0.35">
      <stop offset="0" stop-color="#f59e0b" stop-opacity="0.4"/>
      <stop offset="1" stop-color="#1a1a1a" stop-opacity="0"/>
    </radialGradient>
    <radialGradient id="spreadGlow" cx="0.75" cy="0.5" r="0.45">
      <stop offset="0" stop-color="#3b82f6" stop-opacity="0.12"/>
      <stop offset="1" stop-color="#1a1a1a" stop-opacity="0"/>
    </radialGradient>
    <linearGradient id="streamA" x1="0" y1="0" x2="1" y2="0">
      <stop offset="0" stop-color="#f59e0b"/>
      <stop offset="1" stop-color="#be2edd"/>
    </linearGradient>
    <linearGradient id="streamB" x1="0" y1="0" x2="1" y2="0">
      <stop offset="0" stop-color="#f59e0b"/>
      <stop offset="1" stop-color="#3b82f6"/>
    </linearGradient>
    <linearGradient id="streamC" x1="0" y1="0" x2="1" y2="0">
      <stop offset="0" stop-color="#f59e0b"/>
      <stop offset="1" stop-color="#9b1fb8"/>
    </linearGradient>
  </defs>
  <rect fill="#1a1a1a" width="2844" height="1600"/>
  <rect fill="url(#sourceGlow)" width="2844" height="1600"/>
  <rect fill="url(#spreadGlow)" width="2844" height="1600"/>
  <g opacity="0.5" fill="none" stroke-linecap="round">
    <path d="M 350 800 C 600 750, 900 580, 1200 380 C 1500 190, 1900 100, 2300 50 C 2560 20, 2750 60, 2944 40" stroke="url(#streamA)" stroke-width="6"/>
    <path d="M 350 800 C 620 780, 950 700, 1280 600 C 1600 510, 2000 440, 2400 420 C 2650 410, 2800 430, 2944 420" stroke="url(#streamB)" stroke-width="5"/>
    <path d="M 350 800 C 640 800, 980 800, 1320 800 C 1660 800, 2050 800, 2400 800 C 2660 800, 2820 800, 2944 800" stroke="url(#streamA)" stroke-width="7"/>
    <path d="M 350 800 C 620 820, 950 900, 1280 1000 C 1600 1090, 2000 1160, 2400 1180 C 2650 1190, 2800 1170, 2944 1180" stroke="url(#streamB)" stroke-width="5"/>
    <path d="M 350 800 C 600 850, 900 1020, 1200 1220 C 1500 1410, 1900 1500, 2300 1550 C 2560 1580, 2750 1540, 2944 1560" stroke="url(#streamC)" stroke-width="6"/>
  </g>
  <g opacity="0.28" fill="none" stroke-linecap="round">
    <path d="M 350 800 C 550 720, 780 560, 1000 420 C 1200 290, 1500 180, 1800 110" stroke="url(#streamA)" stroke-width="3"/>
    <path d="M 350 800 C 560 820, 800 880, 1060 960 C 1280 1030, 1580 1120, 1900 1200" stroke="url(#streamC)" stroke-width="3"/>
    <path d="M 350 800 C 500 680, 700 520, 920 380" stroke="url(#streamB)" stroke-width="2"/>
    <path d="M 350 800 C 500 920, 700 1080, 920 1220" stroke="url(#streamA)" stroke-width="2"/>
  </g>
  <g opacity="0.65">
    <circle cx="350" cy="800" r="40" fill="#f59e0b"/>
    <circle cx="350" cy="800" r="65" fill="none" stroke="#f59e0b" stroke-width="4"/>
    <circle cx="350" cy="800" r="100" fill="none" stroke="#f59e0b" stroke-width="2" opacity="0.4"/>
  </g>
  <g opacity="0.7" fill="#be2edd">
    <circle cx="2300" cy="50" r="16"/>
    <circle cx="2400" cy="420" r="18"/>
    <circle cx="2400" cy="800" r="20"/>
    <circle cx="2400" cy="1180" r="18"/>
    <circle cx="2300" cy="1550" r="16"/>
  </g>
  <g opacity="0.5" fill="#3b82f6">
    <circle cx="1800" cy="110" r="13"/>
    <circle cx="2050" cy="440" r="12"/>
    <circle cx="2050" cy="800" r="14"/>
    <circle cx="2050" cy="1160" r="12"/>
    <circle cx="1800" cy="1490" r="13"/>
  </g>
  <g opacity="0.38" fill="#f59e0b">
    <circle cx="1200" cy="380" r="10"/>
    <circle cx="1320" cy="600" r="9"/>
    <circle cx="1320" cy="800" r="11"/>
    <circle cx="1320" cy="1000" r="9"/>
    <circle cx="1200" cy="1220" r="10"/>
  </g>
  <g opacity="0.12" fill="none" stroke="#e0e0e0">
    <path d="M 200 -100 C 280 300, 240 600, 280 900 C 310 1100, 380 1300, 300 1700" stroke-width="140" stroke-linecap="round"/>
  </g>
</svg>
