<svg xmlns="http://www.w3.org/2000/svg" viewBox="0 0 2844 1600">
  <defs>
    <linearGradient id="bg" x1="0" y1="0" x2="1" y2="1">
      <stop offset="0%" stop-color="#1a1a1a"/>
      <stop offset="100%" stop-color="#1a1a1a"/>
    </linearGradient>
    <linearGradient id="pipe1" x1="0" y1="0" x2="1" y2="0">
      <stop offset="0%" stop-color="#3b82f6"/>
      <stop offset="100%" stop-color="#be2edd"/>
    </linearGradient>
    <linearGradient id="pipe2" x1="0" y1="0" x2="1" y2="0">
      <stop offset="0%" stop-color="#be2edd"/>
      <stop offset="100%" stop-color="#f59e0b"/>
    </linearGradient>
    <linearGradient id="pipe3" x1="0" y1="0" x2="1" y2="0">
      <stop offset="0%" stop-color="#f59e0b"/>
      <stop offset="100%" stop-color="#3b82f6"/>
    </linearGradient>
    <linearGradient id="glow1" x1="0" y1="0" x2="0" y2="1">
      <stop offset="0%" stop-color="#be2edd" stop-opacity="0.3"/>
      <stop offset="100%" stop-color="#be2edd" stop-opacity="0"/>
    </linearGradient>
  </defs>
  <rect fill="#1a1a1a" width="2844" height="1600"/>
  <g opacity="0.12">
    <path d="M-100 300 C400 280, 900 400, 1400 320 S2200 200, 2950 350" fill="none" stroke="#3b82f6" stroke-width="80"/>
    <path d="M-100 500 C400 480, 900 600, 1400 520 S2200 400, 2950 550" fill="none" stroke="#be2edd" stroke-width="80"/>
    <path d="M-100 700 C400 680, 900 800, 1400 720 S2200 600, 2950 750" fill="none" stroke="#f59e0b" stroke-width="80"/>
  </g>
  <g>
    <path d="M-80 420 C300 380, 700 460, 1100 400 S1700 320, 2100 440 S2500 380, 2950 420" fill="none" stroke="url(#pipe1)" stroke-width="18" stroke-linecap="round"/>
    <path d="M-80 580 C350 540, 750 640, 1150 560 S1750 480, 2150 600 S2550 540, 2950 580" fill="none" stroke="url(#pipe2)" stroke-width="14" stroke-linecap="round"/>
    <path d="M-80 740 C400 700, 800 820, 1200 720 S1800 640, 2200 760 S2600 700, 2950 740" fill="none" stroke="url(#pipe3)" stroke-width="10" stroke-linecap="round"/>
  </g>
  <g>
    <rect x="180" y="320" width="260" height="180" rx="18" fill="#1a1a1a" stroke="#3b82f6" stroke-width="5"/>
    <path d="M180 350 L310 435 L440 350" fill="none" stroke="#3b82f6" stroke-width="5"/>
    <rect x="680" y="480" width="260" height="180" rx="18" fill="#1a1a1a" stroke="#be2edd" stroke-width="5"/>
    <path d="M680 510 L810 595 L940 510" fill="none" stroke="#be2edd" stroke-width="5"/>
    <rect x="1180" y="360" width="260" height="180" rx="18" fill="#1a1a1a" stroke="#f59e0b" stroke-width="5"/>
    <path d="M1180 390 L1310 475 L1440 390" fill="none" stroke="#f59e0b" stroke-width="5"/>
    <rect x="1680" y="500" width="260" height="180" rx="18" fill="#1a1a1a" stroke="#3b82f6" stroke-width="5"/>
    <path d="M1680 530 L1810 615 L1940 530" fill="none" stroke="#3b82f6" stroke-width="5"/>
    <rect x="2180" y="380" width="260" height="180" rx="18" fill="#1a1a1a" stroke="#be2edd" stroke-width="5"/>
    <path d="M2180 410 L2310 495 L2440 410" fill="none" stroke="#be2edd" stroke-width="5"/>
  </g>
  <g opacity="0.6">
    <circle cx="460" cy="420" r="22" fill="#3b82f6"/>
    <circle cx="960" cy="560" r="22" fill="#be2edd"/>
    <circle cx="1460" cy="440" r="22" fill="#f59e0b"/>
    <circle cx="1960" cy="580" r="22" fill="#3b82f6"/>
    <circle cx="2460" cy="460" r="22" fill="#be2edd"/>
  </g>
  <g opacity="0.25">
    <path d="M400 900 C600 860, 900 960, 1200 880 C1500 800, 1800 920, 2100 860 C2400 800, 2700 880, 2950 840" fill="none" stroke="#9b1fb8" stroke-width="6"/>
    <path d="M200 1000 C500 960, 800 1060, 1100 980 C1400 900, 1700 1020, 2000 960 C2300 900, 2600 980, 2950 940" fill="none" stroke="#9b1fb8" stroke-width="4"/>
    <path d="M0 1100 C400 1060, 700 1160, 1000 1080 C1300 1000, 1600 1120, 1900 1060 C2200 1000, 2500 1080, 2950 1040" fill="none" stroke="#9b1fb8" stroke-width="3"/>
  </g>
  <rect x="0" y="1200" width="2844" height="400" fill="url(#glow1)" opacity="0.4"/>
  <g opacity="0.5">
    <path d="M750 1100 C800 1060, 900 1140, 950 1100" fill="none" stroke="#e0e0e0" stroke-width="3"/>
    <path d="M1350 1050 C1400 1010, 1500 1090, 1550 1050" fill="none" stroke="#e0e0e0" stroke-width="3"/>
    <path d="M1950 1120 C2000 1080, 2100 1160, 2150 1120" fill="none" stroke="#e0e0e0" stroke-width="3"/>
  </g>
</svg>
