<svg xmlns="http://www.w3.org/2000/svg" viewBox="0 0 2844 1600">
  <defs>
    <linearGradient id="gridA" x1="0" y1="0" x2="1" y2="0">
      <stop offset="0" stop-color="#3b82f6"/>
      <stop offset="1" stop-color="#be2edd"/>
    </linearGradient>
    <linearGradient id="gridB" x1="0" y1="0" x2="0" y2="1">
      <stop offset="0" stop-color="#be2edd"/>
      <stop offset="1" stop-color="#9b1fb8"/>
    </linearGradient>
    <linearGradient id="typeFill" x1="0" y1="0" x2="1" y2="1">
      <stop offset="0" stop-color="#f59e0b"/>
      <stop offset="1" stop-color="#be2edd"/>
    </linearGradient>
    <linearGradient id="typeFill2" x1="0" y1="0" x2="1" y2="0">
      <stop offset="0" stop-color="#3b82f6"/>
      <stop offset="1" stop-color="#9b1fb8"/>
    </linearGradient>
    <linearGradient id="warp" x1="0" y1="0" x2="0" y2="1">
      <stop offset="0" stop-color="#9b1fb8" stop-opacity="0"/>
      <stop offset="1" stop-color="#9b1fb8" stop-opacity="0.6"/>
    </linearGradient>
  </defs>
  <rect fill="#1a1a1a" width="2844" height="1600"/>
  <g opacity="0.15">
    <path d="M 0 200 C 200 190, 400 210, 600 200 S 800 190, 1000 200 S 1200 210, 1400 200 S 1600 190, 1800 200 S 2000 210, 2200 200 S 2400 190, 2600 200 S 2800 210, 2844 200" stroke="#3b82f6" stroke-width="1" fill="none"/>
    <path d="M 0 400 C 200 388, 400 412, 600 400 S 800 388, 1000 400 S 1200 412, 1400 400 S 1600 388, 1800 400 S 2000 412, 2200 400 S 2400 388, 2600 400 S 2800 412, 2844 400" stroke="#3b82f6" stroke-width="1" fill="none"/>
    <path d="M 0 600 C 200 585, 400 615, 600 600 S 800 585, 1000 600 S 1200 615, 1400 600 S 1600 585, 1800 600 S 2000 615, 2200 600 S 2400 585, 2600 600 S 2800 615, 2844 600" stroke="#9b1fb8" stroke-width="1" fill="none"/>
    <path d="M 0 800 C 200 782, 400 818, 600 800 S 800 782, 1000 800 S 1200 818, 1400 800 S 1600 782, 1800 800 S 2000 818, 2200 800 S 2400 782, 2600 800 S 2800 818, 2844 800" stroke="#9b1fb8" stroke-width="1" fill="none"/>
    <path d="M 0 1000 C 200 979, 400 1021, 600 1000 S 800 979, 1000 1000 S 1200 1021, 1400 1000 S 1600 979, 1800 1000 S 2000 1021, 2200 1000 S 2400 979, 2600 1000 S 2800 1021, 2844 1000" stroke="#3b82f6" stroke-width="1" fill="none"/>
    <path d="M 0 1200 C 200 1176, 400 1224, 600 1200 S 800 1176, 1000 1200 S 1200 1224, 1400 1200 S 1600 1176, 1800 1200 S 2000 1224, 2200 1200 S 2400 1176, 2600 1200 S 2800 1224, 2844 1200" stroke="#3b82f6" stroke-width="1" fill="none"/>
    <path d="M 0 1400 C 200 1373, 400 1427, 600 1400 S 800 1373, 1000 1400 S 1200 1427, 1400 1400 S 1600 1373, 1800 1400 S 2000 1427, 2200 1400 S 2400 1373, 2600 1400 S 2800 1427, 2844 1400" stroke="#9b1fb8" stroke-width="1" fill="none"/>
  </g>
  <g opacity="0.12">
    <path d="M 200 0 C 190 200, 210 400, 200 600 S 188 800, 200 1000 S 212 1200, 200 1400 S 188 1600, 200 1700" stroke="#be2edd" stroke-width="1" fill="none"/>
    <path d="M 600 0 C 588 200, 612 400, 600 600 S 586 800, 600 1000 S 614 1200, 600 1400 S 586 1600, 600 1700" stroke="#be2edd" stroke-width="1" fill="none"/>
    <path d="M 1000 0 C 986 200, 1014 400, 1000 600 S 984 800, 1000 1000 S 1016 1200, 1000 1400 S 984 1600, 1000 1700" stroke="#be2edd" stroke-width="1" fill="none"/>
    <path d="M 1400 0 C 1384 200, 1416 400, 1400 600 S 1382 800, 1400 1000 S 1418 1200, 1400 1400 S 1382 1600, 1400 1700" stroke="#be2edd" stroke-width="1" fill="none"/>
    <path d="M 1800 0 C 1782 200, 1818 400, 1800 600 S 1780 800, 1800 1000 S 1820 1200, 1800 1400 S 1780 1600, 1800 1700" stroke="#be2edd" stroke-width="1" fill="none"/>
    <path d="M 2200 0 C 2180 200, 2220 400, 2200 600 S 2178 800, 2200 1000 S 2222 1200, 2200 1400 S 2178 1600, 2200 1700" stroke="#be2edd" stroke-width="1" fill="none"/>
    <path d="M 2600 0 C 2578 200, 2622 400, 2600 600 S 2576 800, 2600 1000 S 2624 1200, 2600 1400 S 2576 1600, 2600 1700" stroke="#be2edd" stroke-width="1" fill="none"/>
  </g>
  <g transform="translate(400 300) rotate(-3 800 500)">
    <path d="M 0 0 C 100 -40, 260 -20, 400 0 S 660 20, 800 0 S 1100 -30, 1200 0 S 1400 20, 1600 0 L 1600 700 C 1400 720, 1200 700, 1000 720 S 800 740, 600 720 S 400 700, 200 720 S 0 740, 0 700 Z" fill="url(#typeFill)" opacity="0.45"/>
  </g>
  <g transform="translate(600 700) rotate(4 700 300)">
    <path d="M 0 0 C 80 -30, 200 -10, 320 0 S 540 10, 700 0 S 940 -20, 1100 0 S 1300 10, 1400 0 L 1400 500 C 1200 515, 1000 500, 800 515 S 600 530, 400 515 S 200 500, 0 515 Z" fill="url(#typeFill2)" opacity="0.38"/>
  </g>
  <g transform="translate(200 900) rotate(-2 900 300)">
    <path d="M 0 0 C 120 -25, 300 -5, 480 0 S 760 8, 940 0 S 1180 -15, 1380 0 S 1600 8, 1800 0 L 1800 400 C 1600 410, 1400 400, 1200 410 S 1000 420, 800 410 S 600 400, 400 410 S 200 420, 0 410 Z" fill="url(#gridA)" opacity="0.3"/>
  </g>
  <path d="M -100 1400 C 400 1260, 900 1360, 1422 1320 S 2000 1220, 2444 1300 S 2744 1380, 2944 1300 L 2944 1700 L -100 1700 Z" fill="url(#warp)" opacity="0.7"/>
  <g opacity="0.5">
    <rect x="560" y="430" width="340" height="60" rx="6" fill="#f59e0b" opacity="0.7"/>
    <rect x="560" y="530" width="220" height="40" rx="4" fill="#e0e0e0" opacity="0.3"/>
    <rect x="560" y="590" width="280" height="40" rx="4" fill="#e0e0e0" opacity="0.25"/>
    <rect x="960" y="730" width="280" height="55" rx="6" fill="#be2edd" opacity="0.6"/>
    <rect x="960" y="820" width="180" height="35" rx="4" fill="#e0e0e0" opacity="0.25"/>
    <rect x="760" y="1000" width="320" height="55" rx="6" fill="#3b82f6" opacity="0.55"/>
  </g>
</svg>
