<svg xmlns="http://www.w3.org/2000/svg" viewBox="0 0 2844 1600">
  <defs>
    <radialGradient id="eyeGlow" cx="50%" cy="50%" r="50%">
      <stop offset="0" stop-color="#f59e0b"/>
      <stop offset="0.4" stop-color="#be2edd"/>
      <stop offset="0.8" stop-color="#9b1fb8"/>
      <stop offset="1" stop-color="#1a1a1a" stop-opacity="0"/>
    </radialGradient>
    <linearGradient id="arcane" x1="0" y1="0" x2="1" y2="1">
      <stop offset="0" stop-color="#3b82f6"/>
      <stop offset="0.5" stop-color="#be2edd"/>
      <stop offset="1" stop-color="#9b1fb8"/>
    </linearGradient>
    <linearGradient id="circuit" x1="0" y1="0" x2="1" y2="0">
      <stop offset="0" stop-color="#3b82f6"/>
      <stop offset="1" stop-color="#f59e0b"/>
    </linearGradient>
    <linearGradient id="mist" x1="0" y1="0" x2="0" y2="1">
      <stop offset="0" stop-color="#9b1fb8" stop-opacity="0"/>
      <stop offset="1" stop-color="#9b1fb8" stop-opacity="0.5"/>
    </linearGradient>
  </defs>
  <rect fill="#1a1a1a" width="2844" height="1600"/>
  <circle cx="1422" cy="800" r="1100" fill="url(#eyeGlow)" opacity="0.3"/>
  <g transform="rotate(-4 1422 800)">
    <path d="M -200 1500 C 300 1300, 700 1400, 1100 1350 S 1700 1250, 2100 1320 S 2600 1400, 3044 1300 L 3044 1700 L -200 1700 Z" fill="url(#mist)" opacity="0.8"/>
  </g>
  <g transform="rotate(3 1422 800)" opacity="0.3">
    <circle cx="1422" cy="800" r="600" fill="none" stroke="#be2edd" stroke-width="1"/>
    <circle cx="1422" cy="800" r="500" fill="none" stroke="#3b82f6" stroke-width="1"/>
    <circle cx="1422" cy="800" r="400" fill="none" stroke="#9b1fb8" stroke-width="1.5"/>
    <circle cx="1422" cy="800" r="300" fill="none" stroke="#be2edd" stroke-width="1.5"/>
  </g>
  <g transform="rotate(15 1422 800)" opacity="0.25">
    <path d="M 1422 200 L 1422 1400" stroke="#3b82f6" stroke-width="1"/>
    <path d="M 822 500 L 2022 1100" stroke="#3b82f6" stroke-width="1"/>
    <path d="M 822 1100 L 2022 500" stroke="#3b82f6" stroke-width="1"/>
    <path d="M 400 800 L 2444 800" stroke="#3b82f6" stroke-width="1"/>
  </g>
  <path d="M 922 800 C 922 570, 1150 420, 1422 420 S 1922 570, 1922 800 S 1694 1180, 1422 1180 S 922 1030, 922 800 Z" fill="none" stroke="url(#arcane)" stroke-width="3" opacity="0.7"/>
  <ellipse cx="1422" cy="800" rx="500" ry="200" fill="#1a1a1a" opacity="0.8"/>
  <path d="M 922 800 C 1100 680, 1260 700, 1422 720 S 1744 680, 1922 800 C 1744 920, 1584 900, 1422 880 S 1100 920, 922 800 Z" fill="url(#arcane)" opacity="0.6"/>
  <ellipse cx="1422" cy="800" rx="80" ry="80" fill="#f59e0b" opacity="0.9"/>
  <ellipse cx="1422" cy="800" rx="45" ry="45" fill="#1a1a1a" opacity="1"/>
  <g opacity="0.5">
    <path d="M 600 400 L 650 400 L 650 450 M 700 380 L 750 380 L 750 430" stroke="#3b82f6" stroke-width="2" fill="none"/>
    <path d="M 600 1200 L 650 1200 L 650 1150 M 700 1220 L 750 1220 L 750 1170" stroke="#3b82f6" stroke-width="2" fill="none"/>
    <path d="M 2100 400 L 2150 400 L 2150 450 M 2200 380 L 2250 380 L 2250 430" stroke="#f59e0b" stroke-width="2" fill="none"/>
    <path d="M 2100 1200 L 2150 1200 L 2150 1150 M 2200 1220 L 2250 1220 L 2250 1170" stroke="#f59e0b" stroke-width="2" fill="none"/>
  </g>
  <g opacity="0.35">
    <path d="M 600 600 C 800 580, 900 620, 1000 600 S 1100 560, 1200 600" stroke="#be2edd" stroke-width="1.5" fill="none"/>
    <path d="M 1622 600 C 1822 580, 1922 620, 2022 600 S 2122 560, 2222 600" stroke="#be2edd" stroke-width="1.5" fill="none"/>
    <path d="M 600 1000 C 800 980, 900 1020, 1000 1000 S 1100 960, 1200 1000" stroke="#be2edd" stroke-width="1.5" fill="none"/>
    <path d="M 1622 1000 C 1822 980, 1922 1020, 2022 1000 S 2122 960, 2222 1000" stroke="#be2edd" stroke-width="1.5" fill="none"/>
  </g>
</svg>
