<svg xmlns="http://www.w3.org/2000/svg" viewBox="0 0 2844 1600">
  <defs>
    <linearGradient id="waveGrad" x1="0%" y1="50%" x2="100%" y2="50%">
      <stop offset="0%" stop-color="#3b82f6"/>
      <stop offset="50%" stop-color="#be2edd"/>
      <stop offset="100%" stop-color="#f59e0b"/>
    </linearGradient>
    <linearGradient id="codeGrad" x1="0%" y1="0%" x2="100%" y2="0%">
      <stop offset="0%" stop-color="#3b82f6" stop-opacity="0.8"/>
      <stop offset="100%" stop-color="#3b82f6" stop-opacity="0"/>
    </linearGradient>
    <linearGradient id="soundGrad" x1="0%" y1="0%" x2="100%" y2="0%">
      <stop offset="0%" stop-color="#f59e0b" stop-opacity="0"/>
      <stop offset="100%" stop-color="#f59e0b" stop-opacity="0.8"/>
    </linearGradient>
    <radialGradient id="transformGlow" cx="50%" cy="50%" r="50%">
      <stop offset="0%" stop-color="#be2edd" stop-opacity="0.5"/>
      <stop offset="100%" stop-color="#1a1a1a" stop-opacity="0"/>
    </radialGradient>
  </defs>
  <rect fill="#1a1a1a" width="2844" height="1600"/>
  <g opacity="0.5">
    <rect x="80" y="360" width="180" height="14" rx="7" fill="#3b82f6" opacity="0.7"/>
    <rect x="80" y="390" width="240" height="10" rx="5" fill="#3b82f6" opacity="0.5"/>
    <rect x="100" y="416" width="200" height="10" rx="5" fill="#9b1fb8" opacity="0.5"/>
    <rect x="100" y="438" width="260" height="10" rx="5" fill="#3b82f6" opacity="0.4"/>
    <rect x="100" y="460" width="220" height="10" rx="5" fill="#9b1fb8" opacity="0.4"/>
    <rect x="100" y="482" width="180" height="10" rx="5" fill="#3b82f6" opacity="0.35"/>
    <rect x="80" y="508" width="240" height="10" rx="5" fill="#3b82f6" opacity="0.4"/>
    <rect x="80" y="530" width="200" height="14" rx="7" fill="#3b82f6" opacity="0.6"/>
    <rect x="80" y="560" width="260" height="10" rx="5" fill="#9b1fb8" opacity="0.4"/>
    <rect x="100" y="582" width="200" height="10" rx="5" fill="#3b82f6" opacity="0.35"/>
    <rect x="100" y="604" width="240" height="10" rx="5" fill="#9b1fb8" opacity="0.35"/>
    <rect x="80" y="630" width="220" height="10" rx="5" fill="#3b82f6" opacity="0.3"/>
  </g>
  <path d="M 500 800 C 560 800, 580 600, 640 600 S 700 800, 760 800 S 820 600, 880 600 S 940 800, 1000 800" stroke="#3b82f6" stroke-width="4" fill="none" opacity="0.6"/>
  <ellipse cx="1200" cy="800" rx="160" ry="160" fill="url(#transformGlow)"/>
  <circle cx="1200" cy="800" r="100" fill="#1a1a1a" stroke="#be2edd" stroke-width="3" opacity="0.9"/>
  <path d="M 1165 800 L 1185 770 L 1205 800 L 1225 770 L 1240 800" stroke="#be2edd" stroke-width="5" fill="none" stroke-linejoin="round"/>
  <path d="M 1380 800 C 1440 800, 1460 660, 1520 620 S 1580 700, 1620 640 S 1680 560, 1740 620 S 1800 700, 1860 660 S 1920 560, 1980 620 S 2040 720, 2100 680 S 2160 600, 2220 660 S 2280 760, 2340 720 S 2400 640, 2460 700 S 2520 780, 2580 740 S 2640 660, 2700 700 S 2760 780, 2844 760" stroke="#f59e0b" stroke-width="6" fill="none" opacity="0.7"/>
  <path d="M 1380 800 C 1440 800, 1460 900, 1520 940 S 1580 860, 1620 920 S 1680 1000, 1740 940 S 1800 860, 1860 900 S 1920 980, 1980 940 S 2040 860, 2100 900 S 2160 980, 2220 940 S 2280 860, 2340 900 S 2400 960, 2460 920 S 2520 860, 2580 900 S 2640 960, 2700 920 S 2760 860, 2844 880" stroke="#f59e0b" stroke-width="4" fill="none" opacity="0.4"/>
  <path d="M 500 800 C 560 800, 580 1000, 640 1000 S 700 800, 760 800 S 820 1000, 880 1000 S 940 800, 1000 800" stroke="#3b82f6" stroke-width="4" fill="none" opacity="0.4"/>
  <line x1="1100" y1="800" x2="1280" y2="800" stroke="#e0e0e0" stroke-width="2" opacity="0.3" stroke-dasharray="8 6"/>
  <line x1="1310" y1="800" x2="1380" y2="800" stroke="#e0e0e0" stroke-width="2" opacity="0.3" stroke-dasharray="8 6"/>
</svg>
