<?xml version="1.0" encoding="UTF-8" standalone="no"?>
<svg xmlns="http://www.w3.org/2000/svg" xmlns:xlink="http://www.w3.org/1999/xlink" version="1.1" width="560" height="245">
 <defs>
  <radialGradient id="g" gradientUnits="objectBoundingBox">
   <stop stop-color="#f0f0f0" offset="0"/>
   <stop stop-color="#c0c0c0" offset="1"/>
  </radialGradient>
  <symbol id="c" viewBox="0 0 235 235">
  	<circle cx="117.5" cy="117.5" r="117.5" fill="#383838"/>
  	<circle cx="117.5" cy="117.5" r="105.5" fill="#c1c1c1"/>
  	<path d="M18.5,117.50H216.5M117.5,18.5V216.5M18.5,117.5z" stroke="#000" stroke-width="2"/>
  	<circle cx="117.5" cy="117.5" r="91.5" fill="url(#g)"/>
  	<circle cx="117.5" cy="117.5" r="7.5" fill="#525252"/>
  	<text font-family="sans-serif" font-size="20px" text-anchor="start" x="32" y="123.5" fill="#00316f">9</text>
  	<text font-family="sans-serif" font-size="20px" text-anchor="end" x="203" y="123.5" fill="#00316f">3</text>
  	<text font-family="sans-serif" font-size="20px" text-anchor="middle" x="117.5" y="48" fill="#00316f">0</text>
  	<text font-family="sans-serif" font-size="20px" text-anchor="middle" x="117.5" y="200" fill="#00316f">6</text>
  </symbol>
  <symbol id="h" viewBox="0 0 64 24">
  	<rect y="9" width="50" height="6" rx="3" ry="3"/>
  	<path d="M45,0V24L64,12z"/>
  </symbol>
 </defs>
 <g transform="translate(5 5)">
  <use xlink:href="#c" width="235" height="235"/>
  <use xlink:href="#h" fill="#525252" width="64" height="24" transform="translate(117.5 105.5) rotate(180 0 12)"/>
 </g>
 <g transform="translate(320 5)">
  <use xlink:href="#c" width="235" height="235"/>
  <use xlink:href="#h" fill="#525252" width="64" height="24" transform="translate(117.5 105.5) rotate(-60 0 12)"/>
 </g>
 <use xlink:href="#h" fill="#000" width="64" height="24" transform="translate(250 102.5) scale(1 2)"/>
 <text font-family="sans-serif" font-size="24" text-anchor="middle" x="280" y="90" fill="#00316f">+ 4 h</text>
</svg>