<svg class="marks" width="142" height="107" viewBox="0 0 142 107" version="1.1" xmlns="http://www.w3.org/2000/svg" xmlns:xlink="http://www.w3.org/1999/xlink"><g transform="translate(36,10)"><g class="mark-group role-frame root"><g transform="translate(0,0)"><path class="background" d="M0.5,0.5h100v60h-100Z" style="fill: none; stroke: #ddd;"></path><g><g class="mark-group role-axis"><g transform="translate(0.5,60.5)"><path class="background" d="M0,0h0v0h0Z" style="pointer-events: none; fill: none;"></path><g><g class="mark-rule role-axis-grid" style="pointer-events: none;"><line transform="translate(0,-60)" x2="0" y2="60" style="fill: none; stroke: #ddd; stroke-width: 1; opacity: 1;"></line><line transform="translate(50,-60)" x2="0" y2="60" style="fill: none; stroke: #ddd; stroke-width: 1; opacity: 1;"></line><line transform="translate(100,-60)" x2="0" y2="60" style="fill: none; stroke: #ddd; stroke-width: 1; opacity: 1;"></line></g></g></g></g><g class="mark-group role-axis"><g transform="translate(0.5,0.5)"><path class="background" d="M0,0h0v0h0Z" style="pointer-events: none; fill: none;"></path><g><g class="mark-rule role-axis-grid" style="pointer-events: none;"><line transform="translate(0,60)" x2="100" y2="0" style="fill: none; stroke: #ddd; stroke-width: 1; opacity: 1;"></line><line transform="translate(0,30)" x2="100" y2="0" style="fill: none; stroke: #ddd; stroke-width: 1; opacity: 1;"></line><line transform="translate(0,0)" x2="100" y2="0" style="fill: none; stroke: #ddd; stroke-width: 1; opacity: 1;"></line></g></g></g></g><g class="mark-line role-mark marks"><path d="M0,30L1,24.039920076148164L2,18.317449730740485L3,13.060725798148944L4,8.479317273014317L5,4.755870455763102L6,2.0388274209832105L7.000000000000001,0.43650810034619525L8,0.012791908754849146L9,0.7845710736541491L10,2.7210771952295474L11,5.7451078854122954L12,9.736104583465469L13,14.534958845356073L14.000000000000002,19.950355495322846L15,25.76639975820399L16,31.751224302827403L17,37.66623306080494L18,43.27561329884557L19,48.35573672828157L20,52.70407485923785L21,56.147273172407644L22,58.54806221668548L23,59.810730109003934L24,59.88493826507522L25,58.767728239894154L26,56.503639671604596L27,53.18293462667961L28.000000000000004,48.93799913616965L28.999999999999996,43.93806538241272L30,38.382464945967776L31,32.492682084524894L32,26.503523854485188L33,20.653759094598662L34,15.176599465841754L35,10.290402038436326L36,6.1899640845254L37,3.0387571256511947L38,0.962409839055411L39,0.04369963876185068L40,0.31925260129854394L41,1.7780832996068057L42,4.362032757351585L43,7.9680870637765935L44,12.452484213247153L45,17.636445442747302L46,23.31330257699257L47,29.256737236399264L48,35.22980343668939L49,40.99437387755785L50,46.3206333266811L51,50.99624062780627L52,54.83479407256961L53,57.6832626483842L54,59.428086901994746L55.00000000000001,59.9997061965211L56.00000000000001,59.37533187453952L56.99999999999999,57.57985576994027L57.99999999999999,54.68485784906127L59,50.80575254331367L60,46.097187540013046L61,40.746878467104864L62,34.96812526344928L63,28.9913085833659L64,23.05470524695383L65,17.39498889520077L66,12.237794558783307L67,7.788723301426543L68,4.225145554305122L69,1.6891299166768547L70,0.2817793291538919L71,0.0592004185091497L72,1.0302667035216757L73,3.1562648357848744L74,6.352437978740511L75,10.491364795286493L76,15.408039334386011L77,20.90644929762893L78,26.76739043101668L79,32.757205506830445L80,38.63709949995196L81,44.17265959195399L82,49.14320047043842L83,53.35056235602896L84,56.627011007445134L85,58.8419247563867L86,59.90700198124788L87,59.77978141411899L88,58.465334937543716L89,56.01606538456744L90,52.52961740315028L91,48.14498467218852L92,43.0369686621569L93,37.40920985209863L94,31.48606922635102L95,25.50368371011143L96,19.700552135403143L97,14.308027045269107L98,9.541091397955931L99,5.589787874786843" style="fill: none; stroke: #4c78a8; stroke-width: 2;"></path></g><g class="mark-group role-axis"><g transform="translate(0.5,60.5)"><path class="background" d="M0,0h0v0h0Z" style="pointer-events: none; fill: none;"></path><g><g class="mark-rule role-axis-tick" style="pointer-events: none;"><line transform="translate(0,0)" x2="0" y2="5" style="fill: none; stroke: #888; stroke-width: 1; opacity: 1;"></line><line transform="translate(50,0)" x2="0" y2="5" style="fill: none; stroke: #888; stroke-width: 1; opacity: 1;"></line><line transform="translate(100,0)" x2="0" y2="5" style="fill: none; stroke: #888; stroke-width: 1; opacity: 1;"></line></g><g class="mark-text role-axis-label" style="pointer-events: none;"><text text-anchor="start" transform="translate(0,15)" style="font-family: sans-serif; font-size: 10px; fill: #000; opacity: 1;">0</text><text text-anchor="middle" transform="translate(50,15)" style="font-family: sans-serif; font-size: 10px; fill: #000; opacity: 1;">50</text><text text-anchor="end" transform="translate(100,15)" style="font-family: sans-serif; font-size: 10px; fill: #000; opacity: 1;">100</text></g><g class="mark-rule role-axis-domain" style="pointer-events: none;"><line transform="translate(0,0)" x2="100" y2="0" style="fill: none; stroke: #888; stroke-width: 1; opacity: 1;"></line></g><g class="mark-text role-axis-title" style="pointer-events: none;"><text text-anchor="middle" transform="translate(50,30)" style="font-family: sans-serif; font-size: 11px; font-weight: bold; fill: #000; opacity: 1;">x</text></g></g></g></g><g class="mark-group role-axis"><g transform="translate(0.5,0.5)"><path class="background" d="M0,0h0v0h0Z" style="pointer-events: none; fill: none;"></path><g><g class="mark-rule role-axis-tick" style="pointer-events: none;"><line transform="translate(0,60)" x2="-5" y2="0" style="fill: none; stroke: #888; stroke-width: 1; opacity: 1;"></line><line transform="translate(0,30)" x2="-5" y2="0" style="fill: none; stroke: #888; stroke-width: 1; opacity: 1;"></line><line transform="translate(0,0)" x2="-5" y2="0" style="fill: none; stroke: #888; stroke-width: 1; opacity: 1;"></line></g><g class="mark-text role-axis-label" style="pointer-events: none;"><text text-anchor="end" transform="translate(-7,63)" style="font-family: sans-serif; font-size: 10px; fill: #000; opacity: 1;">-1</text><text text-anchor="end" transform="translate(-7,33)" style="font-family: sans-serif; font-size: 10px; fill: #000; opacity: 1;">0</text><text text-anchor="end" transform="translate(-7,3)" style="font-family: sans-serif; font-size: 10px; fill: #000; opacity: 1;">1</text></g><g class="mark-rule role-axis-domain" style="pointer-events: none;"><line transform="translate(0,60)" x2="0" y2="-60" style="fill: none; stroke: #888; stroke-width: 1; opacity: 1;"></line></g><g class="mark-text role-axis-title" style="pointer-events: none;"><text text-anchor="middle" transform="translate(-19.8916015625,30) rotate(-90) translate(0,-2)" style="font-family: sans-serif; font-size: 11px; font-weight: bold; fill: #000; opacity: 1;">f(x)</text></g></g></g></g></g></g></g></g></svg>