<svg height="600" width="960" xmlns="http://www.w3.org/2000/svg"><text fill="#5254a3" transform="matrix(.5 .8660254 -.8660254 .5 287 406)"/><g font-family="Impact" text-anchor="middle"><text fill="#6b6ecf" font-size="100" transform="matrix(.8660254 -.5 .5 .8660254 324 362)">labs</text><text fill="#9c9ede" font-size="79" transform="matrix(.5 .8660254 -.8660254 .5 344 205)">assignments</text><text fill="#637939" font-size="57" transform="matrix(.8660254 -.5 .5 .8660254 647 450)">exam</text><text fill="#8ca252" font-size="40" transform="matrix(.8660254 -.5 .5 .8660254 654 282)">feedback</text><text fill="#cedb9c" font-size="10" transform="translate(456 256)">coding</text><text fill="#e7ba52" font-size="10" transform="matrix(.5 .8660254 -.8660254 .5 350 252)">forum</text><text fill="#6b6ecf" font-size="10" transform="translate(422 189)">practicals</text><text fill="#8ca252" font-size="10" transform="matrix(.8660254 -.5 .5 .8660254 550 307)">hardware</text><text fill="#b5cf6b" font-size="40" transform="matrix(.5 .8660254 -.8660254 .5 756 334)">interactive</text><text fill="#8c6d31" font-size="10" transform="matrix(.5 .8660254 -.8660254 .5 402 414)">handson</text><text fill="#bd9e39" font-size="10" transform="matrix(.8660254 .5 -.5 .8660254 578 423)">activities</text><text fill="#8c6d31" font-size="10" transform="matrix(.5 -.8660254 .8660254 .5 428 431)">assignment</text><text fill="#e7cb94" font-size="10" transform="matrix(.8660254 .5 -.5 .8660254 435 232)">multiple</text><text fill="#ad494a" font-size="10" transform="matrix(.5 -.8660254 .8660254 .5 697 210)">fresh</text><text fill="#d6616b" font-size="10" transform="matrix(.8660254 -.5 .5 .8660254 289 417)">air</text><text fill="#e7969c" font-size="10" transform="matrix(.8660254 .5 -.5 .8660254 304 192)">student</text><text fill="#7b4173" font-size="10" transform="matrix(.8660254 .5 -.5 .8660254 440 221)">interactions</text><text fill="#a55194" font-size="10" transform="matrix(.8660254 .5 -.5 .8660254 706 324)">workshops</text><text fill="#ce6dbd" font-size="10" transform="matrix(.5 -.8660254 .8660254 .5 519 167)">lectures</text><text fill="#de9ed6" font-size="10" transform="translate(412 161)">assessments</text><text fill="#393b79" font-size="10" transform="translate(702 179)">aligned</text><text fill="#5254a3" font-size="10" transform="matrix(.5 -.8660254 .8660254 .5 242 170)">LOs</text><text fill="#9c9ede" font-size="10" transform="matrix(.8660254 -.5 .5 .8660254 500 267)">practical</text><text fill="#637939" font-size="10" transform="matrix(.5 -.8660254 .8660254 .5 500 171)">skills</text><text fill="#b5cf6b" font-size="10" transform="matrix(.8660254 .5 -.5 .8660254 459 216)">technical</text><text fill="#cedb9c" font-size="10" transform="matrix(.5 -.8660254 .8660254 .5 535 165)">stuff</text></g></svg>