<svg height="600" width="960" xmlns="http://www.w3.org/2000/svg"><text fill="#5254a3" transform="matrix(.5 .8660254 -.8660254 .5 635 240)"/><g font-family="Impact" text-anchor="middle"><text fill="#637939" font-size="71" transform="matrix(.8660254 -.5 .5 .8660254 357 400)">exam</text><text fill="#ce6dbd" font-size="100" transform="translate(494 325)">lectures</text><text fill="#de9ed6" font-size="71" transform="matrix(.5 -.8660254 .8660254 .5 625 416)">SELT</text><text fill="#393b79" font-size="48" transform="matrix(.5 .8660254 -.8660254 .5 260 469)">homework</text><text fill="#5254a3" font-size="48" transform="matrix(.8660254 .5 -.5 .8660254 471 443)">cheating</text><text fill="#b5cf6b" font-size="10" transform="matrix(.5 -.8660254 .8660254 .5 325 442)">deadlines</text><text fill="#a55194" font-size="10" transform="matrix(.5 .8660254 -.8660254 .5 394 422)">marks</text><text fill="#5254a3" font-size="10" transform="matrix(.8660254 .5 -.5 .8660254 309 353)">shaming</text><text fill="#6b6ecf" font-size="10" transform="matrix(.5 -.8660254 .8660254 .5 639 215)">breadth</text><text fill="#9c9ede" font-size="10" transform="matrix(.5 -.8660254 .8660254 .5 690 204)">Wattle</text><text fill="#637939" font-size="10" transform="matrix(.5 -.8660254 .8660254 .5 682 268)">theory</text><text fill="#b5cf6b" font-size="10" transform="matrix(.5 -.8660254 .8660254 .5 441 337)">rules</text><text fill="#6b6ecf" font-size="10" transform="matrix(.8660254 .5 -.5 .8660254 342 437)">lack</text><text fill="#637939" font-size="10" transform="matrix(.5 .8660254 -.8660254 .5 328 228)">mark</text><text fill="#8ca252" font-size="10" transform="translate(382 206)">appeals</text><text fill="#cedb9c" font-size="10" transform="matrix(.5 .8660254 -.8660254 .5 306 316)">midsem</text><text fill="#8c6d31" font-size="10" transform="translate(385 405)">past</text><text fill="#bd9e39" font-size="10" transform="translate(490 199)">papers</text><text fill="#e7ba52" font-size="10" transform="translate(500 361)">big</text><text fill="#e7cb94" font-size="10" transform="matrix(.5 -.8660254 .8660254 .5 278 326)">classes</text><text fill="#843c39" font-size="10" transform="matrix(.8660254 .5 -.5 .8660254 700 223)">4pm</text><text fill="#ad494a" font-size="10" transform="matrix(.8660254 -.5 .5 .8660254 424 249)">Academy</text><text fill="#d6616b" font-size="10" transform="matrix(.5 .8660254 -.8660254 .5 695 392)">lecture</text><text fill="#e7969c" font-size="10" transform="matrix(.8660254 .5 -.5 .8660254 679 403)">attendance</text><text fill="#7b4173" font-size="10" transform="matrix(.8660254 -.5 .5 .8660254 292 231)">space</text><text fill="#ce6dbd" font-size="10" transform="translate(490 404)">dropins</text><text fill="#8ca252" font-size="10" transform="translate(275 298)">feedback</text><text fill="#de9ed6" font-size="10" transform="matrix(.8660254 .5 -.5 .8660254 468 454)">group</text><text fill="#393b79" font-size="10" transform="matrix(.8660254 -.5 .5 .8660254 691 286)">work</text><text fill="#8ca252" font-size="10" transform="matrix(.5 .8660254 -.8660254 .5 709 179)">synchronous</text><text fill="#9c9ede" font-size="10" transform="translate(510 183)">content</text></g></svg>